2300 0 1 0           
19 Example Application 12 ACIS 23.0 NT 24 Thu Nov 26 09:44:56 2015 
1 9.9999999999999995e-007 1e-010 
-0 body $1 -1 -1 $-1 $2 $-1 $-1 T 17.780000000000008 -23.950240237083619 0 32.4739 -9.2563402370836307 4.0640000000000001 #
-1 name_attrib-gen-attrib $-1 -1 $-1 $-1 $0 2 1 1 1 1 1 1 1 1 1 1 1 1 1 0 1 1 1 @19 match part for bolt #
-2 lump $3 -1 -1 $-1 $-1 $4 $0 T 17.780000000000008 -23.950240237083619 0 32.4739 -9.2563402370836307 4.0640000000000001 #
-3 rgb_color-st-attrib $-1 -1 $-1 $-1 $2 2 1 2 1 1 1 1 1 1 1 1 1 1 1 0 1 1 1 0.792156862745098 0.81960784313725488 0.93333333333333335 #
-4 shell $-1 -1 -1 $-1 $-1 $-1 $5 $-1 $2 T 17.780000000000008 -23.950240237083619 0 32.4739 -9.2563402370836307 4.0640000000000001 #
-5 face $6 -1 -1 $-1 $7 $8 $4 $-1 $9 reversed single T 23.177500000000006 -21.638840237083627 0 30.162500000000005 -18.146340237083628 4.0640000000000001 F #
-6 integer_attrib-name_attrib-gen-attrib $-1 -1 $-1 $-1 $5 2 1 2 1 1 1 1 1 1 1 1 1 1 1 0 1 1 1 @17 基体零件-master-1 0 #
-7 face $10 -1 -1 $-1 $11 $12 $4 $-1 $13 forward single T 17.780000000000008 -23.631654558914398 0 26.670000000000005 -9.2563402370836307 4.0640000000000001 F #
-8 loop $-1 -1 -1 $-1 $-1 $14 $5 T 23.177500000000006 -21.638840237083627 0 30.162500000000005 -18.146340237083628 4.0640000000000001 periphery $9 T #
-9 cone-surface $-1 -1 -1 $-1 26.670000000000005 -18.146340237083628 4.0640000000000001 -0 -0 -1 -3.4924999999999993 0 0 1 I I 0 1 3.4924999999999993 forward I I I I #
-10 integer_attrib-name_attrib-gen-attrib $-1 -1 $-1 $-1 $7 2 1 2 1 1 1 1 1 1 1 1 1 1 1 0 1 1 1 @17 基体零件-master-1 0 #
-11 face $15 -1 -1 $-1 $16 $17 $4 $-1 $18 forward single T 26.670000000000005 -9.512717058026805 0 28.789587413166192 -9.2563402370836307 4.0640000000000001 F #
-12 loop $-1 -1 -1 $-1 $-1 $19 $7 T 17.780000000000008 -23.631654558914398 0 26.670000000000005 -9.2563402370836307 4.0640000000000001 periphery $13 F #
-13 cone-surface $-1 -1 -1 $-1 26.670000000000005 -18.146340237083628 4.0640000000000001 0 -8.5370249802008228e-016 -1 0 8.889999999999997 -7.8062556418956319e-015 1 I I 0 1 8.889999999999997 forward I I I I #
-14 coedge $-1 -1 -1 $-1 $20 $21 $22 $23 reversed $8 $-1 #
-15 integer_attrib-name_attrib-gen-attrib $-1 -1 $-1 $-1 $11 2 1 2 1 1 1 1 1 1 1 1 1 1 1 0 1 1 1 @17 基体零件-master-1 0 #
-16 face $24 -1 -1 $-1 $25 $26 $4 $-1 $27 reversed single T 17.780000000000008 -23.950240237083619 0 32.4739 -9.2563402370836343 0 F #
-17 loop $-1 -1 -1 $-1 $-1 $28 $11 T 26.670000000000005 -9.512717058026805 0 28.789587413166192 -9.2563402370836307 4.0640000000000001 periphery $18 F #
-18 cone-surface $-1 -1 -1 $-1 26.670000000000005 -18.146340237083628 4.0640000000000001 0 -8.5370249802008228e-016 -1 0 8.889999999999997 -7.8062556418956319e-015 1 I I 0 1 8.889999999999997 forward I I I I #
-19 coedge $-1 -1 -1 $-1 $29 $30 $31 $32 reversed $12 $-1 #
-20 coedge $-1 -1 -1 $-1 $33 $14 $34 $35 forward $8 $-1 #
-21 coedge $-1 -1 -1 $-1 $14 $33 $36 $37 reversed $8 $-1 #
-22 coedge $-1 -1 -1 $-1 $38 $38 $14 $23 forward $39 $-1 #
-23 edge $-1 -1 -1 $-1 $40 -3.1415926535897931 $41 0 $22 $42 forward @7 unknown T 23.177500000000006 -21.638840237083627 4.0640000000000001 30.162500000000005 -18.146340237083628 4.0640000000000001 #
-24 integer_attrib-name_attrib-gen-attrib $-1 -1 $-1 $-1 $16 2 1 2 1 1 1 1 1 1 1 1 1 1 1 0 1 1 1 @17 基体零件-master-1 0 #
-25 face $43 -1 -1 $-1 $44 $45 $4 $-1 $46 reversed single T 28.789587413166192 -14.944709618274912 0 31.510952033506072 -9.5127170580267926 4.0640000000000001 F #
-26 loop $-1 -1 -1 $-1 $47 $48 $16 T 23.177500000000006 -21.638840237083627 0 30.162500000000005 -14.653840237083628 0 hole $27 T #
-27 plane-surface $-1 -1 -1 $-1 10.956281428512467 32.224357142683751 0 0 0 1 1000 0 0 forward_v I I I I #
-28 coedge $-1 -1 -1 $-1 $49 $50 $29 $51 reversed $17 $-1 #
-29 coedge $-1 -1 -1 $-1 $52 $19 $28 $51 forward $12 $-1 #
-30 coedge $-1 -1 -1 $-1 $19 $52 $53 $54 reversed $12 $-1 #
-31 coedge $-1 -1 -1 $-1 $55 $56 $19 $32 forward $57 $-1 #
-32 edge $-1 -1 -1 $-1 $58 -1.5707963267948966 $59 0.66495120401554009 $31 $60 forward @7 unknown T 17.780000000000008 -23.631654558914395 4.0640000000000001 26.670000000000005 -9.2563402370836325 4.0640000000000001 #
-33 coedge $-1 -1 -1 $-1 $21 $20 $61 $62 forward $8 $-1 #
-34 coedge $-1 -1 -1 $-1 $63 $64 $20 $35 reversed $65 $-1 #
-35 edge $-1 -1 -1 $-1 $40 -0 $66 0.0040639999999999999 $20 $67 forward @7 unknown T 30.162500000000005 -18.146340237083628 0 30.162500000000005 -18.146340237083628 4.0640000000000001 #
-36 coedge $-1 -1 -1 $-1 $64 $63 $21 $37 forward $65 $-1 #
-37 edge $-1 -1 -1 $-1 $41 -0 $68 0.0040639999999999999 $36 $69 forward @7 unknown T 23.177500000000006 -18.146340237083628 0 23.177500000000006 -18.146340237083628 4.0640000000000001 #
-38 coedge $-1 -1 -1 $-1 $22 $22 $63 $70 forward $39 $-1 #
-39 loop $-1 -1 -1 $-1 $-1 $38 $71 T 23.177500000000006 -21.638840237083627 4.0640000000000001 30.162500000000005 -14.653840237083628 4.0640000000000001 hole $72 F #
-40 vertex $-1 -1 -1 $-1 $35 $73 #
-41 vertex $-1 -1 -1 $-1 $23 $74 #
-42 ellipse-curve $-1 -1 -1 $-1 26.670000000000005 -18.146340237083628 4.0640000000000001 -0 -0 -1 -3.4924999999999993 0 0 1 I I #
-43 integer_attrib-name_attrib-gen-attrib $-1 -1 $-1 $-1 $25 2 1 2 1 1 1 1 1 1 1 1 1 1 1 0 1 1 1 @17 基体零件-master-1 0 #
-44 face $75 -1 -1 $-1 $71 $76 $4 $-1 $77 forward single T 26.400801283123339 -23.950240237083619 0 32.4739 -14.944709618274908 4.0640000000000001 F #
-45 loop $-1 -1 -1 $-1 $-1 $78 $25 T 28.789587413166192 -14.944709618274912 0 31.510952033506072 -9.5127170580267926 4.0640000000000001 periphery $46 T #
-46 cone-surface $-1 -1 -1 $-1 52.696737738127808 -0.93319706331334784 4.0640000000000001 -0 -0 -1 -25.400000000000006 0 0 1 I I 0 1 25.400000000000006 forward I I I I #
-47 loop $-1 -1 -1 $-1 $-1 $79 $16 T 17.780000000000008 -23.950240237083619 0 32.4739 -9.2563402370836343 0 periphery $27 T #
-48 coedge $-1 -1 -1 $-1 $61 $61 $64 $80 reversed $26 $-1 #
-49 coedge $-1 -1 -1 $-1 $81 $28 $56 $82 reversed $17 $-1 #
-50 coedge $-1 -1 -1 $-1 $28 $81 $83 $84 reversed $17 $-1 #
-51 edge $-1 -1 -1 $-1 $58 -7.9936057773011249e-018 $85 0.0040639999999999921 $29 $86 forward @7 unknown T 26.670000000000005 -9.2563402370836343 0 26.670000000000005 -9.2563402370836307 4.0640000000000001 #
-52 coedge $-1 -1 -1 $-1 $30 $29 $87 $88 reversed $12 $-1 #
-53 coedge $-1 -1 -1 $-1 $89 $90 $30 $54 forward $91 $-1 #
-54 edge $-1 -1 -1 $-1 $59 0 $92 0.0040639999999999999 $53 $93 forward @7 unknown T 19.674042110567118 -23.631654558914398 0 19.674042110567122 -23.631654558914395 4.0640000000000001 #
-55 coedge $-1 -1 -1 $-1 $94 $31 $90 $95 forward $57 $-1 #
-56 coedge $-1 -1 -1 $-1 $31 $96 $49 $82 forward $57 $-1 #
-57 loop $-1 -1 -1 $-1 $39 $55 $71 T 17.780000000000008 -23.950240237083619 4.0640000000000001 32.4739 -9.2563402370836325 4.0640000000000001 periphery $72 F #
-58 vertex $-1 -1 -1 $-1 $51 $97 #
-59 vertex $-1 -1 -1 $-1 $32 $98 #
-60 ellipse-curve $-1 -1 -1 $-1 26.670000000000005 -18.146340237083628 4.0640000000000001 0 0 1 -8.8899999999999952 0 0 1 I I #
-61 coedge $-1 -1 -1 $-1 $48 $48 $33 $62 reversed $26 $-1 #
-62 edge $-1 -1 -1 $-1 $66 -3.1415926535897931 $68 0 $33 $99 forward @7 unknown T 23.177500000000006 -21.638840237083627 0 30.162500000000005 -18.146340237083628 0 #
-63 coedge $-1 -1 -1 $-1 $36 $34 $38 $70 reversed $65 $-1 #
-64 coedge $-1 -1 -1 $-1 $34 $36 $48 $80 forward $65 $-1 #
-65 loop $-1 -1 -1 $-1 $-1 $34 $100 T 23.177500000000006 -18.146340237083628 0 30.162500000000005 -14.653840237083628 4.0640000000000001 periphery $101 T #
-66 vertex $-1 -1 -1 $-1 $35 $102 #
-67 straight-curve $-1 -1 -1 $-1 30.162500000000005 -18.146340237083628 4.0640000000000001 -0 -0 -1000 I I #
-68 vertex $-1 -1 -1 $-1 $62 $103 #
-69 straight-curve $-1 -1 -1 $-1 23.177500000000006 -18.146340237083628 4.0640000000000001 -0 -0 -1000 I I #
-70 edge $-1 -1 -1 $-1 $41 0 $40 3.1415926535897931 $38 $104 forward @7 unknown T 23.177500000000006 -18.146340237083628 4.0640000000000001 30.162500000000005 -14.653840237083628 4.0640000000000001 #
-71 face $105 -1 -1 $-1 $106 $57 $4 $-1 $72 forward single T 17.780000000000008 -23.950240237083619 4.0640000000000001 32.4739 -9.2563402370836325 4.0640000000000001 F #
-72 plane-surface $-1 -1 -1 $-1 10.956281428512467 32.224357142683751 4.0640000000000001 0 0 1 1000 0 0 forward_v I I I I #
-73 point $-1 -1 -1 $-1 30.162500000000005 -18.146340237083628 4.0640000000000001 #
-74 point $-1 -1 -1 $-1 23.177500000000006 -18.146340237083628 4.0640000000000001 #
-75 integer_attrib-name_attrib-gen-attrib $-1 -1 $-1 $-1 $44 2 1 2 1 1 1 1 1 1 1 1 1 1 1 0 1 1 1 @17 基体零件-master-1 0 #
-76 loop $-1 -1 -1 $-1 $-1 $107 $44 T 26.400801283123339 -23.950240237083619 0 32.4739 -14.944709618274908 4.0640000000000001 periphery $77 F #
-77 cone-surface $-1 -1 -1 $-1 26.670000000000005 -18.146340237083628 4.0640000000000001 -0 -0 -1 -5.8038999999999934 0 0 1 I I 0 1 5.8038999999999934 forward I I I I #
-78 coedge $-1 -1 -1 $-1 $108 $109 $110 $111 forward $45 $-1 #
-79 coedge $-1 -1 -1 $-1 $87 $112 $89 $113 reversed $47 $-1 #
-80 edge $-1 -1 -1 $-1 $68 0 $66 3.1415926535897931 $64 $114 forward @7 unknown T 23.177500000000006 -18.146340237083628 0 30.162500000000005 -14.653840237083628 0 #
-81 coedge $-1 -1 -1 $-1 $50 $49 $108 $115 reversed $17 $-1 #
-82 edge $-1 -1 -1 $-1 $116 -1.8115388285709706 $58 -1.5707963267949054 $56 $117 forward @7 unknown T 26.670000000000005 -9.5127170580267979 4.0640000000000001 28.789587413166192 -9.2563402370836325 4.0640000000000001 #
-83 coedge $-1 -1 -1 $-1 $110 $87 $50 $84 forward $47 $-1 #
-84 edge $-1 -1 -1 $-1 $85 -1.5707963267949054 $118 -1.3300538250188407 $83 $119 forward @7 unknown T 26.670000000000005 -9.512717058026805 0 28.789587413166192 -9.2563402370836343 0 #
-85 vertex $-1 -1 -1 $-1 $51 $120 #
-86 straight-curve $-1 -1 -1 $-1 26.670000000000005 -9.2563402370836307 4.0639999999999921 0 -8.5370249802008223e-013 -1000 I I #
-87 coedge $-1 -1 -1 $-1 $83 $79 $52 $88 forward $47 $-1 #
-88 edge $-1 -1 -1 $-1 $92 2.4766414495742541 $85 4.7123889803846906 $87 $121 forward @7 unknown T 17.780000000000008 -23.631654558914395 0 26.670000000000005 -9.2563402370836343 0 #
-89 coedge $-1 -1 -1 $-1 $122 $53 $79 $113 forward $91 $-1 #
-90 coedge $-1 -1 -1 $-1 $53 $122 $55 $95 reversed $91 $-1 #
-91 loop $-1 -1 -1 $-1 $-1 $90 $106 T 19.674042110567118 -23.943993836673027 0 26.400801283123339 -23.631654558914391 4.0640000000000001 periphery $123 T #
-92 vertex $-1 -1 -1 $-1 $88 $124 #
-93 straight-curve $-1 -1 -1 $-1 19.674042110567122 -23.631654558914395 4.0640000000000001 0 -8.5370249802008223e-013 -1000 I I #
-94 coedge $-1 -1 -1 $-1 $96 $55 $107 $125 reversed $57 $-1 #
-95 edge $-1 -1 -1 $-1 $59 0.00088599340733913298 $126 0.0076199999999999957 $55 $127 forward @7 unknown T 19.674042110567122 -23.943993836673023 4.0640000000000001 26.400801283123339 -23.631654558914391 4.0640000000000001 #
-96 coedge $-1 -1 -1 $-1 $56 $94 $128 $129 forward $57 $-1 #
-97 point $-1 -1 -1 $-1 26.670000000000005 -9.2563402370836325 4.0640000000000001 #
-98 point $-1 -1 -1 $-1 19.674042110567122 -23.631654558914395 4.0640000000000001 #
-99 ellipse-curve $-1 -1 -1 $-1 26.670000000000005 -18.146340237083628 0 -0 -0 -1 -3.4924999999999993 0 0 1 I I #
-100 face $130 -1 -1 $-1 $-1 $65 $4 $-1 $101 reversed single T 23.177500000000006 -18.146340237083628 0 30.162500000000005 -14.653840237083628 4.0640000000000001 F #
-101 cone-surface $-1 -1 -1 $-1 26.670000000000005 -18.146340237083628 4.0640000000000001 -0 -0 -1 -3.4924999999999993 0 0 1 I I 0 1 3.4924999999999993 forward I I I I #
-102 point $-1 -1 -1 $-1 30.162500000000005 -18.146340237083628 0 #
-103 point $-1 -1 -1 $-1 23.177500000000006 -18.146340237083628 0 #
-104 ellipse-curve $-1 -1 -1 $-1 26.670000000000005 -18.146340237083628 4.0640000000000001 -0 -0 -1 -3.4924999999999993 0 0 1 I I #
-105 integer_attrib-name_attrib-gen-attrib $-1 -1 $-1 $-1 $71 2 1 2 1 1 1 1 1 1 1 1 1 1 1 0 1 1 1 @17 基体零件-master-1 0 #
-106 face $131 -1 -1 $-1 $100 $91 $4 $-1 $123 reversed single T 19.674042110567118 -23.943993836673027 0 26.400801283123339 -23.631654558914391 4.0640000000000001 F #
-107 coedge $-1 -1 -1 $-1 $132 $133 $94 $125 forward $76 $-1 #
-108 coedge $-1 -1 -1 $-1 $128 $78 $81 $115 forward $45 $-1 #
-109 coedge $-1 -1 -1 $-1 $78 $128 $133 $134 reversed $45 $-1 #
-110 coedge $-1 -1 -1 $-1 $112 $83 $78 $111 reversed $47 $-1 #
-111 edge $-1 -1 -1 $-1 $135 -0.58432242429290615 $118 -0.34455341966256248 $78 $136 forward @7 unknown T 28.789587413166192 -14.944709618274908 0 31.510952033506072 -9.5127170580268015 0 #
-112 coedge $-1 -1 -1 $-1 $79 $110 $137 $138 reversed $47 $-1 #
-113 edge $-1 -1 -1 $-1 $92 0.00088599340733912951 $139 0.0076199999999999966 $89 $140 forward @7 unknown T 19.674042110567118 -23.943993836673027 0 26.400801283123339 -23.631654558914391 0 #
-114 ellipse-curve $-1 -1 -1 $-1 26.670000000000005 -18.146340237083628 0 -0 -0 -1 -3.4924999999999993 0 0 1 I I #
-115 edge $-1 -1 -1 $-1 $118 -0.0020319999999999939 $116 0.0020320000000000065 $108 $141 forward @7 unknown T 28.789587413166192 -9.512717058026805 0 28.789587413166192 -9.5127170580267926 4.0640000000000001 #
-116 vertex $-1 -1 -1 $-1 $115 $142 #
-117 ellipse-curve $-1 -1 -1 $-1 26.670000000000005 -18.146340237083628 4.0640000000000001 0 0 1 -8.8899999999999952 -7.9797279894933126e-014 0 1 I I #
-118 vertex $-1 -1 -1 $-1 $84 $143 #
-119 ellipse-curve $-1 -1 -1 $-1 26.670000000000005 -18.146340237083631 0 -0 -0 -1 8.8899999999999952 -7.9797279894933126e-014 0 1 I I #
-120 point $-1 -1 -1 $-1 26.670000000000005 -9.2563402370836343 0 #
-121 ellipse-curve $-1 -1 -1 $-1 26.670000000000005 -18.146340237083631 0 -0 -0 -1 8.8899999999999952 6.9388939039072284e-015 0 1 I I #
-122 coedge $-1 -1 -1 $-1 $90 $89 $132 $144 reversed $91 $-1 #
-123 plane-surface $-1 -1 -1 $-1 18.789002246463294 -23.590560072721164 4.0640000000000001 0.046382383720716139 0.99892375809186973 0 -998.92375809186979 46.382383720716142 0 forward_v I I I I #
-124 point $-1 -1 -1 $-1 19.674042110567118 -23.631654558914395 0 #
-125 edge $-1 -1 -1 $-1 $145 2.5572702292968863 $126 4.7587880108270397 $107 $146 forward @7 unknown T 26.400801283123339 -23.950240237083619 4.0640000000000001 32.4739 -14.944709618274912 4.0640000000000001 #
-126 vertex $-1 -1 -1 $-1 $125 $147 #
-127 straight-curve $-1 -1 -1 $-1 18.789002246463294 -23.590560072721164 4.0640000000000001 998.92375809186979 -46.382383720716142 0 I I #
-128 coedge $-1 -1 -1 $-1 $109 $108 $96 $129 reversed $45 $-1 #
-129 edge $-1 -1 -1 $-1 $145 -0.58432242429290637 $116 -0.34455341966256214 $96 $148 forward @7 unknown T 28.789587413166192 -14.944709618274912 4.0640000000000001 31.510952033506072 -9.5127170580267961 4.0640000000000001 #
-130 integer_attrib-name_attrib-gen-attrib $-1 -1 $-1 $-1 $100 2 1 2 1 1 1 1 1 1 1 1 1 1 1 0 1 1 1 @17 基体零件-master-1 0 #
-131 integer_attrib-name_attrib-gen-attrib $-1 -1 $-1 $-1 $106 2 1 2 1 1 1 1 1 1 1 1 1 1 1 0 1 1 1 @17 基体零件-master-1 0 #
-132 coedge $-1 -1 -1 $-1 $137 $107 $122 $144 forward $76 $-1 #
-133 coedge $-1 -1 -1 $-1 $107 $137 $109 $134 forward $76 $-1 #
-134 edge $-1 -1 -1 $-1 $135 -0.0040639999999999999 $145 0 $133 $149 forward @7 unknown T 31.510952033506069 -14.944709618274912 0 31.510952033506069 -14.944709618274908 4.0640000000000001 #
-135 vertex $-1 -1 -1 $-1 $134 $150 #
-136 ellipse-curve $-1 -1 -1 $-1 52.696737738127808 -0.93319706331334784 0 -0 -0 -1 -25.400000000000006 0 0 1 I I #
-137 coedge $-1 -1 -1 $-1 $133 $132 $112 $138 forward $76 $-1 #
-138 edge $-1 -1 -1 $-1 $139 1.5243972963525469 $135 3.7259150778826999 $137 $151 forward @7 unknown T 26.400801283123339 -23.950240237083619 0 32.4739 -14.944709618274908 0 #
-139 vertex $-1 -1 -1 $-1 $113 $152 #
-140 straight-curve $-1 -1 -1 $-1 18.789002246463294 -23.590560072721164 0 998.92375809186979 -46.382383720716589 0 I I #
-141 straight-curve $-1 -1 -1 $-1 28.789587413166192 -9.5127170580267943 2.0319999999999938 0 8.5370249802008223e-013 1000 I I #
-142 point $-1 -1 -1 $-1 28.789587413166192 -9.5127170580267961 4.0640000000000001 #
-143 point $-1 -1 -1 $-1 28.789587413166192 -9.512717058026805 0 #
-144 edge $-1 -1 -1 $-1 $126 -0 $139 0.0040639999999999999 $132 $153 forward @7 unknown T 26.400801283123339 -23.943993836673027 0 26.400801283123339 -23.943993836673023 4.0640000000000001 #
-145 vertex $-1 -1 -1 $-1 $125 $154 #
-146 ellipse-curve $-1 -1 -1 $-1 26.670000000000005 -18.146340237083628 4.0640000000000001 -0 -0 -1 -5.8038999999999934 0 0 1 I I #
-147 point $-1 -1 -1 $-1 26.400801283123339 -23.943993836673023 4.0640000000000001 #
-148 ellipse-curve $-1 -1 -1 $-1 52.696737738127808 -0.93319706331334784 4.0640000000000001 -0 -0 -1 -25.400000000000006 0 0 1 I I #
-149 straight-curve $-1 -1 -1 $-1 31.510952033506069 -14.944709618274908 4.0640000000000001 0 0 1000 I I #
-150 point $-1 -1 -1 $-1 31.510952033506069 -14.944709618274908 0 #
-151 ellipse-curve $-1 -1 -1 $-1 26.670000000000005 -18.146340237083628 0 0 0 1 -5.8038999999999934 0 0 1 I I #
-152 point $-1 -1 -1 $-1 26.400801283123339 -23.943993836673027 0 #
-153 straight-curve $-1 -1 -1 $-1 26.400801283123339 -23.943993836673023 4.0640000000000001 -0 -0 -1000 I I #
-154 point $-1 -1 -1 $-1 31.510952033506069 -14.944709618274912 4.0640000000000001 #
End-of-ACIS-data 