2300 0 1 0           
19 Example Application 12 ACIS 23.0 NT 24 Tue Dec 01 17:23:54 2015 
1 9.9999999999999995e-007 1e-010 
-0 body $1 -1 -1 $-1 $2 $-1 $-1 T -16.5 -11.965404461849271 -18.745000000000005 -2.0533823294441795 11.965404461849271 -11.745000000000003 #
-1 name_attrib-gen-attrib $-1 -1 $-1 $-1 $0 2 1 1 1 1 1 1 1 1 1 1 1 1 1 0 1 1 1 @18 master with holder #
-2 lump $3 -1 -1 $-1 $-1 $4 $0 T -16.5 -11.965404461849271 -18.745000000000005 -2.0533823294441795 11.965404461849271 -11.745000000000003 #
-3 rgb_color-st-attrib $-1 -1 $-1 $-1 $2 2 1 2 1 1 1 1 1 1 1 1 1 1 1 0 1 1 1 0.792156862745098 0.81960784313725488 0.93333333333333335 #
-4 shell $-1 -1 -1 $-1 $-1 $-1 $5 $-1 $2 T -16.5 -11.965404461849271 -18.745000000000005 -2.0533823294441795 11.965404461849271 -11.745000000000003 #
-5 face $6 -1 -1 $-1 $7 $8 $4 $-1 $9 forward single T -9.5290741295017494 5.3820587469665044 -13.745000000000003 -7.1290741295017472 6.5820587469665046 -11.745000000000003 F #
-6 integer_attrib-name_attrib-gen-attrib $-1 -1 $-1 $-1 $5 2 1 2 1 1 1 1 1 1 1 1 1 1 1 0 1 1 1 @10 凸台-拉伸5 0 #
-7 face $10 -1 -1 $-1 $11 $12 $4 $-1 $13 forward single T -9.5290741295017476 4.1820587469665043 -16.745000000000005 -7.1290741295017481 5.3820587469665044 -13.745000000000003 F #
-8 loop $-1 -1 -1 $-1 $-1 $14 $5 T -9.5290741295017494 5.3820587469665044 -13.745000000000003 -7.1290741295017472 6.5820587469665046 -11.745000000000003 periphery $9 F #
-9 cone-surface $-1 -1 -1 $-1 -8.3290741295017483 5.3820587469665044 -11.745000000000003 0 0 -1 -1.1999999999999997 0 0 1 I I 0 1 1.1999999999999997 forward I I I I #
-10 integer_attrib-name_attrib-gen-attrib $-1 -1 $-1 $-1 $7 2 1 2 1 1 1 1 1 1 1 1 1 1 1 0 1 1 1 @10 凸台-拉伸5 0 #
-11 face $15 -1 -1 $-1 $16 $17 $4 $-1 $18 forward single T -9.5290741295017476 -5.3820587469665044 -13.745000000000003 -7.1290741295017481 -4.1820587469665043 -11.745000000000003 F #
-12 loop $-1 -1 -1 $-1 $-1 $19 $7 T -9.5290741295017476 4.1820587469665043 -16.745000000000005 -7.1290741295017481 5.3820587469665044 -13.745000000000003 periphery $13 F #
-13 cone-surface $-1 -1 -1 $-1 -8.3290741295017483 5.3820587469665044 -11.745000000000003 0 0 -1 -1.1999999999999997 0 0 1 I I 0 1 1.1999999999999997 forward I I I I #
-14 coedge $-1 -1 -1 $-1 $20 $21 $22 $23 forward $8 $-1 #
-15 integer_attrib-name_attrib-gen-attrib $-1 -1 $-1 $-1 $11 2 1 2 1 1 1 1 1 1 1 1 1 1 1 0 1 1 1 @10 凸台-拉伸5 0 #
-16 face $24 -1 -1 $-1 $25 $26 $4 $-1 $27 forward single T -9.5290741295017476 -6.5820587469665046 -16.745000000000005 -7.1290741295017481 -5.3820587469665044 -13.745000000000003 F #
-17 loop $-1 -1 -1 $-1 $-1 $28 $11 T -9.5290741295017476 -5.3820587469665044 -13.745000000000003 -7.1290741295017481 -4.1820587469665043 -11.745000000000003 periphery $18 F #
-18 cone-surface $-1 -1 -1 $-1 -8.3290741295017483 -5.3820587469665044 -11.745000000000003 0 0 -1 -1.1999999999999997 0 0 1 I I 0 1 1.1999999999999997 forward I I I I #
-19 coedge $-1 -1 -1 $-1 $29 $30 $31 $32 reversed $12 $-1 #
-20 coedge $-1 -1 -1 $-1 $33 $14 $34 $35 reversed $8 $-1 #
-21 coedge $-1 -1 -1 $-1 $14 $33 $36 $37 forward $8 $-1 #
-22 coedge $-1 -1 -1 $-1 $38 $39 $14 $23 reversed $40 $-1 #
-23 edge $-1 -1 -1 $-1 $41 -3.1415926535897931 $42 0 $14 $43 forward @7 unknown T -9.5290741295017476 5.3820587469665044 -13.745000000000003 -7.1290741295017481 6.5820587469665046 -13.745000000000003 #
-24 integer_attrib-name_attrib-gen-attrib $-1 -1 $-1 $-1 $16 2 1 2 1 1 1 1 1 1 1 1 1 1 1 0 1 1 1 @10 凸台-拉伸5 0 #
-25 face $44 -1 -1 $-1 $45 $46 $4 $-1 $47 reversed single T -16.5 -11.965404461849271 -16.745000000000005 -2.0533823294441795 11.965404461849271 -16.745000000000005 F #
-26 loop $-1 -1 -1 $-1 $-1 $48 $16 T -9.5290741295017476 -6.5820587469665046 -16.745000000000005 -7.1290741295017481 -5.3820587469665044 -13.745000000000003 periphery $27 F #
-27 cone-surface $-1 -1 -1 $-1 -8.3290741295017483 -5.3820587469665044 -11.745000000000003 0 0 -1 -1.1999999999999997 0 0 1 I I 0 1 1.1999999999999997 forward I I I I #
-28 coedge $-1 -1 -1 $-1 $49 $50 $51 $52 forward $17 $-1 #
-29 coedge $-1 -1 -1 $-1 $53 $19 $39 $54 forward $12 $-1 #
-30 coedge $-1 -1 -1 $-1 $19 $53 $38 $55 reversed $12 $-1 #
-31 coedge $-1 -1 -1 $-1 $36 $34 $19 $32 forward $56 $-1 #
-32 edge $-1 -1 -1 $-1 $42 0 $41 3.1415926535897931 $31 $57 forward @7 unknown T -9.5290741295017476 4.1820587469665043 -13.745000000000003 -7.1290741295017481 5.3820587469665044 -13.745000000000003 #
-33 coedge $-1 -1 -1 $-1 $21 $20 $58 $59 forward $8 $-1 #
-34 coedge $-1 -1 -1 $-1 $31 $60 $20 $35 forward $56 $-1 #
-35 edge $-1 -1 -1 $-1 $61 -0 $42 0.002 $20 $62 forward @7 unknown T -9.5290741295017476 5.3820587469665044 -13.745000000000003 -9.5290741295017476 5.3820587469665044 -11.745000000000003 #
-36 coedge $-1 -1 -1 $-1 $60 $31 $21 $37 reversed $56 $-1 #
-37 edge $-1 -1 -1 $-1 $63 0 $41 0.002 $21 $64 forward @7 unknown T -7.1290741295017481 5.3820587469665044 -13.745000000000003 -7.1290741295017481 5.3820587469665044 -11.745000000000003 #
-38 coedge $-1 -1 -1 $-1 $65 $22 $30 $55 forward $40 $-1 #
-39 coedge $-1 -1 -1 $-1 $22 $65 $29 $54 reversed $40 $-1 #
-40 loop $-1 -1 -1 $-1 $-1 $22 $66 T -9.5290741295017476 5.3820587469665044 -16.745000000000005 -7.1290741295017481 6.5820587469665046 -13.745000000000003 periphery $9 F #
-41 vertex $-1 -1 -1 $-1 $55 $67 #
-42 vertex $-1 -1 -1 $-1 $54 $68 #
-43 ellipse-curve $-1 -1 -1 $-1 -8.3290741295017483 5.3820587469665044 -13.745000000000003 0 0 1 -1.1999999999999997 0 0 1 I I #
-44 integer_attrib-name_attrib-gen-attrib $-1 -1 $-1 $-1 $25 2 1 2 1 1 1 1 1 1 1 1 1 1 1 0 1 1 1 @10 凸台-拉伸5 0 #
-45 face $69 -1 -1 $-1 $70 $71 $4 $-1 $72 forward single T -11.616654285117232 1.7347234759768071e-015 -16.745000000000005 -8.2166542851172331 1.700000000000002 -11.745000000000003 F #
-46 loop $-1 -1 -1 $-1 $73 $74 $25 T -9.5290741295017476 -6.5820587469665046 -16.745000000000005 -7.1290741295017481 -4.1820587469665043 -16.745000000000005 hole $47 T #
-47 plane-surface $-1 -1 -1 $-1 -6.6912282294729648 -6.1083867967147363 -16.745000000000005 0 0 -1 -1000 0 0 forward_v I I I I #
-48 coedge $-1 -1 -1 $-1 $75 $76 $77 $78 reversed $26 $-1 #
-49 coedge $-1 -1 -1 $-1 $79 $28 $80 $81 reversed $17 $-1 #
-50 coedge $-1 -1 -1 $-1 $28 $79 $82 $83 forward $17 $-1 #
-51 coedge $-1 -1 -1 $-1 $84 $85 $28 $52 reversed $86 $-1 #
-52 edge $-1 -1 -1 $-1 $87 -3.1415926535897931 $88 0 $28 $89 forward @7 unknown T -9.5290741295017476 -5.3820587469665044 -13.745000000000003 -7.1290741295017481 -4.1820587469665043 -13.745000000000003 #
-53 coedge $-1 -1 -1 $-1 $30 $29 $90 $91 reversed $12 $-1 #
-54 edge $-1 -1 -1 $-1 $42 0.002 $92 0.0050000000000000018 $39 $62 forward @7 unknown T -9.5290741295017476 5.3820587469665044 -16.745000000000005 -9.5290741295017476 5.3820587469665044 -13.745000000000003 #
-55 edge $-1 -1 -1 $-1 $41 0.002 $93 0.0050000000000000018 $38 $64 forward @7 unknown T -7.1290741295017481 5.3820587469665044 -16.745000000000005 -7.1290741295017481 5.3820587469665044 -13.745000000000003 #
-56 loop $-1 -1 -1 $-1 $-1 $31 $94 T -9.5290741295017494 4.1820587469665043 -13.745000000000003 -7.1290741295017472 5.3820587469665044 -11.745000000000003 periphery $13 F #
-57 ellipse-curve $-1 -1 -1 $-1 -8.3290741295017483 5.3820587469665044 -13.745000000000003 0 0 1 -1.1999999999999997 0 0 1 I I #
-58 coedge $-1 -1 -1 $-1 $95 $95 $33 $59 reversed $96 $-1 #
-59 edge $-1 -1 -1 $-1 $61 -3.1415926535897931 $63 0 $58 $97 forward @7 unknown T -9.5290741295017494 5.3820587469665044 -11.745000000000003 -7.1290741295017472 6.5820587469665046 -11.745000000000003 #
-60 coedge $-1 -1 -1 $-1 $34 $36 $95 $98 forward $56 $-1 #
-61 vertex $-1 -1 -1 $-1 $98 $99 #
-62 straight-curve $-1 -1 -1 $-1 -9.5290741295017476 5.3820587469665044 -11.745000000000003 -0 -0 -1000 I I #
-63 vertex $-1 -1 -1 $-1 $37 $100 #
-64 straight-curve $-1 -1 -1 $-1 -7.1290741295017481 5.3820587469665044 -11.745000000000003 0 0 -1000 I I #
-65 coedge $-1 -1 -1 $-1 $39 $38 $101 $102 reversed $40 $-1 #
-66 face $103 -1 -1 $-1 $104 $40 $4 $-1 $9 forward single T -9.5290741295017476 5.3820587469665044 -16.745000000000005 -7.1290741295017481 6.5820587469665046 -13.745000000000003 F #
-67 point $-1 -1 -1 $-1 -7.1290741295017481 5.3820587469665044 -13.745000000000003 #
-68 point $-1 -1 -1 $-1 -9.5290741295017476 5.3820587469665044 -13.745000000000003 #
-69 integer_attrib-name_attrib-gen-attrib $-1 -1 $-1 $-1 $45 2 1 2 1 1 1 1 1 1 1 1 1 1 1 0 1 1 1 @5 镜向1 0 #
-70 face $105 -1 -1 $-1 $106 $107 $4 $-1 $108 forward single T -11.616654285117232 -1.6999999999999984 -16.745000000000005 -8.2166542851172331 1.9429134318318569e-015 -11.745000000000003 F #
-71 loop $-1 -1 -1 $-1 $-1 $109 $45 T -11.616654285117232 1.7347234759768071e-015 -16.745000000000005 -8.2166542851172331 1.700000000000002 -11.745000000000003 periphery $72 F #
-72 cone-surface $-1 -1 -1 $-1 -9.9166542851172323 1.7347234759768071e-015 -21.253948401598208 0 0 1 1.7000000000000002 0 0 1 I I 0 1 1.7000000000000002 forward I I I I #
-73 loop $-1 -1 -1 $-1 $110 $101 $25 T -9.5290741295017476 4.1820587469665043 -16.745000000000005 -7.1290741295017481 6.5820587469665046 -16.745000000000005 hole $47 T #
-74 coedge $-1 -1 -1 $-1 $111 $111 $112 $113 forward $46 $-1 #
-75 coedge $-1 -1 -1 $-1 $114 $48 $85 $115 forward $26 $-1 #
-76 coedge $-1 -1 -1 $-1 $48 $114 $84 $116 reversed $26 $-1 #
-77 coedge $-1 -1 -1 $-1 $82 $80 $48 $78 forward $117 $-1 #
-78 edge $-1 -1 -1 $-1 $88 0 $87 3.1415926535897931 $77 $118 forward @7 unknown T -9.5290741295017476 -6.5820587469665046 -13.745000000000003 -7.1290741295017481 -5.3820587469665044 -13.745000000000003 #
-79 coedge $-1 -1 -1 $-1 $50 $49 $119 $120 forward $17 $-1 #
-80 coedge $-1 -1 -1 $-1 $77 $121 $49 $81 forward $117 $-1 #
-81 edge $-1 -1 -1 $-1 $122 -0 $88 0.002 $49 $123 forward @7 unknown T -9.5290741295017476 -5.3820587469665044 -13.745000000000003 -9.5290741295017476 -5.3820587469665044 -11.745000000000003 #
-82 coedge $-1 -1 -1 $-1 $121 $77 $50 $83 reversed $117 $-1 #
-83 edge $-1 -1 -1 $-1 $124 0 $87 0.002 $50 $125 forward @7 unknown T -7.1290741295017481 -5.3820587469665044 -13.745000000000003 -7.1290741295017481 -5.3820587469665044 -11.745000000000003 #
-84 coedge $-1 -1 -1 $-1 $112 $51 $76 $116 forward $86 $-1 #
-85 coedge $-1 -1 -1 $-1 $51 $112 $75 $115 reversed $86 $-1 #
-86 loop $-1 -1 -1 $-1 $-1 $51 $104 T -9.5290741295017476 -5.3820587469665044 -16.745000000000005 -7.1290741295017481 -4.1820587469665043 -13.745000000000003 periphery $18 F #
-87 vertex $-1 -1 -1 $-1 $116 $126 #
-88 vertex $-1 -1 -1 $-1 $115 $127 #
-89 ellipse-curve $-1 -1 -1 $-1 -8.3290741295017483 -5.3820587469665044 -13.745000000000003 0 0 1 -1.1999999999999997 0 0 1 I I #
-90 coedge $-1 -1 -1 $-1 $101 $101 $53 $91 forward $73 $-1 #
-91 edge $-1 -1 -1 $-1 $93 -3.1415926535897931 $92 0 $90 $128 forward @7 unknown T -9.5290741295017476 4.1820587469665043 -16.745000000000005 -7.1290741295017481 5.3820587469665044 -16.745000000000005 #
-92 vertex $-1 -1 -1 $-1 $91 $129 #
-93 vertex $-1 -1 -1 $-1 $55 $130 #
-94 face $131 -1 -1 $-1 $132 $56 $4 $-1 $13 forward single T -9.5290741295017494 4.1820587469665043 -13.745000000000003 -7.1290741295017472 5.3820587469665044 -11.745000000000003 F #
-95 coedge $-1 -1 -1 $-1 $58 $58 $60 $98 reversed $96 $-1 #
-96 loop $-1 -1 -1 $-1 $-1 $58 $133 T -9.5290741295017494 4.1820587469665043 -11.745000000000003 -7.1290741295017472 6.5820587469665046 -11.745000000000003 periphery $134 F #
-97 ellipse-curve $-1 -1 -1 $-1 -8.3290741295017483 5.3820587469665044 -11.745000000000003 0 0 -1 1.2000000000000006 0 0 1 I I #
-98 edge $-1 -1 -1 $-1 $63 0 $61 3.1415926535897931 $95 $135 forward @7 unknown T -9.5290741295017494 4.1820587469665043 -11.745000000000003 -7.1290741295017472 5.3820587469665044 -11.745000000000003 #
-99 point $-1 -1 -1 $-1 -9.5290741295017476 5.3820587469665044 -11.745000000000003 #
-100 point $-1 -1 -1 $-1 -7.1290741295017481 5.3820587469665044 -11.745000000000003 #
-101 coedge $-1 -1 -1 $-1 $90 $90 $65 $102 forward $73 $-1 #
-102 edge $-1 -1 -1 $-1 $92 0 $93 3.1415926535897931 $101 $136 forward @7 unknown T -9.5290741295017476 5.3820587469665044 -16.745000000000005 -7.1290741295017481 6.5820587469665046 -16.745000000000005 #
-103 integer_attrib-name_attrib-gen-attrib $-1 -1 $-1 $-1 $66 2 1 2 1 1 1 1 1 1 1 1 1 1 1 0 1 1 1 @10 凸台-拉伸5 0 #
-104 face $137 -1 -1 $-1 $138 $86 $4 $-1 $18 forward single T -9.5290741295017476 -5.3820587469665044 -16.745000000000005 -7.1290741295017481 -4.1820587469665043 -13.745000000000003 F #
-105 integer_attrib-name_attrib-gen-attrib $-1 -1 $-1 $-1 $70 2 1 2 1 1 1 1 1 1 1 1 1 1 1 0 1 1 1 @5 镜向1 0 #
-106 face $139 -1 -1 $-1 $133 $140 $4 $-1 $141 reversed single T -9.5290741295017476 -6.5820587469665046 -11.745000000000003 -7.1290741295017481 -4.1820587469665043 -11.745000000000003 T -0.0011999999999999997 0.0011999999999999997 -0.0012000000000000005 0.0012000000000000005 #
-107 loop $-1 -1 -1 $-1 $-1 $142 $70 T -11.616654285117232 -1.6999999999999984 -16.745000000000005 -8.2166542851172331 1.9429134318318569e-015 -11.745000000000003 periphery $108 F #
-108 cone-surface $-1 -1 -1 $-1 -9.9166542851172323 1.7347234759768071e-015 -21.253948401598208 0 0 1 1.7000000000000002 0 0 1 I I 0 1 1.7000000000000002 forward I I I I #
-109 coedge $-1 -1 -1 $-1 $143 $144 $145 $146 forward $71 $-1 #
-110 loop $-1 -1 -1 $-1 $147 $148 $25 T -16.5 -11.965404461849271 -16.745000000000005 -2.0533823294441795 11.965404461849271 -16.745000000000005 periphery $47 T #
-111 coedge $-1 -1 -1 $-1 $74 $74 $114 $149 forward $46 $-1 #
-112 coedge $-1 -1 -1 $-1 $85 $84 $74 $113 reversed $86 $-1 #
-113 edge $-1 -1 -1 $-1 $150 0 $151 3.1415926535897931 $74 $152 forward @7 unknown T -9.5290741295017476 -5.3820587469665044 -16.745000000000005 -7.1290741295017481 -4.1820587469665043 -16.745000000000005 #
-114 coedge $-1 -1 -1 $-1 $76 $75 $111 $149 reversed $26 $-1 #
-115 edge $-1 -1 -1 $-1 $88 0.002 $150 0.0050000000000000018 $85 $123 forward @7 unknown T -9.5290741295017476 -5.3820587469665044 -16.745000000000005 -9.5290741295017476 -5.3820587469665044 -13.745000000000003 #
-116 edge $-1 -1 -1 $-1 $87 0.002 $151 0.0050000000000000018 $84 $125 forward @7 unknown T -7.1290741295017481 -5.3820587469665044 -16.745000000000005 -7.1290741295017481 -5.3820587469665044 -13.745000000000003 #
-117 loop $-1 -1 -1 $-1 $-1 $77 $138 T -9.5290741295017476 -6.5820587469665046 -13.745000000000003 -7.1290741295017481 -5.3820587469665044 -11.745000000000003 periphery $27 F #
-118 ellipse-curve $-1 -1 -1 $-1 -8.3290741295017483 -5.3820587469665044 -13.745000000000003 0 0 1 -1.1999999999999997 0 0 1 I I #
-119 coedge $-1 -1 -1 $-1 $153 $153 $79 $120 reversed $140 $-1 #
-120 edge $-1 -1 -1 $-1 $122 0 $124 3.1415926535897931 $119 $154 forward @7 unknown T -9.5290741295017476 -5.3820587469665044 -11.745000000000003 -7.1290741295017481 -4.1820587469665043 -11.745000000000003 #
-121 coedge $-1 -1 -1 $-1 $80 $82 $153 $155 forward $117 $-1 #
-122 vertex $-1 -1 -1 $-1 $155 $156 #
-123 straight-curve $-1 -1 -1 $-1 -9.5290741295017476 -5.3820587469665044 -11.745000000000003 -0 -0 -1000 I I #
-124 vertex $-1 -1 -1 $-1 $83 $157 #
-125 straight-curve $-1 -1 -1 $-1 -7.1290741295017481 -5.3820587469665044 -11.745000000000003 0 0 -1000 I I #
-126 point $-1 -1 -1 $-1 -7.1290741295017481 -5.3820587469665044 -13.745000000000003 #
-127 point $-1 -1 -1 $-1 -9.5290741295017476 -5.3820587469665044 -13.745000000000003 #
-128 ellipse-curve $-1 -1 -1 $-1 -8.3290741295017483 5.3820587469665044 -16.745000000000005 0 0 -1 -1.1999999999999997 0 0 1 I I #
-129 point $-1 -1 -1 $-1 -9.5290741295017476 5.3820587469665044 -16.745000000000005 #
-130 point $-1 -1 -1 $-1 -7.1290741295017481 5.3820587469665044 -16.745000000000005 #
-131 integer_attrib-name_attrib-gen-attrib $-1 -1 $-1 $-1 $94 2 1 2 1 1 1 1 1 1 1 1 1 1 1 0 1 1 1 @10 凸台-拉伸5 0 #
-132 face $158 -1 -1 $-1 $159 $160 $4 $-1 $47 reversed single T -12.716654285117233 -2.7999999999999985 -16.745000000000005 -7.1166542851172316 2.800000000000002 -16.745000000000005 F #
-133 face $161 -1 -1 $-1 $162 $96 $4 $-1 $134 forward single T -9.5290741295017494 4.1820587469665043 -11.745000000000003 -7.1290741295017472 6.5820587469665046 -11.745000000000003 F #
-134 plane-surface $-1 -1 -1 $-1 -8.3290741295017483 5.3820587469665044 -11.745000000000003 0 0 1 1000 0 0 forward_v I I I I #
-135 ellipse-curve $-1 -1 -1 $-1 -8.3290741295017483 5.3820587469665044 -11.745000000000003 0 0 -1 1.2000000000000006 0 0 1 I I #
-136 ellipse-curve $-1 -1 -1 $-1 -8.3290741295017483 5.3820587469665044 -16.745000000000005 0 0 -1 -1.1999999999999997 0 0 1 I I #
-137 integer_attrib-name_attrib-gen-attrib $-1 -1 $-1 $-1 $104 2 1 2 1 1 1 1 1 1 1 1 1 1 1 0 1 1 1 @10 凸台-拉伸5 0 #
-138 face $163 -1 -1 $-1 $94 $117 $4 $-1 $27 forward single T -9.5290741295017476 -6.5820587469665046 -13.745000000000003 -7.1290741295017481 -5.3820587469665044 -11.745000000000003 F #
-139 integer_attrib-name_attrib-gen-attrib $-1 -1 $-1 $-1 $106 2 1 2 1 1 1 1 1 1 1 1 1 1 1 0 1 1 1 @5 镜向1 0 #
-140 loop $-1 -1 -1 $-1 $-1 $119 $106 T -9.5290741295017476 -6.5820587469665046 -11.745000000000003 -7.1290741295017481 -4.1820587469665043 -11.745000000000003 periphery $141 T #
-141 plane-surface $-1 -1 -1 $-1 -8.3290741295017483 -5.3820587469665044 -11.745000000000003 0 0 -1 -1000 0 0 forward_v I I I I #
-142 coedge $-1 -1 -1 $-1 $164 $165 $166 $167 forward $107 $-1 #
-143 coedge $-1 -1 -1 $-1 $168 $109 $165 $169 reversed $71 $-1 #
-144 coedge $-1 -1 -1 $-1 $109 $168 $164 $170 forward $71 $-1 #
-145 coedge $-1 -1 -1 $-1 $166 $166 $109 $146 reversed $171 $-1 #
-146 edge $-1 -1 -1 $-1 $172 1.2246467991473525e-016 $173 3.1415926535897931 $145 $174 forward @7 unknown T -11.616654285117232 1.7347234759768071e-015 -11.745000000000003 -8.2166542851172331 1.700000000000002 -11.745000000000003 #
-147 loop $-1 -1 -1 $-1 $-1 $175 $25 T -12.716654285117233 -2.7999999999999985 -16.745000000000005 -7.1166542851172316 2.800000000000002 -16.745000000000005 hole $47 T #
-148 coedge $-1 -1 -1 $-1 $176 $177 $178 $179 reversed $110 $-1 #
-149 edge $-1 -1 -1 $-1 $151 -3.1415926535897931 $150 0 $111 $180 forward @7 unknown T -9.5290741295017476 -6.5820587469665046 -16.745000000000005 -7.1290741295017481 -5.3820587469665044 -16.745000000000005 #
-150 vertex $-1 -1 -1 $-1 $149 $181 #
-151 vertex $-1 -1 -1 $-1 $116 $182 #
-152 ellipse-curve $-1 -1 -1 $-1 -8.3290741295017483 -5.3820587469665044 -16.745000000000005 0 0 -1 -1.1999999999999997 0 0 1 I I #
-153 coedge $-1 -1 -1 $-1 $119 $119 $121 $155 reversed $140 $-1 #
-154 ellipse-curve $-1 -1 -1 $-1 -8.3290741295017483 -5.3820587469665044 -11.745000000000003 0 0 -1 -1.1999999999999997 0 0 1 I I #
-155 edge $-1 -1 -1 $-1 $124 -3.1415926535897931 $122 0 $153 $183 forward @7 unknown T -9.5290741295017476 -6.5820587469665046 -11.745000000000003 -7.1290741295017481 -5.3820587469665044 -11.745000000000003 #
-156 point $-1 -1 -1 $-1 -9.5290741295017476 -5.3820587469665044 -11.745000000000003 #
-157 point $-1 -1 -1 $-1 -7.1290741295017481 -5.3820587469665044 -11.745000000000003 #
-158 integer_attrib-name_attrib-gen-attrib $-1 -1 $-1 $-1 $132 2 1 2 1 1 1 1 1 1 1 1 1 1 1 0 1 1 1 @10 凸台-拉伸5 0 #
-159 face $184 -1 -1 $-1 $185 $186 $4 $-1 $187 forward single T -3.26983562493447 -6.8347148464629681 -18.745000000000005 -2.0533823294441795 -4.4224625477113317 -16.745000000000005 F #
-160 loop $-1 -1 -1 $-1 $188 $189 $132 T -12.716654285117233 -2.7999999999999985 -16.745000000000005 -7.1166542851172316 2.800000000000002 -16.745000000000005 periphery $47 T #
-161 integer_attrib-name_attrib-gen-attrib $-1 -1 $-1 $-1 $133 2 1 2 1 1 1 1 1 1 1 1 1 1 1 0 1 1 1 @5 镜向1 0 #
-162 face $190 -1 -1 $-1 $191 $192 $4 $-1 $193 forward single T -3.2698356249344713 4.4224625477113317 -18.745000000000005 -2.0533823294441804 6.8347148464629681 -16.745000000000005 F #
-163 integer_attrib-name_attrib-gen-attrib $-1 -1 $-1 $-1 $138 2 1 2 1 1 1 1 1 1 1 1 1 1 1 0 1 1 1 @10 凸台-拉伸5 0 #
-164 coedge $-1 -1 -1 $-1 $194 $142 $144 $170 reversed $107 $-1 #
-165 coedge $-1 -1 -1 $-1 $142 $194 $143 $169 forward $107 $-1 #
-166 coedge $-1 -1 -1 $-1 $145 $145 $142 $167 reversed $171 $-1 #
-167 edge $-1 -1 -1 $-1 $173 -3.1415926535897931 $172 1.2246467991473525e-016 $166 $195 forward @7 unknown T -11.616654285117232 -1.6999999999999984 -11.745000000000003 -8.2166542851172331 1.9429134318318569e-015 -11.745000000000003 #
-168 coedge $-1 -1 -1 $-1 $144 $143 $196 $197 reversed $71 $-1 #
-169 edge $-1 -1 -1 $-1 $198 0.0045089484015982039 $173 0.0095089484015982058 $143 $199 forward @7 unknown T -8.2166542851172331 1.7347234759768071e-015 -16.745000000000005 -8.2166542851172331 1.7347234759768071e-015 -11.745000000000003 #
-170 edge $-1 -1 -1 $-1 $200 0.0045089484015982039 $172 0.0095089484015982058 $164 $201 forward @7 unknown T -11.616654285117232 1.9429134318318569e-015 -16.745000000000005 -11.616654285117232 1.9429134318318569e-015 -11.745000000000003 #
-171 loop $-1 -1 -1 $-1 $-1 $166 $202 T -11.616654285117232 -1.6999999999999984 -11.745000000000003 -8.2166542851172331 1.700000000000002 -11.745000000000003 unknown #
-172 vertex $-1 -1 -1 $-1 $167 $203 #
-173 vertex $-1 -1 -1 $-1 $146 $204 #
-174 ellipse-curve $-1 -1 -1 $-1 -9.9166542851172323 1.7347234759768071e-015 -11.745000000000003 0 0 -1 -1.7000000000000002 0 0 1 I I #
-175 coedge $-1 -1 -1 $-1 $205 $205 $189 $206 reversed $147 $-1 #
-176 coedge $-1 -1 -1 $-1 $207 $148 $208 $209 reversed $110 $-1 #
-177 coedge $-1 -1 -1 $-1 $148 $210 $211 $212 reversed $110 $-1 #
-178 coedge $-1 -1 -1 $-1 $213 $214 $148 $179 forward $186 $-1 #
-179 edge $-1 -1 -1 $-1 $215 2.2074593770837216 $216 3.1415926535897931 $178 $217 forward @7 unknown T -3.26983562493447 -6.8347148464629681 -16.745000000000005 -2.0533823294441795 -4.4224625477113317 -16.745000000000005 #
-180 ellipse-curve $-1 -1 -1 $-1 -8.3290741295017483 -5.3820587469665044 -16.745000000000005 0 0 -1 -1.1999999999999997 0 0 1 I I #
-181 point $-1 -1 -1 $-1 -9.5290741295017476 -5.3820587469665044 -16.745000000000005 #
-182 point $-1 -1 -1 $-1 -7.1290741295017481 -5.3820587469665044 -16.745000000000005 #
-183 ellipse-curve $-1 -1 -1 $-1 -8.3290741295017483 -5.3820587469665044 -11.745000000000003 0 0 -1 -1.1999999999999997 0 0 1 I I #
-184 integer_attrib-name_attrib-gen-attrib $-1 -1 $-1 $-1 $159 2 1 2 1 1 1 1 1 1 1 1 1 1 1 0 1 1 1 @10 凸台-拉伸5 0 #
-185 face $218 -1 -1 $-1 $219 $220 $4 $-1 $221 forward single T -13.858476779112012 -11.965404461849271 -18.745000000000005 -2.3109521588475301 -8.0508878437792362 -16.745000000000005 F #
-186 loop $-1 -1 -1 $-1 $-1 $213 $159 T -3.26983562493447 -6.8347148464629681 -18.745000000000005 -2.0533823294441795 -4.4224625477113317 -16.745000000000005 periphery $187 F #
-187 cone-surface $-1 -1 -1 $-1 -5.0533823294441804 -6.8347148464629681 -18.745000000000005 0 0 1 3 0 0 1 I I 0 1 3 forward I I I I #
-188 loop $-1 -1 -1 $-1 $-1 $222 $132 T -11.616654285117232 -1.6999999999999984 -16.745000000000005 -8.2166542851172331 1.700000000000002 -16.745000000000005 hole $47 T #
-189 coedge $-1 -1 -1 $-1 $223 $223 $175 $206 forward $160 $-1 #
-190 integer_attrib-name_attrib-gen-attrib $-1 -1 $-1 $-1 $162 2 1 2 1 1 1 1 1 1 1 1 1 1 1 0 1 1 1 @10 凸台-拉伸5 0 #
-191 face $224 -1 -1 $-1 $66 $225 $4 $-1 $226 forward single T -2.3109521588475324 -8.0508878437792397 -18.745000000000005 -2.0533823294441795 -6.8347148464629681 -16.745000000000005 F #
-192 loop $-1 -1 -1 $-1 $-1 $227 $162 T -3.2698356249344713 4.4224625477113317 -18.745000000000005 -2.0533823294441804 6.8347148464629681 -16.745000000000005 periphery $193 F #
-193 cone-surface $-1 -1 -1 $-1 -5.0533823294441804 6.8347148464629681 -18.745000000000005 0 0 1 3 0 0 1 I I 0 1 3 forward I I I I #
-194 coedge $-1 -1 -1 $-1 $165 $164 $222 $228 reversed $107 $-1 #
-195 ellipse-curve $-1 -1 -1 $-1 -9.9166542851172323 1.7347234759768071e-015 -11.745000000000003 0 0 -1 -1.7000000000000002 0 0 1 I I #
-196 coedge $-1 -1 -1 $-1 $222 $222 $168 $197 forward $188 $-1 #
-197 edge $-1 -1 -1 $-1 $200 1.2246467991473525e-016 $198 3.1415926535897931 $168 $229 forward @7 unknown T -11.616654285117232 1.7347234759768071e-015 -16.745000000000005 -8.2166542851172331 1.700000000000002 -16.745000000000005 #
-198 vertex $-1 -1 -1 $-1 $197 $230 #
-199 straight-curve $-1 -1 -1 $-1 -8.2166542851172331 1.7347234759768071e-015 -21.253948401598208 0 0 1000 I I #
-200 vertex $-1 -1 -1 $-1 $170 $231 #
-201 straight-curve $-1 -1 -1 $-1 -11.616654285117232 1.9429134318318569e-015 -21.253948401598208 0 0 1000 I I #
-202 face $232 -1 -1 $-1 $-1 $171 $4 $-1 $233 reversed single T -11.616654285117232 -1.6999999999999984 -11.745000000000003 -8.2166542851172331 1.700000000000002 -11.745000000000003 F #
-203 point $-1 -1 -1 $-1 -11.616654285117232 1.9429134318318569e-015 -11.745000000000003 #
-204 point $-1 -1 -1 $-1 -8.2166542851172331 1.7347234759768071e-015 -11.745000000000003 #
-205 coedge $-1 -1 -1 $-1 $175 $175 $223 $234 reversed $147 $-1 #
-206 edge $-1 -1 -1 $-1 $235 0 $236 3.1415926535897931 $189 $237 forward @7 unknown T -12.716654285117233 1.7347234759768071e-015 -16.745000000000005 -7.1166542851172316 2.800000000000002 -16.745000000000005 #
-207 coedge $-1 -1 -1 $-1 $238 $176 $239 $240 reversed $110 $-1 #
-208 coedge $-1 -1 -1 $-1 $241 $242 $176 $209 forward $243 $-1 #
-209 edge $-1 -1 -1 $-1 $244 -0.93413327650607147 $215 0.9341332765060717 $208 $245 forward @7 unknown T -5.5000000000000009 -4.4224625477113326 -16.745000000000005 -3.26983562493447 4.4224625477113317 -16.745000000000005 #
-210 coedge $-1 -1 -1 $-1 $177 $246 $247 $248 reversed $110 $-1 #
-211 coedge $-1 -1 -1 $-1 $249 $250 $177 $212 forward $225 $-1 #
-212 edge $-1 -1 -1 $-1 $216 -3.1415926535897931 $251 -2.7241861416607591 $211 $252 forward @7 unknown T -2.3109521588475324 -8.0508878437792397 -16.745000000000005 -2.0533823294441795 -6.8347148464629681 -16.745000000000005 #
-213 coedge $-1 -1 -1 $-1 $253 $178 $250 $254 reversed $186 $-1 #
-214 coedge $-1 -1 -1 $-1 $178 $253 $241 $255 forward $186 $-1 #
-215 vertex $-1 -1 -1 $-1 $209 $256 #
-216 vertex $-1 -1 -1 $-1 $254 $257 #
-217 ellipse-curve $-1 -1 -1 $-1 -5.0533823294441804 -6.8347148464629681 -16.745000000000005 0 0 -1 -3.0000000000000009 0 0 1 I I #
-218 integer_attrib-name_attrib-gen-attrib $-1 -1 $-1 $-1 $185 2 1 2 1 1 1 1 1 1 1 1 1 1 1 0 1 1 1 @10 凸台-拉伸5 0 #
-219 face $258 -1 -1 $-1 $259 $260 $4 $-1 $261 forward single T -16.5 -8.9550332976942713 -18.745000000000005 -13.85847677911201 8.9550332976942624 -16.745000000000005 F #
-220 loop $-1 -1 -1 $-1 $-1 $247 $185 T -13.858476779112012 -11.965404461849271 -18.745000000000005 -2.3109521588475301 -8.0508878437792362 -16.745000000000005 periphery $221 F #
-221 cone-surface $-1 -1 -1 $-1 -8.3290741295017483 -5.3820587469665044 -18.745000000000005 0 0 1 6.5833457148827668 0 0 1 I I 0 1 6.5833457148827668 forward I I I I #
-222 coedge $-1 -1 -1 $-1 $196 $196 $194 $228 forward $188 $-1 #
-223 coedge $-1 -1 -1 $-1 $189 $189 $205 $234 forward $160 $-1 #
-224 integer_attrib-name_attrib-gen-attrib $-1 -1 $-1 $-1 $191 2 1 2 1 1 1 1 1 1 1 1 1 1 1 0 1 1 1 @10 凸台-拉伸5 0 #
-225 loop $-1 -1 -1 $-1 $-1 $262 $191 T -2.3109521588475324 -8.0508878437792397 -18.745000000000005 -2.0533823294441795 -6.8347148464629681 -16.745000000000005 periphery $226 F #
-226 cone-surface $-1 -1 -1 $-1 -5.0533823294441804 -6.8347148464629681 -18.745000000000005 0 0 1 3 0 0 1 I I 0 1 3 forward I I I I #
-227 coedge $-1 -1 -1 $-1 $263 $264 $265 $266 reversed $192 $-1 #
-228 edge $-1 -1 -1 $-1 $198 -3.1415926535897931 $200 1.2246467991473525e-016 $194 $267 forward @7 unknown T -11.616654285117232 -1.6999999999999984 -16.745000000000005 -8.2166542851172331 1.9429134318318569e-015 -16.745000000000005 #
-229 ellipse-curve $-1 -1 -1 $-1 -9.9166542851172323 1.7347234759768071e-015 -16.745000000000005 0 0 -1 -1.7000000000000002 0 0 1 I I #
-230 point $-1 -1 -1 $-1 -8.2166542851172331 1.7347234759768071e-015 -16.745000000000005 #
-231 point $-1 -1 -1 $-1 -11.616654285117232 1.9429134318318569e-015 -16.745000000000005 #
-232 integer_attrib-name_attrib-gen-attrib $-1 -1 $-1 $-1 $202 2 1 2 1 1 1 1 1 1 1 1 1 1 1 0 1 1 1 @10 凸台-拉伸5 0 #
-233 plane-surface $-1 -1 -1 $-1 -9.9166542851172323 1.7347234759768071e-015 -11.745000000000003 0 0 -1 -1000 0 0 forward_v I I I I #
-234 edge $-1 -1 -1 $-1 $236 -3.1415926535897931 $235 0 $223 $268 forward @7 unknown T -12.716654285117233 -2.7999999999999985 -16.745000000000005 -7.1166542851172316 2.0776245797380662e-015 -16.745000000000005 #
-235 vertex $-1 -1 -1 $-1 $206 $269 #
-236 vertex $-1 -1 -1 $-1 $206 $270 #
-237 ellipse-curve $-1 -1 -1 $-1 -9.9166542851172323 1.7347234759768071e-015 -16.745000000000005 -0 -0 1 2.8000000000000003 0 0 1 I I #
-238 coedge $-1 -1 -1 $-1 $271 $207 $272 $273 reversed $110 $-1 #
-239 coedge $-1 -1 -1 $-1 $264 $263 $207 $240 forward $192 $-1 #
-240 edge $-1 -1 -1 $-1 $274 0 $244 0.93413327650607214 $239 $275 forward @7 unknown T -3.2698356249344713 4.4224625477113317 -16.745000000000005 -2.0533823294441804 6.8347148464629681 -16.745000000000005 #
-241 coedge $-1 -1 -1 $-1 $276 $208 $214 $255 reversed $243 $-1 #
-242 coedge $-1 -1 -1 $-1 $208 $276 $264 $277 forward $243 $-1 #
-243 loop $-1 -1 -1 $-1 $-1 $208 $278 T -5.5000000000000009 -4.4224625477113326 -18.745000000000005 -3.26983562493447 4.4224625477113317 -16.745000000000005 periphery $279 T #
-244 vertex $-1 -1 -1 $-1 $240 $280 #
-245 ellipse-curve $-1 -1 -1 $-1 0 0 -16.745000000000005 0 0 1 -5.5000000000000009 0 0 1 I I #
-246 coedge $-1 -1 -1 $-1 $210 $271 $281 $282 reversed $110 $-1 #
-247 coedge $-1 -1 -1 $-1 $283 $284 $210 $248 forward $220 $-1 #
-248 edge $-1 -1 -1 $-1 $251 -2.7241861416607591 $285 -0.57368322343663647 $247 $286 forward @7 unknown T -13.858476779112012 -11.965404461849271 -16.745000000000005 -2.3109521588475301 -8.0508878437792362 -16.745000000000005 #
-249 coedge $-1 -1 -1 $-1 $262 $211 $284 $287 reversed $225 $-1 #
-250 coedge $-1 -1 -1 $-1 $211 $262 $213 $254 forward $225 $-1 #
-251 vertex $-1 -1 -1 $-1 $212 $288 #
-252 ellipse-curve $-1 -1 -1 $-1 -5.0533823294441804 -6.8347148464629681 -16.745000000000005 0 0 -1 -3.0000000000000009 0 0 1 I I #
-253 coedge $-1 -1 -1 $-1 $214 $213 $289 $290 reversed $186 $-1 #
-254 edge $-1 -1 -1 $-1 $291 0 $216 0.002 $250 $292 forward @7 unknown T -2.0533823294441804 -6.8347148464629681 -18.745000000000005 -2.0533823294441804 -6.8347148464629681 -16.745000000000005 #
-255 edge $-1 -1 -1 $-1 $293 0 $215 0.002 $214 $294 forward @7 unknown T -3.26983562493447 -4.4224625477113326 -18.745000000000005 -3.26983562493447 -4.4224625477113326 -16.745000000000005 #
-256 point $-1 -1 -1 $-1 -3.26983562493447 -4.4224625477113326 -16.745000000000005 #
-257 point $-1 -1 -1 $-1 -2.0533823294441804 -6.8347148464629681 -16.745000000000005 #
-258 integer_attrib-name_attrib-gen-attrib $-1 -1 $-1 $-1 $219 2 1 2 1 1 1 1 1 1 1 1 1 1 1 0 1 1 1 @10 凸台-拉伸5 0 #
-259 face $295 -1 -1 $-1 $296 $297 $4 $-1 $298 forward single T -13.858476779112015 8.0508878437792397 -18.745000000000005 -2.3109521588475319 11.965404461849271 -16.745000000000005 F #
-260 loop $-1 -1 -1 $-1 $-1 $281 $219 T -16.5 -8.9550332976942713 -18.745000000000005 -13.85847677911201 8.9550332976942624 -16.745000000000005 periphery $261 F #
-261 cone-surface $-1 -1 -1 $-1 0 0 -18.745000000000005 0 0 1 16.5 0 0 1 I I 0 1 16.5 forward I I I I #
-262 coedge $-1 -1 -1 $-1 $250 $249 $299 $300 reversed $225 $-1 #
-263 coedge $-1 -1 -1 $-1 $239 $227 $301 $302 forward $192 $-1 #
-264 coedge $-1 -1 -1 $-1 $227 $239 $242 $277 reversed $192 $-1 #
-265 coedge $-1 -1 -1 $-1 $303 $304 $227 $266 forward $305 $-1 #
-266 edge $-1 -1 -1 $-1 $306 0 $307 0.93413327650607214 $265 $308 forward @7 unknown T -3.2698356249344713 4.4224625477113317 -18.745000000000005 -2.0533823294441804 6.8347148464629681 -18.745000000000005 #
-267 ellipse-curve $-1 -1 -1 $-1 -9.9166542851172323 1.7347234759768071e-015 -16.745000000000005 0 0 -1 -1.7000000000000002 0 0 1 I I #
-268 ellipse-curve $-1 -1 -1 $-1 -9.9166542851172323 1.7347234759768071e-015 -16.745000000000005 -0 -0 1 2.8000000000000003 0 0 1 I I #
-269 point $-1 -1 -1 $-1 -7.1166542851172316 1.7347234759768071e-015 -16.745000000000005 #
-270 point $-1 -1 -1 $-1 -12.716654285117233 2.0776245797380662e-015 -16.745000000000005 #
-271 coedge $-1 -1 -1 $-1 $246 $238 $309 $310 reversed $110 $-1 #
-272 coedge $-1 -1 -1 $-1 $301 $311 $238 $273 forward $312 $-1 #
-273 edge $-1 -1 -1 $-1 $313 -0.41740651192903444 $274 0 $272 $314 forward @7 unknown T -2.3109521588475337 6.8347148464629681 -16.745000000000005 -2.0533823294441804 8.0508878437792397 -16.745000000000005 #
-274 vertex $-1 -1 -1 $-1 $302 $315 #
-275 ellipse-curve $-1 -1 -1 $-1 -5.0533823294441804 6.8347148464629681 -16.745000000000005 0 0 -1 3 0 0 1 I I #
-276 coedge $-1 -1 -1 $-1 $242 $241 $303 $316 reversed $243 $-1 #
-277 edge $-1 -1 -1 $-1 $307 0 $244 0.002 $242 $317 forward @7 unknown T -3.2698356249344713 4.4224625477113317 -18.745000000000005 -3.2698356249344713 4.4224625477113317 -16.745000000000005 #
-278 face $318 -1 -1 $-1 $319 $243 $4 $-1 $279 reversed single T -5.5000000000000009 -4.4224625477113326 -18.745000000000005 -3.26983562493447 4.4224625477113317 -16.745000000000005 F #
-279 cone-surface $-1 -1 -1 $-1 0 0 -18.745000000000005 0 0 1 5.5000000000000009 0 0 1 I I 0 1 5.5000000000000009 forward I I I I #
-280 point $-1 -1 -1 $-1 -3.2698356249344713 4.4224625477113317 -16.745000000000005 #
-281 coedge $-1 -1 -1 $-1 $320 $321 $246 $282 forward $260 $-1 #
-282 edge $-1 -1 -1 $-1 $285 -0.57368322343663558 $322 0.57368322343663491 $281 $323 forward @7 unknown T -16.5 -8.9550332976942713 -16.745000000000005 -13.85847677911201 8.9550332976942624 -16.745000000000005 #
-283 coedge $-1 -1 -1 $-1 $324 $247 $321 $325 reversed $220 $-1 #
-284 coedge $-1 -1 -1 $-1 $247 $324 $249 $287 forward $220 $-1 #
-285 vertex $-1 -1 -1 $-1 $248 $326 #
-286 ellipse-curve $-1 -1 -1 $-1 -8.3290741295017483 -5.3820587469665044 -16.745000000000005 0 0 -1 -6.5833457148827668 0 0 1 I I #
-287 edge $-1 -1 -1 $-1 $327 0 $251 0.002 $284 $328 forward @7 unknown T -2.3109521588475306 -8.0508878437792379 -18.745000000000005 -2.3109521588475306 -8.0508878437792379 -16.745000000000005 #
-288 point $-1 -1 -1 $-1 -2.3109521588475306 -8.0508878437792379 -16.745000000000005 #
-289 coedge $-1 -1 -1 $-1 $299 $303 $253 $290 forward $305 $-1 #
-290 edge $-1 -1 -1 $-1 $293 2.2074593770837216 $291 3.1415926535897931 $289 $329 forward @7 unknown T -3.26983562493447 -6.8347148464629681 -18.745000000000005 -2.0533823294441795 -4.4224625477113317 -18.745000000000005 #
-291 vertex $-1 -1 -1 $-1 $254 $330 #
-292 straight-curve $-1 -1 -1 $-1 -2.0533823294441804 -6.8347148464629681 -18.745000000000005 0 0 1000 I I #
-293 vertex $-1 -1 -1 $-1 $316 $331 #
-294 straight-curve $-1 -1 -1 $-1 -3.26983562493447 -4.4224625477113326 -18.745000000000005 0 0 1000 I I #
-295 integer_attrib-name_attrib-gen-attrib $-1 -1 $-1 $-1 $259 2 1 2 1 1 1 1 1 1 1 1 1 1 1 0 1 1 1 @10 凸台-拉伸5 0 #
-296 face $332 -1 -1 $-1 $278 $312 $4 $-1 $333 forward single T -2.3109521588475337 6.8347148464629681 -18.745000000000005 -2.0533823294441804 8.0508878437792397 -16.745000000000005 F #
-297 loop $-1 -1 -1 $-1 $-1 $309 $259 T -13.858476779112015 8.0508878437792397 -18.745000000000005 -2.3109521588475319 11.965404461849271 -16.745000000000005 periphery $298 F #
-298 cone-surface $-1 -1 -1 $-1 -8.3290741295017483 5.3820587469665044 -18.745000000000005 0 0 1 6.5833457148827668 0 0 1 I I 0 1 6.5833457148827668 forward I I I I #
-299 coedge $-1 -1 -1 $-1 $334 $289 $262 $300 forward $305 $-1 #
-300 edge $-1 -1 -1 $-1 $291 -3.1415926535897931 $327 -2.7241861416607591 $299 $335 forward @7 unknown T -2.3109521588475324 -8.0508878437792397 -18.745000000000005 -2.0533823294441795 -6.8347148464629681 -18.745000000000005 #
-301 coedge $-1 -1 -1 $-1 $336 $272 $263 $302 reversed $312 $-1 #
-302 edge $-1 -1 -1 $-1 $306 0 $274 0.002 $263 $337 forward @7 unknown T -2.0533823294441804 6.8347148464629681 -18.745000000000005 -2.0533823294441804 6.8347148464629681 -16.745000000000005 #
-303 coedge $-1 -1 -1 $-1 $289 $265 $276 $316 forward $305 $-1 #
-304 coedge $-1 -1 -1 $-1 $265 $338 $336 $339 forward $305 $-1 #
-305 loop $-1 -1 -1 $-1 $-1 $289 $319 T -16.5 -11.965404461849271 -18.745000000000005 -2.0533823294441795 11.965404461849271 -18.745000000000005 periphery $340 F #
-306 vertex $-1 -1 -1 $-1 $302 $341 #
-307 vertex $-1 -1 -1 $-1 $266 $342 #
-308 ellipse-curve $-1 -1 -1 $-1 -5.0533823294441804 6.8347148464629681 -18.745000000000005 0 0 -1 3 0 0 1 I I #
-309 coedge $-1 -1 -1 $-1 $343 $344 $271 $310 forward $297 $-1 #
-310 edge $-1 -1 -1 $-1 $322 -2.5679094301531578 $313 -0.41740651192903477 $309 $345 forward @7 unknown T -13.858476779112015 8.0508878437792397 -16.745000000000005 -2.3109521588475319 11.965404461849271 -16.745000000000005 #
-311 coedge $-1 -1 -1 $-1 $272 $336 $343 $346 forward $312 $-1 #
-312 loop $-1 -1 -1 $-1 $-1 $301 $296 T -2.3109521588475337 6.8347148464629681 -18.745000000000005 -2.0533823294441804 8.0508878437792397 -16.745000000000005 periphery $333 F #
-313 vertex $-1 -1 -1 $-1 $310 $347 #
-314 ellipse-curve $-1 -1 -1 $-1 -5.0533823294441804 6.8347148464629681 -16.745000000000005 0 0 -1 3 0 0 1 I I #
-315 point $-1 -1 -1 $-1 -2.0533823294441804 6.8347148464629681 -16.745000000000005 #
-316 edge $-1 -1 -1 $-1 $307 -0.93413327650607147 $293 0.9341332765060717 $303 $348 forward @7 unknown T -5.5000000000000009 -4.4224625477113326 -18.745000000000005 -3.26983562493447 4.4224625477113317 -18.745000000000005 #
-317 straight-curve $-1 -1 -1 $-1 -3.2698356249344713 4.4224625477113317 -18.745000000000005 0 0 1000 I I #
-318 integer_attrib-name_attrib-gen-attrib $-1 -1 $-1 $-1 $278 2 1 2 1 1 1 1 1 1 1 1 1 1 1 0 1 1 1 @10 凸台-拉伸5 0 #
-319 face $349 -1 -1 $-1 $202 $305 $4 $-1 $340 forward single T -16.5 -11.965404461849271 -18.745000000000005 -2.0533823294441795 11.965404461849271 -18.745000000000005 F #
-320 coedge $-1 -1 -1 $-1 $350 $281 $344 $351 reversed $260 $-1 #
-321 coedge $-1 -1 -1 $-1 $281 $350 $283 $325 forward $260 $-1 #
-322 vertex $-1 -1 -1 $-1 $282 $352 #
-323 ellipse-curve $-1 -1 -1 $-1 0 0 -16.745000000000005 0 0 -1 -16.5 0 0 1 I I #
-324 coedge $-1 -1 -1 $-1 $284 $283 $334 $353 reversed $220 $-1 #
-325 edge $-1 -1 -1 $-1 $354 0 $285 0.002 $321 $355 forward @7 unknown T -13.858476779112012 -8.9550332976942713 -18.745000000000005 -13.858476779112012 -8.9550332976942713 -16.745000000000005 #
-326 point $-1 -1 -1 $-1 -13.858476779112012 -8.9550332976942713 -16.745000000000005 #
-327 vertex $-1 -1 -1 $-1 $300 $356 #
-328 straight-curve $-1 -1 -1 $-1 -2.3109521588475306 -8.0508878437792379 -18.745000000000005 0 0 1000 I I #
-329 ellipse-curve $-1 -1 -1 $-1 -5.0533823294441804 -6.8347148464629681 -18.745000000000005 0 0 -1 -3.0000000000000009 0 0 1 I I #
-330 point $-1 -1 -1 $-1 -2.0533823294441804 -6.8347148464629681 -18.745000000000005 #
-331 point $-1 -1 -1 $-1 -3.26983562493447 -4.4224625477113326 -18.745000000000005 #
-332 integer_attrib-name_attrib-gen-attrib $-1 -1 $-1 $-1 $296 2 1 2 1 1 1 1 1 1 1 1 1 1 1 0 1 1 1 @10 凸台-拉伸5 0 #
-333 cone-surface $-1 -1 -1 $-1 -5.0533823294441804 6.8347148464629681 -18.745000000000005 0 0 1 3 0 0 1 I I 0 1 3 forward I I I I #
-334 coedge $-1 -1 -1 $-1 $357 $299 $324 $353 forward $305 $-1 #
-335 ellipse-curve $-1 -1 -1 $-1 -5.0533823294441804 -6.8347148464629681 -18.745000000000005 0 0 -1 -3.0000000000000009 0 0 1 I I #
-336 coedge $-1 -1 -1 $-1 $311 $301 $304 $339 reversed $312 $-1 #
-337 straight-curve $-1 -1 -1 $-1 -2.0533823294441804 6.8347148464629681 -18.745000000000005 0 0 1000 I I #
-338 coedge $-1 -1 -1 $-1 $304 $357 $358 $359 forward $305 $-1 #
-339 edge $-1 -1 -1 $-1 $360 -0.41740651192903444 $306 0 $304 $361 forward @7 unknown T -2.3109521588475337 6.8347148464629681 -18.745000000000005 -2.0533823294441804 8.0508878437792397 -18.745000000000005 #
-340 plane-surface $-1 -1 -1 $-1 -6.6912282294729648 -6.1083867967147363 -18.745000000000005 0 0 -1 -1000 0 0 forward_v I I I I #
-341 point $-1 -1 -1 $-1 -2.0533823294441804 6.8347148464629681 -18.745000000000005 #
-342 point $-1 -1 -1 $-1 -3.2698356249344713 4.4224625477113317 -18.745000000000005 #
-343 coedge $-1 -1 -1 $-1 $358 $309 $311 $346 reversed $297 $-1 #
-344 coedge $-1 -1 -1 $-1 $309 $358 $320 $351 forward $297 $-1 #
-345 ellipse-curve $-1 -1 -1 $-1 -8.3290741295017483 5.3820587469665044 -16.745000000000005 0 0 -1 6.5833457148827668 0 0 1 I I #
-346 edge $-1 -1 -1 $-1 $360 0 $313 0.002 $311 $362 forward @7 unknown T -2.3109521588475337 8.0508878437792397 -18.745000000000005 -2.3109521588475337 8.0508878437792397 -16.745000000000005 #
-347 point $-1 -1 -1 $-1 -2.3109521588475337 8.0508878437792397 -16.745000000000005 #
-348 ellipse-curve $-1 -1 -1 $-1 0 0 -18.745000000000005 0 0 1 -5.5000000000000009 0 0 1 I I #
-349 integer_attrib-name_attrib-gen-attrib $-1 -1 $-1 $-1 $319 2 1 2 1 1 1 1 1 1 1 1 1 1 1 0 1 1 1 @10 凸台-拉伸5 0 #
-350 coedge $-1 -1 -1 $-1 $321 $320 $357 $363 reversed $260 $-1 #
-351 edge $-1 -1 -1 $-1 $364 0 $322 0.002 $344 $365 forward @7 unknown T -13.858476779112015 8.9550332976942624 -18.745000000000005 -13.858476779112015 8.9550332976942624 -16.745000000000005 #
-352 point $-1 -1 -1 $-1 -13.858476779112015 8.9550332976942624 -16.745000000000005 #
-353 edge $-1 -1 -1 $-1 $327 -2.7241861416607591 $354 -0.57368322343663647 $334 $366 forward @7 unknown T -13.858476779112012 -11.965404461849271 -18.745000000000005 -2.3109521588475301 -8.0508878437792362 -18.745000000000005 #
-354 vertex $-1 -1 -1 $-1 $353 $367 #
-355 straight-curve $-1 -1 -1 $-1 -13.858476779112012 -8.9550332976942713 -18.745000000000005 0 0 1000 I I #
-356 point $-1 -1 -1 $-1 -2.3109521588475306 -8.0508878437792379 -18.745000000000005 #
-357 coedge $-1 -1 -1 $-1 $338 $334 $350 $363 forward $305 $-1 #
-358 coedge $-1 -1 -1 $-1 $344 $343 $338 $359 reversed $297 $-1 #
-359 edge $-1 -1 -1 $-1 $364 -2.5679094301531578 $360 -0.41740651192903477 $338 $368 forward @7 unknown T -13.858476779112015 8.0508878437792397 -18.745000000000005 -2.3109521588475319 11.965404461849271 -18.745000000000005 #
-360 vertex $-1 -1 -1 $-1 $359 $369 #
-361 ellipse-curve $-1 -1 -1 $-1 -5.0533823294441804 6.8347148464629681 -18.745000000000005 0 0 -1 3 0 0 1 I I #
-362 straight-curve $-1 -1 -1 $-1 -2.3109521588475337 8.0508878437792397 -18.745000000000005 0 0 1000 I I #
-363 edge $-1 -1 -1 $-1 $354 -0.57368322343663558 $364 0.57368322343663491 $357 $370 forward @7 unknown T -16.5 -8.9550332976942713 -18.745000000000005 -13.85847677911201 8.9550332976942624 -18.745000000000005 #
-364 vertex $-1 -1 -1 $-1 $363 $371 #
-365 straight-curve $-1 -1 -1 $-1 -13.858476779112015 8.9550332976942624 -18.745000000000005 0 0 1000 I I #
-366 ellipse-curve $-1 -1 -1 $-1 -8.3290741295017483 -5.3820587469665044 -18.745000000000005 0 0 -1 -6.5833457148827668 0 0 1 I I #
-367 point $-1 -1 -1 $-1 -13.858476779112012 -8.9550332976942713 -18.745000000000005 #
-368 ellipse-curve $-1 -1 -1 $-1 -8.3290741295017483 5.3820587469665044 -18.745000000000005 0 0 -1 6.5833457148827668 0 0 1 I I #
-369 point $-1 -1 -1 $-1 -2.3109521588475337 8.0508878437792397 -18.745000000000005 #
-370 ellipse-curve $-1 -1 -1 $-1 0 0 -18.745000000000005 0 0 -1 -16.5 0 0 1 I I #
-371 point $-1 -1 -1 $-1 -13.858476779112015 8.9550332976942624 -18.745000000000005 #
End-of-ACIS-data 