1900 0 1 0           
15 SolidWorks 2013 12 ACIS 22.0 NT 24 Tue Nov 24 14:59:34 2015 
1 9.9999999999999995e-007 1e-010 
-0 body $1 -1 -1 $-1 $2 $-1 $-1 F #
-1 name_attrib-gen-attrib $-1 -1 $-1 $-1 $0 2 1 1 1 1 1 1 1 1 1 1 1 1 1 0 1 1 1 @6 holder #
-2 lump $3 -1 -1 $-1 $-1 $4 $0 F #
-3 rgb_color-st-attrib $-1 -1 $-1 $-1 $2 2 1 2 1 1 1 1 1 1 1 1 1 1 1 0 1 1 1 0.792156862745098 0.81960784313725488 0.93333333333333335 #
-4 shell $-1 -1 -1 $-1 $-1 $-1 $5 $-1 $2 F #
-5 face $6 -1 -1 $-1 $7 $8 $4 $-1 $9 forward single F T 1.9495055676737416 5.1986815137966431 0 3.1415926535897931 #
-6 integer_attrib-name_attrib-gen-attrib $-1 -1 $-1 $-1 $5 2 1 2 1 1 1 1 1 1 1 1 1 1 1 0 1 1 1 @16 基体零件-part2-1 0 #
-7 face $10 -1 -1 $-1 $11 $12 $4 $-1 $13 forward single F T 0.84725754106880402 2.2593534428501436 0 3.1415926535897931 #
-8 loop $-1 -1 -1 $-1 $-1 $14 $5 F unknown #
-9 cone-surface $-1 -1 -1 $-1 -6.8169615388455895 7.2020182996458662 -21.745000000000001 0 0 1 1.5388517220701077 0 0 1 I I 0 1 1.5388517220701077 forward I I I I #
-10 integer_attrib-name_attrib-gen-attrib $-1 -1 $-1 $-1 $7 2 1 2 1 1 1 1 1 1 1 1 1 1 1 0 1 1 1 @16 基体零件-part2-1 0 #
-11 face $15 -1 -1 $-1 $16 $17 $4 $-1 $18 forward single F T 1.9495055676737416 5.1986815137966431 0 3.1415926535897931 #
-12 loop $-1 -1 -1 $-1 $-1 $19 $7 F unknown #
-13 cone-surface $-1 -1 -1 $-1 -9.9166542851172323 1.7347234759768071e-015 -21.745000000000001 0 0 1 3.5408359968275294 0 0 1 I I 0 1 3.5408359968275294 forward I I I I #
-14 coedge $-1 -1 -1 $-1 $20 $21 $22 $23 reversed $8 $-1 #
-15 integer_attrib-name_attrib-gen-attrib $-1 -1 $-1 $-1 $11 2 1 2 1 1 1 1 1 1 1 1 1 1 1 0 1 1 1 @16 基体零件-part2-1 0 #
-16 face $24 -1 -1 $-1 $25 $26 $4 $-1 $27 reversed single F T 6.4990168095372489 10.025102565813818 -3.1415926535897931 0 #
-17 loop $-1 -1 -1 $-1 $-1 $28 $11 F unknown #
-18 cone-surface $-1 -1 -1 $-1 -6.8169615388455895 -7.2020182996458662 -21.745000000000001 0 0 1 1.5388517220701077 0 0 1 I I 0 1 1.5388517220701077 forward I I I I #
-19 coedge $-1 -1 -1 $-1 $29 $30 $31 $32 reversed $12 $-1 #
-20 coedge $-1 -1 -1 $-1 $33 $14 $34 $35 forward $8 $-1 #
-21 coedge $-1 -1 -1 $-1 $14 $33 $36 $37 reversed $8 $-1 #
-22 coedge $-1 -1 -1 $-1 $38 $38 $14 $23 forward $39 $-1 #
-23 edge $-1 -1 -1 $-1 $40 0 $41 3.1415926535897931 $22 $42 forward @7 unknown F #
-24 integer_attrib-name_attrib-gen-attrib $-1 -1 $-1 $-1 $16 2 1 2 1 1 1 1 1 1 1 1 1 1 1 0 1 1 1 @16 基体零件-part2-1 0 #
-25 face $43 -1 -1 $-1 $44 $45 $4 $-1 $46 forward single F T 0 0.1875 -0.81285807679756084 0 #
-26 loop $-1 -1 -1 $-1 $-1 $47 $16 F unknown #
-27 cone-surface $-1 -1 -1 $-1 -9.9166542851172323 1.7347234759768071e-015 0.99999999999999656 0 0 -1 -2.2688047180247084 0 0 1 I I 0 1 2.2688047180247084 forward I I I I #
-28 coedge $-1 -1 -1 $-1 $48 $49 $50 $51 reversed $17 $-1 #
-29 coedge $-1 -1 -1 $-1 $52 $19 $53 $54 forward $12 $-1 #
-30 coedge $-1 -1 -1 $-1 $19 $52 $55 $56 reversed $12 $-1 #
-31 coedge $-1 -1 -1 $-1 $57 $57 $19 $32 forward $58 $-1 #
-32 edge $-1 -1 -1 $-1 $59 1.224646799147353e-016 $60 3.1415926535897931 $31 $61 forward @7 unknown F #
-33 coedge $-1 -1 -1 $-1 $21 $20 $62 $63 forward $8 $-1 #
-34 coedge $-1 -1 -1 $-1 $64 $65 $20 $35 reversed $66 $-1 #
-35 edge $-1 -1 -1 $-1 $40 0.0030000000000000001 $67 0.0079999999999999984 $20 $68 forward @7 unknown F #
-36 coedge $-1 -1 -1 $-1 $65 $64 $21 $37 forward $66 $-1 #
-37 edge $-1 -1 -1 $-1 $41 0.0030000000000000001 $69 0.0079999999999999984 $36 $70 forward @7 unknown F #
-38 coedge $-1 -1 -1 $-1 $22 $22 $64 $71 forward $39 $-1 #
-39 loop $-1 -1 -1 $-1 $72 $38 $73 F unknown #
-40 vertex $-1 -1 -1 $-1 $35 $74 #
-41 vertex $-1 -1 -1 $-1 $23 $75 #
-42 ellipse-curve $-1 -1 -1 $-1 -6.8169615388455895 7.2020182996458662 -18.745000000000001 0 0 -1 -1.5388517220701077 0 0 1 I I #
-43 integer_attrib-name_attrib-gen-attrib $-1 -1 $-1 $-1 $25 2 1 2 1 1 1 1 1 1 1 1 1 1 1 0 1 1 1 @16 基体零件-part2-1 0 #
-44 face $76 -1 -1 $-1 $77 $78 $4 $-1 $79 reversed single F T 0 0.5980265125087213 0 1.0860520784604293 #
-45 loop $-1 -1 -1 $-1 $-1 $80 $25 F unknown #
-46 cone-surface $-1 -1 -1 $-1 0 0 -18.745000000000001 0 0 -1 -16 0 0 1 I I 0 1 16 forward I I I I #
-47 coedge $-1 -1 -1 $-1 $81 $82 $83 $84 forward $26 $-1 #
-48 coedge $-1 -1 -1 $-1 $85 $28 $86 $87 forward $17 $-1 #
-49 coedge $-1 -1 -1 $-1 $28 $85 $88 $89 reversed $17 $-1 #
-50 coedge $-1 -1 -1 $-1 $90 $90 $28 $51 forward $91 $-1 #
-51 edge $-1 -1 -1 $-1 $92 0 $93 3.1415926535897931 $50 $94 forward @7 unknown F #
-52 coedge $-1 -1 -1 $-1 $30 $29 $95 $96 forward $12 $-1 #
-53 coedge $-1 -1 -1 $-1 $97 $98 $29 $54 reversed $99 $-1 #
-54 edge $-1 -1 -1 $-1 $59 0.0030000000000000001 $100 0.0079999999999999984 $29 $101 forward @7 unknown F #
-55 coedge $-1 -1 -1 $-1 $98 $97 $30 $56 forward $99 $-1 #
-56 edge $-1 -1 -1 $-1 $60 0.0030000000000000001 $102 0.0079999999999999984 $55 $103 forward @7 unknown F #
-57 coedge $-1 -1 -1 $-1 $31 $31 $97 $104 forward $58 $-1 #
-58 loop $-1 -1 -1 $-1 $-1 $57 $73 F unknown #
-59 vertex $-1 -1 -1 $-1 $54 $105 #
-60 vertex $-1 -1 -1 $-1 $32 $106 #
-61 ellipse-curve $-1 -1 -1 $-1 -9.9166542851172323 1.7347234759768071e-015 -18.745000000000001 0 0 -1 -3.5408359968275294 0 0 1 I I #
-62 coedge $-1 -1 -1 $-1 $107 $107 $33 $63 reversed $108 $-1 #
-63 edge $-1 -1 -1 $-1 $67 -3.1415926535897931 $69 0 $33 $109 forward @7 unknown F #
-64 coedge $-1 -1 -1 $-1 $36 $34 $38 $71 reversed $66 $-1 #
-65 coedge $-1 -1 -1 $-1 $34 $36 $107 $110 forward $66 $-1 #
-66 loop $-1 -1 -1 $-1 $-1 $34 $111 F unknown #
-67 vertex $-1 -1 -1 $-1 $35 $112 #
-68 straight-curve $-1 -1 -1 $-1 -8.3558132609156974 7.2020182996458662 -21.745000000000001 0 0 1000 I I #
-69 vertex $-1 -1 -1 $-1 $63 $113 #
-70 straight-curve $-1 -1 -1 $-1 -5.2781098167754816 7.2020182996458662 -21.745000000000001 0 0 1000 I I #
-71 edge $-1 -1 -1 $-1 $41 -3.1415926535897931 $40 0 $38 $114 forward @7 unknown F #
-72 loop $-1 -1 -1 $-1 $91 $115 $73 F unknown #
-73 face $116 -1 -1 $-1 $117 $39 $4 $-1 $118 reversed single F F #
-74 point $-1 -1 -1 $-1 -8.3558132609156974 7.2020182996458662 -18.745000000000001 #
-75 point $-1 -1 -1 $-1 -5.2781098167754816 7.2020182996458662 -18.745000000000001 #
-76 integer_attrib-name_attrib-gen-attrib $-1 -1 $-1 $-1 $44 2 1 2 1 1 1 1 1 1 1 1 1 1 1 0 1 1 1 @16 基体零件-part2-1 0 #
-77 face $119 -1 -1 $-1 $120 $108 $4 $-1 $121 reversed single F F #
-78 loop $-1 -1 -1 $-1 $-1 $122 $44 F unknown #
-79 cone-surface $-1 -1 -1 $-1 0 0 -18.745000000000001 0 0 -1 -5.0164999999999997 0 0 1 I I 0 1 5.0164999999999997 forward I I I I #
-80 coedge $-1 -1 -1 $-1 $123 $124 $125 $126 forward $45 $-1 #
-81 coedge $-1 -1 -1 $-1 $127 $47 $128 $129 forward $26 $-1 #
-82 coedge $-1 -1 -1 $-1 $47 $127 $130 $131 reversed $26 $-1 #
-83 coedge $-1 -1 -1 $-1 $132 $132 $47 $84 reversed $133 $-1 #
-84 edge $-1 -1 -1 $-1 $134 0 $135 3.1415926535897931 $47 $136 forward @7 unknown F #
-85 coedge $-1 -1 -1 $-1 $49 $48 $137 $138 forward $17 $-1 #
-86 coedge $-1 -1 -1 $-1 $139 $140 $48 $87 reversed $141 $-1 #
-87 edge $-1 -1 -1 $-1 $92 0.0030000000000000001 $142 0.0079999999999999984 $48 $143 forward @7 unknown F #
-88 coedge $-1 -1 -1 $-1 $140 $139 $49 $89 forward $141 $-1 #
-89 edge $-1 -1 -1 $-1 $93 0.0030000000000000001 $144 0.0079999999999999984 $88 $145 forward @7 unknown F #
-90 coedge $-1 -1 -1 $-1 $50 $50 $139 $146 forward $91 $-1 #
-91 loop $-1 -1 -1 $-1 $58 $90 $73 F unknown #
-92 vertex $-1 -1 -1 $-1 $87 $147 #
-93 vertex $-1 -1 -1 $-1 $51 $148 #
-94 ellipse-curve $-1 -1 -1 $-1 -6.8169615388455895 -7.2020182996458662 -18.745000000000001 0 0 -1 -1.5388517220701077 0 0 1 I I #
-95 coedge $-1 -1 -1 $-1 $149 $149 $52 $96 reversed $150 $-1 #
-96 edge $-1 -1 -1 $-1 $100 -3.1415926535897931 $102 0 $52 $151 forward @7 unknown F #
-97 coedge $-1 -1 -1 $-1 $55 $53 $57 $104 reversed $99 $-1 #
-98 coedge $-1 -1 -1 $-1 $53 $55 $149 $152 forward $99 $-1 #
-99 loop $-1 -1 -1 $-1 $-1 $53 $153 F unknown #
-100 vertex $-1 -1 -1 $-1 $54 $154 #
-101 straight-curve $-1 -1 -1 $-1 -13.457490281944761 2.1683508229588631e-015 -21.745000000000001 0 0 1000 I I #
-102 vertex $-1 -1 -1 $-1 $96 $155 #
-103 straight-curve $-1 -1 -1 $-1 -6.375818288289703 1.7347234759768071e-015 -21.745000000000001 0 0 1000 I I #
-104 edge $-1 -1 -1 $-1 $60 -3.1415926535897931 $59 1.224646799147353e-016 $57 $156 forward @7 unknown F #
-105 point $-1 -1 -1 $-1 -13.457490281944761 2.1683508229588631e-015 -18.745000000000001 #
-106 point $-1 -1 -1 $-1 -6.375818288289703 1.7347234759768071e-015 -18.745000000000001 #
-107 coedge $-1 -1 -1 $-1 $62 $62 $65 $110 reversed $108 $-1 #
-108 loop $-1 -1 -1 $-1 $-1 $107 $77 F unknown #
-109 ellipse-curve $-1 -1 -1 $-1 -6.8169615388455895 7.2020182996458662 -13.745000000000003 -0 -0 -1 1.5388517220701077 0 0 1 I I #
-110 edge $-1 -1 -1 $-1 $69 0 $67 3.1415926535897931 $65 $157 forward @7 unknown F #
-111 face $158 -1 -1 $-1 $153 $66 $4 $-1 $159 forward single F T 1.9495055676737416 5.1986815137966431 -3.1415926535897931 0 #
-112 point $-1 -1 -1 $-1 -8.3558132609156974 7.2020182996458662 -13.745000000000003 #
-113 point $-1 -1 -1 $-1 -5.2781098167754816 7.2020182996458662 -13.745000000000003 #
-114 ellipse-curve $-1 -1 -1 $-1 -6.8169615388455895 7.2020182996458662 -18.745000000000001 0 0 -1 -1.5388517220701077 0 0 1 I I #
-115 coedge $-1 -1 -1 $-1 $160 $125 $161 $162 reversed $72 $-1 #
-116 integer_attrib-name_attrib-gen-attrib $-1 -1 $-1 $-1 $73 2 1 2 1 1 1 1 1 1 1 1 1 1 1 0 1 1 1 @16 基体零件-part2-1 0 #
-117 face $163 -1 -1 $-1 $164 $165 $4 $-1 $166 reversed single F T 6.4990168095372489 10.025102565813818 0 3.1415926535897931 #
-118 plane-surface $-1 -1 -1 $-1 -3.4084807694227948 -3.6010091498229331 -18.745000000000001 0 0 -1 -1000 0 0 forward_v I I I I #
-119 integer_attrib-name_attrib-gen-attrib $-1 -1 $-1 $-1 $77 2 1 2 1 1 1 1 1 1 1 1 1 1 1 0 1 1 1 @16 基体零件-part2-1 0 #
-120 face $167 -1 -1 $-1 $168 $169 $4 $-1 $170 reversed single F F #
-121 plane-surface $-1 -1 -1 $-1 -14.588011588478942 0 -13.745000000000001 0 0 -1 -1000 0 0 forward_v I I I I #
-122 coedge $-1 -1 -1 $-1 $171 $172 $173 $174 forward $78 $-1 #
-123 coedge $-1 -1 -1 $-1 $175 $80 $176 $177 forward $45 $-1 #
-124 coedge $-1 -1 -1 $-1 $80 $175 $178 $179 reversed $45 $-1 #
-125 coedge $-1 -1 -1 $-1 $115 $180 $80 $126 reversed $72 $-1 #
-126 edge $-1 -1 -1 $-1 $181 -0.81285807679756084 $182 0 $80 $183 forward @7 unknown F #
-127 coedge $-1 -1 -1 $-1 $82 $81 $184 $185 forward $26 $-1 #
-128 coedge $-1 -1 -1 $-1 $186 $187 $81 $129 reversed $165 $-1 #
-129 edge $-1 -1 -1 $-1 $135 0.014744999999999998 $188 0.022744999999999998 $81 $189 forward @7 unknown F #
-130 coedge $-1 -1 -1 $-1 $187 $186 $82 $131 forward $165 $-1 #
-131 edge $-1 -1 -1 $-1 $134 0.014744999999999998 $190 0.022744999999999998 $130 $191 forward @7 unknown F #
-132 coedge $-1 -1 -1 $-1 $83 $83 $186 $192 reversed $133 $-1 #
-133 loop $-1 -1 -1 $-1 $150 $83 $168 F unknown #
-134 vertex $-1 -1 -1 $-1 $192 $193 #
-135 vertex $-1 -1 -1 $-1 $129 $194 #
-136 ellipse-curve $-1 -1 -1 $-1 -9.9166542851172323 1.7347234759768071e-015 -13.745000000000001 0 0 1 -2.2688047180247084 0 0 1 I I #
-137 coedge $-1 -1 -1 $-1 $195 $195 $85 $138 reversed $169 $-1 #
-138 edge $-1 -1 -1 $-1 $142 -3.1415926535897931 $144 0 $85 $196 forward @7 unknown F #
-139 coedge $-1 -1 -1 $-1 $88 $86 $90 $146 reversed $141 $-1 #
-140 coedge $-1 -1 -1 $-1 $86 $88 $195 $197 forward $141 $-1 #
-141 loop $-1 -1 -1 $-1 $-1 $86 $198 F unknown #
-142 vertex $-1 -1 -1 $-1 $87 $199 #
-143 straight-curve $-1 -1 -1 $-1 -8.3558132609156974 -7.2020182996458662 -21.745000000000001 0 0 1000 I I #
-144 vertex $-1 -1 -1 $-1 $138 $200 #
-145 straight-curve $-1 -1 -1 $-1 -5.2781098167754816 -7.2020182996458662 -21.745000000000001 0 0 1000 I I #
-146 edge $-1 -1 -1 $-1 $93 -3.1415926535897931 $92 0 $90 $201 forward @7 unknown F #
-147 point $-1 -1 -1 $-1 -8.3558132609156974 -7.2020182996458662 -18.745000000000001 #
-148 point $-1 -1 -1 $-1 -5.2781098167754816 -7.2020182996458662 -18.745000000000001 #
-149 coedge $-1 -1 -1 $-1 $95 $95 $98 $152 reversed $150 $-1 #
-150 loop $-1 -1 -1 $-1 $-1 $149 $168 F unknown #
-151 ellipse-curve $-1 -1 -1 $-1 -9.9166542851172323 1.7347234759768071e-015 -13.745000000000003 -0 -0 -1 3.5408359968275294 0 0 1 I I #
-152 edge $-1 -1 -1 $-1 $102 0 $100 3.1415926535897931 $98 $202 forward @7 unknown F #
-153 face $203 -1 -1 $-1 $198 $99 $4 $-1 $204 forward single F T 0.84725754106880402 2.2593534428501436 -3.1415926535897931 0 #
-154 point $-1 -1 -1 $-1 -13.457490281944761 2.1683508229588631e-015 -13.745000000000003 #
-155 point $-1 -1 -1 $-1 -6.375818288289703 1.7347234759768071e-015 -13.745000000000003 #
-156 ellipse-curve $-1 -1 -1 $-1 -9.9166542851172323 1.7347234759768071e-015 -18.745000000000001 0 0 -1 -3.5408359968275294 0 0 1 I I #
-157 ellipse-curve $-1 -1 -1 $-1 -6.8169615388455895 7.2020182996458662 -13.745000000000003 -0 -0 -1 1.5388517220701077 0 0 1 I I #
-158 integer_attrib-name_attrib-gen-attrib $-1 -1 $-1 $-1 $111 2 1 2 1 1 1 1 1 1 1 1 1 1 1 0 1 1 1 @16 基体零件-part2-1 0 #
-159 cone-surface $-1 -1 -1 $-1 -6.8169615388455895 7.2020182996458662 -21.745000000000001 0 0 1 1.5388517220701077 0 0 1 I I 0 1 1.5388517220701077 forward I I I I #
-160 coedge $-1 -1 -1 $-1 $205 $115 $206 $207 reversed $72 $-1 #
-161 coedge $-1 -1 -1 $-1 $178 $208 $115 $162 forward $209 $-1 #
-162 edge $-1 -1 -1 $-1 $210 3.1062126691914642 $181 5.4703272303820247 $161 $211 forward @7 unknown F #
-163 integer_attrib-name_attrib-gen-attrib $-1 -1 $-1 $-1 $117 2 1 2 1 1 1 1 1 1 1 1 1 1 1 0 1 1 1 @16 基体零件-part2-1 0 #
-164 face $212 -1 -1 $-1 $213 $214 $4 $-1 $215 forward single F F #
-165 loop $-1 -1 -1 $-1 $-1 $128 $117 F unknown #
-166 cone-surface $-1 -1 -1 $-1 -9.9166542851172323 1.7347234759768071e-015 0.99999999999999656 0 0 -1 -2.2688047180247084 0 0 1 I I 0 1 2.2688047180247084 forward I I I I #
-167 integer_attrib-name_attrib-gen-attrib $-1 -1 $-1 $-1 $120 2 1 2 1 1 1 1 1 1 1 1 1 1 1 0 1 1 1 @16 基体零件-part2-1 0 #
-168 face $216 -1 -1 $-1 $111 $133 $4 $-1 $217 reversed single F F #
-169 loop $-1 -1 -1 $-1 $-1 $195 $120 F unknown #
-170 plane-surface $-1 -1 -1 $-1 -14.588011588478942 0 -13.745000000000001 0 0 -1 -1000 0 0 forward_v I I I I #
-171 coedge $-1 -1 -1 $-1 $218 $122 $219 $220 forward $78 $-1 #
-172 coedge $-1 -1 -1 $-1 $122 $218 $221 $222 reversed $78 $-1 #
-173 coedge $-1 -1 -1 $-1 $223 $205 $122 $174 reversed $72 $-1 #
-174 edge $-1 -1 -1 $-1 $224 -1.0860520784604293 $225 0 $122 $226 forward @7 unknown F #
-175 coedge $-1 -1 -1 $-1 $124 $123 $227 $228 reversed $45 $-1 #
-176 coedge $-1 -1 -1 $-1 $229 $230 $123 $177 reversed $231 $-1 #
-177 edge $-1 -1 -1 $-1 $182 0 $232 0.0030000000000000001 $123 $233 forward @7 unknown F #
-178 coedge $-1 -1 -1 $-1 $234 $161 $124 $179 forward $209 $-1 #
-179 edge $-1 -1 -1 $-1 $181 0 $235 0.0030000000000000001 $178 $236 forward @7 unknown F #
-180 coedge $-1 -1 -1 $-1 $125 $237 $229 $238 reversed $72 $-1 #
-181 vertex $-1 -1 -1 $-1 $179 $239 #
-182 vertex $-1 -1 -1 $-1 $177 $240 #
-183 ellipse-curve $-1 -1 -1 $-1 0 0 -18.745000000000001 0 0 -1 -16 0 0 1 I I #
-184 coedge $-1 -1 -1 $-1 $241 $241 $127 $185 reversed $214 $-1 #
-185 edge $-1 -1 -1 $-1 $188 -3.1415926535897931 $190 0 $127 $242 forward @7 unknown F #
-186 coedge $-1 -1 -1 $-1 $130 $128 $132 $192 forward $165 $-1 #
-187 coedge $-1 -1 -1 $-1 $128 $130 $241 $243 forward $165 $-1 #
-188 vertex $-1 -1 -1 $-1 $129 $244 #
-189 straight-curve $-1 -1 -1 $-1 -7.6478495670925239 2.0125719195587443e-015 0.99999999999999656 0 0 -1000 I I #
-190 vertex $-1 -1 -1 $-1 $185 $245 #
-191 straight-curve $-1 -1 -1 $-1 -12.18545900314194 1.7347234759768071e-015 0.99999999999999656 0 0 -1000 I I #
-192 edge $-1 -1 -1 $-1 $135 -3.1415926535897931 $134 0 $186 $246 forward @7 unknown F #
-193 point $-1 -1 -1 $-1 -12.18545900314194 1.7347234759768071e-015 -13.745000000000001 #
-194 point $-1 -1 -1 $-1 -7.6478495670925239 2.0125719195587443e-015 -13.745000000000001 #
-195 coedge $-1 -1 -1 $-1 $137 $137 $140 $197 reversed $169 $-1 #
-196 ellipse-curve $-1 -1 -1 $-1 -6.8169615388455895 -7.2020182996458662 -13.745000000000003 -0 -0 -1 1.5388517220701077 0 0 1 I I #
-197 edge $-1 -1 -1 $-1 $144 0 $142 3.1415926535897931 $140 $247 forward @7 unknown F #
-198 face $248 -1 -1 $-1 $73 $141 $4 $-1 $249 forward single F T 1.9495055676737416 5.1986815137966431 -3.1415926535897931 0 #
-199 point $-1 -1 -1 $-1 -8.3558132609156974 -7.2020182996458662 -13.745000000000003 #
-200 point $-1 -1 -1 $-1 -5.2781098167754816 -7.2020182996458662 -13.745000000000003 #
-201 ellipse-curve $-1 -1 -1 $-1 -6.8169615388455895 -7.2020182996458662 -18.745000000000001 0 0 -1 -1.5388517220701077 0 0 1 I I #
-202 ellipse-curve $-1 -1 -1 $-1 -9.9166542851172323 1.7347234759768071e-015 -13.745000000000003 -0 -0 -1 3.5408359968275294 0 0 1 I I #
-203 integer_attrib-name_attrib-gen-attrib $-1 -1 $-1 $-1 $153 2 1 2 1 1 1 1 1 1 1 1 1 1 1 0 1 1 1 @16 基体零件-part2-1 0 #
-204 cone-surface $-1 -1 -1 $-1 -9.9166542851172323 1.7347234759768071e-015 -21.745000000000001 0 0 1 3.5408359968275294 0 0 1 I I 0 1 3.5408359968275294 forward I I I I #
-205 coedge $-1 -1 -1 $-1 $173 $160 $250 $251 reversed $72 $-1 #
-206 coedge $-1 -1 -1 $-1 $252 $253 $160 $207 forward $254 $-1 #
-207 edge $-1 -1 -1 $-1 $255 -1.0860520784604275 $210 -0.035379984398328707 $206 $256 forward @7 unknown F #
-208 coedge $-1 -1 -1 $-1 $161 $234 $252 $257 reversed $209 $-1 #
-209 loop $-1 -1 -1 $-1 $-1 $234 $213 F unknown #
-210 vertex $-1 -1 -1 $-1 $257 $258 #
-211 ellipse-curve $-1 -1 -1 $-1 -6.8169615388455895 -7.2020182996458662 -18.745000000000001 0 0 -1 -6.0833457148827694 0 0 1 I I #
-212 integer_attrib-name_attrib-gen-attrib $-1 -1 $-1 $-1 $164 2 1 2 1 1 1 1 1 1 1 1 1 1 1 0 1 1 1 @16 基体零件-part2-1 0 #
-213 face $259 -1 -1 $-1 $260 $209 $4 $-1 $261 forward single F T 0 0.49314968121252206 3.1062126691914642 5.4703272303820247 #
-214 loop $-1 -1 -1 $-1 $262 $241 $164 F unknown #
-215 plane-surface $-1 -1 -1 $-1 -9.9166542851172323 1.7347234759768071e-015 -21.745000000000001 0 0 -1 -1000 0 0 forward_v I I I I #
-216 integer_attrib-name_attrib-gen-attrib $-1 -1 $-1 $-1 $168 2 1 2 1 1 1 1 1 1 1 1 1 1 1 0 1 1 1 @16 基体零件-part2-1 0 #
-217 plane-surface $-1 -1 -1 $-1 -14.588011588478942 0 -13.745000000000001 0 0 -1 -1000 0 0 forward_v I I I I #
-218 coedge $-1 -1 -1 $-1 $172 $171 $263 $264 reversed $78 $-1 #
-219 coedge $-1 -1 -1 $-1 $250 $265 $171 $220 reversed $266 $-1 #
-220 edge $-1 -1 -1 $-1 $225 0 $267 0.0030000000000000001 $171 $268 forward @7 unknown F #
-221 coedge $-1 -1 -1 $-1 $269 $270 $172 $222 forward $271 $-1 #
-222 edge $-1 -1 -1 $-1 $224 0 $272 0.0030000000000000001 $221 $273 forward @7 unknown F #
-223 coedge $-1 -1 -1 $-1 $237 $173 $270 $274 reversed $72 $-1 #
-224 vertex $-1 -1 -1 $-1 $222 $275 #
-225 vertex $-1 -1 -1 $-1 $220 $276 #
-226 ellipse-curve $-1 -1 -1 $-1 0 0 -18.745000000000001 0 0 1 -5.0164999999999997 0 0 1 I I #
-227 coedge $-1 -1 -1 $-1 $277 $278 $175 $228 forward $262 $-1 #
-228 edge $-1 -1 -1 $-1 $235 -0.81285807679756084 $232 0 $227 $279 forward @7 unknown F #
-229 coedge $-1 -1 -1 $-1 $280 $176 $180 $238 forward $231 $-1 #
-230 coedge $-1 -1 -1 $-1 $176 $280 $277 $281 reversed $231 $-1 #
-231 loop $-1 -1 -1 $-1 $-1 $176 $260 F unknown #
-232 vertex $-1 -1 -1 $-1 $177 $282 #
-233 straight-curve $-1 -1 -1 $-1 -16 0 -18.745000000000001 0 0 -1000 I I #
-234 coedge $-1 -1 -1 $-1 $208 $178 $278 $283 reversed $209 $-1 #
-235 vertex $-1 -1 -1 $-1 $179 $284 #
-236 straight-curve $-1 -1 -1 $-1 -10.998808820553734 -11.620077647284006 -18.745000000000001 0 0 -1000 I I #
-237 coedge $-1 -1 -1 $-1 $180 $223 $285 $286 reversed $72 $-1 #
-238 edge $-1 -1 -1 $-1 $182 0 $287 0.81285807679756061 $229 $288 forward @7 unknown F #
-239 point $-1 -1 -1 $-1 -10.998808820553734 -11.620077647284006 -18.745000000000001 #
-240 point $-1 -1 -1 $-1 -16 0 -18.745000000000001 #
-241 coedge $-1 -1 -1 $-1 $184 $184 $187 $243 reversed $214 $-1 #
-242 ellipse-curve $-1 -1 -1 $-1 -9.9166542851172323 1.7347234759768071e-015 -21.745000000000001 0 0 -1 -2.2688047180247084 0 0 1 I I #
-243 edge $-1 -1 -1 $-1 $190 0 $188 3.1415926535897931 $187 $289 forward @7 unknown F #
-244 point $-1 -1 -1 $-1 -7.6478495670925239 2.0125719195587443e-015 -21.745000000000001 #
-245 point $-1 -1 -1 $-1 -12.18545900314194 1.7347234759768071e-015 -21.745000000000001 #
-246 ellipse-curve $-1 -1 -1 $-1 -9.9166542851172323 1.7347234759768071e-015 -13.745000000000001 0 0 1 -2.2688047180247084 0 0 1 I I #
-247 ellipse-curve $-1 -1 -1 $-1 -6.8169615388455895 -7.2020182996458662 -13.745000000000003 -0 -0 -1 1.5388517220701077 0 0 1 I I #
-248 integer_attrib-name_attrib-gen-attrib $-1 -1 $-1 $-1 $198 2 1 2 1 1 1 1 1 1 1 1 1 1 1 0 1 1 1 @16 基体零件-part2-1 0 #
-249 cone-surface $-1 -1 -1 $-1 -6.8169615388455895 -7.2020182996458662 -21.745000000000001 0 0 1 1.5388517220701077 0 0 1 I I 0 1 1.5388517220701077 forward I I I I #
-250 coedge $-1 -1 -1 $-1 $290 $219 $205 $251 forward $266 $-1 #
-251 edge $-1 -1 -1 $-1 $225 0 $255 1.0860520784604288 $250 $291 forward @7 unknown F #
-252 coedge $-1 -1 -1 $-1 $292 $206 $208 $257 forward $254 $-1 #
-253 coedge $-1 -1 -1 $-1 $206 $292 $290 $293 reversed $254 $-1 #
-254 loop $-1 -1 -1 $-1 $-1 $292 $294 F unknown #
-255 vertex $-1 -1 -1 $-1 $251 $295 #
-256 ellipse-curve $-1 -1 -1 $-1 -3.7355454013362275 -7.0929523334473199 -18.745000000000001 0 0 -1 3 0 0 1 I I #
-257 edge $-1 -1 -1 $-1 $210 0 $296 0.0030000000000000001 $252 $297 forward @7 unknown F #
-258 point $-1 -1 -1 $-1 -0.73742282043077856 -6.9868345221956289 -18.745000000000001 #
-259 integer_attrib-name_attrib-gen-attrib $-1 -1 $-1 $-1 $213 2 1 2 1 1 1 1 1 1 1 1 1 1 1 0 1 1 1 @16 基体零件-part2-1 0 #
-260 face $298 -1 -1 $-1 $299 $231 $4 $-1 $300 forward single F T 0 0.1875 0 0.81285807679756061 #
-261 cone-surface $-1 -1 -1 $-1 -6.8169615388455895 -7.2020182996458662 -18.745000000000001 0 0 -1 -6.0833457148827694 0 0 1 I I 0 1 6.0833457148827694 forward I I I I #
-262 loop $-1 -1 -1 $-1 $-1 $278 $164 F unknown #
-263 coedge $-1 -1 -1 $-1 $301 $302 $218 $264 forward $262 $-1 #
-264 edge $-1 -1 -1 $-1 $272 -1.0860520784604293 $267 0 $263 $303 forward @7 unknown F #
-265 coedge $-1 -1 -1 $-1 $219 $290 $301 $304 reversed $266 $-1 #
-266 loop $-1 -1 -1 $-1 $-1 $219 $305 F unknown #
-267 vertex $-1 -1 -1 $-1 $220 $306 #
-268 straight-curve $-1 -1 -1 $-1 -5.0164999999999997 0 -18.745000000000001 0 0 -1000 I I #
-269 coedge $-1 -1 -1 $-1 $307 $221 $302 $308 reversed $271 $-1 #
-270 coedge $-1 -1 -1 $-1 $221 $307 $223 $274 forward $271 $-1 #
-271 loop $-1 -1 -1 $-1 $-1 $269 $309 F unknown #
-272 vertex $-1 -1 -1 $-1 $222 $310 #
-273 straight-curve $-1 -1 -1 $-1 -2.3375991399991465 4.4385698722308353 -18.745000000000001 0 0 -1000 I I #
-274 edge $-1 -1 -1 $-1 $311 -3.1062126691914642 $224 -2.0555405751293652 $270 $312 forward @7 unknown F #
-275 point $-1 -1 -1 $-1 -2.3375991399991465 4.4385698722308353 -18.745000000000001 #
-276 point $-1 -1 -1 $-1 -5.0164999999999997 0 -18.745000000000001 #
-277 coedge $-1 -1 -1 $-1 $313 $227 $230 $281 forward $262 $-1 #
-278 coedge $-1 -1 -1 $-1 $227 $314 $234 $283 forward $262 $-1 #
-279 ellipse-curve $-1 -1 -1 $-1 0 0 -21.745000000000001 0 0 -1 -16 0 0 1 I I #
-280 coedge $-1 -1 -1 $-1 $230 $229 $315 $316 forward $231 $-1 #
-281 edge $-1 -1 -1 $-1 $232 0 $317 0.81285807679756061 $277 $318 forward @7 unknown F #
-282 point $-1 -1 -1 $-1 -16 0 -21.745000000000001 #
-283 edge $-1 -1 -1 $-1 $296 3.1062126691914642 $235 5.4703272303820247 $278 $319 forward @7 unknown F #
-284 point $-1 -1 -1 $-1 -10.998808820553734 -11.620077647284006 -21.745000000000001 #
-285 coedge $-1 -1 -1 $-1 $320 $315 $237 $286 forward $321 $-1 #
-286 edge $-1 -1 -1 $-1 $287 -2.3287345767922325 $311 0.035379984398329081 $285 $322 forward @7 unknown F #
-287 vertex $-1 -1 -1 $-1 $238 $323 #
-288 ellipse-curve $-1 -1 -1 $-1 0 0 -18.745000000000001 0 0 -1 -16 0 0 1 I I #
-289 ellipse-curve $-1 -1 -1 $-1 -9.9166542851172323 1.7347234759768071e-015 -21.745000000000001 0 0 -1 -2.2688047180247084 0 0 1 I I #
-290 coedge $-1 -1 -1 $-1 $265 $250 $253 $293 forward $266 $-1 #
-291 ellipse-curve $-1 -1 -1 $-1 0 0 -18.745000000000001 0 0 1 -5.0164999999999997 0 0 1 I I #
-292 coedge $-1 -1 -1 $-1 $253 $252 $314 $324 reversed $254 $-1 #
-293 edge $-1 -1 -1 $-1 $255 0 $325 0.0030000000000000001 $290 $326 forward @7 unknown F #
-294 face $327 -1 -1 $-1 $-1 $254 $4 $-1 $328 forward single F T 0 1.0000000000000002 2.0555405751293652 3.1062126691914642 #
-295 point $-1 -1 -1 $-1 -2.3375991399991474 -4.4385698722308344 -18.745000000000001 #
-296 vertex $-1 -1 -1 $-1 $257 $329 #
-297 straight-curve $-1 -1 -1 $-1 -0.73742282043077856 -6.9868345221956289 -18.745000000000001 0 0 -1000 I I #
-298 integer_attrib-name_attrib-gen-attrib $-1 -1 $-1 $-1 $260 2 1 2 1 1 1 1 1 1 1 1 1 1 1 0 1 1 1 @16 基体零件-part2-1 0 #
-299 face $330 -1 -1 $-1 $309 $321 $4 $-1 $331 forward single F T 0 0.49314968121252206 0.81285807679756039 3.176972637988122 #
-300 cone-surface $-1 -1 -1 $-1 0 0 -18.745000000000001 0 0 -1 -16 0 0 1 I I 0 1 16 forward I I I I #
-301 coedge $-1 -1 -1 $-1 $314 $263 $265 $304 forward $262 $-1 #
-302 coedge $-1 -1 -1 $-1 $263 $313 $269 $308 forward $262 $-1 #
-303 ellipse-curve $-1 -1 -1 $-1 0 0 -21.745000000000001 0 0 1 -5.0164999999999997 0 0 1 I I #
-304 edge $-1 -1 -1 $-1 $267 0 $325 1.0860520784604288 $301 $332 forward @7 unknown F #
-305 face $333 -1 -1 $-1 $294 $266 $4 $-1 $334 reversed single F T 0 0.5980265125087213 -1.0860520784604288 0 #
-306 point $-1 -1 -1 $-1 -5.0164999999999997 0 -21.745000000000001 #
-307 coedge $-1 -1 -1 $-1 $270 $269 $320 $335 reversed $271 $-1 #
-308 edge $-1 -1 -1 $-1 $336 -3.1062126691914642 $272 -2.0555405751293652 $302 $337 forward @7 unknown F #
-309 face $338 -1 -1 $-1 $305 $271 $4 $-1 $339 forward single F T 0 1.0000000000000002 -3.1062126691914642 -2.0555405751293652 #
-310 point $-1 -1 -1 $-1 -2.3375991399991465 4.4385698722308353 -21.745000000000001 #
-311 vertex $-1 -1 -1 $-1 $335 $340 #
-312 ellipse-curve $-1 -1 -1 $-1 -3.7355454013362257 7.0929523334473199 -18.745000000000001 0 0 -1 -2.9999999999999996 0 0 1 I I #
-313 coedge $-1 -1 -1 $-1 $302 $277 $341 $342 forward $262 $-1 #
-314 coedge $-1 -1 -1 $-1 $278 $301 $292 $324 forward $262 $-1 #
-315 coedge $-1 -1 -1 $-1 $285 $341 $280 $316 reversed $321 $-1 #
-316 edge $-1 -1 -1 $-1 $287 0 $317 0.0030000000000000001 $280 $343 forward @7 unknown F #
-317 vertex $-1 -1 -1 $-1 $281 $344 #
-318 ellipse-curve $-1 -1 -1 $-1 0 0 -21.745000000000001 0 0 -1 -16 0 0 1 I I #
-319 ellipse-curve $-1 -1 -1 $-1 -6.8169615388455895 -7.2020182996458662 -21.745000000000001 0 0 -1 -6.0833457148827694 0 0 1 I I #
-320 coedge $-1 -1 -1 $-1 $341 $285 $307 $335 forward $321 $-1 #
-321 loop $-1 -1 -1 $-1 $-1 $341 $299 F unknown #
-322 ellipse-curve $-1 -1 -1 $-1 -6.8169615388455878 7.2020182996458679 -18.745000000000001 0 0 -1 6.0833457148827694 0 0 1 I I #
-323 point $-1 -1 -1 $-1 -10.998808820553739 11.620077647284004 -18.745000000000001 #
-324 edge $-1 -1 -1 $-1 $325 -1.0860520784604275 $296 -0.035379984398328707 $314 $345 forward @7 unknown F #
-325 vertex $-1 -1 -1 $-1 $304 $346 #
-326 straight-curve $-1 -1 -1 $-1 -2.3375991399991474 -4.4385698722308344 -18.745000000000001 0 0 -1000 I I #
-327 integer_attrib-name_attrib-gen-attrib $-1 -1 $-1 $-1 $294 2 1 2 1 1 1 1 1 1 1 1 1 1 1 0 1 1 1 @16 基体零件-part2-1 0 #
-328 cone-surface $-1 -1 -1 $-1 -3.7355454013362275 -7.0929523334473199 -18.745000000000001 0 0 -1 -2.9999999999999996 0 0 1 I I 0 1 2.9999999999999996 forward I I I I #
-329 point $-1 -1 -1 $-1 -0.73742282043077856 -6.9868345221956289 -21.745000000000001 #
-330 integer_attrib-name_attrib-gen-attrib $-1 -1 $-1 $-1 $299 2 1 2 1 1 1 1 1 1 1 1 1 1 1 0 1 1 1 @16 基体零件-part2-1 0 #
-331 cone-surface $-1 -1 -1 $-1 -6.8169615388455878 7.2020182996458679 -18.745000000000001 0 0 -1 -6.0833457148827694 0 0 1 I I 0 1 6.0833457148827694 forward I I I I #
-332 ellipse-curve $-1 -1 -1 $-1 0 0 -21.745000000000001 0 0 1 -5.0164999999999997 0 0 1 I I #
-333 integer_attrib-name_attrib-gen-attrib $-1 -1 $-1 $-1 $305 2 1 2 1 1 1 1 1 1 1 1 1 1 1 0 1 1 1 @16 基体零件-part2-1 0 #
-334 cone-surface $-1 -1 -1 $-1 0 0 -18.745000000000001 0 0 -1 -5.0164999999999997 0 0 1 I I 0 1 5.0164999999999997 forward I I I I #
-335 edge $-1 -1 -1 $-1 $311 0 $336 0.0030000000000000001 $320 $347 forward @7 unknown F #
-336 vertex $-1 -1 -1 $-1 $335 $348 #
-337 ellipse-curve $-1 -1 -1 $-1 -3.7355454013362257 7.0929523334473199 -21.745000000000001 0 0 -1 -2.9999999999999996 0 0 1 I I #
-338 integer_attrib-name_attrib-gen-attrib $-1 -1 $-1 $-1 $309 2 1 2 1 1 1 1 1 1 1 1 1 1 1 0 1 1 1 @16 基体零件-part2-1 0 #
-339 cone-surface $-1 -1 -1 $-1 -3.7355454013362257 7.0929523334473199 -18.745000000000001 0 0 -1 -2.9999999999999996 0 0 1 I I 0 1 2.9999999999999996 forward I I I I #
-340 point $-1 -1 -1 $-1 -0.73742282043077689 6.9868345221956281 -18.745000000000001 #
-341 coedge $-1 -1 -1 $-1 $315 $320 $313 $342 reversed $321 $-1 #
-342 edge $-1 -1 -1 $-1 $317 -2.3287345767922325 $336 0.035379984398329081 $313 $349 forward @7 unknown F #
-343 straight-curve $-1 -1 -1 $-1 -10.998808820553739 11.620077647284004 -18.745000000000001 0 0 -1000 I I #
-344 point $-1 -1 -1 $-1 -10.998808820553739 11.620077647284004 -21.745000000000001 #
-345 ellipse-curve $-1 -1 -1 $-1 -3.7355454013362275 -7.0929523334473199 -21.745000000000001 0 0 -1 3 0 0 1 I I #
-346 point $-1 -1 -1 $-1 -2.3375991399991474 -4.4385698722308344 -21.745000000000001 #
-347 straight-curve $-1 -1 -1 $-1 -0.73742282043077689 6.9868345221956281 -18.745000000000001 0 0 -1000 I I #
-348 point $-1 -1 -1 $-1 -0.73742282043077689 6.9868345221956281 -21.745000000000001 #
-349 ellipse-curve $-1 -1 -1 $-1 -6.8169615388455878 7.2020182996458679 -21.745000000000001 0 0 -1 6.0833457148827694 0 0 1 I I #
End-of-ACIS-data 