2300 0 1 0           
19 Example Application 12 ACIS 23.0 NT 24 Wed Dec 09 20:01:08 2015 
1 9.9999999999999995e-007 1e-010 
-0 body $1 -1 -1 $-1 $2 $-1 $-1 F #
-1 name_attrib-gen-attrib $-1 -1 $-1 $-1 $0 2 1 1 1 1 1 1 1 1 1 1 1 1 1 0 1 1 1 @10 demo_part2 #
-2 lump $3 -1 -1 $-1 $-1 $4 $0 F #
-3 rgb_color-st-attrib $-1 -1 $-1 $-1 $2 2 1 2 1 1 1 1 1 1 1 1 1 1 1 0 1 1 1 1 1 1 #
-4 shell $-1 -1 -1 $-1 $-1 $-1 $5 $-1 $2 F #
-5 face $6 -1 -1 $-1 $7 $8 $4 $-1 $9 reversed single F T 0 7.1164598503886829 -3.1415926535897931 0 #
-6 integer_attrib-name_attrib-gen-attrib $-1 -1 $10 $-1 $5 2 1 1 1 1 1 1 1 1 1 1 1 1 1 0 1 1 1 @10 face index 0 #
-7 face $11 -1 -1 $-1 $12 $13 $4 $-1 $14 forward single F F #
-8 loop $-1 -1 -1 $-1 $-1 $15 $5 F unknown #
-9 cone-surface $-1 -1 -1 $-1 -27.813882868297142 13.494933014764191 -120 0 0 1 16.862316730901799 0 0 1 I I 0 1 16.862316730901799 forward I I I I #
-10 integer_attrib-name_attrib-gen-attrib $-1 -1 $-1 $6 $5 2 1 2 1 1 1 1 1 1 1 1 1 1 1 0 1 1 1 @15 基体零件-demo-1 0 #
-11 integer_attrib-name_attrib-gen-attrib $-1 -1 $16 $-1 $7 2 1 1 1 1 1 1 1 1 1 1 1 1 1 0 1 1 1 @10 face index 1 #
-12 face $17 -1 -1 $-1 $18 $19 $4 $-1 $20 forward single F F #
-13 loop $-1 -1 -1 $-1 $-1 $21 $7 F unknown #
-14 plane-surface $-1 -1 -1 $-1 64.960663310341843 47.492318457249482 -120 1 0 0 0 0 -1000 forward_v I I I I #
-15 coedge $-1 -1 -1 $-1 $22 $23 $24 $25 reversed $8 $-1 #
-16 integer_attrib-name_attrib-gen-attrib $-1 -1 $-1 $11 $7 2 1 2 1 1 1 1 1 1 1 1 1 1 1 0 1 1 1 @15 基体零件-demo-1 0 #
-17 integer_attrib-name_attrib-gen-attrib $-1 -1 $26 $-1 $12 2 1 1 1 1 1 1 1 1 1 1 1 1 1 0 1 1 1 @10 face index 2 #
-18 face $27 -1 -1 $-1 $28 $29 $4 $-1 $30 forward single F F #
-19 loop $-1 -1 -1 $-1 $-1 $31 $12 F unknown #
-20 plane-surface $-1 -1 -1 $-1 -64.960663310341843 -47.492318457249482 -120 0 -1 0 0 0 -1000 forward_v I I I I #
-21 coedge $-1 -1 -1 $-1 $32 $33 $34 $35 forward $13 $-1 #
-22 coedge $-1 -1 -1 $-1 $36 $15 $37 $38 forward $8 $-1 #
-23 coedge $-1 -1 -1 $-1 $15 $36 $39 $40 reversed $8 $-1 #
-24 coedge $-1 -1 -1 $-1 $41 $41 $15 $25 forward $42 $-1 #
-25 edge $-1 -1 -1 $-1 $43 -3.1415926535897931 $44 0 $24 $45 forward @7 unknown F #
-26 integer_attrib-name_attrib-gen-attrib $-1 -1 $-1 $17 $12 2 1 2 1 1 1 1 1 1 1 1 1 1 1 0 1 1 1 @15 基体零件-demo-1 0 #
-27 integer_attrib-name_attrib-gen-attrib $-1 -1 $46 $-1 $18 2 1 1 1 1 1 1 1 1 1 1 1 1 1 0 1 1 1 @10 face index 3 #
-28 face $47 -1 -1 $-1 $48 $49 $4 $-1 $50 forward single F F #
-29 loop $-1 -1 -1 $-1 $-1 $51 $18 F unknown #
-30 plane-surface $-1 -1 -1 $-1 -64.960663310341843 47.492318457249482 -120 -1 0 0 0 0 1000 forward_v I I I I #
-31 coedge $-1 -1 -1 $-1 $52 $53 $54 $55 forward $19 $-1 #
-32 coedge $-1 -1 -1 $-1 $54 $21 $56 $57 forward $13 $-1 #
-33 coedge $-1 -1 -1 $-1 $21 $54 $58 $59 forward $13 $-1 #
-34 coedge $-1 -1 -1 $-1 $60 $61 $21 $35 reversed $49 $-1 #
-35 edge $-1 -1 -1 $-1 $62 0 $63 0.12 $21 $64 forward @7 unknown F #
-36 coedge $-1 -1 -1 $-1 $23 $22 $65 $66 reversed $8 $-1 #
-37 coedge $-1 -1 -1 $-1 $67 $68 $22 $38 reversed $69 $-1 #
-38 edge $-1 -1 -1 $-1 $43 0 $70 0.12 $22 $71 forward @7 unknown F #
-39 coedge $-1 -1 -1 $-1 $68 $67 $23 $40 forward $69 $-1 #
-40 edge $-1 -1 -1 $-1 $44 0 $72 0.12 $39 $73 forward @7 unknown F #
-41 coedge $-1 -1 -1 $-1 $24 $24 $67 $74 forward $42 $-1 #
-42 loop $-1 -1 -1 $-1 $75 $41 $76 F unknown #
-43 vertex $-1 -1 -1 $-1 $38 $77 #
-44 vertex $-1 -1 -1 $-1 $25 $78 #
-45 ellipse-curve $-1 -1 -1 $-1 -27.813882868297142 13.494933014764191 -120 0 0 1 16.862316730901799 0 0 1 I I #
-46 integer_attrib-name_attrib-gen-attrib $-1 -1 $-1 $27 $18 2 1 2 1 1 1 1 1 1 1 1 1 1 1 0 1 1 1 @15 基体零件-demo-1 0 #
-47 integer_attrib-name_attrib-gen-attrib $-1 -1 $79 $-1 $28 2 1 1 1 1 1 1 1 1 1 1 1 1 1 0 1 1 1 @10 face index 4 #
-48 face $80 -1 -1 $-1 $81 $69 $4 $-1 $82 reversed single F T 0 7.1164598503886829 0 3.1415926535897931 #
-49 loop $-1 -1 -1 $-1 $-1 $83 $28 F unknown #
-50 plane-surface $-1 -1 -1 $-1 -64.960663310341843 47.492318457249482 -120 0 1 0 0 0 1000 forward_v I I I I #
-51 coedge $-1 -1 -1 $-1 $84 $85 $86 $87 forward $29 $-1 #
-52 coedge $-1 -1 -1 $-1 $86 $31 $88 $89 forward $19 $-1 #
-53 coedge $-1 -1 -1 $-1 $31 $86 $90 $91 forward $19 $-1 #
-54 coedge $-1 -1 -1 $-1 $33 $32 $31 $55 reversed $13 $-1 #
-55 edge $-1 -1 -1 $-1 $92 0 $93 0.12 $31 $94 forward @7 unknown F #
-56 coedge $-1 -1 -1 $-1 $95 $88 $32 $57 reversed $96 $-1 #
-57 edge $-1 -1 -1 $-1 $63 0 $93 0.09498463691449896 $32 $97 forward @7 unknown F #
-58 coedge $-1 -1 -1 $-1 $90 $98 $33 $59 reversed $75 $-1 #
-59 edge $-1 -1 -1 $-1 $92 -0.09498463691449896 $62 0 $33 $99 forward @7 unknown F #
-60 coedge $-1 -1 -1 $-1 $83 $34 $98 $100 forward $49 $-1 #
-61 coedge $-1 -1 -1 $-1 $34 $83 $95 $101 forward $49 $-1 #
-62 vertex $-1 -1 -1 $-1 $35 $102 #
-63 vertex $-1 -1 -1 $-1 $101 $103 #
-64 straight-curve $-1 -1 -1 $-1 64.960663310341843 47.492318457249482 -120 0 0 1000 I I #
-65 coedge $-1 -1 -1 $-1 $104 $104 $36 $66 forward $105 $-1 #
-66 edge $-1 -1 -1 $-1 $72 0 $70 3.1415926535897931 $65 $106 forward @7 unknown F #
-67 coedge $-1 -1 -1 $-1 $39 $37 $41 $74 reversed $69 $-1 #
-68 coedge $-1 -1 -1 $-1 $37 $39 $104 $107 reversed $69 $-1 #
-69 loop $-1 -1 -1 $-1 $-1 $37 $48 F unknown #
-70 vertex $-1 -1 -1 $-1 $38 $108 #
-71 straight-curve $-1 -1 -1 $-1 -44.676199599198938 13.494933014764193 -120 0 0 1000 I I #
-72 vertex $-1 -1 -1 $-1 $107 $109 #
-73 straight-curve $-1 -1 -1 $-1 -10.951566137395341 13.494933014764191 -120 0 0 1000 I I #
-74 edge $-1 -1 -1 $-1 $44 0 $43 3.1415926535897931 $41 $110 forward @7 unknown F #
-75 loop $-1 -1 -1 $-1 $-1 $58 $76 F unknown #
-76 face $111 -1 -1 $-1 $112 $113 $4 $-1 $114 reversed single F F #
-77 point $-1 -1 -1 $-1 -44.676199599198938 13.494933014764193 -120 #
-78 point $-1 -1 -1 $-1 -10.951566137395341 13.494933014764191 -120 #
-79 integer_attrib-name_attrib-gen-attrib $-1 -1 $-1 $47 $28 2 1 2 1 1 1 1 1 1 1 1 1 1 1 0 1 1 1 @15 基体零件-demo-1 0 #
-80 integer_attrib-name_attrib-gen-attrib $-1 -1 $115 $-1 $48 2 1 1 1 1 1 1 1 1 1 1 1 1 1 0 1 1 1 @10 face index 5 #
-81 face $116 -1 -1 $-1 $117 $118 $4 $-1 $119 reversed single F F #
-82 cone-surface $-1 -1 -1 $-1 -27.813882868297142 13.494933014764191 -120 0 0 1 16.862316730901799 0 0 1 I I 0 1 16.862316730901799 forward I I I I #
-83 coedge $-1 -1 -1 $-1 $61 $60 $120 $121 forward $49 $-1 #
-84 coedge $-1 -1 -1 $-1 $120 $51 $122 $123 forward $29 $-1 #
-85 coedge $-1 -1 -1 $-1 $51 $120 $124 $125 forward $29 $-1 #
-86 coedge $-1 -1 -1 $-1 $53 $52 $51 $87 reversed $19 $-1 #
-87 edge $-1 -1 -1 $-1 $126 0 $127 0.12 $51 $128 forward @7 unknown F #
-88 coedge $-1 -1 -1 $-1 $56 $122 $52 $89 reversed $96 $-1 #
-89 edge $-1 -1 -1 $-1 $93 -0.12992132662068367 $127 0 $52 $129 forward @7 unknown F #
-90 coedge $-1 -1 -1 $-1 $124 $58 $53 $91 reversed $75 $-1 #
-91 edge $-1 -1 -1 $-1 $126 0 $92 0.12992132662068367 $53 $130 forward @7 unknown F #
-92 vertex $-1 -1 -1 $-1 $55 $131 #
-93 vertex $-1 -1 -1 $-1 $89 $132 #
-94 straight-curve $-1 -1 -1 $-1 64.960663310341843 -47.492318457249482 -120 0 0 1000 I I #
-95 coedge $-1 -1 -1 $-1 $122 $56 $61 $101 reversed $96 $-1 #
-96 loop $-1 -1 -1 $-1 $-1 $56 $112 F unknown #
-97 straight-curve $-1 -1 -1 $-1 64.960663310341843 47.492318457249482 0 0 -1000 0 I I #
-98 coedge $-1 -1 -1 $-1 $58 $124 $60 $100 reversed $75 $-1 #
-99 straight-curve $-1 -1 -1 $-1 64.960663310341843 47.492318457249482 -120 0 1000 0 I I #
-100 edge $-1 -1 -1 $-1 $62 -0.12992132662068367 $133 -0 $60 $134 forward @7 unknown F #
-101 edge $-1 -1 -1 $-1 $135 0 $63 0.12992132662068367 $61 $136 forward @7 unknown F #
-102 point $-1 -1 -1 $-1 64.960663310341843 47.492318457249482 -120 #
-103 point $-1 -1 -1 $-1 64.960663310341843 47.492318457249482 0 #
-104 coedge $-1 -1 -1 $-1 $65 $65 $68 $107 forward $105 $-1 #
-105 loop $-1 -1 -1 $-1 $137 $65 $112 F unknown #
-106 ellipse-curve $-1 -1 -1 $-1 -27.813882868297142 13.494933014764191 0 -0 -0 -1 16.862316730901799 0 0 1 I I #
-107 edge $-1 -1 -1 $-1 $70 -3.1415926535897931 $72 0 $104 $138 forward @7 unknown F #
-108 point $-1 -1 -1 $-1 -44.676199599198938 13.494933014764193 0 #
-109 point $-1 -1 -1 $-1 -10.951566137395341 13.494933014764191 0 #
-110 ellipse-curve $-1 -1 -1 $-1 -27.813882868297142 13.494933014764191 -120 0 0 1 16.862316730901799 0 0 1 I I #
-111 integer_attrib-name_attrib-gen-attrib $-1 -1 $139 $-1 $76 2 1 1 1 1 1 1 1 1 1 1 1 1 1 0 1 1 1 @10 face index 10 #
-112 face $140 -1 -1 $-1 $-1 $105 $4 $-1 $141 forward single F F #
-113 loop $-1 -1 -1 $-1 $42 $142 $76 F unknown #
-114 plane-surface $-1 -1 -1 $-1 0 0 -120 0 0 1 1000 0 0 forward_v I I I I #
-115 integer_attrib-name_attrib-gen-attrib $-1 -1 $-1 $80 $48 2 1 2 1 1 1 1 1 1 1 1 1 1 1 0 1 1 1 @15 基体零件-demo-1 0 #
-116 integer_attrib-name_attrib-gen-attrib $-1 -1 $143 $-1 $81 2 1 1 1 1 1 1 1 1 1 1 1 1 1 0 1 1 1 @10 face index 6 #
-117 face $144 -1 -1 $-1 $145 $146 $4 $-1 $147 reversed single F F #
-118 loop $-1 -1 -1 $-1 $-1 $148 $81 F unknown #
-119 plane-surface $-1 -1 -1 $-1 47.403727280519725 -1.474665073820991 -120 1 0 0 0 0 -1000 forward_v I I I I #
-120 coedge $-1 -1 -1 $-1 $85 $84 $83 $121 reversed $29 $-1 #
-121 edge $-1 -1 -1 $-1 $133 0 $135 0.12 $83 $149 forward @7 unknown F #
-122 coedge $-1 -1 -1 $-1 $88 $95 $84 $123 reversed $96 $-1 #
-123 edge $-1 -1 -1 $-1 $127 -0.09498463691449896 $135 0 $84 $150 forward @7 unknown F #
-124 coedge $-1 -1 -1 $-1 $98 $90 $85 $125 reversed $75 $-1 #
-125 edge $-1 -1 -1 $-1 $133 0 $126 0.09498463691449896 $85 $151 forward @7 unknown F #
-126 vertex $-1 -1 -1 $-1 $87 $152 #
-127 vertex $-1 -1 -1 $-1 $123 $153 #
-128 straight-curve $-1 -1 -1 $-1 -64.960663310341843 -47.492318457249482 -120 0 0 1000 I I #
-129 straight-curve $-1 -1 -1 $-1 -64.960663310341843 -47.492318457249482 0 -1000 0 0 I I #
-130 straight-curve $-1 -1 -1 $-1 -64.960663310341843 -47.492318457249482 -120 1000 0 0 I I #
-131 point $-1 -1 -1 $-1 64.960663310341843 -47.492318457249482 -120 #
-132 point $-1 -1 -1 $-1 64.960663310341843 -47.492318457249482 0 #
-133 vertex $-1 -1 -1 $-1 $121 $154 #
-134 straight-curve $-1 -1 -1 $-1 -64.960663310341843 47.492318457249482 -120 -1000 -0 -0 I I #
-135 vertex $-1 -1 -1 $-1 $101 $155 #
-136 straight-curve $-1 -1 -1 $-1 -64.960663310341843 47.492318457249482 0 1000 0 0 I I #
-137 loop $-1 -1 -1 $-1 $96 $156 $112 F unknown #
-138 ellipse-curve $-1 -1 -1 $-1 -27.813882868297142 13.494933014764191 0 -0 -0 -1 16.862316730901799 0 0 1 I I #
-139 integer_attrib-name_attrib-gen-attrib $-1 -1 $-1 $111 $76 2 1 2 1 1 1 1 1 1 1 1 1 1 1 0 1 1 1 @15 基体零件-demo-1 0 #
-140 integer_attrib-name_attrib-gen-attrib $-1 -1 $157 $-1 $112 2 1 1 1 1 1 1 1 1 1 1 1 1 1 0 1 1 1 @10 face index 11 #
-141 plane-surface $-1 -1 -1 $-1 0 0 0 0 0 1 1000 0 0 forward_v I I I I #
-142 coedge $-1 -1 -1 $-1 $158 $159 $160 $161 forward $113 $-1 #
-143 integer_attrib-name_attrib-gen-attrib $-1 -1 $-1 $116 $81 2 1 2 1 1 1 1 1 1 1 1 1 1 1 0 1 1 1 @15 基体零件-demo-1 0 #
-144 integer_attrib-name_attrib-gen-attrib $-1 -1 $162 $-1 $117 2 1 1 1 1 1 1 1 1 1 1 1 1 1 0 1 1 1 @10 face index 7 #
-145 face $163 -1 -1 $-1 $164 $165 $4 $-1 $166 reversed single F F #
-146 loop $-1 -1 -1 $-1 $-1 $167 $117 F unknown #
-147 plane-surface $-1 -1 -1 $-1 7.484799044292556 -30.305002133318354 -120 0 -1 0 0 0 -1000 forward_v I I I I #
-148 coedge $-1 -1 -1 $-1 $168 $169 $170 $171 reversed $118 $-1 #
-149 straight-curve $-1 -1 -1 $-1 -64.960663310341843 47.492318457249482 -120 0 0 1000 I I #
-150 straight-curve $-1 -1 -1 $-1 -64.960663310341843 47.492318457249482 0 0 1000 0 I I #
-151 straight-curve $-1 -1 -1 $-1 -64.960663310341843 47.492318457249482 -120 0 -1000 0 I I #
-152 point $-1 -1 -1 $-1 -64.960663310341843 -47.492318457249482 -120 #
-153 point $-1 -1 -1 $-1 -64.960663310341843 -47.492318457249482 0 #
-154 point $-1 -1 -1 $-1 -64.960663310341843 47.492318457249482 -120 #
-155 point $-1 -1 -1 $-1 -64.960663310341843 47.492318457249482 0 #
-156 coedge $-1 -1 -1 $-1 $170 $172 $173 $174 forward $137 $-1 #
-157 integer_attrib-name_attrib-gen-attrib $-1 -1 $-1 $140 $112 2 1 2 1 1 1 1 1 1 1 1 1 1 1 0 1 1 1 @15 基体零件-demo-1 0 #
-158 coedge $-1 -1 -1 $-1 $175 $142 $176 $177 forward $113 $-1 #
-159 coedge $-1 -1 -1 $-1 $142 $175 $178 $179 forward $113 $-1 #
-160 coedge $-1 -1 -1 $-1 $180 $181 $142 $161 reversed $146 $-1 #
-161 edge $-1 -1 -1 $-1 $182 0 $183 0.039918928236227169 $142 $184 forward @7 unknown F #
-162 integer_attrib-name_attrib-gen-attrib $-1 -1 $-1 $144 $117 2 1 2 1 1 1 1 1 1 1 1 1 1 1 0 1 1 1 @15 基体零件-demo-1 0 #
-163 integer_attrib-name_attrib-gen-attrib $-1 -1 $185 $-1 $145 2 1 1 1 1 1 1 1 1 1 1 1 1 1 0 1 1 1 @10 face index 8 #
-164 face $186 -1 -1 $-1 $76 $187 $4 $-1 $188 reversed single F F #
-165 loop $-1 -1 -1 $-1 $-1 $189 $145 F unknown #
-166 plane-surface $-1 -1 -1 $-1 7.484799044292556 -1.474665073820991 -120 -1 0 0 0 0 1000 forward_v I I I I #
-167 coedge $-1 -1 -1 $-1 $181 $180 $190 $191 reversed $146 $-1 #
-168 coedge $-1 -1 -1 $-1 $176 $148 $192 $193 reversed $118 $-1 #
-169 coedge $-1 -1 -1 $-1 $148 $176 $181 $194 forward $118 $-1 #
-170 coedge $-1 -1 -1 $-1 $190 $156 $148 $171 forward $137 $-1 #
-171 edge $-1 -1 -1 $-1 $195 0 $196 0.028830337059497363 $170 $197 forward @7 unknown F #
-172 coedge $-1 -1 -1 $-1 $156 $190 $189 $198 forward $137 $-1 #
-173 coedge $-1 -1 -1 $-1 $199 $192 $156 $174 reversed $187 $-1 #
-174 edge $-1 -1 -1 $-1 $200 0 $195 0.039918928236227169 $156 $201 forward @7 unknown F #
-175 coedge $-1 -1 -1 $-1 $159 $158 $202 $203 forward $113 $-1 #
-176 coedge $-1 -1 -1 $-1 $169 $168 $158 $177 reversed $118 $-1 #
-177 edge $-1 -1 -1 $-1 $183 -0.028830337059497363 $204 0 $158 $205 forward @7 unknown F #
-178 coedge $-1 -1 -1 $-1 $206 $207 $159 $179 reversed $165 $-1 #
-179 edge $-1 -1 -1 $-1 $208 0 $182 0.028830337059497363 $159 $209 forward @7 unknown F #
-180 coedge $-1 -1 -1 $-1 $167 $160 $207 $210 forward $146 $-1 #
-181 coedge $-1 -1 -1 $-1 $160 $167 $169 $194 reversed $146 $-1 #
-182 vertex $-1 -1 -1 $-1 $210 $211 #
-183 vertex $-1 -1 -1 $-1 $194 $212 #
-184 straight-curve $-1 -1 -1 $-1 7.484799044292556 -30.305002133318354 -120 1000 0 0 I I #
-185 integer_attrib-name_attrib-gen-attrib $-1 -1 $-1 $163 $145 2 1 2 1 1 1 1 1 1 1 1 1 1 1 0 1 1 1 @15 基体零件-demo-1 0 #
-186 integer_attrib-name_attrib-gen-attrib $-1 -1 $213 $-1 $164 2 1 1 1 1 1 1 1 1 1 1 1 1 1 0 1 1 1 @10 face index 9 #
-187 loop $-1 -1 -1 $-1 $-1 $173 $164 F unknown #
-188 plane-surface $-1 -1 -1 $-1 7.484799044292556 -1.474665073820991 -120 0 1 0 0 0 1000 forward_v I I I I #
-189 coedge $-1 -1 -1 $-1 $207 $206 $172 $198 reversed $165 $-1 #
-190 coedge $-1 -1 -1 $-1 $172 $170 $167 $191 forward $137 $-1 #
-191 edge $-1 -1 -1 $-1 $196 -0.039918928236227169 $214 0 $190 $215 forward @7 unknown F #
-192 coedge $-1 -1 -1 $-1 $173 $202 $168 $193 forward $187 $-1 #
-193 edge $-1 -1 -1 $-1 $204 0 $195 0.12 $192 $216 forward @7 unknown F #
-194 edge $-1 -1 -1 $-1 $183 0 $196 0.12 $169 $217 forward @7 unknown F #
-195 vertex $-1 -1 -1 $-1 $193 $218 #
-196 vertex $-1 -1 -1 $-1 $194 $219 #
-197 straight-curve $-1 -1 -1 $-1 47.403727280519725 -1.474665073820991 0 0 -1000 0 I I #
-198 edge $-1 -1 -1 $-1 $214 -0.028830337059497363 $200 0 $172 $220 forward @7 unknown F #
-199 coedge $-1 -1 -1 $-1 $202 $173 $206 $221 reversed $187 $-1 #
-200 vertex $-1 -1 -1 $-1 $221 $222 #
-201 straight-curve $-1 -1 -1 $-1 7.484799044292556 -1.474665073820991 0 1000 0 0 I I #
-202 coedge $-1 -1 -1 $-1 $192 $199 $175 $203 reversed $187 $-1 #
-203 edge $-1 -1 -1 $-1 $204 -0.039918928236227169 $208 -0 $175 $223 forward @7 unknown F #
-204 vertex $-1 -1 -1 $-1 $193 $224 #
-205 straight-curve $-1 -1 -1 $-1 47.403727280519725 -1.474665073820991 -120 0 1000 0 I I #
-206 coedge $-1 -1 -1 $-1 $189 $178 $199 $221 forward $165 $-1 #
-207 coedge $-1 -1 -1 $-1 $178 $189 $180 $210 reversed $165 $-1 #
-208 vertex $-1 -1 -1 $-1 $179 $225 #
-209 straight-curve $-1 -1 -1 $-1 7.484799044292556 -1.474665073820991 -120 0 -1000 0 I I #
-210 edge $-1 -1 -1 $-1 $182 0 $214 0.12 $180 $226 forward @7 unknown F #
-211 point $-1 -1 -1 $-1 7.484799044292556 -30.305002133318354 -120 #
-212 point $-1 -1 -1 $-1 47.403727280519725 -30.305002133318354 -120 #
-213 integer_attrib-name_attrib-gen-attrib $-1 -1 $-1 $186 $164 2 1 2 1 1 1 1 1 1 1 1 1 1 1 0 1 1 1 @15 基体零件-demo-1 0 #
-214 vertex $-1 -1 -1 $-1 $210 $227 #
-215 straight-curve $-1 -1 -1 $-1 7.484799044292556 -30.305002133318354 0 -1000 0 0 I I #
-216 straight-curve $-1 -1 -1 $-1 47.403727280519725 -1.474665073820991 -120 0 0 1000 I I #
-217 straight-curve $-1 -1 -1 $-1 47.403727280519725 -30.305002133318354 -120 0 0 1000 I I #
-218 point $-1 -1 -1 $-1 47.403727280519725 -1.474665073820991 0 #
-219 point $-1 -1 -1 $-1 47.403727280519725 -30.305002133318354 0 #
-220 straight-curve $-1 -1 -1 $-1 7.484799044292556 -1.474665073820991 0 0 1000 0 I I #
-221 edge $-1 -1 -1 $-1 $208 0 $200 0.12 $206 $228 forward @7 unknown F #
-222 point $-1 -1 -1 $-1 7.484799044292556 -1.474665073820991 0 #
-223 straight-curve $-1 -1 -1 $-1 7.484799044292556 -1.474665073820991 -120 -1000 -0 -0 I I #
-224 point $-1 -1 -1 $-1 47.403727280519725 -1.474665073820991 -120 #
-225 point $-1 -1 -1 $-1 7.484799044292556 -1.474665073820991 -120 #
-226 straight-curve $-1 -1 -1 $-1 7.484799044292556 -30.305002133318354 -120 0 0 1000 I I #
-227 point $-1 -1 -1 $-1 7.484799044292556 -30.305002133318354 0 #
-228 straight-curve $-1 -1 -1 $-1 7.484799044292556 -1.474665073820991 -120 0 0 1000 I I #
End-of-ACIS-data 