2000 0 1 0           
23 ACIS/Scheme AIDE - 23.0 12 ACIS 23.0 NT 24 Wed Nov 25 15:17:58 2015 
1 9.9999999999999995e-007 1e-010 
body $1 -1 -1 $-1 $2 $-1 $-1 T -16.5 -11.965404461849271 -18.745000000000005 -2.0533823294441795 11.965404461849271 -11.745000000000003 #
name_attrib-gen-attrib $-1 -1 $-1 $-1 $0 2 1 1 1 1 1 1 1 1 1 1 1 1 1 0 1 1 1 @18 master with holder #
lump $3 -1 -1 $-1 $-1 $4 $0 T -16.5 -11.965404461849271 -18.745000000000005 -2.0533823294441795 11.965404461849271 -11.745000000000003 #
rgb_color-st-attrib $-1 -1 $-1 $-1 $2 2 1 2 1 1 1 1 1 1 1 1 1 1 1 0 1 1 1 0.792156862745098 0.81960784313725488 0.93333333333333335 #
shell $-1 -1 -1 $-1 $-1 $-1 $5 $-1 $2 T -16.5 -11.965404461849271 -18.745000000000005 -2.0533823294441795 11.965404461849271 -11.745000000000003 #
face $6 -1 -1 $-1 $7 $8 $4 $-1 $9 forward single T -11.616654285117232 1.7347234759768071e-015 -16.745000000000005 -8.2166542851172331 1.700000000000002 -11.745000000000003 F #
integer_attrib-name_attrib-gen-attrib $-1 -1 $-1 $-1 $5 2 1 2 1 1 1 1 1 1 1 1 1 1 1 0 1 1 1 @5 镜向1 0 #
face $10 -1 -1 $-1 $11 $12 $4 $-1 $13 forward single T -11.616654285117232 -1.6999999999999984 -16.745000000000005 -8.2166542851172331 1.9429134318318569e-015 -11.745000000000003 F #
loop $-1 -1 -1 $-1 $-1 $14 $5 T -11.616654285117232 1.7347234759768071e-015 -16.745000000000005 -8.2166542851172331 1.700000000000002 -11.745000000000003 unknown #
cone-surface $-1 -1 -1 $-1 -9.9166542851172323 1.7347234759768071e-015 -21.253948401598208 0 0 1 1.7000000000000002 0 0 1 I I 0 1 1.7000000000000002 forward I I I I #
integer_attrib-name_attrib-gen-attrib $-1 -1 $-1 $-1 $7 2 1 2 1 1 1 1 1 1 1 1 1 1 1 0 1 1 1 @5 镜向1 0 #
face $15 -1 -1 $-1 $16 $17 $4 $-1 $18 reversed single T -9.5290741295017476 -6.5820587469665046 -11.745000000000003 -7.1290741295017481 -4.1820587469665043 -11.745000000000003 F #
loop $-1 -1 -1 $-1 $-1 $19 $7 T -11.616654285117232 -1.6999999999999984 -16.745000000000005 -8.2166542851172331 1.9429134318318569e-015 -11.745000000000003 unknown #
cone-surface $-1 -1 -1 $-1 -9.9166542851172323 1.7347234759768071e-015 -21.253948401598208 0 0 1 1.7000000000000002 0 0 1 I I 0 1 1.7000000000000002 forward I I I I #
coedge $-1 -1 -1 $-1 $20 $21 $22 $23 forward $8 $-1 #
integer_attrib-name_attrib-gen-attrib $-1 -1 $-1 $-1 $11 2 1 2 1 1 1 1 1 1 1 1 1 1 1 0 1 1 1 @5 镜向1 0 #
face $24 -1 -1 $-1 $25 $26 $4 $-1 $27 forward single T -9.5290741295017494 4.1820587469665043 -11.745000000000003 -7.1290741295017472 6.5820587469665046 -11.745000000000003 F #
loop $-1 -1 -1 $-1 $-1 $28 $11 T -9.5290741295017476 -6.5820587469665046 -11.745000000000003 -7.1290741295017481 -4.1820587469665043 -11.745000000000003 unknown #
plane-surface $-1 -1 -1 $-1 -8.3290741295017483 -5.3820587469665044 -11.745000000000003 0 0 -1 -1000 0 0 forward_v I I I I #
coedge $-1 -1 -1 $-1 $29 $30 $31 $32 forward $12 $-1 #
coedge $-1 -1 -1 $-1 $33 $14 $30 $34 reversed $8 $-1 #
coedge $-1 -1 -1 $-1 $14 $33 $29 $35 forward $8 $-1 #
coedge $-1 -1 -1 $-1 $31 $31 $14 $23 reversed $36 $-1 #
edge $-1 -1 -1 $-1 $37 1.2246467991473525e-016 $38 3.1415926535897931 $22 $39 forward @7 unknown T -11.616654285117232 1.7347234759768071e-015 -11.745000000000003 -8.2166542851172331 1.700000000000002 -11.745000000000003 #
integer_attrib-name_attrib-gen-attrib $-1 -1 $-1 $-1 $16 2 1 2 1 1 1 1 1 1 1 1 1 1 1 0 1 1 1 @5 镜向1 0 #
face $40 -1 -1 $-1 $41 $42 $4 $-1 $43 forward single T -3.2698356249344713 4.4224625477113317 -18.745000000000005 -2.0533823294441804 6.8347148464629681 -16.745000000000005 F #
loop $-1 -1 -1 $-1 $-1 $44 $16 T -9.5290741295017494 4.1820587469665043 -11.745000000000003 -7.1290741295017472 6.5820587469665046 -11.745000000000003 unknown #
plane-surface $-1 -1 -1 $-1 -8.3290741295017483 5.3820587469665044 -11.745000000000003 0 0 1 1000 0 0 forward_v I I I I #
coedge $-1 -1 -1 $-1 $45 $45 $46 $47 reversed $17 $-1 #
coedge $-1 -1 -1 $-1 $48 $19 $21 $35 reversed $12 $-1 #
coedge $-1 -1 -1 $-1 $19 $48 $20 $34 forward $12 $-1 #
coedge $-1 -1 -1 $-1 $22 $22 $19 $32 reversed $36 $-1 #
edge $-1 -1 -1 $-1 $38 -3.1415926535897931 $37 1.2246467991473525e-016 $31 $49 forward @7 unknown T -11.616654285117232 -1.6999999999999984 -11.745000000000003 -8.2166542851172331 1.9429134318318569e-015 -11.745000000000003 #
coedge $-1 -1 -1 $-1 $21 $20 $50 $51 reversed $8 $-1 #
edge $-1 -1 -1 $-1 $52 0.0045089484015982039 $38 0.0095089484015982058 $20 $53 forward @7 unknown T -8.2166542851172331 1.7347234759768071e-015 -16.745000000000005 -8.2166542851172331 1.7347234759768071e-015 -11.745000000000003 #
edge $-1 -1 -1 $-1 $54 0.0045089484015982039 $37 0.0095089484015982058 $29 $55 forward @7 unknown T -11.616654285117232 1.9429134318318569e-015 -16.745000000000005 -11.616654285117232 1.9429134318318569e-015 -11.745000000000003 #
loop $-1 -1 -1 $-1 $-1 $31 $56 T -11.616654285117232 -1.6999999999999984 -11.745000000000003 -8.2166542851172331 1.700000000000002 -11.745000000000003 unknown #
vertex $-1 -1 -1 $-1 $32 $57 #
vertex $-1 -1 -1 $-1 $23 $58 #
ellipse-curve $-1 -1 -1 $-1 -9.9166542851172323 1.7347234759768071e-015 -11.745000000000003 0 0 -1 -1.7000000000000002 0 0 1 I I #
integer_attrib-name_attrib-gen-attrib $-1 -1 $-1 $-1 $25 2 1 2 1 1 1 1 1 1 1 1 1 1 1 0 1 1 1 @10 凸台-拉伸5 0 #
face $59 -1 -1 $-1 $60 $61 $4 $-1 $62 forward single T -2.3109521588475324 -8.0508878437792397 -18.745000000000005 -2.0533823294441795 -6.8347148464629681 -16.745000000000005 F #
loop $-1 -1 -1 $-1 $-1 $63 $25 T -3.2698356249344713 4.4224625477113317 -18.745000000000005 -2.0533823294441804 6.8347148464629681 -16.745000000000005 unknown #
cone-surface $-1 -1 -1 $-1 -5.0533823294441804 6.8347148464629681 -18.745000000000005 0 0 1 3 0 0 1 I I 0 1 3 forward I I I I #
coedge $-1 -1 -1 $-1 $64 $64 $65 $66 reversed $26 $-1 #
coedge $-1 -1 -1 $-1 $28 $28 $67 $68 reversed $17 $-1 #
coedge $-1 -1 -1 $-1 $69 $70 $28 $47 forward $71 $-1 #
edge $-1 -1 -1 $-1 $72 0 $73 3.1415926535897931 $28 $74 forward @7 unknown T -9.5290741295017476 -5.3820587469665044 -11.745000000000003 -7.1290741295017481 -4.1820587469665043 -11.745000000000003 #
coedge $-1 -1 -1 $-1 $30 $29 $75 $76 reversed $12 $-1 #
ellipse-curve $-1 -1 -1 $-1 -9.9166542851172323 1.7347234759768071e-015 -11.745000000000003 0 0 -1 -1.7000000000000002 0 0 1 I I #
coedge $-1 -1 -1 $-1 $75 $75 $33 $51 forward $77 $-1 #
edge $-1 -1 -1 $-1 $54 1.2246467991473525e-016 $52 3.1415926535897931 $33 $78 forward @7 unknown T -11.616654285117232 1.7347234759768071e-015 -16.745000000000005 -8.2166542851172331 1.700000000000002 -16.745000000000005 #
vertex $-1 -1 -1 $-1 $51 $79 #
straight-curve $-1 -1 -1 $-1 -8.2166542851172331 1.7347234759768071e-015 -21.253948401598208 0 0 1000 I I #
vertex $-1 -1 -1 $-1 $35 $80 #
straight-curve $-1 -1 -1 $-1 -11.616654285117232 1.9429134318318569e-015 -21.253948401598208 0 0 1000 I I #
face $81 -1 -1 $-1 $-1 $36 $4 $-1 $82 reversed single T -11.616654285117232 -1.6999999999999984 -11.745000000000003 -8.2166542851172331 1.700000000000002 -11.745000000000003 F #
point $-1 -1 -1 $-1 -11.616654285117232 1.9429134318318569e-015 -11.745000000000003 #
point $-1 -1 -1 $-1 -8.2166542851172331 1.7347234759768071e-015 -11.745000000000003 #
integer_attrib-name_attrib-gen-attrib $-1 -1 $-1 $-1 $41 2 1 2 1 1 1 1 1 1 1 1 1 1 1 0 1 1 1 @10 凸台-拉伸5 0 #
face $83 -1 -1 $-1 $84 $85 $4 $-1 $86 forward single T -9.5290741295017494 5.3820587469665044 -16.745000000000005 -7.1290741295017472 6.5820587469665046 -11.745000000000003 F #
loop $-1 -1 -1 $-1 $-1 $87 $41 T -2.3109521588475324 -8.0508878437792397 -18.745000000000005 -2.0533823294441795 -6.8347148464629681 -16.745000000000005 unknown #
cone-surface $-1 -1 -1 $-1 -5.0533823294441804 -6.8347148464629681 -18.745000000000005 0 0 1 3 0 0 1 I I 0 1 3 forward I I I I #
coedge $-1 -1 -1 $-1 $88 $89 $90 $91 reversed $42 $-1 #
coedge $-1 -1 -1 $-1 $44 $44 $92 $93 reversed $26 $-1 #
coedge $-1 -1 -1 $-1 $94 $95 $44 $66 forward $85 $-1 #
edge $-1 -1 -1 $-1 $96 -3.1415926535897931 $97 0 $44 $98 forward @7 unknown T -9.5290741295017494 5.3820587469665044 -11.745000000000003 -7.1290741295017472 6.5820587469665046 -11.745000000000003 #
coedge $-1 -1 -1 $-1 $99 $100 $45 $68 forward $101 $-1 #
edge $-1 -1 -1 $-1 $73 -3.1415926535897931 $72 0 $45 $102 forward @7 unknown T -9.5290741295017476 -6.5820587469665046 -11.745000000000003 -7.1290741295017481 -5.3820587469665044 -11.745000000000003 #
coedge $-1 -1 -1 $-1 $103 $46 $100 $104 forward $71 $-1 #
coedge $-1 -1 -1 $-1 $46 $103 $99 $105 reversed $71 $-1 #
loop $-1 -1 -1 $-1 $-1 $70 $84 T -9.5290741295017476 -5.3820587469665044 -16.745000000000005 -7.1290741295017481 -4.1820587469665043 -11.745000000000003 unknown #
vertex $-1 -1 -1 $-1 $68 $106 #
vertex $-1 -1 -1 $-1 $104 $107 #
ellipse-curve $-1 -1 -1 $-1 -8.3290741295017483 -5.3820587469665044 -11.745000000000003 0 0 -1 -1.1999999999999997 0 0 1 I I #
coedge $-1 -1 -1 $-1 $50 $50 $48 $76 forward $77 $-1 #
edge $-1 -1 -1 $-1 $52 -3.1415926535897931 $54 1.2246467991473525e-016 $48 $108 forward @7 unknown T -11.616654285117232 -1.6999999999999984 -16.745000000000005 -8.2166542851172331 1.9429134318318569e-015 -16.745000000000005 #
loop $-1 -1 -1 $-1 $109 $75 $110 T -11.616654285117232 -1.6999999999999984 -16.745000000000005 -8.2166542851172331 1.700000000000002 -16.745000000000005 unknown #
ellipse-curve $-1 -1 -1 $-1 -9.9166542851172323 1.7347234759768071e-015 -16.745000000000005 0 0 -1 -1.7000000000000002 0 0 1 I I #
point $-1 -1 -1 $-1 -8.2166542851172331 1.7347234759768071e-015 -16.745000000000005 #
point $-1 -1 -1 $-1 -11.616654285117232 1.9429134318318569e-015 -16.745000000000005 #
integer_attrib-name_attrib-gen-attrib $-1 -1 $-1 $-1 $56 2 1 2 1 1 1 1 1 1 1 1 1 1 1 0 1 1 1 @10 凸台-拉伸5 0 #
plane-surface $-1 -1 -1 $-1 -9.9166542851172323 1.7347234759768071e-015 -11.745000000000003 0 0 -1 -1000 0 0 forward_v I I I I #
integer_attrib-name_attrib-gen-attrib $-1 -1 $-1 $-1 $60 2 1 2 1 1 1 1 1 1 1 1 1 1 1 0 1 1 1 @10 凸台-拉伸5 0 #
face $111 -1 -1 $-1 $112 $71 $4 $-1 $113 forward single T -9.5290741295017476 -5.3820587469665044 -16.745000000000005 -7.1290741295017481 -4.1820587469665043 -11.745000000000003 F #
loop $-1 -1 -1 $-1 $-1 $95 $60 T -9.5290741295017494 5.3820587469665044 -16.745000000000005 -7.1290741295017472 6.5820587469665046 -11.745000000000003 unknown #
cone-surface $-1 -1 -1 $-1 -8.3290741295017483 5.3820587469665044 -11.745000000000003 0 0 -1 -1.1999999999999997 0 0 1 I I 0 1 1.1999999999999997 forward I I I I #
coedge $-1 -1 -1 $-1 $114 $115 $116 $117 reversed $61 $-1 #
coedge $-1 -1 -1 $-1 $118 $63 $119 $120 forward $42 $-1 #
coedge $-1 -1 -1 $-1 $63 $118 $121 $122 reversed $42 $-1 #
coedge $-1 -1 -1 $-1 $123 $124 $63 $91 forward $125 $-1 #
edge $-1 -1 -1 $-1 $126 0 $127 0.93413327650607214 $90 $128 forward @7 unknown T -3.2698356249344713 4.4224625477113317 -18.745000000000005 -2.0533823294441804 6.8347148464629681 -18.745000000000005 #
coedge $-1 -1 -1 $-1 $129 $130 $64 $93 forward $131 $-1 #
edge $-1 -1 -1 $-1 $97 0 $96 3.1415926535897931 $64 $132 forward @7 unknown T -9.5290741295017494 4.1820587469665043 -11.745000000000003 -7.1290741295017472 5.3820587469665044 -11.745000000000003 #
coedge $-1 -1 -1 $-1 $133 $65 $130 $134 forward $85 $-1 #
coedge $-1 -1 -1 $-1 $65 $133 $129 $135 reversed $85 $-1 #
vertex $-1 -1 -1 $-1 $93 $136 #
vertex $-1 -1 -1 $-1 $134 $137 #
ellipse-curve $-1 -1 -1 $-1 -8.3290741295017483 5.3820587469665044 -11.745000000000003 0 0 -1 1.2000000000000006 0 0 1 I I #
coedge $-1 -1 -1 $-1 $138 $67 $70 $105 forward $101 $-1 #
coedge $-1 -1 -1 $-1 $67 $138 $69 $104 reversed $101 $-1 #
loop $-1 -1 -1 $-1 $-1 $100 $112 T -9.5290741295017476 -6.5820587469665046 -16.745000000000005 -7.1290741295017481 -5.3820587469665044 -11.745000000000003 unknown #
ellipse-curve $-1 -1 -1 $-1 -8.3290741295017483 -5.3820587469665044 -11.745000000000003 0 0 -1 -1.1999999999999997 0 0 1 I I #
coedge $-1 -1 -1 $-1 $70 $69 $139 $140 reversed $71 $-1 #
edge $-1 -1 -1 $-1 $73 0 $141 0.0050000000000000018 $69 $142 forward @7 unknown T -7.1290741295017481 -5.3820587469665044 -16.745000000000005 -7.1290741295017481 -5.3820587469665044 -11.745000000000003 #
edge $-1 -1 -1 $-1 $72 -0 $143 0.0050000000000000018 $70 $144 forward @7 unknown T -9.5290741295017476 -5.3820587469665044 -16.745000000000005 -9.5290741295017476 -5.3820587469665044 -11.745000000000003 #
point $-1 -1 -1 $-1 -9.5290741295017476 -5.3820587469665044 -11.745000000000003 #
point $-1 -1 -1 $-1 -7.1290741295017481 -5.3820587469665044 -11.745000000000003 #
ellipse-curve $-1 -1 -1 $-1 -9.9166542851172323 1.7347234759768071e-015 -16.745000000000005 0 0 -1 -1.7000000000000002 0 0 1 I I #
loop $-1 -1 -1 $-1 $145 $146 $110 T -16.5 -11.965404461849271 -16.745000000000005 -2.0533823294441795 11.965404461849271 -16.745000000000005 periphery $147 T #
face $148 -1 -1 $-1 $149 $77 $4 $-1 $147 reversed single T -16.5 -11.965404461849271 -16.745000000000005 -2.0533823294441795 11.965404461849271 -16.745000000000005 F #
integer_attrib-name_attrib-gen-attrib $-1 -1 $-1 $-1 $84 2 1 2 1 1 1 1 1 1 1 1 1 1 1 0 1 1 1 @10 凸台-拉伸5 0 #
face $150 -1 -1 $-1 $151 $101 $4 $-1 $152 forward single T -9.5290741295017476 -6.5820587469665046 -16.745000000000005 -7.1290741295017481 -5.3820587469665044 -11.745000000000003 F #
cone-surface $-1 -1 -1 $-1 -8.3290741295017483 -5.3820587469665044 -11.745000000000003 0 0 -1 -1.1999999999999997 0 0 1 I I 0 1 1.1999999999999997 forward I I I I #
coedge $-1 -1 -1 $-1 $153 $87 $154 $155 forward $61 $-1 #
coedge $-1 -1 -1 $-1 $87 $153 $156 $157 reversed $61 $-1 #
coedge $-1 -1 -1 $-1 $158 $159 $87 $117 forward $125 $-1 #
edge $-1 -1 -1 $-1 $160 -3.1415926535897931 $161 -2.7241861416607591 $116 $162 forward @7 unknown T -2.3109521588475324 -8.0508878437792397 -18.745000000000005 -2.0533823294441795 -6.8347148464629681 -18.745000000000005 #
coedge $-1 -1 -1 $-1 $89 $88 $163 $164 forward $42 $-1 #
coedge $-1 -1 -1 $-1 $165 $166 $88 $120 reversed $167 $-1 #
edge $-1 -1 -1 $-1 $126 0 $168 0.002 $88 $169 forward @7 unknown T -2.0533823294441804 6.8347148464629681 -18.745000000000005 -2.0533823294441804 6.8347148464629681 -16.745000000000005 #
coedge $-1 -1 -1 $-1 $170 $171 $89 $122 forward $172 $-1 #
edge $-1 -1 -1 $-1 $127 0 $173 0.002 $121 $174 forward @7 unknown T -3.2698356249344713 4.4224625477113317 -18.745000000000005 -3.2698356249344713 4.4224625477113317 -16.745000000000005 #
coedge $-1 -1 -1 $-1 $159 $90 $171 $175 forward $125 $-1 #
coedge $-1 -1 -1 $-1 $90 $176 $165 $177 forward $125 $-1 #
loop $-1 -1 -1 $-1 $-1 $159 $178 T -16.5 -11.965404461849271 -18.745000000000005 -2.0533823294441795 11.965404461849271 -18.745000000000005 unknown #
vertex $-1 -1 -1 $-1 $120 $179 #
vertex $-1 -1 -1 $-1 $91 $180 #
ellipse-curve $-1 -1 -1 $-1 -5.0533823294441804 6.8347148464629681 -18.745000000000005 0 0 -1 3 0 0 1 I I #
coedge $-1 -1 -1 $-1 $181 $92 $95 $135 forward $131 $-1 #
coedge $-1 -1 -1 $-1 $92 $181 $94 $134 reversed $131 $-1 #
loop $-1 -1 -1 $-1 $-1 $130 $151 T -9.5290741295017494 4.1820587469665043 -16.745000000000005 -7.1290741295017472 5.3820587469665044 -11.745000000000003 unknown #
ellipse-curve $-1 -1 -1 $-1 -8.3290741295017483 5.3820587469665044 -11.745000000000003 0 0 -1 1.2000000000000006 0 0 1 I I #
coedge $-1 -1 -1 $-1 $95 $94 $182 $183 reversed $85 $-1 #
edge $-1 -1 -1 $-1 $97 0 $184 0.0050000000000000018 $94 $185 forward @7 unknown T -7.1290741295017481 5.3820587469665044 -16.745000000000005 -7.1290741295017481 5.3820587469665044 -11.745000000000003 #
edge $-1 -1 -1 $-1 $96 -0 $186 0.0050000000000000018 $95 $187 forward @7 unknown T -9.5290741295017476 5.3820587469665044 -16.745000000000005 -9.5290741295017476 5.3820587469665044 -11.745000000000003 #
point $-1 -1 -1 $-1 -9.5290741295017476 5.3820587469665044 -11.745000000000003 #
point $-1 -1 -1 $-1 -7.1290741295017481 5.3820587469665044 -11.745000000000003 #
coedge $-1 -1 -1 $-1 $100 $99 $188 $189 reversed $101 $-1 #
coedge $-1 -1 -1 $-1 $188 $188 $103 $140 forward $190 $-1 #
edge $-1 -1 -1 $-1 $143 0 $141 3.1415926535897931 $139 $191 forward @7 unknown T -9.5290741295017476 -5.3820587469665044 -16.745000000000005 -7.1290741295017481 -4.1820587469665043 -16.745000000000005 #
vertex $-1 -1 -1 $-1 $104 $192 #
straight-curve $-1 -1 -1 $-1 -7.1290741295017481 -5.3820587469665044 -11.745000000000003 0 0 -1000 I I #
vertex $-1 -1 -1 $-1 $189 $193 #
straight-curve $-1 -1 -1 $-1 -9.5290741295017476 -5.3820587469665044 -11.745000000000003 -0 -0 -1000 I I #
loop $-1 -1 -1 $-1 $190 $182 $110 T -9.5290741295017476 4.1820587469665043 -16.745000000000005 -7.1290741295017481 6.5820587469665046 -16.745000000000005 hole $147 T #
coedge $-1 -1 -1 $-1 $194 $195 $196 $197 reversed $109 $-1 #
plane-surface $-1 -1 -1 $-1 -6.6912282294729648 -6.1083867967147363 -16.745000000000005 0 0 -1 -1000 0 0 forward_v I I I I #
integer_attrib-name_attrib-gen-attrib $-1 -1 $-1 $-1 $110 2 1 2 1 1 1 1 1 1 1 1 1 1 1 0 1 1 1 @10 凸台-拉伸5 0 #
face $198 -1 -1 $-1 $199 $200 $4 $-1 $201 forward single T -3.26983562493447 -6.8347148464629681 -18.745000000000005 -2.0533823294441795 -4.4224625477113317 -16.745000000000005 F #
integer_attrib-name_attrib-gen-attrib $-1 -1 $-1 $-1 $112 2 1 2 1 1 1 1 1 1 1 1 1 1 1 0 1 1 1 @10 凸台-拉伸5 0 #
face $202 -1 -1 $-1 $110 $131 $4 $-1 $203 forward single T -9.5290741295017494 4.1820587469665043 -16.745000000000005 -7.1290741295017472 5.3820587469665044 -11.745000000000003 F #
cone-surface $-1 -1 -1 $-1 -8.3290741295017483 -5.3820587469665044 -11.745000000000003 0 0 -1 -1.1999999999999997 0 0 1 I I 0 1 1.1999999999999997 forward I I I I #
coedge $-1 -1 -1 $-1 $115 $114 $195 $204 forward $61 $-1 #
coedge $-1 -1 -1 $-1 $205 $196 $114 $155 reversed $200 $-1 #
edge $-1 -1 -1 $-1 $160 0 $206 0.002 $114 $207 forward @7 unknown T -2.0533823294441804 -6.8347148464629681 -18.745000000000005 -2.0533823294441804 -6.8347148464629681 -16.745000000000005 #
coedge $-1 -1 -1 $-1 $208 $209 $115 $157 forward $210 $-1 #
edge $-1 -1 -1 $-1 $161 0 $211 0.002 $156 $212 forward @7 unknown T -2.3109521588475306 -8.0508878437792379 -18.745000000000005 -2.3109521588475306 -8.0508878437792379 -16.745000000000005 #
coedge $-1 -1 -1 $-1 $213 $116 $209 $214 forward $125 $-1 #
coedge $-1 -1 -1 $-1 $116 $123 $205 $215 forward $125 $-1 #
vertex $-1 -1 -1 $-1 $155 $216 #
vertex $-1 -1 -1 $-1 $117 $217 #
ellipse-curve $-1 -1 -1 $-1 -5.0533823294441804 -6.8347148464629681 -18.745000000000005 0 0 -1 -3.0000000000000009 0 0 1 I I #
coedge $-1 -1 -1 $-1 $218 $194 $118 $164 reversed $109 $-1 #
edge $-1 -1 -1 $-1 $168 0 $173 0.93413327650607214 $118 $219 forward @7 unknown T -3.2698356249344713 4.4224625477113317 -16.745000000000005 -2.0533823294441804 6.8347148464629681 -16.745000000000005 #
coedge $-1 -1 -1 $-1 $220 $119 $124 $177 reversed $167 $-1 #
coedge $-1 -1 -1 $-1 $119 $220 $218 $221 forward $167 $-1 #
loop $-1 -1 -1 $-1 $-1 $119 $222 T -2.3109521588475337 6.8347148464629681 -18.745000000000005 -2.0533823294441804 8.0508878437792397 -16.745000000000005 unknown #
vertex $-1 -1 -1 $-1 $120 $223 #
straight-curve $-1 -1 -1 $-1 -2.0533823294441804 6.8347148464629681 -18.745000000000005 0 0 1000 I I #
coedge $-1 -1 -1 $-1 $224 $121 $194 $225 forward $172 $-1 #
coedge $-1 -1 -1 $-1 $121 $224 $123 $175 reversed $172 $-1 #
loop $-1 -1 -1 $-1 $-1 $170 $226 T -5.5000000000000009 -4.4224625477113326 -18.745000000000005 -3.26983562493447 4.4224625477113317 -16.745000000000005 unknown #
vertex $-1 -1 -1 $-1 $164 $227 #
straight-curve $-1 -1 -1 $-1 -3.2698356249344713 4.4224625477113317 -18.745000000000005 0 0 1000 I I #
edge $-1 -1 -1 $-1 $127 -0.93413327650607147 $228 0.9341332765060717 $123 $229 forward @7 unknown T -5.5000000000000009 -4.4224625477113326 -18.745000000000005 -3.26983562493447 4.4224625477113317 -18.745000000000005 #
coedge $-1 -1 -1 $-1 $124 $213 $230 $231 forward $125 $-1 #
edge $-1 -1 -1 $-1 $232 -0.41740651192903444 $126 0 $124 $233 forward @7 unknown T -2.3109521588475337 6.8347148464629681 -18.745000000000005 -2.0533823294441804 8.0508878437792397 -18.745000000000005 #
face $234 -1 -1 $-1 $56 $125 $4 $-1 $235 forward single T -16.5 -11.965404461849271 -18.745000000000005 -2.0533823294441795 11.965404461849271 -18.745000000000005 F #
point $-1 -1 -1 $-1 -2.0533823294441804 6.8347148464629681 -18.745000000000005 #
point $-1 -1 -1 $-1 -3.2698356249344713 4.4224625477113317 -18.745000000000005 #
coedge $-1 -1 -1 $-1 $130 $129 $236 $237 reversed $131 $-1 #
coedge $-1 -1 -1 $-1 $236 $236 $133 $183 forward $145 $-1 #
edge $-1 -1 -1 $-1 $186 0 $184 3.1415926535897931 $182 $238 forward @7 unknown T -9.5290741295017476 5.3820587469665044 -16.745000000000005 -7.1290741295017481 6.5820587469665046 -16.745000000000005 #
vertex $-1 -1 -1 $-1 $134 $239 #
straight-curve $-1 -1 -1 $-1 -7.1290741295017481 5.3820587469665044 -11.745000000000003 0 0 -1000 I I #
vertex $-1 -1 -1 $-1 $237 $240 #
straight-curve $-1 -1 -1 $-1 -9.5290741295017476 5.3820587469665044 -11.745000000000003 -0 -0 -1000 I I #
coedge $-1 -1 -1 $-1 $139 $139 $138 $189 forward $190 $-1 #
edge $-1 -1 -1 $-1 $141 -3.1415926535897931 $143 0 $188 $241 forward @7 unknown T -9.5290741295017476 -6.5820587469665046 -16.745000000000005 -7.1290741295017481 -5.3820587469665044 -16.745000000000005 #
loop $-1 -1 -1 $-1 $-1 $139 $110 T -9.5290741295017476 -6.5820587469665046 -16.745000000000005 -7.1290741295017481 -4.1820587469665043 -16.745000000000005 hole $147 T #
ellipse-curve $-1 -1 -1 $-1 -8.3290741295017483 -5.3820587469665044 -16.745000000000005 0 0 -1 -1.1999999999999997 0 0 1 I I #
point $-1 -1 -1 $-1 -7.1290741295017481 -5.3820587469665044 -16.745000000000005 #
point $-1 -1 -1 $-1 -9.5290741295017476 -5.3820587469665044 -16.745000000000005 #
coedge $-1 -1 -1 $-1 $163 $146 $170 $225 reversed $109 $-1 #
coedge $-1 -1 -1 $-1 $146 $242 $153 $204 reversed $109 $-1 #
coedge $-1 -1 -1 $-1 $154 $243 $146 $197 forward $200 $-1 #
edge $-1 -1 -1 $-1 $244 2.2074593770837216 $206 3.1415926535897931 $196 $245 forward @7 unknown T -3.26983562493447 -6.8347148464629681 -16.745000000000005 -2.0533823294441795 -4.4224625477113317 -16.745000000000005 #
integer_attrib-name_attrib-gen-attrib $-1 -1 $-1 $-1 $149 2 1 2 1 1 1 1 1 1 1 1 1 1 1 0 1 1 1 @10 凸台-拉伸5 0 #
face $246 -1 -1 $-1 $247 $210 $4 $-1 $248 forward single T -13.858476779112012 -11.965404461849271 -18.745000000000005 -2.3109521588475301 -8.0508878437792362 -16.745000000000005 F #
loop $-1 -1 -1 $-1 $-1 $154 $149 T -3.26983562493447 -6.8347148464629681 -18.745000000000005 -2.0533823294441795 -4.4224625477113317 -16.745000000000005 unknown #
cone-surface $-1 -1 -1 $-1 -5.0533823294441804 -6.8347148464629681 -18.745000000000005 0 0 1 3 0 0 1 I I 0 1 3 forward I I I I #
integer_attrib-name_attrib-gen-attrib $-1 -1 $-1 $-1 $151 2 1 2 1 1 1 1 1 1 1 1 1 1 1 0 1 1 1 @10 凸台-拉伸5 0 #
cone-surface $-1 -1 -1 $-1 -8.3290741295017483 5.3820587469665044 -11.745000000000003 0 0 -1 -1.1999999999999997 0 0 1 I I 0 1 1.1999999999999997 forward I I I I #
edge $-1 -1 -1 $-1 $206 -3.1415926535897931 $211 -2.7241861416607591 $153 $249 forward @7 unknown T -2.3109521588475324 -8.0508878437792397 -16.745000000000005 -2.0533823294441795 -6.8347148464629681 -16.745000000000005 #
coedge $-1 -1 -1 $-1 $243 $154 $159 $215 reversed $200 $-1 #
vertex $-1 -1 -1 $-1 $155 $250 #
straight-curve $-1 -1 -1 $-1 -2.0533823294441804 -6.8347148464629681 -18.745000000000005 0 0 1000 I I #
coedge $-1 -1 -1 $-1 $251 $156 $242 $252 forward $210 $-1 #
coedge $-1 -1 -1 $-1 $156 $251 $158 $214 reversed $210 $-1 #
loop $-1 -1 -1 $-1 $-1 $208 $199 T -13.858476779112012 -11.965404461849271 -18.745000000000005 -2.3109521588475301 -8.0508878437792362 -16.745000000000005 unknown #
vertex $-1 -1 -1 $-1 $204 $253 #
straight-curve $-1 -1 -1 $-1 -2.3109521588475306 -8.0508878437792379 -18.745000000000005 0 0 1000 I I #
coedge $-1 -1 -1 $-1 $176 $158 $254 $255 forward $125 $-1 #
edge $-1 -1 -1 $-1 $161 -2.7241861416607591 $256 -0.57368322343663647 $158 $257 forward @7 unknown T -13.858476779112012 -11.965404461849271 -18.745000000000005 -2.3109521588475301 -8.0508878437792362 -18.745000000000005 #
edge $-1 -1 -1 $-1 $228 2.2074593770837216 $160 3.1415926535897931 $159 $258 forward @7 unknown T -3.26983562493447 -6.8347148464629681 -18.745000000000005 -2.0533823294441795 -4.4224625477113317 -18.745000000000005 #
point $-1 -1 -1 $-1 -2.0533823294441804 -6.8347148464629681 -18.745000000000005 #
point $-1 -1 -1 $-1 -2.3109521588475306 -8.0508878437792379 -18.745000000000005 #
coedge $-1 -1 -1 $-1 $259 $163 $166 $221 reversed $109 $-1 #
ellipse-curve $-1 -1 -1 $-1 -5.0533823294441804 6.8347148464629681 -16.745000000000005 0 0 -1 3 0 0 1 I I #
coedge $-1 -1 -1 $-1 $166 $165 $260 $261 forward $167 $-1 #
edge $-1 -1 -1 $-1 $262 -0.41740651192903444 $168 0 $166 $263 forward @7 unknown T -2.3109521588475337 6.8347148464629681 -16.745000000000005 -2.0533823294441804 8.0508878437792397 -16.745000000000005 #
face $264 -1 -1 $-1 $226 $167 $4 $-1 $265 forward single T -2.3109521588475337 6.8347148464629681 -18.745000000000005 -2.0533823294441804 8.0508878437792397 -16.745000000000005 F #
point $-1 -1 -1 $-1 -2.0533823294441804 6.8347148464629681 -16.745000000000005 #
coedge $-1 -1 -1 $-1 $171 $170 $243 $266 reversed $172 $-1 #
edge $-1 -1 -1 $-1 $173 -0.93413327650607147 $244 0.9341332765060717 $170 $267 forward @7 unknown T -5.5000000000000009 -4.4224625477113326 -16.745000000000005 -3.26983562493447 4.4224625477113317 -16.745000000000005 #
face $268 -1 -1 $-1 $178 $172 $4 $-1 $269 reversed single T -5.5000000000000009 -4.4224625477113326 -18.745000000000005 -3.26983562493447 4.4224625477113317 -16.745000000000005 F #
point $-1 -1 -1 $-1 -3.2698356249344713 4.4224625477113317 -16.745000000000005 #
vertex $-1 -1 -1 $-1 $175 $270 #
ellipse-curve $-1 -1 -1 $-1 0 0 -18.745000000000005 0 0 1 -5.5000000000000009 0 0 1 I I #
coedge $-1 -1 -1 $-1 $271 $260 $176 $231 reversed $272 $-1 #
edge $-1 -1 -1 $-1 $273 -2.5679094301531578 $232 -0.41740651192903477 $176 $274 forward @7 unknown T -13.858476779112015 8.0508878437792397 -18.745000000000005 -2.3109521588475319 11.965404461849271 -18.745000000000005 #
vertex $-1 -1 -1 $-1 $231 $275 #
ellipse-curve $-1 -1 -1 $-1 -5.0533823294441804 6.8347148464629681 -18.745000000000005 0 0 -1 3 0 0 1 I I #
integer_attrib-name_attrib-gen-attrib $-1 -1 $-1 $-1 $178 2 1 2 1 1 1 1 1 1 1 1 1 1 1 0 1 1 1 @10 凸台-拉伸5 0 #
plane-surface $-1 -1 -1 $-1 -6.6912282294729648 -6.1083867967147363 -18.745000000000005 0 0 -1 -1000 0 0 forward_v I I I I #
coedge $-1 -1 -1 $-1 $182 $182 $181 $237 forward $145 $-1 #
edge $-1 -1 -1 $-1 $184 -3.1415926535897931 $186 0 $236 $276 forward @7 unknown T -9.5290741295017476 4.1820587469665043 -16.745000000000005 -7.1290741295017481 5.3820587469665044 -16.745000000000005 #
ellipse-curve $-1 -1 -1 $-1 -8.3290741295017483 5.3820587469665044 -16.745000000000005 0 0 -1 -1.1999999999999997 0 0 1 I I #
point $-1 -1 -1 $-1 -7.1290741295017481 5.3820587469665044 -16.745000000000005 #
point $-1 -1 -1 $-1 -9.5290741295017476 5.3820587469665044 -16.745000000000005 #
ellipse-curve $-1 -1 -1 $-1 -8.3290741295017483 -5.3820587469665044 -16.745000000000005 0 0 -1 -1.1999999999999997 0 0 1 I I #
coedge $-1 -1 -1 $-1 $195 $277 $208 $252 reversed $109 $-1 #
coedge $-1 -1 -1 $-1 $196 $205 $224 $266 forward $200 $-1 #
vertex $-1 -1 -1 $-1 $225 $278 #
ellipse-curve $-1 -1 -1 $-1 -5.0533823294441804 -6.8347148464629681 -16.745000000000005 0 0 -1 -3.0000000000000009 0 0 1 I I #
integer_attrib-name_attrib-gen-attrib $-1 -1 $-1 $-1 $199 2 1 2 1 1 1 1 1 1 1 1 1 1 1 0 1 1 1 @10 凸台-拉伸5 0 #
face $279 -1 -1 $-1 $280 $281 $4 $-1 $282 forward single T -16.5 -8.9550332976942713 -18.745000000000005 -13.85847677911201 8.9550332976942624 -16.745000000000005 F #
cone-surface $-1 -1 -1 $-1 -8.3290741295017483 -5.3820587469665044 -18.745000000000005 0 0 1 6.5833457148827668 0 0 1 I I 0 1 6.5833457148827668 forward I I I I #
ellipse-curve $-1 -1 -1 $-1 -5.0533823294441804 -6.8347148464629681 -16.745000000000005 0 0 -1 -3.0000000000000009 0 0 1 I I #
point $-1 -1 -1 $-1 -2.0533823294441804 -6.8347148464629681 -16.745000000000005 #
coedge $-1 -1 -1 $-1 $209 $208 $283 $284 reversed $210 $-1 #
edge $-1 -1 -1 $-1 $211 -2.7241861416607591 $285 -0.57368322343663647 $208 $286 forward @7 unknown T -13.858476779112012 -11.965404461849271 -16.745000000000005 -2.3109521588475301 -8.0508878437792362 -16.745000000000005 #
point $-1 -1 -1 $-1 -2.3109521588475306 -8.0508878437792379 -16.745000000000005 #
coedge $-1 -1 -1 $-1 $283 $287 $213 $255 reversed $281 $-1 #
edge $-1 -1 -1 $-1 $256 -0.57368322343663558 $273 0.57368322343663491 $213 $288 forward @7 unknown T -16.5 -8.9550332976942713 -18.745000000000005 -13.85847677911201 8.9550332976942624 -18.745000000000005 #
vertex $-1 -1 -1 $-1 $214 $289 #
ellipse-curve $-1 -1 -1 $-1 -8.3290741295017483 -5.3820587469665044 -18.745000000000005 0 0 -1 -6.5833457148827668 0 0 1 I I #
ellipse-curve $-1 -1 -1 $-1 -5.0533823294441804 -6.8347148464629681 -18.745000000000005 0 0 -1 -3.0000000000000009 0 0 1 I I #
coedge $-1 -1 -1 $-1 $277 $218 $290 $291 reversed $109 $-1 #
coedge $-1 -1 -1 $-1 $230 $290 $220 $261 reversed $272 $-1 #
edge $-1 -1 -1 $-1 $232 0 $262 0.002 $220 $292 forward @7 unknown T -2.3109521588475337 8.0508878437792397 -18.745000000000005 -2.3109521588475337 8.0508878437792397 -16.745000000000005 #
vertex $-1 -1 -1 $-1 $291 $293 #
ellipse-curve $-1 -1 -1 $-1 -5.0533823294441804 6.8347148464629681 -16.745000000000005 0 0 -1 3 0 0 1 I I #
integer_attrib-name_attrib-gen-attrib $-1 -1 $-1 $-1 $222 2 1 2 1 1 1 1 1 1 1 1 1 1 1 0 1 1 1 @10 凸台-拉伸5 0 #
cone-surface $-1 -1 -1 $-1 -5.0533823294441804 6.8347148464629681 -18.745000000000005 0 0 1 3 0 0 1 I I 0 1 3 forward I I I I #
edge $-1 -1 -1 $-1 $228 0 $244 0.002 $243 $294 forward @7 unknown T -3.26983562493447 -4.4224625477113326 -18.745000000000005 -3.26983562493447 -4.4224625477113326 -16.745000000000005 #
ellipse-curve $-1 -1 -1 $-1 0 0 -16.745000000000005 0 0 1 -5.5000000000000009 0 0 1 I I #
integer_attrib-name_attrib-gen-attrib $-1 -1 $-1 $-1 $226 2 1 2 1 1 1 1 1 1 1 1 1 1 1 0 1 1 1 @10 凸台-拉伸5 0 #
cone-surface $-1 -1 -1 $-1 0 0 -18.745000000000005 0 0 1 5.5000000000000009 0 0 1 I I 0 1 5.5000000000000009 forward I I I I #
point $-1 -1 -1 $-1 -3.26983562493447 -4.4224625477113326 -18.745000000000005 #
coedge $-1 -1 -1 $-1 $290 $230 $287 $295 forward $272 $-1 #
loop $-1 -1 -1 $-1 $-1 $290 $280 T -13.858476779112015 8.0508878437792397 -18.745000000000005 -2.3109521588475319 11.965404461849271 -16.745000000000005 unknown #
vertex $-1 -1 -1 $-1 $255 $296 #
ellipse-curve $-1 -1 -1 $-1 -8.3290741295017483 5.3820587469665044 -18.745000000000005 0 0 -1 6.5833457148827668 0 0 1 I I #
point $-1 -1 -1 $-1 -2.3109521588475337 8.0508878437792397 -18.745000000000005 #
ellipse-curve $-1 -1 -1 $-1 -8.3290741295017483 5.3820587469665044 -16.745000000000005 0 0 -1 -1.1999999999999997 0 0 1 I I #
coedge $-1 -1 -1 $-1 $242 $259 $297 $298 reversed $109 $-1 #
point $-1 -1 -1 $-1 -3.26983562493447 -4.4224625477113326 -16.745000000000005 #
integer_attrib-name_attrib-gen-attrib $-1 -1 $-1 $-1 $247 2 1 2 1 1 1 1 1 1 1 1 1 1 1 0 1 1 1 @10 凸台-拉伸5 0 #
face $299 -1 -1 $-1 $222 $272 $4 $-1 $300 forward single T -13.858476779112015 8.0508878437792397 -18.745000000000005 -2.3109521588475319 11.965404461849271 -16.745000000000005 F #
loop $-1 -1 -1 $-1 $-1 $297 $247 T -16.5 -8.9550332976942713 -18.745000000000005 -13.85847677911201 8.9550332976942624 -16.745000000000005 unknown #
cone-surface $-1 -1 -1 $-1 0 0 -18.745000000000005 0 0 1 16.5 0 0 1 I I 0 1 16.5 forward I I I I #
coedge $-1 -1 -1 $-1 $297 $254 $251 $284 forward $281 $-1 #
edge $-1 -1 -1 $-1 $256 0 $285 0.002 $283 $301 forward @7 unknown T -13.858476779112012 -8.9550332976942713 -18.745000000000005 -13.858476779112012 -8.9550332976942713 -16.745000000000005 #
vertex $-1 -1 -1 $-1 $252 $302 #
ellipse-curve $-1 -1 -1 $-1 -8.3290741295017483 -5.3820587469665044 -16.745000000000005 0 0 -1 -6.5833457148827668 0 0 1 I I #
coedge $-1 -1 -1 $-1 $254 $297 $271 $295 reversed $281 $-1 #
ellipse-curve $-1 -1 -1 $-1 0 0 -18.745000000000005 0 0 -1 -16.5 0 0 1 I I #
point $-1 -1 -1 $-1 -13.858476779112012 -8.9550332976942713 -18.745000000000005 #
coedge $-1 -1 -1 $-1 $260 $271 $259 $291 forward $272 $-1 #
edge $-1 -1 -1 $-1 $303 -2.5679094301531578 $262 -0.41740651192903477 $290 $304 forward @7 unknown T -13.858476779112015 8.0508878437792397 -16.745000000000005 -2.3109521588475319 11.965404461849271 -16.745000000000005 #
straight-curve $-1 -1 -1 $-1 -2.3109521588475337 8.0508878437792397 -18.745000000000005 0 0 1000 I I #
point $-1 -1 -1 $-1 -2.3109521588475337 8.0508878437792397 -16.745000000000005 #
straight-curve $-1 -1 -1 $-1 -3.26983562493447 -4.4224625477113326 -18.745000000000005 0 0 1000 I I #
edge $-1 -1 -1 $-1 $273 0 $303 0.002 $271 $305 forward @7 unknown T -13.858476779112015 8.9550332976942624 -18.745000000000005 -13.858476779112015 8.9550332976942624 -16.745000000000005 #
point $-1 -1 -1 $-1 -13.858476779112015 8.9550332976942624 -18.745000000000005 #
coedge $-1 -1 -1 $-1 $287 $283 $277 $298 forward $281 $-1 #
edge $-1 -1 -1 $-1 $285 -0.57368322343663558 $303 0.57368322343663491 $297 $306 forward @7 unknown T -16.5 -8.9550332976942713 -16.745000000000005 -13.85847677911201 8.9550332976942624 -16.745000000000005 #
integer_attrib-name_attrib-gen-attrib $-1 -1 $-1 $-1 $280 2 1 2 1 1 1 1 1 1 1 1 1 1 1 0 1 1 1 @10 凸台-拉伸5 0 #
cone-surface $-1 -1 -1 $-1 -8.3290741295017483 5.3820587469665044 -18.745000000000005 0 0 1 6.5833457148827668 0 0 1 I I 0 1 6.5833457148827668 forward I I I I #
straight-curve $-1 -1 -1 $-1 -13.858476779112012 -8.9550332976942713 -18.745000000000005 0 0 1000 I I #
point $-1 -1 -1 $-1 -13.858476779112012 -8.9550332976942713 -16.745000000000005 #
vertex $-1 -1 -1 $-1 $298 $307 #
ellipse-curve $-1 -1 -1 $-1 -8.3290741295017483 5.3820587469665044 -16.745000000000005 0 0 -1 6.5833457148827668 0 0 1 I I #
straight-curve $-1 -1 -1 $-1 -13.858476779112015 8.9550332976942624 -18.745000000000005 0 0 1000 I I #
ellipse-curve $-1 -1 -1 $-1 0 0 -16.745000000000005 0 0 -1 -16.5 0 0 1 I I #
point $-1 -1 -1 $-1 -13.858476779112015 8.9550332976942624 -16.745000000000005 #
End-of-ACIS-data 