1900 0 1 0           
15 SolidWorks 2013 12 ACIS 22.0 NT 24 Wed Nov 25 15:52:22 2015 
1 9.9999999999999995e-007 1e-010 
-0 body $1 -1 -1 $-1 $2 $-1 $-1 F #
-1 name_attrib-gen-attrib $-1 -1 $-1 $-1 $0 2 1 1 1 1 1 1 1 1 1 1 1 1 1 0 1 1 1 @19 match part for bolt #
-2 lump $3 -1 -1 $-1 $-1 $4 $0 F #
-3 rgb_color-st-attrib $-1 -1 $-1 $-1 $2 2 1 2 1 1 1 1 1 1 1 1 1 1 1 0 1 1 1 0.792156862745098 0.81960784313725488 0.93333333333333335 #
-4 shell $-1 -1 -1 $-1 $-1 $-1 $5 $-1 $2 F #
-5 face $6 -1 -1 $-1 $7 $8 $4 $-1 $9 reversed single F T 0 1.1636363636363638 -3.1415926535897931 0 #
-6 integer_attrib-name_attrib-gen-attrib $-1 -1 $-1 $-1 $5 2 1 2 1 1 1 1 1 1 1 1 1 1 1 0 1 1 1 @17 基体零件-master-1 0 #
-7 face $10 -1 -1 $-1 $11 $12 $4 $-1 $13 forward single F T -8.5370249802008238e-016 0.45714285714285779 -2.2357475308104364 0 #
-8 loop $-1 -1 -1 $-1 $-1 $14 $5 F unknown #
-9 cone-surface $-1 -1 -1 $-1 26.670000000000005 -18.146340237083628 4.0640000000000001 -0 -0 -1 -3.4924999999999993 0 0 1 I I 0 1 3.4924999999999993 forward I I I I #
-10 integer_attrib-name_attrib-gen-attrib $-1 -1 $-1 $-1 $7 2 1 2 1 1 1 1 1 1 1 1 1 1 1 0 1 1 1 @17 基体零件-master-1 0 #
-11 face $15 -1 -1 $-1 $16 $17 $4 $-1 $18 forward single F T -8.5370249802008238e-016 0.45714285714285652 0 0.24074250177606493 #
-12 loop $-1 -1 -1 $-1 $-1 $19 $7 F unknown #
-13 cone-surface $-1 -1 -1 $-1 26.670000000000005 -18.146340237083628 4.0640000000000001 0 -8.5370249802008228e-016 -1 0 8.889999999999997 -7.8062556418956319e-015 1 I I 0 1 8.889999999999997 forward I I I I #
-14 coedge $-1 -1 -1 $-1 $20 $21 $22 $23 reversed $8 $-1 #
-15 integer_attrib-name_attrib-gen-attrib $-1 -1 $-1 $-1 $11 2 1 2 1 1 1 1 1 1 1 1 1 1 1 0 1 1 1 @17 基体零件-master-1 0 #
-16 face $24 -1 -1 $-1 $25 $26 $4 $-1 $27 reversed single F F #
-17 loop $-1 -1 -1 $-1 $-1 $28 $11 F unknown #
-18 cone-surface $-1 -1 -1 $-1 26.670000000000005 -18.146340237083628 4.0640000000000001 0 -8.5370249802008228e-016 -1 0 8.889999999999997 -7.8062556418956319e-015 1 I I 0 1 8.889999999999997 forward I I I I #
-19 coedge $-1 -1 -1 $-1 $29 $30 $31 $32 reversed $12 $-1 #
-20 coedge $-1 -1 -1 $-1 $33 $14 $34 $35 forward $8 $-1 #
-21 coedge $-1 -1 -1 $-1 $14 $33 $36 $37 reversed $8 $-1 #
-22 coedge $-1 -1 -1 $-1 $38 $38 $14 $23 forward $39 $-1 #
-23 edge $-1 -1 -1 $-1 $40 -3.1415926535897931 $41 0 $22 $42 forward @7 unknown F #
-24 integer_attrib-name_attrib-gen-attrib $-1 -1 $-1 $-1 $16 2 1 2 1 1 1 1 1 1 1 1 1 1 1 0 1 1 1 @17 基体零件-master-1 0 #
-25 face $43 -1 -1 $-1 $44 $45 $4 $-1 $46 reversed single F T 0 0.15999999999999998 -0.58432242429290637 -0.34455341966256203 #
-26 loop $-1 -1 -1 $-1 $47 $48 $16 F unknown #
-27 plane-surface $-1 -1 -1 $-1 10.956281428512467 32.224357142683751 0 0 0 1 1000 0 0 forward_v I I I I #
-28 coedge $-1 -1 -1 $-1 $49 $50 $29 $51 reversed $17 $-1 #
-29 coedge $-1 -1 -1 $-1 $52 $19 $28 $51 forward $12 $-1 #
-30 coedge $-1 -1 -1 $-1 $19 $52 $53 $54 reversed $12 $-1 #
-31 coedge $-1 -1 -1 $-1 $55 $56 $19 $32 forward $57 $-1 #
-32 edge $-1 -1 -1 $-1 $58 -1.5707963267948966 $59 0.66495120401554009 $31 $60 forward @7 unknown F #
-33 coedge $-1 -1 -1 $-1 $21 $20 $61 $62 forward $8 $-1 #
-34 coedge $-1 -1 -1 $-1 $63 $64 $20 $35 reversed $65 $-1 #
-35 edge $-1 -1 -1 $-1 $40 -0 $66 0.0040639999999999999 $20 $67 forward @7 unknown F #
-36 coedge $-1 -1 -1 $-1 $64 $63 $21 $37 forward $65 $-1 #
-37 edge $-1 -1 -1 $-1 $41 -0 $68 0.0040639999999999999 $36 $69 forward @7 unknown F #
-38 coedge $-1 -1 -1 $-1 $22 $22 $63 $70 forward $39 $-1 #
-39 loop $-1 -1 -1 $-1 $-1 $38 $71 F unknown #
-40 vertex $-1 -1 -1 $-1 $35 $72 #
-41 vertex $-1 -1 -1 $-1 $23 $73 #
-42 ellipse-curve $-1 -1 -1 $-1 26.670000000000005 -18.146340237083628 4.0640000000000001 -0 -0 -1 -3.4924999999999993 0 0 1 I I #
-43 integer_attrib-name_attrib-gen-attrib $-1 -1 $-1 $-1 $25 2 1 2 1 1 1 1 1 1 1 1 1 1 1 0 1 1 1 @17 基体零件-master-1 0 #
-44 face $74 -1 -1 $-1 $71 $75 $4 $-1 $76 forward single F T 0 0.70021881838074473 2.5572702292968863 4.7587880108270397 #
-45 loop $-1 -1 -1 $-1 $-1 $77 $25 F unknown #
-46 cone-surface $-1 -1 -1 $-1 52.696737738127808 -0.93319706331334784 4.0640000000000001 -0 -0 -1 -25.400000000000006 0 0 1 I I 0 1 25.400000000000006 forward I I I I #
-47 loop $-1 -1 -1 $-1 $-1 $78 $16 F unknown #
-48 coedge $-1 -1 -1 $-1 $61 $61 $64 $79 reversed $26 $-1 #
-49 coedge $-1 -1 -1 $-1 $80 $28 $56 $81 reversed $17 $-1 #
-50 coedge $-1 -1 -1 $-1 $28 $80 $82 $83 reversed $17 $-1 #
-51 edge $-1 -1 -1 $-1 $58 -7.9936057773011249e-018 $84 0.0040639999999999921 $29 $85 forward @7 unknown F #
-52 coedge $-1 -1 -1 $-1 $30 $29 $86 $87 reversed $12 $-1 #
-53 coedge $-1 -1 -1 $-1 $88 $89 $30 $54 forward $90 $-1 #
-54 edge $-1 -1 -1 $-1 $59 0 $91 0.0040639999999999999 $53 $92 forward @7 unknown F #
-55 coedge $-1 -1 -1 $-1 $93 $31 $89 $94 forward $57 $-1 #
-56 coedge $-1 -1 -1 $-1 $31 $95 $49 $81 forward $57 $-1 #
-57 loop $-1 -1 -1 $-1 $39 $55 $71 F unknown #
-58 vertex $-1 -1 -1 $-1 $51 $96 #
-59 vertex $-1 -1 -1 $-1 $32 $97 #
-60 ellipse-curve $-1 -1 -1 $-1 26.670000000000005 -18.146340237083628 4.0640000000000001 0 0 1 -8.8899999999999952 0 0 1 I I #
-61 coedge $-1 -1 -1 $-1 $48 $48 $33 $62 reversed $26 $-1 #
-62 edge $-1 -1 -1 $-1 $66 -3.1415926535897931 $68 0 $33 $98 forward @7 unknown F #
-63 coedge $-1 -1 -1 $-1 $36 $34 $38 $70 reversed $65 $-1 #
-64 coedge $-1 -1 -1 $-1 $34 $36 $48 $79 forward $65 $-1 #
-65 loop $-1 -1 -1 $-1 $-1 $34 $99 F unknown #
-66 vertex $-1 -1 -1 $-1 $35 $100 #
-67 straight-curve $-1 -1 -1 $-1 30.162500000000005 -18.146340237083628 4.0640000000000001 -0 -0 -1000 I I #
-68 vertex $-1 -1 -1 $-1 $62 $101 #
-69 straight-curve $-1 -1 -1 $-1 23.177500000000006 -18.146340237083628 4.0640000000000001 -0 -0 -1000 I I #
-70 edge $-1 -1 -1 $-1 $41 0 $40 3.1415926535897931 $38 $102 forward @7 unknown F #
-71 face $103 -1 -1 $-1 $104 $57 $4 $-1 $105 forward single F F #
-72 point $-1 -1 -1 $-1 30.162500000000005 -18.146340237083628 4.0640000000000001 #
-73 point $-1 -1 -1 $-1 23.177500000000006 -18.146340237083628 4.0640000000000001 #
-74 integer_attrib-name_attrib-gen-attrib $-1 -1 $-1 $-1 $44 2 1 2 1 1 1 1 1 1 1 1 1 1 1 0 1 1 1 @17 基体零件-master-1 0 #
-75 loop $-1 -1 -1 $-1 $-1 $106 $44 F unknown #
-76 cone-surface $-1 -1 -1 $-1 26.670000000000005 -18.146340237083628 4.0640000000000001 -0 -0 -1 -5.8038999999999934 0 0 1 I I 0 1 5.8038999999999934 forward I I I I #
-77 coedge $-1 -1 -1 $-1 $107 $108 $109 $110 forward $45 $-1 #
-78 coedge $-1 -1 -1 $-1 $86 $111 $88 $112 reversed $47 $-1 #
-79 edge $-1 -1 -1 $-1 $68 0 $66 3.1415926535897931 $64 $113 forward @7 unknown F #
-80 coedge $-1 -1 -1 $-1 $50 $49 $107 $114 reversed $17 $-1 #
-81 edge $-1 -1 -1 $-1 $115 -1.8115388285709706 $58 -1.5707963267949054 $56 $116 forward @7 unknown F #
-82 coedge $-1 -1 -1 $-1 $109 $86 $50 $83 forward $47 $-1 #
-83 edge $-1 -1 -1 $-1 $84 -1.5707963267949054 $117 -1.3300538250188407 $82 $118 forward @7 unknown F #
-84 vertex $-1 -1 -1 $-1 $51 $119 #
-85 straight-curve $-1 -1 -1 $-1 26.670000000000005 -9.2563402370836307 4.0639999999999921 0 -8.5370249802008223e-013 -1000 I I #
-86 coedge $-1 -1 -1 $-1 $82 $78 $52 $87 forward $47 $-1 #
-87 edge $-1 -1 -1 $-1 $91 2.4766414495742541 $84 4.7123889803846906 $86 $120 forward @7 unknown F #
-88 coedge $-1 -1 -1 $-1 $121 $53 $78 $112 forward $90 $-1 #
-89 coedge $-1 -1 -1 $-1 $53 $121 $55 $94 reversed $90 $-1 #
-90 loop $-1 -1 -1 $-1 $-1 $89 $104 F unknown #
-91 vertex $-1 -1 -1 $-1 $87 $122 #
-92 straight-curve $-1 -1 -1 $-1 19.674042110567122 -23.631654558914395 4.0640000000000001 0 -8.5370249802008223e-013 -1000 I I #
-93 coedge $-1 -1 -1 $-1 $95 $55 $106 $123 reversed $57 $-1 #
-94 edge $-1 -1 -1 $-1 $59 0.00088599340733913298 $124 0.0076199999999999957 $55 $125 forward @7 unknown F #
-95 coedge $-1 -1 -1 $-1 $56 $93 $126 $127 forward $57 $-1 #
-96 point $-1 -1 -1 $-1 26.670000000000005 -9.2563402370836325 4.0640000000000001 #
-97 point $-1 -1 -1 $-1 19.674042110567122 -23.631654558914395 4.0640000000000001 #
-98 ellipse-curve $-1 -1 -1 $-1 26.670000000000005 -18.146340237083628 0 -0 -0 -1 -3.4924999999999993 0 0 1 I I #
-99 face $128 -1 -1 $-1 $-1 $65 $4 $-1 $129 reversed single F T 0 1.1636363636363638 0 3.1415926535897931 #
-100 point $-1 -1 -1 $-1 30.162500000000005 -18.146340237083628 0 #
-101 point $-1 -1 -1 $-1 23.177500000000006 -18.146340237083628 0 #
-102 ellipse-curve $-1 -1 -1 $-1 26.670000000000005 -18.146340237083628 4.0640000000000001 -0 -0 -1 -3.4924999999999993 0 0 1 I I #
-103 integer_attrib-name_attrib-gen-attrib $-1 -1 $-1 $-1 $71 2 1 2 1 1 1 1 1 1 1 1 1 1 1 0 1 1 1 @17 基体零件-master-1 0 #
-104 face $130 -1 -1 $-1 $99 $90 $4 $-1 $131 reversed single F F #
-105 plane-surface $-1 -1 -1 $-1 10.956281428512467 32.224357142683751 4.0640000000000001 0 0 1 1000 0 0 forward_v I I I I #
-106 coedge $-1 -1 -1 $-1 $132 $133 $93 $123 forward $75 $-1 #
-107 coedge $-1 -1 -1 $-1 $126 $77 $80 $114 forward $45 $-1 #
-108 coedge $-1 -1 -1 $-1 $77 $126 $133 $134 reversed $45 $-1 #
-109 coedge $-1 -1 -1 $-1 $111 $82 $77 $110 reversed $47 $-1 #
-110 edge $-1 -1 -1 $-1 $135 -0.58432242429290615 $117 -0.34455341966256248 $77 $136 forward @7 unknown F #
-111 coedge $-1 -1 -1 $-1 $78 $109 $137 $138 reversed $47 $-1 #
-112 edge $-1 -1 -1 $-1 $91 0.00088599340733912951 $139 0.0076199999999999966 $88 $140 forward @7 unknown F #
-113 ellipse-curve $-1 -1 -1 $-1 26.670000000000005 -18.146340237083628 0 -0 -0 -1 -3.4924999999999993 0 0 1 I I #
-114 edge $-1 -1 -1 $-1 $117 -0.0020319999999999939 $115 0.0020320000000000065 $107 $141 forward @7 unknown F #
-115 vertex $-1 -1 -1 $-1 $114 $142 #
-116 ellipse-curve $-1 -1 -1 $-1 26.670000000000005 -18.146340237083628 4.0640000000000001 0 0 1 -8.8899999999999952 -7.9797279894933126e-014 0 1 I I #
-117 vertex $-1 -1 -1 $-1 $83 $143 #
-118 ellipse-curve $-1 -1 -1 $-1 26.670000000000005 -18.146340237083631 0 -0 -0 -1 8.8899999999999952 -7.9797279894933126e-014 0 1 I I #
-119 point $-1 -1 -1 $-1 26.670000000000005 -9.2563402370836343 0 #
-120 ellipse-curve $-1 -1 -1 $-1 26.670000000000005 -18.146340237083631 0 -0 -0 -1 8.8899999999999952 6.9388939039072284e-015 0 1 I I #
-121 coedge $-1 -1 -1 $-1 $89 $88 $132 $144 reversed $90 $-1 #
-122 point $-1 -1 -1 $-1 19.674042110567118 -23.631654558914395 0 #
-123 edge $-1 -1 -1 $-1 $145 2.5572702292968863 $124 4.7587880108270397 $106 $146 forward @7 unknown F #
-124 vertex $-1 -1 -1 $-1 $123 $147 #
-125 straight-curve $-1 -1 -1 $-1 18.789002246463294 -23.590560072721164 4.0640000000000001 998.92375809186979 -46.382383720716142 0 I I #
-126 coedge $-1 -1 -1 $-1 $108 $107 $95 $127 reversed $45 $-1 #
-127 edge $-1 -1 -1 $-1 $145 -0.58432242429290637 $115 -0.34455341966256214 $95 $148 forward @7 unknown F #
-128 integer_attrib-name_attrib-gen-attrib $-1 -1 $-1 $-1 $99 2 1 2 1 1 1 1 1 1 1 1 1 1 1 0 1 1 1 @17 基体零件-master-1 0 #
-129 cone-surface $-1 -1 -1 $-1 26.670000000000005 -18.146340237083628 4.0640000000000001 -0 -0 -1 -3.4924999999999993 0 0 1 I I 0 1 3.4924999999999993 forward I I I I #
-130 integer_attrib-name_attrib-gen-attrib $-1 -1 $-1 $-1 $104 2 1 2 1 1 1 1 1 1 1 1 1 1 1 0 1 1 1 @17 基体零件-master-1 0 #
-131 plane-surface $-1 -1 -1 $-1 18.789002246463294 -23.590560072721164 4.0640000000000001 0.046382383720716139 0.99892375809186973 0 -998.92375809186979 46.382383720716142 0 forward_v I I I I #
-132 coedge $-1 -1 -1 $-1 $137 $106 $121 $144 forward $75 $-1 #
-133 coedge $-1 -1 -1 $-1 $106 $137 $108 $134 forward $75 $-1 #
-134 edge $-1 -1 -1 $-1 $135 -0.0040639999999999999 $145 0 $133 $149 forward @7 unknown F #
-135 vertex $-1 -1 -1 $-1 $134 $150 #
-136 ellipse-curve $-1 -1 -1 $-1 52.696737738127808 -0.93319706331334784 0 -0 -0 -1 -25.400000000000006 0 0 1 I I #
-137 coedge $-1 -1 -1 $-1 $133 $132 $111 $138 forward $75 $-1 #
-138 edge $-1 -1 -1 $-1 $139 1.5243972963525469 $135 3.7259150778826999 $137 $151 forward @7 unknown F #
-139 vertex $-1 -1 -1 $-1 $112 $152 #
-140 straight-curve $-1 -1 -1 $-1 18.789002246463294 -23.590560072721164 0 998.92375809186979 -46.382383720716589 0 I I #
-141 straight-curve $-1 -1 -1 $-1 28.789587413166192 -9.5127170580267943 2.0319999999999938 0 8.5370249802008223e-013 1000 I I #
-142 point $-1 -1 -1 $-1 28.789587413166192 -9.5127170580267961 4.0640000000000001 #
-143 point $-1 -1 -1 $-1 28.789587413166192 -9.512717058026805 0 #
-144 edge $-1 -1 -1 $-1 $124 -0 $139 0.0040639999999999999 $132 $153 forward @7 unknown F #
-145 vertex $-1 -1 -1 $-1 $123 $154 #
-146 ellipse-curve $-1 -1 -1 $-1 26.670000000000005 -18.146340237083628 4.0640000000000001 -0 -0 -1 -5.8038999999999934 0 0 1 I I #
-147 point $-1 -1 -1 $-1 26.400801283123339 -23.943993836673023 4.0640000000000001 #
-148 ellipse-curve $-1 -1 -1 $-1 52.696737738127808 -0.93319706331334784 4.0640000000000001 -0 -0 -1 -25.400000000000006 0 0 1 I I #
-149 straight-curve $-1 -1 -1 $-1 31.510952033506069 -14.944709618274908 4.0640000000000001 0 0 1000 I I #
-150 point $-1 -1 -1 $-1 31.510952033506069 -14.944709618274908 0 #
-151 ellipse-curve $-1 -1 -1 $-1 26.670000000000005 -18.146340237083628 0 0 0 1 -5.8038999999999934 0 0 1 I I #
-152 point $-1 -1 -1 $-1 26.400801283123339 -23.943993836673027 0 #
-153 straight-curve $-1 -1 -1 $-1 26.400801283123339 -23.943993836673023 4.0640000000000001 -0 -0 -1000 I I #
-154 point $-1 -1 -1 $-1 31.510952033506069 -14.944709618274912 4.0640000000000001 #
End-of-ACIS-data 