2300 0 1 0           
19 Example Application 12 ACIS 23.0 NT 24 Thu Nov 26 09:46:54 2015 
1 9.9999999999999995e-007 1e-010 
-0 body $1 -1 -1 $-1 $2 $-1 $-1 T -14.588011588478942 -14.588011588478942 -16.745000000000005 14.588011588478942 14.588011588478942 0 #
-1 name_attrib-gen-attrib $-1 -1 $-1 $-1 $0 2 1 1 1 1 1 1 1 1 1 1 1 1 1 0 1 1 1 @21 match part for holder #
-2 lump $3 -1 -1 $-1 $-1 $4 $0 T -14.588011588478942 -14.588011588478942 -16.745000000000005 14.588011588478942 14.588011588478942 0 #
-3 rgb_color-st-attrib $-1 -1 $-1 $-1 $2 2 1 2 1 1 1 1 1 1 1 1 1 1 1 0 1 1 1 0.792156862745098 0.81960784313725488 0.93333333333333335 #
-4 shell $-1 -1 -1 $-1 $-1 $-1 $5 $-1 $2 T -14.588011588478942 -14.588011588478942 -16.745000000000005 14.588011588478942 14.588011588478942 0 #
-5 face $6 -1 -1 $-1 $7 $8 $4 $-1 $9 reversed single T -5.0164999999999997 -5.0164999999999997 -13.745000000000003 5.0164999999999997 6.1434406679226979e-016 0 F #
-6 integer_attrib-name_attrib-gen-attrib $-1 -1 $-1 $-1 $5 2 1 2 1 1 1 1 1 1 1 1 1 1 1 0 1 1 1 @17 基体零件-master-1 0 #
-7 face $10 -1 -1 $-1 $11 $12 $4 $-1 $13 forward single T -14.588011588478942 0 -13.745000000000001 14.588011588478942 14.588011588478942 0 F #
-8 loop $-1 -1 -1 $-1 $-1 $14 $5 T -5.0164999999999997 -5.0164999999999997 -13.745000000000003 5.0164999999999997 6.1434406679226979e-016 0 periphery $9 T #
-9 cone-surface $-1 -1 -1 $-1 0 0 0 0 0 1 5.0164999999999997 0 0 1 I I 0 1 5.0164999999999997 forward I I I I #
-10 integer_attrib-name_attrib-gen-attrib $-1 -1 $-1 $-1 $7 2 1 2 1 1 1 1 1 1 1 1 1 1 1 0 1 1 1 @17 基体零件-master-1 0 #
-11 face $15 -1 -1 $-1 $16 $17 $4 $-1 $18 reversed single T 8.2166542851172295 -1.7000000000000699 -13.745000000000003 11.61665428511723 -6.9614429952211441e-014 0 F #
-12 loop $-1 -1 -1 $-1 $-1 $19 $7 T -14.588011588478942 0 -13.745000000000001 14.588011588478942 14.588011588478942 0 periphery $13 F #
-13 cone-surface $-1 -1 -1 $-1 0 0 0.99999999999999656 0 0 -1 -14.588011588478942 0 0 1 I I 0 1 14.588011588478942 forward I I I I #
-14 coedge $-1 -1 -1 $-1 $20 $21 $22 $23 forward $8 $-1 #
-15 integer_attrib-name_attrib-gen-attrib $-1 -1 $-1 $-1 $11 2 1 2 1 1 1 1 1 1 1 1 1 1 1 0 1 1 1 @17 基体零件-master-1 0 #
-16 face $24 -1 -1 $-1 $25 $26 $4 $-1 $27 reversed single T -9.5290741295017476 -6.5820587469665046 -13.745000000000003 -7.1290741295017481 -5.3820587469665044 -11.745000000000003 F #
-17 loop $-1 -1 -1 $-1 $-1 $28 $11 T 8.2166542851172295 -1.7000000000000699 -13.745000000000003 11.61665428511723 -6.9614429952211441e-014 0 periphery $18 T #
-18 cone-surface $-1 -1 -1 $-1 9.9166542851172288 -6.9822619908066486e-014 -22.625801765053804 0 0 1 1.7000000000000002 0 0 1 I I 0 1 1.7000000000000002 forward I I I I #
-19 coedge $-1 -1 -1 $-1 $29 $30 $31 $32 forward $12 $-1 #
-20 coedge $-1 -1 -1 $-1 $33 $14 $34 $35 forward $8 $-1 #
-21 coedge $-1 -1 -1 $-1 $14 $33 $36 $37 reversed $8 $-1 #
-22 coedge $-1 -1 -1 $-1 $38 $38 $14 $23 reversed $39 $-1 #
-23 edge $-1 -1 -1 $-1 $40 0 $41 3.1415926535897931 $14 $42 forward @7 unknown T -5.0164999999999997 -5.0164999999999997 -13.745000000000003 5.0164999999999997 6.1434406679226979e-016 -13.745000000000003 #
-24 integer_attrib-name_attrib-gen-attrib $-1 -1 $-1 $-1 $16 2 1 2 1 1 1 1 1 1 1 1 1 1 1 0 1 1 1 @17 基体零件-master-1 0 #
-25 face $43 -1 -1 $-1 $44 $45 $4 $-1 $46 reversed single T -9.5290741295017494 4.1820587469665043 -13.745000000000003 -7.1290741295017472 5.3820587469665044 -11.745000000000003 F #
-26 loop $-1 -1 -1 $-1 $-1 $47 $16 T -9.5290741295017476 -6.5820587469665046 -13.745000000000003 -7.1290741295017481 -5.3820587469665044 -11.745000000000003 periphery $27 T #
-27 cone-surface $-1 -1 -1 $-1 -8.3290741295017483 -5.3820587469665044 -11.745000000000003 -0 -0 -1 -1.1999999999999997 0 0 1 I I 0 1 1.1999999999999997 forward I I I I #
-28 coedge $-1 -1 -1 $-1 $48 $49 $50 $51 reversed $17 $-1 #
-29 coedge $-1 -1 -1 $-1 $52 $19 $53 $54 forward $12 $-1 #
-30 coedge $-1 -1 -1 $-1 $19 $52 $55 $56 reversed $12 $-1 #
-31 coedge $-1 -1 -1 $-1 $57 $57 $19 $32 reversed $58 $-1 #
-32 edge $-1 -1 -1 $-1 $59 0 $60 3.1415926535897931 $19 $61 forward @7 unknown T -14.588011588478942 0 0 14.588011588478942 14.588011588478942 0 #
-33 coedge $-1 -1 -1 $-1 $21 $20 $62 $63 forward $8 $-1 #
-34 coedge $-1 -1 -1 $-1 $64 $65 $20 $35 reversed $66 $-1 #
-35 edge $-1 -1 -1 $-1 $41 -0.013745000000000002 $67 0 $20 $68 forward @7 unknown T -5.0164999999999997 6.1434406679226979e-016 -13.745000000000003 -5.0164999999999997 6.1434406679226979e-016 0 #
-36 coedge $-1 -1 -1 $-1 $65 $64 $21 $37 forward $66 $-1 #
-37 edge $-1 -1 -1 $-1 $40 -0.013745000000000002 $69 0 $36 $70 forward @7 unknown T 5.0164999999999997 0 -13.745000000000003 5.0164999999999997 0 0 #
-38 coedge $-1 -1 -1 $-1 $22 $22 $64 $71 reversed $39 $-1 #
-39 loop $-1 -1 -1 $-1 $72 $22 $73 T -5.0164999999999997 -5.0164999999999997 -13.745000000000003 5.0164999999999997 5.0164999999999997 -13.745000000000003 hole $74 T #
-40 vertex $-1 -1 -1 $-1 $71 $75 #
-41 vertex $-1 -1 -1 $-1 $35 $76 #
-42 ellipse-curve $-1 -1 -1 $-1 0 0 -13.745000000000003 -0 -0 -1 5.0164999999999997 0 0 1 I I #
-43 integer_attrib-name_attrib-gen-attrib $-1 -1 $-1 $-1 $25 2 1 2 1 1 1 1 1 1 1 1 1 1 1 0 1 1 1 @17 基体零件-master-1 0 #
-44 face $77 -1 -1 $-1 $78 $79 $4 $-1 $80 reversed single T -11.616654285117232 -1.6999999999999984 -16.745000000000005 -8.2166542851172331 1.9429134318318569e-015 0 F #
-45 loop $-1 -1 -1 $-1 $-1 $81 $25 T -9.5290741295017494 4.1820587469665043 -13.745000000000003 -7.1290741295017472 5.3820587469665044 -11.745000000000003 periphery $46 T #
-46 cone-surface $-1 -1 -1 $-1 -8.3290741295017483 5.3820587469665044 -11.745000000000003 -0 -0 -1 -1.1999999999999997 0 0 1 I I 0 1 1.1999999999999997 forward I I I I #
-47 coedge $-1 -1 -1 $-1 $82 $83 $84 $85 reversed $26 $-1 #
-48 coedge $-1 -1 -1 $-1 $86 $28 $87 $88 forward $17 $-1 #
-49 coedge $-1 -1 -1 $-1 $28 $86 $89 $90 reversed $17 $-1 #
-50 coedge $-1 -1 -1 $-1 $91 $91 $28 $51 forward $92 $-1 #
-51 edge $-1 -1 -1 $-1 $93 -3.1415926535897931 $94 0 $50 $95 forward @7 unknown T 8.2166542851172295 -1.7000000000000699 -13.745000000000003 11.61665428511723 -6.9614429952211441e-014 -13.745000000000003 #
-52 coedge $-1 -1 -1 $-1 $30 $29 $96 $97 forward $12 $-1 #
-53 coedge $-1 -1 -1 $-1 $98 $99 $29 $54 reversed $100 $-1 #
-54 edge $-1 -1 -1 $-1 $60 0.00099999999999999655 $101 0.014744999999999998 $29 $102 forward @7 unknown T 14.588011588478942 1.7865161697755233e-015 -13.745000000000001 14.588011588478942 1.7865161697755233e-015 0 #
-55 coedge $-1 -1 -1 $-1 $99 $98 $30 $56 forward $100 $-1 #
-56 edge $-1 -1 -1 $-1 $59 0.00099999999999999655 $103 0.014744999999999998 $55 $104 forward @7 unknown T -14.588011588478942 0 -13.745000000000001 -14.588011588478942 0 0 #
-57 coedge $-1 -1 -1 $-1 $31 $31 $98 $105 reversed $58 $-1 #
-58 loop $-1 -1 -1 $-1 $106 $31 $107 T -14.588011588478942 -14.588011588478942 0 14.588011588478942 14.588011588478942 0 periphery $108 T #
-59 vertex $-1 -1 -1 $-1 $105 $109 #
-60 vertex $-1 -1 -1 $-1 $54 $110 #
-61 ellipse-curve $-1 -1 -1 $-1 0 0 0 0 0 -1 -14.588011588478942 0 0 1 I I #
-62 coedge $-1 -1 -1 $-1 $111 $111 $33 $63 reversed $112 $-1 #
-63 edge $-1 -1 -1 $-1 $67 -1.2246467991473535e-016 $69 3.1415926535897931 $33 $113 forward @7 unknown T -5.0164999999999997 -5.0164999999999997 0 5.0164999999999997 6.1434406679226979e-016 0 #
-64 coedge $-1 -1 -1 $-1 $36 $34 $38 $71 forward $66 $-1 #
-65 coedge $-1 -1 -1 $-1 $34 $36 $111 $114 forward $66 $-1 #
-66 loop $-1 -1 -1 $-1 $-1 $34 $115 T -5.0164999999999997 0 -13.745000000000003 5.0164999999999997 5.0164999999999997 0 periphery $116 T #
-67 vertex $-1 -1 -1 $-1 $35 $117 #
-68 straight-curve $-1 -1 -1 $-1 -5.0164999999999997 6.1434406679226979e-016 0 0 0 1000 I I #
-69 vertex $-1 -1 -1 $-1 $63 $118 #
-70 straight-curve $-1 -1 -1 $-1 5.0164999999999997 0 0 0 0 1000 I I #
-71 edge $-1 -1 -1 $-1 $41 -3.1415926535897931 $40 0 $64 $119 forward @7 unknown T -5.0164999999999997 0 -13.745000000000003 5.0164999999999997 5.0164999999999997 -13.745000000000003 #
-72 loop $-1 -1 -1 $-1 $120 $121 $73 T -9.5290741295017476 -6.5820587469665046 -13.745000000000003 -7.1290741295017481 -4.1820587469665043 -13.745000000000003 hole $74 T #
-73 face $122 -1 -1 $-1 $123 $92 $4 $-1 $74 reversed single T -14.588011588478942 -14.588011588478942 -13.745000000000003 14.588011588478942 14.588011588478942 -13.745000000000001 F #
-74 plane-surface $-1 -1 -1 $-1 0 0 -13.745000000000003 0 0 1 1000 0 0 forward_v I I I I #
-75 point $-1 -1 -1 $-1 5.0164999999999997 0 -13.745000000000003 #
-76 point $-1 -1 -1 $-1 -5.0164999999999997 6.1434406679226979e-016 -13.745000000000003 #
-77 integer_attrib-name_attrib-gen-attrib $-1 -1 $-1 $-1 $44 2 1 2 1 1 1 1 1 1 1 1 1 1 1 0 1 1 1 @17 基体零件-master-1 0 #
-78 face $124 -1 -1 $-1 $107 $125 $4 $-1 $126 forward single T -12.716654285117233 1.7347234759768071e-015 -16.745000000000005 -7.1166542851172316 2.800000000000002 -13.745000000000003 F #
-79 loop $-1 -1 -1 $-1 $-1 $127 $44 T -11.616654285117232 -1.6999999999999984 -16.745000000000005 -8.2166542851172331 1.9429134318318569e-015 0 periphery $80 T #
-80 cone-surface $-1 -1 -1 $-1 -9.9166542851172323 1.7347234759768071e-015 -21.253948401598208 0 0 1 1.7000000000000002 0 0 1 I I 0 1 1.7000000000000002 forward I I I I #
-81 coedge $-1 -1 -1 $-1 $128 $129 $130 $131 reversed $45 $-1 #
-82 coedge $-1 -1 -1 $-1 $132 $47 $133 $134 forward $26 $-1 #
-83 coedge $-1 -1 -1 $-1 $47 $132 $135 $136 reversed $26 $-1 #
-84 coedge $-1 -1 -1 $-1 $137 $137 $47 $85 forward $138 $-1 #
-85 edge $-1 -1 -1 $-1 $139 -3.1415926535897931 $140 0 $84 $141 forward @7 unknown T -9.5290741295017476 -6.5820587469665046 -11.745000000000003 -7.1290741295017481 -5.3820587469665044 -11.745000000000003 #
-86 coedge $-1 -1 -1 $-1 $49 $48 $142 $143 reversed $17 $-1 #
-87 coedge $-1 -1 -1 $-1 $144 $145 $48 $88 reversed $146 $-1 #
-88 edge $-1 -1 -1 $-1 $93 0.0088808017650538022 $147 0.022625801765053806 $48 $148 forward @7 unknown T 8.2166542851172295 -6.9614429952211441e-014 -13.745000000000003 8.2166542851172295 -6.9614429952211441e-014 0 #
-89 coedge $-1 -1 -1 $-1 $145 $144 $49 $90 forward $146 $-1 #
-90 edge $-1 -1 -1 $-1 $94 0.0088808017650538022 $149 0.022625801765053806 $89 $150 forward @7 unknown T 11.61665428511723 -6.9822619908066486e-014 -13.745000000000003 11.61665428511723 -6.9822619908066486e-014 0 #
-91 coedge $-1 -1 -1 $-1 $50 $50 $144 $151 forward $92 $-1 #
-92 loop $-1 -1 -1 $-1 $152 $91 $73 T 8.2166542851172295 -1.7000000000000699 -13.745000000000003 11.61665428511723 1.6999999999999305 -13.745000000000003 hole $74 T #
-93 vertex $-1 -1 -1 $-1 $88 $153 #
-94 vertex $-1 -1 -1 $-1 $51 $154 #
-95 ellipse-curve $-1 -1 -1 $-1 9.9166542851172288 -6.9822619908066486e-014 -13.745000000000003 0 0 1 1.7000000000000002 0 0 1 I I #
-96 coedge $-1 -1 -1 $-1 $155 $155 $52 $97 reversed $152 $-1 #
-97 edge $-1 -1 -1 $-1 $101 -3.1415926535897931 $103 0 $52 $156 forward @7 unknown T -14.588011588478942 0 -13.745000000000001 14.588011588478942 14.588011588478942 -13.745000000000001 #
-98 coedge $-1 -1 -1 $-1 $55 $53 $57 $105 forward $100 $-1 #
-99 coedge $-1 -1 -1 $-1 $53 $55 $155 $157 forward $100 $-1 #
-100 loop $-1 -1 -1 $-1 $-1 $53 $158 T -14.588011588478942 -14.588011588478942 -13.745000000000001 14.588011588478942 1.7865161697755233e-015 0 periphery $159 F #
-101 vertex $-1 -1 -1 $-1 $54 $160 #
-102 straight-curve $-1 -1 -1 $-1 14.588011588478942 1.7865161697755233e-015 0.99999999999999656 0 0 -1000 I I #
-103 vertex $-1 -1 -1 $-1 $97 $161 #
-104 straight-curve $-1 -1 -1 $-1 -14.588011588478942 0 0.99999999999999656 0 0 -1000 I I #
-105 edge $-1 -1 -1 $-1 $60 -3.1415926535897931 $59 0 $98 $162 forward @7 unknown T -14.588011588478942 -14.588011588478942 0 14.588011588478942 1.7865161697755233e-015 0 #
-106 loop $-1 -1 -1 $-1 $163 $142 $107 T 8.2166542851172295 -1.7000000000000699 0 11.61665428511723 1.6999999999999305 0 hole $108 T #
-107 face $164 -1 -1 $-1 $165 $58 $4 $-1 $108 reversed single T -14.588011588478942 -14.588011588478942 0 14.588011588478942 14.588011588478942 0 F #
-108 plane-surface $-1 -1 -1 $-1 18.94347231230433 23.673588931822682 0 0 0 -1 -1000 0 0 forward_v I I I I #
-109 point $-1 -1 -1 $-1 -14.588011588478942 0 0 #
-110 point $-1 -1 -1 $-1 14.588011588478942 1.7865161697755233e-015 0 #
-111 coedge $-1 -1 -1 $-1 $62 $62 $65 $114 reversed $112 $-1 #
-112 loop $-1 -1 -1 $-1 $-1 $111 $107 T -5.0164999999999997 -5.0164999999999997 0 5.0164999999999997 5.0164999999999997 0 hole $108 T #
-113 ellipse-curve $-1 -1 -1 $-1 0 0 0 0 0 1 -5.0164999999999997 0 0 1 I I #
-114 edge $-1 -1 -1 $-1 $69 -3.1415926535897931 $67 -1.2246467991473535e-016 $65 $166 forward @7 unknown T -5.0164999999999997 0 0 5.0164999999999997 5.0164999999999997 0 #
-115 face $167 -1 -1 $-1 $-1 $66 $4 $-1 $116 reversed single T -5.0164999999999997 0 -13.745000000000003 5.0164999999999997 5.0164999999999997 0 F #
-116 cone-surface $-1 -1 -1 $-1 0 0 0 0 0 1 5.0164999999999997 0 0 1 I I 0 1 5.0164999999999997 forward I I I I #
-117 point $-1 -1 -1 $-1 -5.0164999999999997 6.1434406679226979e-016 0 #
-118 point $-1 -1 -1 $-1 5.0164999999999997 0 0 #
-119 ellipse-curve $-1 -1 -1 $-1 0 0 -13.745000000000003 -0 -0 -1 5.0164999999999997 0 0 1 I I #
-120 loop $-1 -1 -1 $-1 $168 $169 $73 T -9.5290741295017494 4.1820587469665043 -13.745000000000003 -7.1290741295017472 6.5820587469665046 -13.745000000000003 hole $74 T #
-121 coedge $-1 -1 -1 $-1 $170 $170 $171 $172 reversed $72 $-1 #
-122 integer_attrib-name_attrib-gen-attrib $-1 -1 $-1 $-1 $73 2 1 2 1 1 1 1 1 1 1 1 1 1 1 0 1 1 1 @17 基体零件-master-1 0 #
-123 face $173 -1 -1 $-1 $158 $146 $4 $-1 $174 reversed single T 8.2166542851172295 -6.9822619908066486e-014 -13.745000000000003 11.61665428511723 1.6999999999999305 0 F #
-124 integer_attrib-name_attrib-gen-attrib $-1 -1 $-1 $-1 $78 2 1 2 1 1 1 1 1 1 1 1 1 1 1 0 1 1 1 @17 基体零件-master-1 0 #
-125 loop $-1 -1 -1 $-1 $-1 $175 $78 T -12.716654285117233 1.7347234759768071e-015 -16.745000000000005 -7.1166542851172316 2.800000000000002 -13.745000000000003 periphery $126 F #
-126 cone-surface $-1 -1 -1 $-1 -9.9166542851172323 1.7347234759768071e-015 -16.745000000000005 0 0 1 2.8000000000000003 0 0 1 I I 0 1 2.8000000000000003 forward I I I I #
-127 coedge $-1 -1 -1 $-1 $176 $177 $178 $179 forward $79 $-1 #
-128 coedge $-1 -1 -1 $-1 $180 $81 $181 $182 forward $45 $-1 #
-129 coedge $-1 -1 -1 $-1 $81 $180 $183 $184 reversed $45 $-1 #
-130 coedge $-1 -1 -1 $-1 $185 $185 $81 $131 forward $186 $-1 #
-131 edge $-1 -1 -1 $-1 $187 0 $188 3.1415926535897931 $130 $189 forward @7 unknown T -9.5290741295017494 4.1820587469665043 -11.745000000000003 -7.1290741295017472 5.3820587469665044 -11.745000000000003 #
-132 coedge $-1 -1 -1 $-1 $83 $82 $170 $190 forward $26 $-1 #
-133 coedge $-1 -1 -1 $-1 $191 $171 $82 $134 reversed $192 $-1 #
-134 edge $-1 -1 -1 $-1 $139 -0 $193 0.002 $82 $194 forward @7 unknown T -7.1290741295017481 -5.3820587469665044 -13.745000000000003 -7.1290741295017481 -5.3820587469665044 -11.745000000000003 #
-135 coedge $-1 -1 -1 $-1 $171 $191 $83 $136 forward $192 $-1 #
-136 edge $-1 -1 -1 $-1 $140 -0 $195 0.002 $135 $196 forward @7 unknown T -9.5290741295017476 -5.3820587469665044 -13.745000000000003 -9.5290741295017476 -5.3820587469665044 -11.745000000000003 #
-137 coedge $-1 -1 -1 $-1 $84 $84 $191 $197 forward $138 $-1 #
-138 loop $-1 -1 -1 $-1 $-1 $137 $198 T -9.5290741295017476 -6.5820587469665046 -11.745000000000003 -7.1290741295017481 -4.1820587469665043 -11.745000000000003 periphery $199 F #
-139 vertex $-1 -1 -1 $-1 $134 $200 #
-140 vertex $-1 -1 -1 $-1 $85 $201 #
-141 ellipse-curve $-1 -1 -1 $-1 -8.3290741295017483 -5.3820587469665044 -11.745000000000003 0 0 -1 -1.1999999999999997 0 0 1 I I #
-142 coedge $-1 -1 -1 $-1 $202 $202 $86 $143 forward $106 $-1 #
-143 edge $-1 -1 -1 $-1 $149 -3.1415926535897931 $147 1.2246467991473219e-016 $142 $203 forward @7 unknown T 8.2166542851172295 -1.7000000000000699 0 11.61665428511723 -6.9614429952211441e-014 0 #
-144 coedge $-1 -1 -1 $-1 $89 $87 $91 $151 reversed $146 $-1 #
-145 coedge $-1 -1 -1 $-1 $87 $89 $202 $204 reversed $146 $-1 #
-146 loop $-1 -1 -1 $-1 $-1 $87 $123 T 8.2166542851172295 -6.9822619908066486e-014 -13.745000000000003 11.61665428511723 1.6999999999999305 0 periphery $174 T #
-147 vertex $-1 -1 -1 $-1 $88 $205 #
-148 straight-curve $-1 -1 -1 $-1 8.2166542851172295 -6.9614429952211441e-014 -22.625801765053804 0 0 1000 I I #
-149 vertex $-1 -1 -1 $-1 $204 $206 #
-150 straight-curve $-1 -1 -1 $-1 11.61665428511723 -6.9822619908066486e-014 -22.625801765053804 0 0 1000 I I #
-151 edge $-1 -1 -1 $-1 $94 0 $93 3.1415926535897931 $91 $207 forward @7 unknown T 8.2166542851172295 -6.9822619908066486e-014 -13.745000000000003 11.61665428511723 1.6999999999999305 -13.745000000000003 #
-152 loop $-1 -1 -1 $-1 $39 $155 $73 T -14.588011588478942 -14.588011588478942 -13.745000000000001 14.588011588478942 14.588011588478942 -13.745000000000001 periphery $74 T #
-153 point $-1 -1 -1 $-1 8.2166542851172295 -6.9614429952211441e-014 -13.745000000000003 #
-154 point $-1 -1 -1 $-1 11.61665428511723 -6.9822619908066486e-014 -13.745000000000003 #
-155 coedge $-1 -1 -1 $-1 $96 $96 $99 $157 reversed $152 $-1 #
-156 ellipse-curve $-1 -1 -1 $-1 0 0 -13.745000000000001 0 0 1 -14.588011588478942 0 0 1 I I #
-157 edge $-1 -1 -1 $-1 $103 0 $101 3.1415926535897931 $99 $208 forward @7 unknown T -14.588011588478942 -14.588011588478942 -13.745000000000001 14.588011588478942 1.7865161697755233e-015 -13.745000000000001 #
-158 face $209 -1 -1 $-1 $115 $100 $4 $-1 $159 forward single T -14.588011588478942 -14.588011588478942 -13.745000000000001 14.588011588478942 1.7865161697755233e-015 0 F #
-159 cone-surface $-1 -1 -1 $-1 0 0 0.99999999999999656 0 0 -1 -14.588011588478942 0 0 1 I I 0 1 14.588011588478942 forward I I I I #
-160 point $-1 -1 -1 $-1 14.588011588478942 1.7865161697755233e-015 -13.745000000000001 #
-161 point $-1 -1 -1 $-1 -14.588011588478942 0 -13.745000000000001 #
-162 ellipse-curve $-1 -1 -1 $-1 0 0 0 0 0 -1 -14.588011588478942 0 0 1 I I #
-163 loop $-1 -1 -1 $-1 $112 $210 $107 T -11.616654285117232 -1.6999999999999984 0 -8.2166542851172331 1.700000000000002 0 hole $108 T #
-164 integer_attrib-name_attrib-gen-attrib $-1 -1 $-1 $-1 $107 2 1 2 1 1 1 1 1 1 1 1 1 1 1 0 1 1 1 @17 基体零件-master-1 0 #
-165 face $211 -1 -1 $-1 $198 $186 $4 $-1 $212 reversed single T -9.5290741295017494 4.1820587469665043 -11.745000000000003 -7.1290741295017472 6.5820587469665046 -11.745000000000003 F #
-166 ellipse-curve $-1 -1 -1 $-1 0 0 0 0 0 1 -5.0164999999999997 0 0 1 I I #
-167 integer_attrib-name_attrib-gen-attrib $-1 -1 $-1 $-1 $115 2 1 2 1 1 1 1 1 1 1 1 1 1 1 0 1 1 1 @17 基体零件-master-1 0 #
-168 loop $-1 -1 -1 $-1 $-1 $213 $73 T -12.716654285117233 -2.7999999999999985 -13.745000000000003 -7.1166542851172316 2.800000000000002 -13.745000000000003 hole $74 T #
-169 coedge $-1 -1 -1 $-1 $214 $214 $215 $216 reversed $120 $-1 #
-170 coedge $-1 -1 -1 $-1 $121 $121 $132 $190 reversed $72 $-1 #
-171 coedge $-1 -1 -1 $-1 $133 $135 $121 $172 forward $192 $-1 #
-172 edge $-1 -1 -1 $-1 $195 0 $193 3.1415926535897931 $171 $217 forward @7 unknown T -9.5290741295017476 -5.3820587469665044 -13.745000000000003 -7.1290741295017481 -4.1820587469665043 -13.745000000000003 #
-173 integer_attrib-name_attrib-gen-attrib $-1 -1 $-1 $-1 $123 2 1 2 1 1 1 1 1 1 1 1 1 1 1 0 1 1 1 @17 基体零件-master-1 0 #
-174 cone-surface $-1 -1 -1 $-1 9.9166542851172288 -6.9822619908066486e-014 -22.625801765053804 0 0 1 1.7000000000000002 0 0 1 I I 0 1 1.7000000000000002 forward I I I I #
-175 coedge $-1 -1 -1 $-1 $218 $219 $220 $221 reversed $125 $-1 #
-176 coedge $-1 -1 -1 $-1 $222 $127 $223 $224 forward $79 $-1 #
-177 coedge $-1 -1 -1 $-1 $127 $222 $225 $226 reversed $79 $-1 #
-178 coedge $-1 -1 -1 $-1 $227 $227 $127 $179 reversed $228 $-1 #
-179 edge $-1 -1 -1 $-1 $229 -3.1415926535897931 $230 1.2246467991473525e-016 $127 $231 forward @7 unknown T -11.616654285117232 -1.6999999999999984 -16.745000000000005 -8.2166542851172331 1.9429134318318569e-015 -16.745000000000005 #
-180 coedge $-1 -1 -1 $-1 $129 $128 $214 $232 forward $45 $-1 #
-181 coedge $-1 -1 -1 $-1 $233 $215 $128 $182 reversed $234 $-1 #
-182 edge $-1 -1 -1 $-1 $187 -0 $235 0.002 $128 $236 forward @7 unknown T -7.1290741295017481 5.3820587469665044 -13.745000000000003 -7.1290741295017481 5.3820587469665044 -11.745000000000003 #
-183 coedge $-1 -1 -1 $-1 $215 $233 $129 $184 forward $234 $-1 #
-184 edge $-1 -1 -1 $-1 $188 -0 $237 0.002 $183 $238 forward @7 unknown T -9.5290741295017476 5.3820587469665044 -13.745000000000003 -9.5290741295017476 5.3820587469665044 -11.745000000000003 #
-185 coedge $-1 -1 -1 $-1 $130 $130 $233 $239 forward $186 $-1 #
-186 loop $-1 -1 -1 $-1 $-1 $185 $165 T -9.5290741295017494 4.1820587469665043 -11.745000000000003 -7.1290741295017472 6.5820587469665046 -11.745000000000003 unknown #
-187 vertex $-1 -1 -1 $-1 $182 $240 #
-188 vertex $-1 -1 -1 $-1 $131 $241 #
-189 ellipse-curve $-1 -1 -1 $-1 -8.3290741295017483 5.3820587469665044 -11.745000000000003 0 0 -1 1.2000000000000006 0 0 1 I I #
-190 edge $-1 -1 -1 $-1 $193 -3.1415926535897931 $195 0 $132 $242 forward @7 unknown T -9.5290741295017476 -6.5820587469665046 -13.745000000000003 -7.1290741295017481 -5.3820587469665044 -13.745000000000003 #
-191 coedge $-1 -1 -1 $-1 $135 $133 $137 $197 reversed $192 $-1 #
-192 loop $-1 -1 -1 $-1 $-1 $133 $243 T -9.5290741295017476 -5.3820587469665044 -13.745000000000003 -7.1290741295017481 -4.1820587469665043 -11.745000000000003 periphery $244 T #
-193 vertex $-1 -1 -1 $-1 $134 $245 #
-194 straight-curve $-1 -1 -1 $-1 -7.1290741295017481 -5.3820587469665044 -11.745000000000003 -0 -0 -1000 I I #
-195 vertex $-1 -1 -1 $-1 $190 $246 #
-196 straight-curve $-1 -1 -1 $-1 -9.5290741295017476 -5.3820587469665044 -11.745000000000003 -0 -0 -1000 I I #
-197 edge $-1 -1 -1 $-1 $140 0 $139 3.1415926535897931 $137 $247 forward @7 unknown T -9.5290741295017476 -5.3820587469665044 -11.745000000000003 -7.1290741295017481 -4.1820587469665043 -11.745000000000003 #
-198 face $248 -1 -1 $-1 $249 $138 $4 $-1 $199 forward single T -9.5290741295017476 -6.5820587469665046 -11.745000000000003 -7.1290741295017481 -4.1820587469665043 -11.745000000000003 F #
-199 plane-surface $-1 -1 -1 $-1 -8.3290741295017483 -5.3820587469665044 -11.745000000000003 0 0 -1 -1000 0 0 forward_v I I I I #
-200 point $-1 -1 -1 $-1 -7.1290741295017481 -5.3820587469665044 -11.745000000000003 #
-201 point $-1 -1 -1 $-1 -9.5290741295017476 -5.3820587469665044 -11.745000000000003 #
-202 coedge $-1 -1 -1 $-1 $142 $142 $145 $204 forward $106 $-1 #
-203 ellipse-curve $-1 -1 -1 $-1 9.9166542851172288 -6.9822619908066486e-014 0 0 0 -1 -1.7000000000000002 0 0 1 I I #
-204 edge $-1 -1 -1 $-1 $147 1.2246467991473219e-016 $149 3.1415926535897931 $202 $250 forward @7 unknown T 8.2166542851172295 -6.9822619908066486e-014 0 11.61665428511723 1.6999999999999305 0 #
-205 point $-1 -1 -1 $-1 8.2166542851172295 -6.9614429952211441e-014 0 #
-206 point $-1 -1 -1 $-1 11.61665428511723 -6.9822619908066486e-014 0 #
-207 ellipse-curve $-1 -1 -1 $-1 9.9166542851172288 -6.9822619908066486e-014 -13.745000000000003 0 0 1 1.7000000000000002 0 0 1 I I #
-208 ellipse-curve $-1 -1 -1 $-1 0 0 -13.745000000000001 0 0 1 -14.588011588478942 0 0 1 I I #
-209 integer_attrib-name_attrib-gen-attrib $-1 -1 $-1 $-1 $158 2 1 2 1 1 1 1 1 1 1 1 1 1 1 0 1 1 1 @17 基体零件-master-1 0 #
-210 coedge $-1 -1 -1 $-1 $251 $251 $222 $252 forward $163 $-1 #
-211 integer_attrib-name_attrib-gen-attrib $-1 -1 $-1 $-1 $165 2 1 2 1 1 1 1 1 1 1 1 1 1 1 0 1 1 1 @17 基体零件-master-1 0 #
-212 plane-surface $-1 -1 -1 $-1 -8.3290741295017483 5.3820587469665044 -11.745000000000003 0 0 1 1000 0 0 forward_v I I I I #
-213 coedge $-1 -1 -1 $-1 $253 $253 $254 $255 reversed $168 $-1 #
-214 coedge $-1 -1 -1 $-1 $169 $169 $180 $232 reversed $120 $-1 #
-215 coedge $-1 -1 -1 $-1 $181 $183 $169 $216 forward $234 $-1 #
-216 edge $-1 -1 -1 $-1 $237 -3.1415926535897931 $235 0 $215 $256 forward @7 unknown T -9.5290741295017494 5.3820587469665044 -13.745000000000003 -7.1290741295017472 6.5820587469665046 -13.745000000000003 #
-217 ellipse-curve $-1 -1 -1 $-1 -8.3290741295017483 -5.3820587469665044 -13.745000000000003 0 0 -1 -1.1999999999999997 0 0 1 I I #
-218 coedge $-1 -1 -1 $-1 $257 $175 $258 $259 forward $125 $-1 #
-219 coedge $-1 -1 -1 $-1 $175 $257 $260 $261 reversed $125 $-1 #
-220 coedge $-1 -1 -1 $-1 $262 $262 $175 $221 forward $263 $-1 #
-221 edge $-1 -1 -1 $-1 $264 1.2246467991473535e-016 $265 3.1415926535897931 $220 $266 forward @7 unknown T -12.716654285117233 1.7347234759768071e-015 -16.745000000000005 -7.1166542851172316 2.800000000000002 -16.745000000000005 #
-222 coedge $-1 -1 -1 $-1 $177 $176 $210 $252 reversed $79 $-1 #
-223 coedge $-1 -1 -1 $-1 $267 $268 $176 $224 reversed $269 $-1 #
-224 edge $-1 -1 -1 $-1 $230 0.0045089484015982039 $270 0.021253948401598208 $176 $271 forward @7 unknown T -11.616654285117232 1.9429134318318569e-015 -16.745000000000005 -11.616654285117232 1.9429134318318569e-015 0 #
-225 coedge $-1 -1 -1 $-1 $268 $267 $177 $226 forward $269 $-1 #
-226 edge $-1 -1 -1 $-1 $229 0.0045089484015982039 $272 0.021253948401598208 $225 $273 forward @7 unknown T -8.2166542851172331 1.7347234759768071e-015 -16.745000000000005 -8.2166542851172331 1.7347234759768071e-015 0 #
-227 coedge $-1 -1 -1 $-1 $178 $178 $267 $274 reversed $228 $-1 #
-228 loop $-1 -1 -1 $-1 $-1 $178 $275 T -11.616654285117232 -1.6999999999999984 -16.745000000000005 -8.2166542851172331 1.700000000000002 -16.745000000000005 unknown #
-229 vertex $-1 -1 -1 $-1 $274 $276 #
-230 vertex $-1 -1 -1 $-1 $224 $277 #
-231 ellipse-curve $-1 -1 -1 $-1 -9.9166542851172323 1.7347234759768071e-015 -16.745000000000005 0 0 -1 -1.7000000000000002 0 0 1 I I #
-232 edge $-1 -1 -1 $-1 $235 0 $237 3.1415926535897931 $180 $278 forward @7 unknown T -9.5290741295017494 4.1820587469665043 -13.745000000000003 -7.1290741295017472 5.3820587469665044 -13.745000000000003 #
-233 coedge $-1 -1 -1 $-1 $183 $181 $185 $239 reversed $234 $-1 #
-234 loop $-1 -1 -1 $-1 $-1 $181 $279 T -9.5290741295017494 5.3820587469665044 -13.745000000000003 -7.1290741295017472 6.5820587469665046 -11.745000000000003 periphery $280 T #
-235 vertex $-1 -1 -1 $-1 $182 $281 #
-236 straight-curve $-1 -1 -1 $-1 -7.1290741295017481 5.3820587469665044 -11.745000000000003 -0 -0 -1000 I I #
-237 vertex $-1 -1 -1 $-1 $232 $282 #
-238 straight-curve $-1 -1 -1 $-1 -9.5290741295017476 5.3820587469665044 -11.745000000000003 -0 -0 -1000 I I #
-239 edge $-1 -1 -1 $-1 $188 -3.1415926535897931 $187 0 $185 $283 forward @7 unknown T -9.5290741295017494 5.3820587469665044 -11.745000000000003 -7.1290741295017472 6.5820587469665046 -11.745000000000003 #
-240 point $-1 -1 -1 $-1 -7.1290741295017481 5.3820587469665044 -11.745000000000003 #
-241 point $-1 -1 -1 $-1 -9.5290741295017476 5.3820587469665044 -11.745000000000003 #
-242 ellipse-curve $-1 -1 -1 $-1 -8.3290741295017483 -5.3820587469665044 -13.745000000000003 0 0 -1 -1.1999999999999997 0 0 1 I I #
-243 face $284 -1 -1 $-1 $73 $192 $4 $-1 $244 reversed single T -9.5290741295017476 -5.3820587469665044 -13.745000000000003 -7.1290741295017481 -4.1820587469665043 -11.745000000000003 F #
-244 cone-surface $-1 -1 -1 $-1 -8.3290741295017483 -5.3820587469665044 -11.745000000000003 -0 -0 -1 -1.1999999999999997 0 0 1 I I 0 1 1.1999999999999997 forward I I I I #
-245 point $-1 -1 -1 $-1 -7.1290741295017481 -5.3820587469665044 -13.745000000000003 #
-246 point $-1 -1 -1 $-1 -9.5290741295017476 -5.3820587469665044 -13.745000000000003 #
-247 ellipse-curve $-1 -1 -1 $-1 -8.3290741295017483 -5.3820587469665044 -11.745000000000003 0 0 -1 -1.1999999999999997 0 0 1 I I #
-248 integer_attrib-name_attrib-gen-attrib $-1 -1 $-1 $-1 $198 2 1 2 1 1 1 1 1 1 1 1 1 1 1 0 1 1 1 @17 基体零件-master-1 0 #
-249 face $285 -1 -1 $-1 $275 $286 $4 $-1 $287 forward single T -12.716654285117233 -2.7999999999999985 -16.745000000000005 -7.1166542851172316 2.0776245797380662e-015 -13.745000000000003 F #
-250 ellipse-curve $-1 -1 -1 $-1 9.9166542851172288 -6.9822619908066486e-014 0 0 0 -1 -1.7000000000000002 0 0 1 I I #
-251 coedge $-1 -1 -1 $-1 $210 $210 $268 $288 forward $163 $-1 #
-252 edge $-1 -1 -1 $-1 $272 -3.1415926535897931 $270 1.2246467991473525e-016 $210 $289 forward @7 unknown T -11.616654285117232 -1.6999999999999984 0 -8.2166542851172331 1.9429134318318569e-015 0 #
-253 coedge $-1 -1 -1 $-1 $213 $213 $257 $290 reversed $168 $-1 #
-254 coedge $-1 -1 -1 $-1 $258 $260 $213 $255 forward $286 $-1 #
-255 edge $-1 -1 -1 $-1 $291 0 $292 3.1415926535897931 $254 $293 forward @7 unknown T -12.716654285117233 -2.7999999999999985 -13.745000000000003 -7.1166542851172316 2.0776245797380662e-015 -13.745000000000003 #
-256 ellipse-curve $-1 -1 -1 $-1 -8.3290741295017483 5.3820587469665044 -13.745000000000003 0 0 -1 1.2000000000000006 0 0 1 I I #
-257 coedge $-1 -1 -1 $-1 $219 $218 $253 $290 forward $125 $-1 #
-258 coedge $-1 -1 -1 $-1 $294 $254 $218 $259 reversed $286 $-1 #
-259 edge $-1 -1 -1 $-1 $264 0 $292 0.0030000000000000018 $218 $295 forward @7 unknown T -12.716654285117233 2.0776245797380662e-015 -16.745000000000005 -12.716654285117233 2.0776245797380662e-015 -13.745000000000003 #
-260 coedge $-1 -1 -1 $-1 $254 $294 $219 $261 forward $286 $-1 #
-261 edge $-1 -1 -1 $-1 $265 0 $291 0.0030000000000000018 $260 $296 forward @7 unknown T -7.1166542851172316 1.7347234759768071e-015 -16.745000000000005 -7.1166542851172316 1.7347234759768071e-015 -13.745000000000003 #
-262 coedge $-1 -1 -1 $-1 $220 $220 $294 $297 forward $263 $-1 #
-263 loop $-1 -1 -1 $-1 $228 $262 $275 T -12.716654285117233 -2.7999999999999985 -16.745000000000005 -7.1166542851172316 2.800000000000002 -16.745000000000005 unknown #
-264 vertex $-1 -1 -1 $-1 $259 $298 #
-265 vertex $-1 -1 -1 $-1 $221 $299 #
-266 ellipse-curve $-1 -1 -1 $-1 -9.9166542851172323 1.7347234759768071e-015 -16.745000000000005 0 0 -1 -2.8000000000000003 0 0 1 I I #
-267 coedge $-1 -1 -1 $-1 $225 $223 $227 $274 forward $269 $-1 #
-268 coedge $-1 -1 -1 $-1 $223 $225 $251 $288 reversed $269 $-1 #
-269 loop $-1 -1 -1 $-1 $-1 $223 $300 T -11.616654285117232 1.7347234759768071e-015 -16.745000000000005 -8.2166542851172331 1.700000000000002 0 periphery $301 T #
-270 vertex $-1 -1 -1 $-1 $224 $302 #
-271 straight-curve $-1 -1 -1 $-1 -11.616654285117232 1.9429134318318569e-015 -21.253948401598208 0 0 1000 I I #
-272 vertex $-1 -1 -1 $-1 $288 $303 #
-273 straight-curve $-1 -1 -1 $-1 -8.2166542851172331 1.7347234759768071e-015 -21.253948401598208 0 0 1000 I I #
-274 edge $-1 -1 -1 $-1 $230 1.2246467991473525e-016 $229 3.1415926535897931 $267 $304 forward @7 unknown T -11.616654285117232 1.7347234759768071e-015 -16.745000000000005 -8.2166542851172331 1.700000000000002 -16.745000000000005 #
-275 face $305 -1 -1 $-1 $300 $263 $4 $-1 $306 forward single T -12.716654285117233 -2.7999999999999985 -16.745000000000005 -7.1166542851172316 2.800000000000002 -16.745000000000005 F #
-276 point $-1 -1 -1 $-1 -8.2166542851172331 1.7347234759768071e-015 -16.745000000000005 #
-277 point $-1 -1 -1 $-1 -11.616654285117232 1.9429134318318569e-015 -16.745000000000005 #
-278 ellipse-curve $-1 -1 -1 $-1 -8.3290741295017483 5.3820587469665044 -13.745000000000003 0 0 -1 1.2000000000000006 0 0 1 I I #
-279 face $307 -1 -1 $-1 $243 $234 $4 $-1 $280 reversed single T -9.5290741295017494 5.3820587469665044 -13.745000000000003 -7.1290741295017472 6.5820587469665046 -11.745000000000003 F #
-280 cone-surface $-1 -1 -1 $-1 -8.3290741295017483 5.3820587469665044 -11.745000000000003 -0 -0 -1 -1.1999999999999997 0 0 1 I I 0 1 1.1999999999999997 forward I I I I #
-281 point $-1 -1 -1 $-1 -7.1290741295017481 5.3820587469665044 -13.745000000000003 #
-282 point $-1 -1 -1 $-1 -9.5290741295017476 5.3820587469665044 -13.745000000000003 #
-283 ellipse-curve $-1 -1 -1 $-1 -8.3290741295017483 5.3820587469665044 -11.745000000000003 0 0 -1 1.2000000000000006 0 0 1 I I #
-284 integer_attrib-name_attrib-gen-attrib $-1 -1 $-1 $-1 $243 2 1 2 1 1 1 1 1 1 1 1 1 1 1 0 1 1 1 @17 基体零件-master-1 0 #
-285 integer_attrib-name_attrib-gen-attrib $-1 -1 $-1 $-1 $249 2 1 2 1 1 1 1 1 1 1 1 1 1 1 0 1 1 1 @17 基体零件-master-1 0 #
-286 loop $-1 -1 -1 $-1 $-1 $258 $249 T -12.716654285117233 -2.7999999999999985 -16.745000000000005 -7.1166542851172316 2.0776245797380662e-015 -13.745000000000003 periphery $287 F #
-287 cone-surface $-1 -1 -1 $-1 -9.9166542851172323 1.7347234759768071e-015 -16.745000000000005 0 0 1 2.8000000000000003 0 0 1 I I 0 1 2.8000000000000003 forward I I I I #
-288 edge $-1 -1 -1 $-1 $270 1.2246467991473525e-016 $272 3.1415926535897931 $251 $308 forward @7 unknown T -11.616654285117232 1.7347234759768071e-015 0 -8.2166542851172331 1.700000000000002 0 #
-289 ellipse-curve $-1 -1 -1 $-1 -9.9166542851172323 1.7347234759768071e-015 0 0 0 -1 -1.7000000000000002 0 0 1 I I #
-290 edge $-1 -1 -1 $-1 $292 -3.1415926535897931 $291 0 $257 $309 forward @7 unknown T -12.716654285117233 1.7347234759768071e-015 -13.745000000000003 -7.1166542851172316 2.800000000000002 -13.745000000000003 #
-291 vertex $-1 -1 -1 $-1 $290 $310 #
-292 vertex $-1 -1 -1 $-1 $259 $311 #
-293 ellipse-curve $-1 -1 -1 $-1 -9.9166542851172323 1.7347234759768071e-015 -13.745000000000003 -0 -0 -1 2.8000000000000003 0 0 1 I I #
-294 coedge $-1 -1 -1 $-1 $260 $258 $262 $297 reversed $286 $-1 #
-295 straight-curve $-1 -1 -1 $-1 -12.716654285117233 2.0776245797380662e-015 -16.745000000000005 0 0 1000 I I #
-296 straight-curve $-1 -1 -1 $-1 -7.1166542851172316 1.7347234759768071e-015 -16.745000000000005 0 0 1000 I I #
-297 edge $-1 -1 -1 $-1 $265 -3.1415926535897931 $264 1.2246467991473535e-016 $262 $312 forward @7 unknown T -12.716654285117233 -2.7999999999999985 -16.745000000000005 -7.1166542851172316 2.0776245797380662e-015 -16.745000000000005 #
-298 point $-1 -1 -1 $-1 -12.716654285117233 2.0776245797380662e-015 -16.745000000000005 #
-299 point $-1 -1 -1 $-1 -7.1166542851172316 1.7347234759768071e-015 -16.745000000000005 #
-300 face $313 -1 -1 $-1 $279 $269 $4 $-1 $301 reversed single T -11.616654285117232 1.7347234759768071e-015 -16.745000000000005 -8.2166542851172331 1.700000000000002 0 F #
-301 cone-surface $-1 -1 -1 $-1 -9.9166542851172323 1.7347234759768071e-015 -21.253948401598208 0 0 1 1.7000000000000002 0 0 1 I I 0 1 1.7000000000000002 forward I I I I #
-302 point $-1 -1 -1 $-1 -11.616654285117232 1.9429134318318569e-015 0 #
-303 point $-1 -1 -1 $-1 -8.2166542851172331 1.7347234759768071e-015 0 #
-304 ellipse-curve $-1 -1 -1 $-1 -9.9166542851172323 1.7347234759768071e-015 -16.745000000000005 0 0 -1 -1.7000000000000002 0 0 1 I I #
-305 integer_attrib-name_attrib-gen-attrib $-1 -1 $-1 $-1 $275 2 1 2 1 1 1 1 1 1 1 1 1 1 1 0 1 1 1 @17 基体零件-master-1 0 #
-306 plane-surface $-1 -1 -1 $-1 -9.9166542851172323 1.7347234759768071e-015 -16.745000000000005 0 0 -1 -1000 0 0 forward_v I I I I #
-307 integer_attrib-name_attrib-gen-attrib $-1 -1 $-1 $-1 $279 2 1 2 1 1 1 1 1 1 1 1 1 1 1 0 1 1 1 @17 基体零件-master-1 0 #
-308 ellipse-curve $-1 -1 -1 $-1 -9.9166542851172323 1.7347234759768071e-015 0 0 0 -1 -1.7000000000000002 0 0 1 I I #
-309 ellipse-curve $-1 -1 -1 $-1 -9.9166542851172323 1.7347234759768071e-015 -13.745000000000003 -0 -0 -1 2.8000000000000003 0 0 1 I I #
-310 point $-1 -1 -1 $-1 -7.1166542851172316 1.7347234759768071e-015 -13.745000000000003 #
-311 point $-1 -1 -1 $-1 -12.716654285117233 2.0776245797380662e-015 -13.745000000000003 #
-312 ellipse-curve $-1 -1 -1 $-1 -9.9166542851172323 1.7347234759768071e-015 -16.745000000000005 0 0 -1 -2.8000000000000003 0 0 1 I I #
-313 integer_attrib-name_attrib-gen-attrib $-1 -1 $-1 $-1 $300 2 1 2 1 1 1 1 1 1 1 1 1 1 1 0 1 1 1 @17 基体零件-master-1 0 #
End-of-ACIS-data 