2300 0 1 0           
19 Example Application 12 ACIS 23.0 NT 24 Mon Jan 19 11:01:26 2015 
1 9.9999999999999995e-007 1e-010 
-0 body $1 -1 -1 $-1 $2 $-1 $-1 T -25.865700950654585 -25.865700950654585 -185.00000000000014 25.865700950654585 25.865700950654585 0 #
-1 name_attrib-gen-attrib $-1 -1 $-1 $-1 $0 2 1 1 1 1 1 1 1 1 1 1 1 1 1 0 1 1 1 @5 part2 #
-2 lump $3 -1 -1 $-1 $-1 $4 $0 T -25.865700950654585 -25.865700950654585 -185.00000000000014 25.865700950654585 25.865700950654585 0 #
-3 rgb_color-st-attrib $-1 -1 $-1 $-1 $2 2 1 2 1 1 1 1 1 1 1 1 1 1 1 0 1 1 1 1 1 1 #
-4 shell $-1 -1 -1 $-1 $-1 $-1 $5 $-1 $2 T -25.865700950654585 -25.865700950654585 -185.00000000000014 25.865700950654585 25.865700950654585 0 #
-5 face $6 -1 -1 $-1 $7 $8 $4 $-1 $9 forward single T -25.865700950654585 0 -185.00000000000014 25.865700950654585 25.865700950654585 0 F #
-6 integer_attrib-name_attrib-gen-attrib $-1 -1 $-1 $-1 $5 2 1 2 1 1 1 1 1 1 1 1 1 1 1 0 1 1 1 @16 基体零件-whole-1 0 #
-7 face $10 -1 -1 $-1 $11 $12 $4 $-1 $13 forward single T -25.865700950654585 -25.865700950654585 -185.00000000000014 25.865700950654585 25.865700950654585 -185.00000000000014 F #
-8 loop $-1 -1 -1 $-1 $-1 $14 $5 T -25.865700950654585 0 -185.00000000000014 25.865700950654585 25.865700950654585 0 periphery $9 F #
-9 cone-surface $-1 -1 -1 $-1 0 0 -185.00000000000014 0 0 1 25.865700950654585 0 0 1 I I 0 1 25.865700950654585 forward I I I I #
-10 integer_attrib-name_attrib-gen-attrib $-1 -1 $-1 $-1 $7 2 1 2 1 1 1 1 1 1 1 1 1 1 1 0 1 1 1 @16 基体零件-whole-1 0 #
-11 face $15 -1 -1 $-1 $16 $17 $4 $-1 $18 forward single T -25.865700950654585 -25.865700950654585 -185.00000000000014 25.865700950654585 3.1676347876921788e-015 0 F #
-12 loop $-1 -1 -1 $-1 $-1 $19 $7 T -25.865700950654585 -25.865700950654585 -185.00000000000014 25.865700950654585 25.865700950654585 -185.00000000000014 periphery $13 F #
-13 plane-surface $-1 -1 -1 $-1 0 0 -185.00000000000014 0 0 -1 -1000 0 0 forward_v I I I I #
-14 coedge $-1 -1 -1 $-1 $20 $21 $22 $23 reversed $8 $-1 #
-15 integer_attrib-name_attrib-gen-attrib $-1 -1 $-1 $-1 $11 2 1 2 1 1 1 1 1 1 1 1 1 1 1 0 1 1 1 @16 基体零件-whole-1 0 #
-16 face $24 -1 -1 $-1 $-1 $25 $4 $-1 $26 forward single T -25.865700950654585 -25.865700950654585 0 25.865700950654585 25.865700950654585 0 T -0.025865700950654585 0.025865700950654585 -0.025865700950654585 0.025865700950654585 #
-17 loop $-1 -1 -1 $-1 $-1 $27 $11 T -25.865700950654585 -25.865700950654585 -185.00000000000014 25.865700950654585 3.1676347876921788e-015 0 periphery $18 F #
-18 cone-surface $-1 -1 -1 $-1 0 0 -185.00000000000014 0 0 1 25.865700950654585 0 0 1 I I 0 1 25.865700950654585 forward I I I I #
-19 coedge $-1 -1 -1 $-1 $22 $22 $28 $29 forward $12 $-1 #
-20 coedge $-1 -1 -1 $-1 $30 $14 $27 $31 forward $8 $-1 #
-21 coedge $-1 -1 -1 $-1 $14 $30 $32 $33 reversed $8 $-1 #
-22 coedge $-1 -1 -1 $-1 $19 $19 $14 $23 forward $12 $-1 #
-23 edge $-1 -1 -1 $-1 $34 1.224646799147353e-016 $35 3.1415926535897931 $22 $36 forward @7 unknown T -25.865700950654585 0 -185.00000000000014 25.865700950654585 25.865700950654585 -185.00000000000014 #
-24 integer_attrib-name_attrib-gen-attrib $-1 -1 $-1 $-1 $16 2 1 2 1 1 1 1 1 1 1 1 1 1 1 0 1 1 1 @16 基体零件-whole-1 0 #
-25 loop $-1 -1 -1 $-1 $-1 $37 $16 T -25.865700950654585 -25.865700950654585 0 25.865700950654585 25.865700950654585 0 periphery $26 F #
-26 plane-surface $-1 -1 -1 $-1 0 0 0 0 0 1 1000 0 0 forward_v I I I I #
-27 coedge $-1 -1 -1 $-1 $28 $38 $20 $31 reversed $17 $-1 #
-28 coedge $-1 -1 -1 $-1 $32 $27 $19 $29 reversed $17 $-1 #
-29 edge $-1 -1 -1 $-1 $35 -3.1415926535897931 $34 1.224646799147353e-016 $19 $39 forward @7 unknown T -25.865700950654585 -25.865700950654585 -185.00000000000014 25.865700950654585 3.1676347876921788e-015 -185.00000000000014 #
-30 coedge $-1 -1 -1 $-1 $21 $20 $40 $41 forward $8 $-1 #
-31 edge $-1 -1 -1 $-1 $34 0 $42 0.18500000000000014 $20 $43 forward @7 unknown T -25.865700950654585 3.1676347876921788e-015 -185.00000000000014 -25.865700950654585 3.1676347876921788e-015 0 #
-32 coedge $-1 -1 -1 $-1 $38 $28 $21 $33 forward $17 $-1 #
-33 edge $-1 -1 -1 $-1 $35 0 $44 0.18500000000000014 $32 $45 forward @7 unknown T 25.865700950654585 0 -185.00000000000014 25.865700950654585 0 0 #
-34 vertex $-1 -1 -1 $-1 $31 $46 #
-35 vertex $-1 -1 -1 $-1 $23 $47 #
-36 ellipse-curve $-1 -1 -1 $-1 0 0 -185.00000000000014 0 0 -1 -25.865700950654585 0 0 1 I I #
-37 coedge $-1 -1 -1 $-1 $40 $40 $38 $48 reversed $25 $-1 #
-38 coedge $-1 -1 -1 $-1 $27 $32 $37 $48 forward $17 $-1 #
-39 ellipse-curve $-1 -1 -1 $-1 0 0 -185.00000000000014 0 0 -1 -25.865700950654585 0 0 1 I I #
-40 coedge $-1 -1 -1 $-1 $37 $37 $30 $41 reversed $25 $-1 #
-41 edge $-1 -1 -1 $-1 $42 -3.1415926535897931 $44 0 $30 $49 forward @7 unknown T -25.865700950654585 0 0 25.865700950654585 25.865700950654585 0 #
-42 vertex $-1 -1 -1 $-1 $31 $50 #
-43 straight-curve $-1 -1 -1 $-1 -25.865700950654585 3.1676347876921788e-015 -185.00000000000014 0 0 1000 I I #
-44 vertex $-1 -1 -1 $-1 $41 $51 #
-45 straight-curve $-1 -1 -1 $-1 25.865700950654585 0 -185.00000000000014 0 0 1000 I I #
-46 point $-1 -1 -1 $-1 -25.865700950654585 3.1676347876921788e-015 -185.00000000000014 #
-47 point $-1 -1 -1 $-1 25.865700950654585 0 -185.00000000000014 #
-48 edge $-1 -1 -1 $-1 $44 0 $42 3.1415926535897931 $38 $52 forward @7 unknown T -25.865700950654585 -25.865700950654585 0 25.865700950654585 3.1676347876921788e-015 0 #
-49 ellipse-curve $-1 -1 -1 $-1 0 0 0 0 0 -1 25.865700950654585 0 0 1 I I #
-50 point $-1 -1 -1 $-1 -25.865700950654585 3.1676347876921788e-015 0 #
-51 point $-1 -1 -1 $-1 25.865700950654585 0 0 #
-52 ellipse-curve $-1 -1 -1 $-1 0 0 0 0 0 -1 25.865700950654585 0 0 1 I I #
End-of-ACIS-data 