2300 0 1 0           
19 Example Application 12 ACIS 23.0 NT 24 Thu Jan 22 08:54:57 2015 
1 9.9999999999999995e-007 1e-010 
-0 body $1 -1 -1 $-1 $2 $-1 $-1 T -29.134812187620049 -29.134812187620049 -79.999999999999986 29.134812187620049 29.134812187620049 0 #
-1 name_attrib-gen-attrib $-1 -1 $-1 $-1 $0 2 1 1 1 1 1 1 1 1 1 1 1 1 1 0 1 1 1 @18 part2 for matching #
-2 lump $3 -1 -1 $-1 $-1 $4 $0 T -29.134812187620049 -29.134812187620049 -79.999999999999986 29.134812187620049 29.134812187620049 0 #
-3 rgb_color-st-attrib $-1 -1 $-1 $-1 $2 2 1 2 1 1 1 1 1 1 1 1 1 1 1 0 1 1 1 1 1 1 #
-4 shell $-1 -1 -1 $-1 $-1 $-1 $5 $-1 $2 T -29.134812187620049 -29.134812187620049 -79.999999999999986 29.134812187620049 29.134812187620049 0 #
-5 face $6 -1 -1 $-1 $7 $8 $4 $-1 $9 reversed single T -12.210372894423084 -12.210372894423084 -79.999999999999986 12.210372894423084 1.4953394081550834e-015 0 F #
-6 integer_attrib-name_attrib-gen-attrib $-1 -1 $-1 $-1 $5 2 1 2 1 1 1 1 1 1 1 1 1 1 1 0 1 1 1 @16 基体零件-实体2-1 0 #
-7 face $10 -1 -1 $-1 $11 $12 $4 $-1 $13 forward single T -29.134812187620049 0 -79.999999999999986 29.134812187620049 29.134812187620049 0 F #
-8 loop $-1 -1 -1 $-1 $-1 $14 $5 T -12.210372894423084 -12.210372894423084 -79.999999999999986 12.210372894423084 1.4953394081550834e-015 0 periphery $9 T #
-9 cone-surface $-1 -1 -1 $-1 0 0 -150 0 0 1 12.210372894423084 0 0 1 I I 0 1 12.210372894423084 forward I I I I #
-10 integer_attrib-name_attrib-gen-attrib $-1 -1 $-1 $-1 $7 2 1 2 1 1 1 1 1 1 1 1 1 1 1 0 1 1 1 @16 基体零件-实体2-1 0 #
-11 face $15 -1 -1 $-1 $16 $17 $4 $-1 $18 forward single T -29.134812187620049 -29.134812187620049 0 29.134812187620049 29.134812187620049 0 T -0.029134812187620051 0.029134812187620051 -0.029134812187620051 0.029134812187620051 #
-12 loop $-1 -1 -1 $-1 $-1 $19 $7 T -29.134812187620049 0 -79.999999999999986 29.134812187620049 29.134812187620049 0 periphery $13 F #
-13 cone-surface $-1 -1 -1 $-1 0 0 -150 0 0 1 29.134812187620049 0 0 1 I I 0 1 29.134812187620049 forward I I I I #
-14 coedge $-1 -1 -1 $-1 $20 $21 $22 $23 reversed $8 $-1 #
-15 integer_attrib-name_attrib-gen-attrib $-1 -1 $-1 $-1 $11 2 1 2 1 1 1 1 1 1 1 1 1 1 1 0 1 1 1 @16 基体零件-实体2-1 0 #
-16 face $24 -1 -1 $-1 $25 $26 $4 $-1 $27 forward single T -29.134812187620049 -29.134812187620049 -79.999999999999986 29.134812187620049 3.5679854489328186e-015 0 F #
-17 loop $-1 -1 -1 $-1 $28 $29 $11 T -12.210372894423084 -12.210372894423084 0 12.210372894423084 12.210372894423084 0 hole $18 F #
-18 plane-surface $-1 -1 -1 $-1 0 0 0 0 0 1 1000 0 0 forward_v I I I I #
-19 coedge $-1 -1 -1 $-1 $30 $31 $32 $33 forward $12 $-1 #
-20 coedge $-1 -1 -1 $-1 $34 $14 $35 $36 forward $8 $-1 #
-21 coedge $-1 -1 -1 $-1 $14 $34 $37 $38 reversed $8 $-1 #
-22 coedge $-1 -1 -1 $-1 $39 $39 $14 $23 forward $40 $-1 #
-23 edge $-1 -1 -1 $-1 $41 -1.224646799147353e-016 $42 3.1415926535897931 $22 $43 forward @7 unknown T -12.210372894423084 -12.210372894423084 -79.999999999999986 12.210372894423084 1.4953394081550834e-015 -79.999999999999986 #
-24 integer_attrib-name_attrib-gen-attrib $-1 -1 $-1 $-1 $16 2 1 2 1 1 1 1 1 1 1 1 1 1 1 0 1 1 1 @16 基体零件-实体2-1 0 #
-25 face $44 -1 -1 $-1 $45 $46 $4 $-1 $47 reversed single T -12.210372894423084 0 -79.999999999999986 12.210372894423084 12.210372894423084 0 F #
-26 loop $-1 -1 -1 $-1 $-1 $48 $16 T -29.134812187620049 -29.134812187620049 -79.999999999999986 29.134812187620049 3.5679854489328186e-015 0 periphery $27 F #
-27 cone-surface $-1 -1 -1 $-1 0 0 -150 0 0 1 29.134812187620049 0 0 1 I I 0 1 29.134812187620049 forward I I I I #
-28 loop $-1 -1 -1 $-1 $-1 $49 $11 T -29.134812187620049 -29.134812187620049 0 29.134812187620049 29.134812187620049 0 periphery $18 F #
-29 coedge $-1 -1 -1 $-1 $50 $50 $34 $51 forward $17 $-1 #
-30 coedge $-1 -1 -1 $-1 $52 $19 $48 $53 forward $12 $-1 #
-31 coedge $-1 -1 -1 $-1 $19 $52 $54 $55 reversed $12 $-1 #
-32 coedge $-1 -1 -1 $-1 $56 $56 $19 $33 reversed $57 $-1 #
-33 edge $-1 -1 -1 $-1 $58 0 $59 3.1415926535897931 $19 $60 forward @7 unknown T -29.134812187620046 0 -79.999999999999986 29.134812187620046 29.134812187620046 -79.999999999999986 #
-34 coedge $-1 -1 -1 $-1 $21 $20 $29 $51 reversed $8 $-1 #
-35 coedge $-1 -1 -1 $-1 $61 $62 $20 $36 reversed $46 $-1 #
-36 edge $-1 -1 -1 $-1 $41 0.070000000000000021 $63 0.14999999999999999 $20 $64 forward @7 unknown T -12.210372894423084 1.4953394081550834e-015 -79.999999999999986 -12.210372894423084 1.4953394081550834e-015 0 #
-37 coedge $-1 -1 -1 $-1 $62 $61 $21 $38 forward $46 $-1 #
-38 edge $-1 -1 -1 $-1 $42 0.070000000000000021 $65 0.14999999999999999 $37 $66 forward @7 unknown T 12.210372894423084 0 -79.999999999999986 12.210372894423084 0 0 #
-39 coedge $-1 -1 -1 $-1 $22 $22 $61 $67 forward $40 $-1 #
-40 loop $-1 -1 -1 $-1 $57 $39 $45 T -12.210372894423084 -12.210372894423084 -79.999999999999986 12.210372894423084 12.210372894423084 -79.999999999999986 hole $68 F #
-41 vertex $-1 -1 -1 $-1 $36 $69 #
-42 vertex $-1 -1 -1 $-1 $23 $70 #
-43 ellipse-curve $-1 -1 -1 $-1 0 0 -79.999999999999986 0 0 1 -12.210372894423084 0 0 1 I I #
-44 integer_attrib-name_attrib-gen-attrib $-1 -1 $-1 $-1 $25 2 1 2 1 1 1 1 1 1 1 1 1 1 1 0 1 1 1 @16 基体零件-实体2-1 0 #
-45 face $71 -1 -1 $-1 $-1 $40 $4 $-1 $68 forward single T -29.134812187620046 -29.134812187620046 -79.999999999999986 29.134812187620046 29.134812187620046 -79.999999999999986 F #
-46 loop $-1 -1 -1 $-1 $-1 $35 $25 T -12.210372894423084 0 -79.999999999999986 12.210372894423084 12.210372894423084 0 periphery $47 T #
-47 cone-surface $-1 -1 -1 $-1 0 0 -150 0 0 1 12.210372894423084 0 0 1 I I 0 1 12.210372894423084 forward I I I I #
-48 coedge $-1 -1 -1 $-1 $72 $73 $30 $53 reversed $26 $-1 #
-49 coedge $-1 -1 -1 $-1 $74 $74 $73 $75 reversed $28 $-1 #
-50 coedge $-1 -1 -1 $-1 $29 $29 $62 $76 forward $17 $-1 #
-51 edge $-1 -1 -1 $-1 $65 0 $63 3.1415926535897931 $29 $77 forward @7 unknown T -12.210372894423084 -12.210372894423084 0 12.210372894423084 1.4953394081550834e-015 0 #
-52 coedge $-1 -1 -1 $-1 $31 $30 $74 $78 forward $12 $-1 #
-53 edge $-1 -1 -1 $-1 $59 0.070000000000000021 $79 0.14999999999999999 $30 $80 forward @7 unknown T -29.134812187620049 3.5679854489328178e-015 -79.999999999999986 -29.134812187620046 3.5679854489328186e-015 0 #
-54 coedge $-1 -1 -1 $-1 $73 $72 $31 $55 forward $26 $-1 #
-55 edge $-1 -1 -1 $-1 $58 0.070000000000000021 $81 0.14999999999999999 $54 $82 forward @7 unknown T 29.134812187620046 0 -79.999999999999986 29.134812187620049 0 0 #
-56 coedge $-1 -1 -1 $-1 $32 $32 $72 $83 reversed $57 $-1 #
-57 loop $-1 -1 -1 $-1 $-1 $32 $45 T -29.134812187620046 -29.134812187620046 -79.999999999999986 29.134812187620046 29.134812187620046 -79.999999999999986 periphery $68 F #
-58 vertex $-1 -1 -1 $-1 $83 $84 #
-59 vertex $-1 -1 -1 $-1 $53 $85 #
-60 ellipse-curve $-1 -1 -1 $-1 0 0 -79.999999999999986 0 0 1 29.134812187620046 0 0 1 I I #
-61 coedge $-1 -1 -1 $-1 $37 $35 $39 $67 reversed $46 $-1 #
-62 coedge $-1 -1 -1 $-1 $35 $37 $50 $76 reversed $46 $-1 #
-63 vertex $-1 -1 -1 $-1 $36 $86 #
-64 straight-curve $-1 -1 -1 $-1 -12.210372894423084 1.4953394081550834e-015 -150 0 0 1000 I I #
-65 vertex $-1 -1 -1 $-1 $76 $87 #
-66 straight-curve $-1 -1 -1 $-1 12.210372894423084 0 -150 0 0 1000 I I #
-67 edge $-1 -1 -1 $-1 $42 -3.1415926535897931 $41 -1.224646799147353e-016 $39 $88 forward @7 unknown T -12.210372894423084 0 -79.999999999999986 12.210372894423084 12.210372894423084 -79.999999999999986 #
-68 plane-surface $-1 -1 -1 $-1 15.22890192688368 24.837830567689529 -79.999999999999986 0 0 -1 -1000 0 0 forward_v I I I I #
-69 point $-1 -1 -1 $-1 -12.210372894423084 1.4953394081550834e-015 -79.999999999999986 #
-70 point $-1 -1 -1 $-1 12.210372894423084 0 -79.999999999999986 #
-71 integer_attrib-name_attrib-gen-attrib $-1 -1 $-1 $-1 $45 2 1 2 1 1 1 1 1 1 1 1 1 1 1 0 1 1 1 @16 基体零件-实体2-1 0 #
-72 coedge $-1 -1 -1 $-1 $54 $48 $56 $83 forward $26 $-1 #
-73 coedge $-1 -1 -1 $-1 $48 $54 $49 $75 forward $26 $-1 #
-74 coedge $-1 -1 -1 $-1 $49 $49 $52 $78 reversed $28 $-1 #
-75 edge $-1 -1 -1 $-1 $81 0 $79 3.1415926535897931 $73 $89 forward @7 unknown T -29.134812187620049 -29.134812187620049 0 29.134812187620049 3.5679854489328186e-015 0 #
-76 edge $-1 -1 -1 $-1 $63 -3.1415926535897931 $65 0 $50 $90 forward @7 unknown T -12.210372894423084 0 0 12.210372894423084 12.210372894423084 0 #
-77 ellipse-curve $-1 -1 -1 $-1 0 0 0 -0 -0 -1 12.210372894423084 0 0 1 I I #
-78 edge $-1 -1 -1 $-1 $79 -3.1415926535897931 $81 0 $52 $91 forward @7 unknown T -29.134812187620049 0 0 29.134812187620049 29.134812187620049 0 #
-79 vertex $-1 -1 -1 $-1 $53 $92 #
-80 straight-curve $-1 -1 -1 $-1 -29.134812187620049 3.5679854489328186e-015 -150 0 0 1000 I I #
-81 vertex $-1 -1 -1 $-1 $78 $93 #
-82 straight-curve $-1 -1 -1 $-1 29.134812187620049 0 -150 0 0 1000 I I #
-83 edge $-1 -1 -1 $-1 $59 -3.1415926535897931 $58 0 $72 $94 forward @7 unknown T -29.134812187620046 -29.134812187620046 -79.999999999999986 29.134812187620046 3.5679854489328178e-015 -79.999999999999986 #
-84 point $-1 -1 -1 $-1 29.134812187620046 0 -79.999999999999986 #
-85 point $-1 -1 -1 $-1 -29.134812187620046 3.5679854489328178e-015 -79.999999999999986 #
-86 point $-1 -1 -1 $-1 -12.210372894423084 1.4953394081550834e-015 0 #
-87 point $-1 -1 -1 $-1 12.210372894423084 0 0 #
-88 ellipse-curve $-1 -1 -1 $-1 0 0 -79.999999999999986 0 0 1 -12.210372894423084 0 0 1 I I #
-89 ellipse-curve $-1 -1 -1 $-1 0 0 0 -0 -0 -1 29.134812187620049 0 0 1 I I #
-90 ellipse-curve $-1 -1 -1 $-1 0 0 0 -0 -0 -1 12.210372894423084 0 0 1 I I #
-91 ellipse-curve $-1 -1 -1 $-1 0 0 0 -0 -0 -1 29.134812187620049 0 0 1 I I #
-92 point $-1 -1 -1 $-1 -29.134812187620049 3.5679854489328186e-015 0 #
-93 point $-1 -1 -1 $-1 29.134812187620049 0 0 #
-94 ellipse-curve $-1 -1 -1 $-1 0 0 -79.999999999999986 0 0 1 29.134812187620046 0 0 1 I I #
End-of-ACIS-data 