2300 0 1 0           
19 Example Application 12 ACIS 23.0 NT 24 Tue Jan 27 18:57:00 2015 
1 9.9999999999999995e-007 1e-010 
-0 body $1 -1 -1 $-1 $2 $-1 $-1 T -131.00000000000014 55.666475336144224 -15.999999999999501 -95.000000000000085 87.666475336144231 16.000000000000707 #
-1 name_attrib-gen-attrib $-1 -1 $-1 $-1 $0 2 1 1 1 1 1 1 1 1 1 1 1 1 1 0 1 1 1 @14 part1-matching #
-2 lump $3 -1 -1 $-1 $-1 $4 $0 T -131.00000000000014 55.666475336144224 -15.999999999999501 -95.000000000000085 87.666475336144231 16.000000000000707 #
-3 rgb_color-st-attrib $-1 -1 $-1 $-1 $2 2 1 2 1 1 1 1 1 1 1 1 1 1 1 0 1 1 1 0.792156862745098 0.81960784313725488 0.93333333333333335 #
-4 shell $-1 -1 -1 $-1 $-1 $-1 $5 $-1 $2 T -131.00000000000014 55.666475336144224 -15.999999999999501 -95.000000000000085 87.666475336144231 16.000000000000707 #
-5 face $6 -1 -1 $-1 $7 $8 $4 $-1 $9 reversed single T -131.00000000000011 63.186226416540677 -11.393993355523696 -95.000000000000085 67.686226416540677 -2.3939933555234996 F #
-6 integer_attrib-name_attrib-gen-attrib $-1 -1 $-1 $-1 $5 2 1 2 1 1 1 1 1 1 1 1 1 1 1 0 1 1 1 @16 基体零件-实体5-1 0 #
-7 face $10 -1 -1 $-1 $11 $12 $4 $-1 $13 reversed single T -131.00000000000003 63.186226416540826 2.3939933555249886 -95.000000000000085 67.686226416540833 11.393993355525192 F #
-8 loop $-1 -1 -1 $-1 $-1 $14 $5 T -131.00000000000011 63.186226416540677 -11.393993355523696 -95.000000000000085 67.686226416540677 -2.3939933555234996 periphery $9 T #
-9 cone-surface $-1 -1 -1 $-1 -85.000000000000099 67.686226416540677 -6.8939933555237465 1 0 -5.3290705182007514e-015 -2.7755575615628914e-014 0 -4.5000000000000009 1 I I 0 1 4.5000000000000009 forward I I I I #
-10 integer_attrib-name_attrib-gen-attrib $-1 -1 $-1 $-1 $7 2 1 2 1 1 1 1 1 1 1 1 1 1 1 0 1 1 1 @16 基体零件-实体5-1 0 #
-11 face $15 -1 -1 $-1 $16 $17 $4 $-1 $18 reversed single T -131.00000000000009 75.126973175351168 -4.4999999999994973 -95.000000000000085 79.626973175351168 4.5000000000007043 F #
-12 loop $-1 -1 -1 $-1 $-1 $19 $7 T -131.00000000000003 63.186226416540826 2.3939933555249886 -95.000000000000085 67.686226416540833 11.393993355525192 periphery $13 T #
-13 cone-surface $-1 -1 -1 $-1 -85.000000000000043 67.686226416540833 6.8939933555249402 1 0 -5.3290705182007514e-015 -2.7755575615628914e-014 0 -4.5000000000000044 1 I I 0 1 4.5000000000000044 forward I I I I #
-14 coedge $-1 -1 -1 $-1 $20 $21 $22 $23 reversed $8 $-1 #
-15 integer_attrib-name_attrib-gen-attrib $-1 -1 $-1 $-1 $11 2 1 2 1 1 1 1 1 1 1 1 1 1 1 0 1 1 1 @16 基体零件-实体5-1 0 #
-16 face $24 -1 -1 $-1 $25 $26 $4 $-1 $27 forward single T -131.00000000000014 71.666475336144231 -15.999999999999501 -95.000000000000085 87.666475336144231 16.000000000000707 F #
-17 loop $-1 -1 -1 $-1 $-1 $28 $11 T -131.00000000000009 75.126973175351168 -4.4999999999994973 -95.000000000000085 79.626973175351168 4.5000000000007043 periphery $18 T #
-18 cone-surface $-1 -1 -1 $-1 -85.000000000000071 79.626973175351168 4.5477510646207975e-013 1 0 -5.3290705182007514e-015 -2.7755575615628914e-014 0 -4.5000000000000044 1 I I 0 1 4.5000000000000044 forward I I I I #
-19 coedge $-1 -1 -1 $-1 $29 $30 $31 $32 reversed $12 $-1 #
-20 coedge $-1 -1 -1 $-1 $33 $14 $34 $35 forward $8 $-1 #
-21 coedge $-1 -1 -1 $-1 $14 $33 $36 $37 reversed $8 $-1 #
-22 coedge $-1 -1 -1 $-1 $38 $38 $14 $23 forward $39 $-1 #
-23 edge $-1 -1 -1 $-1 $40 -3.1415926535897931 $41 0 $22 $42 forward @7 unknown T -131.00000000000011 63.186226416540677 -11.393993355523502 -131.00000000000006 67.686226416540677 -2.3939933555234996 #
-24 integer_attrib-name_attrib-gen-attrib $-1 -1 $-1 $-1 $16 2 1 2 1 1 1 1 1 1 1 1 1 1 1 0 1 1 1 @16 基体零件-实体5-1 0 #
-25 face $43 -1 -1 $-1 $44 $45 $4 $-1 $46 reversed single T -131.00000000000014 55.666475336144231 -15.999999999999304 -130.99999999999997 87.666475336144231 16.000000000000703 F #
-26 loop $-1 -1 -1 $-1 $-1 $47 $16 T -131.00000000000014 71.666475336144231 -15.999999999999501 -95.000000000000085 87.666475336144231 16.000000000000707 periphery $27 F #
-27 cone-surface $-1 -1 -1 $-1 -85.000000000000071 71.666475336144231 4.5477510646207975e-013 1 0 -5.3290705182007514e-015 -8.3266726846886741e-014 0 -16.000000000000007 1 I I 0 1 16.000000000000007 forward I I I I #
-28 coedge $-1 -1 -1 $-1 $48 $49 $50 $51 reversed $17 $-1 #
-29 coedge $-1 -1 -1 $-1 $52 $19 $53 $54 forward $12 $-1 #
-30 coedge $-1 -1 -1 $-1 $19 $52 $55 $56 reversed $12 $-1 #
-31 coedge $-1 -1 -1 $-1 $57 $57 $19 $32 forward $58 $-1 #
-32 edge $-1 -1 -1 $-1 $59 -3.1415926535897931 $60 0 $31 $61 forward @7 unknown T -131.00000000000003 63.186226416540826 2.3939933555251809 -130.99999999999997 67.686226416540833 11.393993355525192 #
-33 coedge $-1 -1 -1 $-1 $21 $20 $62 $63 reversed $8 $-1 #
-34 coedge $-1 -1 -1 $-1 $64 $65 $20 $35 reversed $66 $-1 #
-35 edge $-1 -1 -1 $-1 $40 -0.045999999999999985 $67 -0.010000000000000014 $20 $68 forward @7 unknown T -131.00000000000006 67.686226416540677 -2.3939933555236927 -95.000000000000085 67.686226416540677 -2.3939933555235 #
-36 coedge $-1 -1 -1 $-1 $65 $64 $21 $37 forward $66 $-1 #
-37 edge $-1 -1 -1 $-1 $41 -0.045999999999999985 $69 -0.0099999999999999568 $36 $70 forward @7 unknown T -131.00000000000011 67.686226416540677 -11.393993355523696 -95.000000000000085 67.686226416540677 -11.393993355523502 #
-38 coedge $-1 -1 -1 $-1 $22 $22 $64 $71 forward $39 $-1 #
-39 loop $-1 -1 -1 $-1 $72 $38 $25 T -131.00000000000011 63.186226416540677 -11.393993355523502 -131.00000000000006 72.186226416540677 -2.3939933555234996 hole $46 T #
-40 vertex $-1 -1 -1 $-1 $35 $73 #
-41 vertex $-1 -1 -1 $-1 $23 $74 #
-42 ellipse-curve $-1 -1 -1 $-1 -131.00000000000009 67.686226416540677 -6.8939933555235013 1 0 -5.3290705182007514e-015 -2.7755575615628914e-014 0 -4.5000000000000018 1 I I #
-43 integer_attrib-name_attrib-gen-attrib $-1 -1 $-1 $-1 $25 2 1 2 1 1 1 1 1 1 1 1 1 1 1 0 1 1 1 @16 基体零件-实体5-1 0 #
-44 face $75 -1 -1 $-1 $76 $77 $4 $-1 $78 forward single T -131.00000000000014 55.666475336144224 -15.999999999999501 -95.000000000000085 71.666475336144231 16.000000000000707 F #
-45 loop $-1 -1 -1 $-1 $58 $79 $25 T -131.00000000000009 75.126973175351168 -4.4999999999993046 -131.00000000000003 84.126973175351168 4.5000000000007043 hole $46 T #
-46 plane-surface $-1 -1 -1 $-1 -130.99999999999986 71.666475336144231 36.080686433627321 1 0 -5.3290705182007514e-015 -5.3290705182007514e-012 0 -1000 forward_v I I I I #
-47 coedge $-1 -1 -1 $-1 $80 $81 $82 $83 reversed $26 $-1 #
-48 coedge $-1 -1 -1 $-1 $84 $28 $85 $86 forward $17 $-1 #
-49 coedge $-1 -1 -1 $-1 $28 $84 $87 $88 reversed $17 $-1 #
-50 coedge $-1 -1 -1 $-1 $79 $79 $28 $51 forward $45 $-1 #
-51 edge $-1 -1 -1 $-1 $89 -3.1415926535897931 $90 0 $50 $91 forward @7 unknown T -131.00000000000009 75.126973175351168 -4.4999999999993046 -131.00000000000003 79.626973175351168 4.5000000000007043 #
-52 coedge $-1 -1 -1 $-1 $30 $29 $92 $93 reversed $12 $-1 #
-53 coedge $-1 -1 -1 $-1 $94 $95 $29 $54 reversed $96 $-1 #
-54 edge $-1 -1 -1 $-1 $59 -0.045999999999999958 $97 -0.010000000000000071 $29 $98 forward @7 unknown T -130.99999999999997 67.686226416540833 11.393993355524998 -95.000000000000085 67.686226416540833 11.393993355525192 #
-55 coedge $-1 -1 -1 $-1 $95 $94 $30 $56 forward $96 $-1 #
-56 edge $-1 -1 -1 $-1 $60 -0.045999999999999958 $99 -0.010000000000000014 $55 $100 forward @7 unknown T -131.00000000000003 67.686226416540833 2.3939933555249886 -95.000000000000085 67.686226416540833 2.3939933555251809 #
-57 coedge $-1 -1 -1 $-1 $31 $31 $94 $101 forward $58 $-1 #
-58 loop $-1 -1 -1 $-1 $39 $57 $25 T -131.00000000000003 63.186226416540826 2.3939933555251809 -130.99999999999997 72.186226416540833 11.393993355525192 hole $46 T #
-59 vertex $-1 -1 -1 $-1 $54 $102 #
-60 vertex $-1 -1 -1 $-1 $32 $103 #
-61 ellipse-curve $-1 -1 -1 $-1 -131 67.686226416540833 6.8939933555251862 1 0 -5.3290705182007514e-015 -2.7755575615628914e-014 0 -4.5000000000000044 1 I I #
-62 coedge $-1 -1 -1 $-1 $104 $104 $33 $63 forward $105 $-1 #
-63 edge $-1 -1 -1 $-1 $69 -3.1415926535897931 $67 0 $62 $106 forward @7 unknown T -95.000000000000085 63.186226416540677 -11.393993355523696 -95.000000000000085 67.686226416540677 -2.3939933555236923 #
-64 coedge $-1 -1 -1 $-1 $36 $34 $38 $71 reversed $66 $-1 #
-65 coedge $-1 -1 -1 $-1 $34 $36 $104 $107 reversed $66 $-1 #
-66 loop $-1 -1 -1 $-1 $-1 $34 $108 T -131.00000000000011 67.686226416540677 -11.393993355523696 -95.000000000000085 72.186226416540677 -2.3939933555234996 periphery $109 T #
-67 vertex $-1 -1 -1 $-1 $35 $110 #
-68 straight-curve $-1 -1 -1 $-1 -85.000000000000071 67.686226416540677 -2.3939933555237456 1000 0 -5.3290705182007514e-012 I I #
-69 vertex $-1 -1 -1 $-1 $107 $111 #
-70 straight-curve $-1 -1 -1 $-1 -85.000000000000128 67.686226416540677 -11.393993355523747 1000 0 -5.3290705182007514e-012 I I #
-71 edge $-1 -1 -1 $-1 $41 0 $40 3.1415926535897931 $38 $112 forward @7 unknown T -131.00000000000011 67.686226416540677 -11.393993355523502 -131.00000000000006 72.186226416540677 -2.3939933555234996 #
-72 loop $-1 -1 -1 $-1 $-1 $113 $25 T -131.00000000000014 55.666475336144231 -15.999999999999304 -130.99999999999997 87.666475336144231 16.000000000000703 periphery $46 T #
-73 point $-1 -1 -1 $-1 -131.00000000000006 67.686226416540677 -2.3939933555235 #
-74 point $-1 -1 -1 $-1 -131.00000000000011 67.686226416540677 -11.393993355523502 #
-75 integer_attrib-name_attrib-gen-attrib $-1 -1 $-1 $-1 $44 2 1 2 1 1 1 1 1 1 1 1 1 1 1 0 1 1 1 @16 基体零件-实体5-1 0 #
-76 face $114 -1 -1 $-1 $115 $116 $4 $-1 $117 reversed single T -131.00000000000009 79.626973175351168 -4.4999999999994973 -95.000000000000085 84.126973175351168 4.5000000000007043 F #
-77 loop $-1 -1 -1 $-1 $-1 $118 $44 T -131.00000000000014 55.666475336144224 -15.999999999999501 -95.000000000000085 71.666475336144231 16.000000000000707 periphery $78 F #
-78 cone-surface $-1 -1 -1 $-1 -85.000000000000071 71.666475336144231 4.5477510646207975e-013 1 0 -5.3290705182007514e-015 -8.3266726846886741e-014 0 -16.000000000000007 1 I I 0 1 16.000000000000007 forward I I I I #
-79 coedge $-1 -1 -1 $-1 $50 $50 $119 $120 forward $45 $-1 #
-80 coedge $-1 -1 -1 $-1 $121 $47 $118 $122 forward $26 $-1 #
-81 coedge $-1 -1 -1 $-1 $47 $121 $123 $124 reversed $26 $-1 #
-82 coedge $-1 -1 -1 $-1 $113 $113 $47 $83 forward $72 $-1 #
-83 edge $-1 -1 -1 $-1 $125 0 $126 3.1415926535897931 $82 $127 forward @7 unknown T -131.00000000000014 71.666475336144231 -15.999999999999304 -130.99999999999997 87.666475336144231 16.000000000000703 #
-84 coedge $-1 -1 -1 $-1 $49 $48 $128 $129 reversed $17 $-1 #
-85 coedge $-1 -1 -1 $-1 $119 $130 $48 $86 reversed $116 $-1 #
-86 edge $-1 -1 -1 $-1 $89 -0.045999999999999985 $131 -0.010000000000000042 $48 $132 forward @7 unknown T -131.00000000000003 79.626973175351168 4.5000000000005125 -95.000000000000085 79.626973175351168 4.5000000000007043 #
-87 coedge $-1 -1 -1 $-1 $130 $119 $49 $88 forward $116 $-1 #
-88 edge $-1 -1 -1 $-1 $90 -0.045999999999999985 $133 -0.0099999999999999863 $87 $134 forward @7 unknown T -131.00000000000009 79.626973175351168 -4.4999999999994973 -95.000000000000085 79.626973175351168 -4.4999999999993046 #
-89 vertex $-1 -1 -1 $-1 $86 $135 #
-90 vertex $-1 -1 -1 $-1 $51 $136 #
-91 ellipse-curve $-1 -1 -1 $-1 -131.00000000000006 79.626973175351168 6.9991235029931431e-013 1 0 -5.3290705182007514e-015 -2.7755575615628914e-014 0 -4.5000000000000044 1 I I #
-92 coedge $-1 -1 -1 $-1 $137 $137 $52 $93 forward $138 $-1 #
-93 edge $-1 -1 -1 $-1 $99 -3.1415926535897931 $97 0 $92 $139 forward @7 unknown T -95.000000000000085 63.186226416540826 2.3939933555249886 -95.000000000000085 67.686226416540833 11.393993355524998 #
-94 coedge $-1 -1 -1 $-1 $55 $53 $57 $101 reversed $96 $-1 #
-95 coedge $-1 -1 -1 $-1 $53 $55 $137 $140 reversed $96 $-1 #
-96 loop $-1 -1 -1 $-1 $-1 $53 $115 T -131.00000000000003 67.686226416540833 2.3939933555249886 -95.000000000000085 72.186226416540833 11.393993355525192 periphery $141 T #
-97 vertex $-1 -1 -1 $-1 $54 $142 #
-98 straight-curve $-1 -1 -1 $-1 -85.000000000000014 67.686226416540833 11.393993355524945 1000 0 -5.3290705182007514e-012 I I #
-99 vertex $-1 -1 -1 $-1 $140 $143 #
-100 straight-curve $-1 -1 -1 $-1 -85.000000000000071 67.686226416540833 2.3939933555249353 1000 0 -5.3290705182007514e-012 I I #
-101 edge $-1 -1 -1 $-1 $60 0 $59 3.1415926535897931 $57 $144 forward @7 unknown T -131.00000000000003 67.686226416540833 2.3939933555251809 -130.99999999999997 72.186226416540833 11.393993355525192 #
-102 point $-1 -1 -1 $-1 -130.99999999999997 67.686226416540833 11.393993355525192 #
-103 point $-1 -1 -1 $-1 -131.00000000000003 67.686226416540833 2.3939933555251809 #
-104 coedge $-1 -1 -1 $-1 $62 $62 $65 $107 forward $105 $-1 #
-105 loop $-1 -1 -1 $-1 $138 $62 $145 T -95.000000000000085 63.186226416540677 -11.393993355523696 -95.000000000000085 72.186226416540677 -2.3939933555236923 hole $146 T #
-106 ellipse-curve $-1 -1 -1 $-1 -95.000000000000085 67.686226416540677 -6.8939933555236941 -1 0 2.7287337478301643e-016 0 0 4.5000000000000018 1 I I #
-107 edge $-1 -1 -1 $-1 $67 0 $69 3.1415926535897931 $104 $147 forward @7 unknown T -95.000000000000085 67.686226416540677 -11.393993355523696 -95.000000000000085 72.186226416540677 -2.3939933555236923 #
-108 face $148 -1 -1 $-1 $145 $66 $4 $-1 $109 reversed single T -131.00000000000011 67.686226416540677 -11.393993355523696 -95.000000000000085 72.186226416540677 -2.3939933555234996 F #
-109 cone-surface $-1 -1 -1 $-1 -85.000000000000099 67.686226416540677 -6.8939933555237465 1 0 -5.3290705182007514e-015 -2.7755575615628914e-014 0 -4.5000000000000009 1 I I 0 1 4.5000000000000009 forward I I I I #
-110 point $-1 -1 -1 $-1 -95.000000000000085 67.686226416540677 -2.3939933555236927 #
-111 point $-1 -1 -1 $-1 -95.000000000000085 67.686226416540677 -11.393993355523696 #
-112 ellipse-curve $-1 -1 -1 $-1 -131.00000000000009 67.686226416540677 -6.8939933555235013 1 0 -5.3290705182007514e-015 -2.7755575615628914e-014 0 -4.5000000000000018 1 I I #
-113 coedge $-1 -1 -1 $-1 $82 $82 $149 $150 forward $72 $-1 #
-114 integer_attrib-name_attrib-gen-attrib $-1 -1 $-1 $-1 $76 2 1 2 1 1 1 1 1 1 1 1 1 1 1 0 1 1 1 @16 基体零件-实体5-1 0 #
-115 face $151 -1 -1 $-1 $108 $96 $4 $-1 $141 reversed single T -131.00000000000003 67.686226416540833 2.3939933555249886 -95.000000000000085 72.186226416540833 11.393993355525192 F #
-116 loop $-1 -1 -1 $-1 $-1 $85 $76 T -131.00000000000009 79.626973175351168 -4.4999999999994973 -95.000000000000085 84.126973175351168 4.5000000000007043 periphery $117 T #
-117 cone-surface $-1 -1 -1 $-1 -85.000000000000071 79.626973175351168 4.5477510646207975e-013 1 0 -5.3290705182007514e-015 -2.7755575615628914e-014 0 -4.5000000000000044 1 I I 0 1 4.5000000000000044 forward I I I I #
-118 coedge $-1 -1 -1 $-1 $149 $152 $80 $122 reversed $77 $-1 #
-119 coedge $-1 -1 -1 $-1 $87 $85 $79 $120 reversed $116 $-1 #
-120 edge $-1 -1 -1 $-1 $90 0 $89 3.1415926535897931 $79 $153 forward @7 unknown T -131.00000000000009 79.626973175351168 -4.4999999999993046 -131.00000000000003 84.126973175351168 4.5000000000007043 #
-121 coedge $-1 -1 -1 $-1 $81 $80 $154 $155 forward $26 $-1 #
-122 edge $-1 -1 -1 $-1 $125 -0.045999999999999985 $156 -0.010000000000000099 $80 $157 forward @7 unknown T -130.99999999999997 71.666475336144231 16.000000000000515 -95.000000000000085 71.666475336144231 16.000000000000707 #
-123 coedge $-1 -1 -1 $-1 $152 $149 $81 $124 forward $77 $-1 #
-124 edge $-1 -1 -1 $-1 $126 -0.045999999999999985 $158 -0.0099999999999999291 $123 $159 forward @7 unknown T -131.00000000000014 71.666475336144231 -15.999999999999501 -95.000000000000085 71.666475336144231 -15.999999999999304 #
-125 vertex $-1 -1 -1 $-1 $122 $160 #
-126 vertex $-1 -1 -1 $-1 $83 $161 #
-127 ellipse-curve $-1 -1 -1 $-1 -131.00000000000006 71.666475336144231 6.9991235029931441e-013 -1 0 5.3290705182007514e-015 8.3266726846886741e-014 0 16.000000000000004 1 I I #
-128 coedge $-1 -1 -1 $-1 $162 $162 $84 $129 forward $163 $-1 #
-129 edge $-1 -1 -1 $-1 $133 -3.1415926535897931 $131 0 $128 $164 forward @7 unknown T -95.000000000000085 75.126973175351168 -4.4999999999994964 -95.000000000000085 79.626973175351168 4.5000000000005134 #
-130 coedge $-1 -1 -1 $-1 $85 $87 $162 $165 reversed $116 $-1 #
-131 vertex $-1 -1 -1 $-1 $86 $166 #
-132 straight-curve $-1 -1 -1 $-1 -85.000000000000043 79.626973175351168 4.5000000000004592 1000 0 -5.3290705182007514e-012 I I #
-133 vertex $-1 -1 -1 $-1 $165 $167 #
-134 straight-curve $-1 -1 -1 $-1 -85.000000000000099 79.626973175351168 -4.4999999999995506 1000 0 -5.3290705182007514e-012 I I #
-135 point $-1 -1 -1 $-1 -131.00000000000003 79.626973175351168 4.5000000000007043 #
-136 point $-1 -1 -1 $-1 -131.00000000000009 79.626973175351168 -4.4999999999993046 #
-137 coedge $-1 -1 -1 $-1 $92 $92 $95 $140 forward $138 $-1 #
-138 loop $-1 -1 -1 $-1 $163 $92 $145 T -95.000000000000085 63.186226416540826 2.3939933555249886 -95.000000000000085 72.186226416540833 11.393993355524998 hole $146 T #
-139 ellipse-curve $-1 -1 -1 $-1 -95.000000000000085 67.686226416540833 6.8939933555249935 -1 0 2.7287337478301643e-016 0 0 4.5000000000000044 1 I I #
-140 edge $-1 -1 -1 $-1 $97 0 $99 3.1415926535897931 $137 $168 forward @7 unknown T -95.000000000000085 67.686226416540833 2.3939933555249886 -95.000000000000085 72.186226416540833 11.393993355524998 #
-141 cone-surface $-1 -1 -1 $-1 -85.000000000000043 67.686226416540833 6.8939933555249402 1 0 -5.3290705182007514e-015 -2.7755575615628914e-014 0 -4.5000000000000044 1 I I 0 1 4.5000000000000044 forward I I I I #
-142 point $-1 -1 -1 $-1 -95.000000000000085 67.686226416540833 11.393993355524998 #
-143 point $-1 -1 -1 $-1 -95.000000000000085 67.686226416540833 2.3939933555249886 #
-144 ellipse-curve $-1 -1 -1 $-1 -131 67.686226416540833 6.8939933555251862 1 0 -5.3290705182007514e-015 -2.7755575615628914e-014 0 -4.5000000000000044 1 I I #
-145 face $169 -1 -1 $-1 $-1 $105 $4 $-1 $146 reversed single T -95.000000000000085 55.666475336144224 -15.999999999999501 -95.000000000000085 87.666475336144231 16.000000000000515 F #
-146 plane-surface $-1 -1 -1 $-1 -95.000000000000085 0 2.5922970604386584e-014 -1 0 2.7287337478301643e-016 2.7287337478301641e-013 0 1000 forward_v I I I I #
-147 ellipse-curve $-1 -1 -1 $-1 -95.000000000000085 67.686226416540677 -6.8939933555236941 -1 0 2.7287337478301643e-016 0 0 4.5000000000000018 1 I I #
-148 integer_attrib-name_attrib-gen-attrib $-1 -1 $-1 $-1 $108 2 1 2 1 1 1 1 1 1 1 1 1 1 1 0 1 1 1 @16 基体零件-实体5-1 0 #
-149 coedge $-1 -1 -1 $-1 $123 $118 $113 $150 reversed $77 $-1 #
-150 edge $-1 -1 -1 $-1 $126 -3.1415926535897931 $125 0 $113 $170 forward @7 unknown T -131.00000000000014 55.666475336144231 -15.999999999999304 -130.99999999999997 71.666475336144231 16.000000000000703 #
-151 integer_attrib-name_attrib-gen-attrib $-1 -1 $-1 $-1 $115 2 1 2 1 1 1 1 1 1 1 1 1 1 1 0 1 1 1 @16 基体零件-实体5-1 0 #
-152 coedge $-1 -1 -1 $-1 $118 $123 $171 $172 forward $77 $-1 #
-153 ellipse-curve $-1 -1 -1 $-1 -131.00000000000006 79.626973175351168 6.9991235029931431e-013 1 0 -5.3290705182007514e-015 -2.7755575615628914e-014 0 -4.5000000000000044 1 I I #
-154 coedge $-1 -1 -1 $-1 $171 $171 $121 $155 reversed $173 $-1 #
-155 edge $-1 -1 -1 $-1 $156 0 $158 3.1415926535897931 $121 $174 forward @7 unknown T -95.000000000000085 71.666475336144231 -15.999999999999501 -95.000000000000085 87.666475336144231 16.000000000000515 #
-156 vertex $-1 -1 -1 $-1 $122 $175 #
-157 straight-curve $-1 -1 -1 $-1 -84.999999999999986 71.666475336144231 16.000000000000462 1000 0 -5.3290705182007514e-012 I I #
-158 vertex $-1 -1 -1 $-1 $155 $176 #
-159 straight-curve $-1 -1 -1 $-1 -85.000000000000156 71.666475336144231 -15.999999999999552 1000 0 -5.3290705182007514e-012 I I #
-160 point $-1 -1 -1 $-1 -130.99999999999997 71.666475336144231 16.000000000000703 #
-161 point $-1 -1 -1 $-1 -131.00000000000014 71.666475336144231 -15.999999999999304 #
-162 coedge $-1 -1 -1 $-1 $128 $128 $130 $165 forward $163 $-1 #
-163 loop $-1 -1 -1 $-1 $173 $128 $145 T -95.000000000000085 75.126973175351168 -4.4999999999994964 -95.000000000000085 84.126973175351168 4.5000000000005134 hole $146 T #
-164 ellipse-curve $-1 -1 -1 $-1 -95.000000000000085 79.626973175351168 5.0806581164408736e-013 -1 0 2.7287337478301643e-016 0 0 4.5000000000000044 1 I I #
-165 edge $-1 -1 -1 $-1 $131 0 $133 3.1415926535897931 $162 $177 forward @7 unknown T -95.000000000000085 79.626973175351168 -4.4999999999994964 -95.000000000000085 84.126973175351168 4.5000000000005134 #
-166 point $-1 -1 -1 $-1 -95.000000000000085 79.626973175351168 4.5000000000005134 #
-167 point $-1 -1 -1 $-1 -95.000000000000085 79.626973175351168 -4.4999999999994964 #
-168 ellipse-curve $-1 -1 -1 $-1 -95.000000000000085 67.686226416540833 6.8939933555249935 -1 0 2.7287337478301643e-016 0 0 4.5000000000000044 1 I I #
-169 integer_attrib-name_attrib-gen-attrib $-1 -1 $-1 $-1 $145 2 1 2 1 1 1 1 1 1 1 1 1 1 1 0 1 1 1 @16 基体零件-实体5-1 0 #
-170 ellipse-curve $-1 -1 -1 $-1 -131.00000000000006 71.666475336144231 6.9991235029931441e-013 -1 0 5.3290705182007514e-015 8.3266726846886741e-014 0 16.000000000000004 1 I I #
-171 coedge $-1 -1 -1 $-1 $154 $154 $152 $172 reversed $173 $-1 #
-172 edge $-1 -1 -1 $-1 $158 -3.1415926535897931 $156 0 $152 $178 forward @7 unknown T -95.000000000000085 55.666475336144224 -15.999999999999501 -95.000000000000085 71.666475336144231 16.000000000000515 #
-173 loop $-1 -1 -1 $-1 $-1 $171 $145 T -95.000000000000085 55.666475336144224 -15.999999999999501 -95.000000000000085 87.666475336144231 16.000000000000515 periphery $146 T #
-174 ellipse-curve $-1 -1 -1 $-1 -95.000000000000085 71.666475336144231 5.0806581164408736e-013 -1 0 2.7287337478301643e-016 0 0 16.000000000000007 1 I I #
-175 point $-1 -1 -1 $-1 -95.000000000000085 71.666475336144231 16.000000000000515 #
-176 point $-1 -1 -1 $-1 -95.000000000000085 71.666475336144231 -15.999999999999501 #
-177 ellipse-curve $-1 -1 -1 $-1 -95.000000000000085 79.626973175351168 5.0806581164408736e-013 -1 0 2.7287337478301643e-016 0 0 4.5000000000000044 1 I I #
-178 ellipse-curve $-1 -1 -1 $-1 -95.000000000000085 71.666475336144231 5.0806581164408736e-013 -1 0 2.7287337478301643e-016 0 0 16.000000000000007 1 I I #
End-of-ACIS-data 