2300 0 1 0           
19 Example Application 12 ACIS 23.0 NT 24 Thu Dec 10 15:12:51 2015 
1 9.9999999999999995e-007 1e-010 
-0 body $1 -1 -1 $-1 $2 $-1 $-1 T -64.960663310341843 -47.492318457249482 -120 64.960663310341843 47.492318457249482 0 #
-1 name_attrib-gen-attrib $-1 -1 $-1 $-1 $0 2 1 1 1 1 1 1 1 1 1 1 1 1 1 0 1 1 1 @10 demo_part2 #
-2 lump $3 -1 -1 $-1 $-1 $4 $0 T -64.960663310341843 -47.492318457249482 -120 64.960663310341843 47.492318457249482 0 #
-3 rgb_color-st-attrib $-1 -1 $-1 $-1 $2 2 1 2 1 1 1 1 1 1 1 1 1 1 1 0 1 1 1 1 1 1 #
-4 shell $-1 -1 -1 $-1 $-1 $-1 $5 $-1 $2 T -64.960663310341843 -47.492318457249482 -120 64.960663310341843 47.492318457249482 0 #
-5 face $6 -1 -1 $-1 $7 $8 $4 $-1 $9 reversed single T -44.676199599198938 -3.3673837161376081 -120 -10.951566137395341 13.494933014764193 0 F #
-6 integer_attrib-name_attrib-gen-attrib $-1 -1 $-1 $-1 $5 2 1 2 1 1 1 1 1 1 1 1 1 1 1 0 1 1 1 @15 基体零件-demo-1 0 #
-7 face $10 -1 -1 $-1 $11 $12 $4 $-1 $13 forward single T 64.960663310341843 -47.492318457249482 -120 64.960663310341843 47.492318457249482 0 F #
-8 loop $-1 -1 -1 $-1 $-1 $14 $5 T -44.676199599198938 -3.3673837161376081 -120 -10.951566137395341 13.494933014764193 0 periphery $9 T #
-9 cone-surface $-1 -1 -1 $-1 -27.813882868297142 13.494933014764191 -120 0 0 1 16.862316730901799 0 0 1 I I 0 1 16.862316730901799 forward I I I I #
-10 integer_attrib-name_attrib-gen-attrib $-1 -1 $-1 $-1 $7 2 1 2 1 1 1 1 1 1 1 1 1 1 1 0 1 1 1 @15 基体零件-demo-1 0 #
-11 face $15 -1 -1 $-1 $16 $17 $4 $-1 $18 forward single T -64.960663310341843 -47.492318457249482 -120 64.960663310341843 -47.492318457249482 0 F #
-12 loop $-1 -1 -1 $-1 $-1 $19 $7 T 64.960663310341843 -47.492318457249482 -120 64.960663310341843 47.492318457249482 0 unknown #
-13 plane-surface $-1 -1 -1 $-1 64.960663310341843 47.492318457249482 -120 1 0 0 0 0 -1000 forward_v I I I I #
-14 coedge $-1 -1 -1 $-1 $20 $21 $22 $23 reversed $8 $-1 #
-15 integer_attrib-name_attrib-gen-attrib $-1 -1 $-1 $-1 $11 2 1 2 1 1 1 1 1 1 1 1 1 1 1 0 1 1 1 @15 基体零件-demo-1 0 #
-16 face $24 -1 -1 $-1 $25 $26 $4 $-1 $27 forward single T -64.960663310341843 -47.492318457249482 -120 -64.960663310341843 47.492318457249482 0 F #
-17 loop $-1 -1 -1 $-1 $-1 $28 $11 T -64.960663310341843 -47.492318457249482 -120 64.960663310341843 -47.492318457249482 0 unknown #
-18 plane-surface $-1 -1 -1 $-1 -64.960663310341843 -47.492318457249482 -120 0 -1 0 0 0 -1000 forward_v I I I I #
-19 coedge $-1 -1 -1 $-1 $29 $30 $31 $32 forward $12 $-1 #
-20 coedge $-1 -1 -1 $-1 $33 $14 $34 $35 forward $8 $-1 #
-21 coedge $-1 -1 -1 $-1 $14 $33 $36 $37 reversed $8 $-1 #
-22 coedge $-1 -1 -1 $-1 $38 $38 $14 $23 forward $39 $-1 #
-23 edge $-1 -1 -1 $-1 $40 -3.1415926535897931 $41 0 $22 $42 forward @7 unknown T -44.676199599198938 -3.3673837161376081 -120 -10.951566137395341 13.494933014764193 -120 #
-24 integer_attrib-name_attrib-gen-attrib $-1 -1 $-1 $-1 $16 2 1 2 1 1 1 1 1 1 1 1 1 1 1 0 1 1 1 @15 基体零件-demo-1 0 #
-25 face $43 -1 -1 $-1 $44 $45 $4 $-1 $46 forward single T -64.960663310341843 47.492318457249482 -120 64.960663310341843 47.492318457249482 0 F #
-26 loop $-1 -1 -1 $-1 $-1 $47 $16 T -64.960663310341843 -47.492318457249482 -120 -64.960663310341843 47.492318457249482 0 unknown #
-27 plane-surface $-1 -1 -1 $-1 -64.960663310341843 47.492318457249482 -120 -1 0 0 0 0 1000 forward_v I I I I #
-28 coedge $-1 -1 -1 $-1 $48 $49 $50 $51 forward $17 $-1 #
-29 coedge $-1 -1 -1 $-1 $50 $19 $52 $53 forward $12 $-1 #
-30 coedge $-1 -1 -1 $-1 $19 $50 $54 $55 forward $12 $-1 #
-31 coedge $-1 -1 -1 $-1 $56 $57 $19 $32 reversed $45 $-1 #
-32 edge $-1 -1 -1 $-1 $58 0 $59 0.12 $19 $60 forward @7 unknown T 64.960663310341843 47.492318457249482 -120 64.960663310341843 47.492318457249482 0 #
-33 coedge $-1 -1 -1 $-1 $21 $20 $61 $62 reversed $8 $-1 #
-34 coedge $-1 -1 -1 $-1 $63 $64 $20 $35 reversed $65 $-1 #
-35 edge $-1 -1 -1 $-1 $40 0 $66 0.12 $20 $67 forward @7 unknown T -44.676199599198938 13.494933014764193 -120 -44.676199599198938 13.494933014764193 0 #
-36 coedge $-1 -1 -1 $-1 $64 $63 $21 $37 forward $65 $-1 #
-37 edge $-1 -1 -1 $-1 $41 0 $68 0.12 $36 $69 forward @7 unknown T -10.951566137395341 13.494933014764191 -120 -10.951566137395341 13.494933014764191 0 #
-38 coedge $-1 -1 -1 $-1 $22 $22 $63 $70 forward $39 $-1 #
-39 loop $-1 -1 -1 $-1 $71 $38 $72 T -44.676199599198938 -3.3673837161376081 -120 -10.951566137395341 30.357249745665989 -120 hole $73 T #
-40 vertex $-1 -1 -1 $-1 $35 $74 #
-41 vertex $-1 -1 -1 $-1 $23 $75 #
-42 ellipse-curve $-1 -1 -1 $-1 -27.813882868297142 13.494933014764191 -120 0 0 1 16.862316730901799 0 0 1 I I #
-43 integer_attrib-name_attrib-gen-attrib $-1 -1 $-1 $-1 $25 2 1 2 1 1 1 1 1 1 1 1 1 1 1 0 1 1 1 @15 基体零件-demo-1 0 #
-44 face $76 -1 -1 $-1 $77 $65 $4 $-1 $78 reversed single T -44.676199599198938 13.494933014764191 -120 -10.951566137395341 30.357249745665989 0 F #
-45 loop $-1 -1 -1 $-1 $-1 $79 $25 T -64.960663310341843 47.492318457249482 -120 64.960663310341843 47.492318457249482 0 unknown #
-46 plane-surface $-1 -1 -1 $-1 -64.960663310341843 47.492318457249482 -120 0 1 0 0 0 1000 forward_v I I I I #
-47 coedge $-1 -1 -1 $-1 $80 $81 $82 $83 forward $26 $-1 #
-48 coedge $-1 -1 -1 $-1 $82 $28 $84 $85 forward $17 $-1 #
-49 coedge $-1 -1 -1 $-1 $28 $82 $86 $87 forward $17 $-1 #
-50 coedge $-1 -1 -1 $-1 $30 $29 $28 $51 reversed $12 $-1 #
-51 edge $-1 -1 -1 $-1 $88 0 $89 0.12 $28 $90 forward @7 unknown T 64.960663310341843 -47.492318457249482 -120 64.960663310341843 -47.492318457249482 0 #
-52 coedge $-1 -1 -1 $-1 $91 $84 $29 $53 reversed $92 $-1 #
-53 edge $-1 -1 -1 $-1 $59 0 $89 0.09498463691449896 $29 $93 forward @7 unknown T 64.960663310341843 -47.492318457249482 0 64.960663310341843 47.492318457249482 0 #
-54 coedge $-1 -1 -1 $-1 $86 $94 $30 $55 reversed $71 $-1 #
-55 edge $-1 -1 -1 $-1 $88 -0.09498463691449896 $58 0 $30 $95 forward @7 unknown T 64.960663310341843 -47.492318457249482 -120 64.960663310341843 47.492318457249482 -120 #
-56 coedge $-1 -1 -1 $-1 $79 $31 $94 $96 forward $45 $-1 #
-57 coedge $-1 -1 -1 $-1 $31 $79 $91 $97 forward $45 $-1 #
-58 vertex $-1 -1 -1 $-1 $32 $98 #
-59 vertex $-1 -1 -1 $-1 $97 $99 #
-60 straight-curve $-1 -1 -1 $-1 64.960663310341843 47.492318457249482 -120 0 0 1000 I I #
-61 coedge $-1 -1 -1 $-1 $100 $100 $33 $62 forward $101 $-1 #
-62 edge $-1 -1 -1 $-1 $68 0 $66 3.1415926535897931 $61 $102 forward @7 unknown T -44.676199599198938 -3.3673837161376081 0 -10.951566137395341 13.494933014764193 0 #
-63 coedge $-1 -1 -1 $-1 $36 $34 $38 $70 reversed $65 $-1 #
-64 coedge $-1 -1 -1 $-1 $34 $36 $100 $103 reversed $65 $-1 #
-65 loop $-1 -1 -1 $-1 $-1 $34 $44 T -44.676199599198938 13.494933014764191 -120 -10.951566137395341 30.357249745665989 0 periphery $78 T #
-66 vertex $-1 -1 -1 $-1 $35 $104 #
-67 straight-curve $-1 -1 -1 $-1 -44.676199599198938 13.494933014764193 -120 0 0 1000 I I #
-68 vertex $-1 -1 -1 $-1 $103 $105 #
-69 straight-curve $-1 -1 -1 $-1 -10.951566137395341 13.494933014764191 -120 0 0 1000 I I #
-70 edge $-1 -1 -1 $-1 $41 0 $40 3.1415926535897931 $38 $106 forward @7 unknown T -44.676199599198938 13.494933014764191 -120 -10.951566137395341 30.357249745665989 -120 #
-71 loop $-1 -1 -1 $-1 $-1 $54 $72 T -64.960663310341843 -47.492318457249482 -120 64.960663310341843 47.492318457249482 -120 periphery $73 T #
-72 face $107 -1 -1 $-1 $108 $109 $4 $-1 $73 reversed single T -64.960663310341843 -47.492318457249482 -120 64.960663310341843 47.492318457249482 -120 F #
-73 plane-surface $-1 -1 -1 $-1 0 0 -120 0 0 1 1000 0 0 forward_v I I I I #
-74 point $-1 -1 -1 $-1 -44.676199599198938 13.494933014764193 -120 #
-75 point $-1 -1 -1 $-1 -10.951566137395341 13.494933014764191 -120 #
-76 integer_attrib-name_attrib-gen-attrib $-1 -1 $-1 $-1 $44 2 1 2 1 1 1 1 1 1 1 1 1 1 1 0 1 1 1 @15 基体零件-demo-1 0 #
-77 face $110 -1 -1 $-1 $111 $112 $4 $-1 $113 reversed single T 47.403727280519725 -30.305002133318354 -120 47.403727280519725 -1.474665073820991 0 F #
-78 cone-surface $-1 -1 -1 $-1 -27.813882868297142 13.494933014764191 -120 0 0 1 16.862316730901799 0 0 1 I I 0 1 16.862316730901799 forward I I I I #
-79 coedge $-1 -1 -1 $-1 $57 $56 $114 $115 forward $45 $-1 #
-80 coedge $-1 -1 -1 $-1 $114 $47 $116 $117 forward $26 $-1 #
-81 coedge $-1 -1 -1 $-1 $47 $114 $118 $119 forward $26 $-1 #
-82 coedge $-1 -1 -1 $-1 $49 $48 $47 $83 reversed $17 $-1 #
-83 edge $-1 -1 -1 $-1 $120 0 $121 0.12 $47 $122 forward @7 unknown T -64.960663310341843 -47.492318457249482 -120 -64.960663310341843 -47.492318457249482 0 #
-84 coedge $-1 -1 -1 $-1 $52 $116 $48 $85 reversed $92 $-1 #
-85 edge $-1 -1 -1 $-1 $89 -0.12992132662068367 $121 0 $48 $123 forward @7 unknown T -64.960663310341843 -47.492318457249482 0 64.960663310341843 -47.492318457249482 0 #
-86 coedge $-1 -1 -1 $-1 $118 $54 $49 $87 reversed $71 $-1 #
-87 edge $-1 -1 -1 $-1 $120 0 $88 0.12992132662068367 $49 $124 forward @7 unknown T -64.960663310341843 -47.492318457249482 -120 64.960663310341843 -47.492318457249482 -120 #
-88 vertex $-1 -1 -1 $-1 $51 $125 #
-89 vertex $-1 -1 -1 $-1 $85 $126 #
-90 straight-curve $-1 -1 -1 $-1 64.960663310341843 -47.492318457249482 -120 0 0 1000 I I #
-91 coedge $-1 -1 -1 $-1 $116 $52 $57 $97 reversed $92 $-1 #
-92 loop $-1 -1 -1 $-1 $-1 $52 $108 T -64.960663310341843 -47.492318457249482 0 64.960663310341843 47.492318457249482 0 periphery $127 F #
-93 straight-curve $-1 -1 -1 $-1 64.960663310341843 47.492318457249482 0 0 -1000 0 I I #
-94 coedge $-1 -1 -1 $-1 $54 $118 $56 $96 reversed $71 $-1 #
-95 straight-curve $-1 -1 -1 $-1 64.960663310341843 47.492318457249482 -120 0 1000 0 I I #
-96 edge $-1 -1 -1 $-1 $58 -0.12992132662068367 $128 -0 $56 $129 forward @7 unknown T -64.960663310341843 47.492318457249482 -120 64.960663310341843 47.492318457249482 -120 #
-97 edge $-1 -1 -1 $-1 $130 0 $59 0.12992132662068367 $57 $131 forward @7 unknown T -64.960663310341843 47.492318457249482 0 64.960663310341843 47.492318457249482 0 #
-98 point $-1 -1 -1 $-1 64.960663310341843 47.492318457249482 -120 #
-99 point $-1 -1 -1 $-1 64.960663310341843 47.492318457249482 0 #
-100 coedge $-1 -1 -1 $-1 $61 $61 $64 $103 forward $101 $-1 #
-101 loop $-1 -1 -1 $-1 $132 $61 $108 T -44.676199599198938 -3.3673837161376081 0 -10.951566137395341 30.357249745665989 0 hole $127 F #
-102 ellipse-curve $-1 -1 -1 $-1 -27.813882868297142 13.494933014764191 0 -0 -0 -1 16.862316730901799 0 0 1 I I #
-103 edge $-1 -1 -1 $-1 $66 -3.1415926535897931 $68 0 $100 $133 forward @7 unknown T -44.676199599198938 13.494933014764191 0 -10.951566137395341 30.357249745665989 0 #
-104 point $-1 -1 -1 $-1 -44.676199599198938 13.494933014764193 0 #
-105 point $-1 -1 -1 $-1 -10.951566137395341 13.494933014764191 0 #
-106 ellipse-curve $-1 -1 -1 $-1 -27.813882868297142 13.494933014764191 -120 0 0 1 16.862316730901799 0 0 1 I I #
-107 integer_attrib-name_attrib-gen-attrib $-1 -1 $-1 $-1 $72 2 1 2 1 1 1 1 1 1 1 1 1 1 1 0 1 1 1 @15 基体零件-demo-1 0 #
-108 face $134 -1 -1 $-1 $-1 $101 $4 $-1 $127 forward single T -64.960663310341843 -47.492318457249482 0 64.960663310341843 47.492318457249482 0 T -0.064960663310341851 0.064960663310341851 -0.04749231845724948 0.04749231845724948 #
-109 loop $-1 -1 -1 $-1 $39 $135 $72 T 7.484799044292556 -30.305002133318354 -120 47.403727280519725 -1.474665073820991 -120 hole $73 T #
-110 integer_attrib-name_attrib-gen-attrib $-1 -1 $-1 $-1 $77 2 1 2 1 1 1 1 1 1 1 1 1 1 1 0 1 1 1 @15 基体零件-demo-1 0 #
-111 face $136 -1 -1 $-1 $137 $138 $4 $-1 $139 reversed single T 7.484799044292556 -30.305002133318354 -120 47.403727280519725 -30.305002133318354 0 F #
-112 loop $-1 -1 -1 $-1 $-1 $140 $77 T 47.403727280519725 -30.305002133318354 -120 47.403727280519725 -1.474665073820991 0 unknown #
-113 plane-surface $-1 -1 -1 $-1 47.403727280519725 -1.474665073820991 -120 1 0 0 0 0 -1000 forward_v I I I I #
-114 coedge $-1 -1 -1 $-1 $81 $80 $79 $115 reversed $26 $-1 #
-115 edge $-1 -1 -1 $-1 $128 0 $130 0.12 $79 $141 forward @7 unknown T -64.960663310341843 47.492318457249482 -120 -64.960663310341843 47.492318457249482 0 #
-116 coedge $-1 -1 -1 $-1 $84 $91 $80 $117 reversed $92 $-1 #
-117 edge $-1 -1 -1 $-1 $121 -0.09498463691449896 $130 0 $80 $142 forward @7 unknown T -64.960663310341843 -47.492318457249482 0 -64.960663310341843 47.492318457249482 0 #
-118 coedge $-1 -1 -1 $-1 $94 $86 $81 $119 reversed $71 $-1 #
-119 edge $-1 -1 -1 $-1 $128 0 $120 0.09498463691449896 $81 $143 forward @7 unknown T -64.960663310341843 -47.492318457249482 -120 -64.960663310341843 47.492318457249482 -120 #
-120 vertex $-1 -1 -1 $-1 $83 $144 #
-121 vertex $-1 -1 -1 $-1 $117 $145 #
-122 straight-curve $-1 -1 -1 $-1 -64.960663310341843 -47.492318457249482 -120 0 0 1000 I I #
-123 straight-curve $-1 -1 -1 $-1 -64.960663310341843 -47.492318457249482 0 -1000 0 0 I I #
-124 straight-curve $-1 -1 -1 $-1 -64.960663310341843 -47.492318457249482 -120 1000 0 0 I I #
-125 point $-1 -1 -1 $-1 64.960663310341843 -47.492318457249482 -120 #
-126 point $-1 -1 -1 $-1 64.960663310341843 -47.492318457249482 0 #
-127 plane-surface $-1 -1 -1 $-1 0 0 0 0 0 1 1000 0 0 forward_v I I I I #
-128 vertex $-1 -1 -1 $-1 $115 $146 #
-129 straight-curve $-1 -1 -1 $-1 -64.960663310341843 47.492318457249482 -120 -1000 -0 -0 I I #
-130 vertex $-1 -1 -1 $-1 $97 $147 #
-131 straight-curve $-1 -1 -1 $-1 -64.960663310341843 47.492318457249482 0 1000 0 0 I I #
-132 loop $-1 -1 -1 $-1 $92 $148 $108 T 7.484799044292556 -30.305002133318354 0 47.403727280519725 -1.474665073820991 0 hole $127 F #
-133 ellipse-curve $-1 -1 -1 $-1 -27.813882868297142 13.494933014764191 0 -0 -0 -1 16.862316730901799 0 0 1 I I #
-134 integer_attrib-name_attrib-gen-attrib $-1 -1 $-1 $-1 $108 2 1 2 1 1 1 1 1 1 1 1 1 1 1 0 1 1 1 @15 基体零件-demo-1 0 #
-135 coedge $-1 -1 -1 $-1 $149 $150 $151 $152 forward $109 $-1 #
-136 integer_attrib-name_attrib-gen-attrib $-1 -1 $-1 $-1 $111 2 1 2 1 1 1 1 1 1 1 1 1 1 1 0 1 1 1 @15 基体零件-demo-1 0 #
-137 face $153 -1 -1 $-1 $154 $155 $4 $-1 $156 reversed single T 7.484799044292556 -30.305002133318354 -120 7.484799044292556 -1.474665073820991 0 F #
-138 loop $-1 -1 -1 $-1 $-1 $157 $111 T 7.484799044292556 -30.305002133318354 -120 47.403727280519725 -30.305002133318354 0 unknown #
-139 plane-surface $-1 -1 -1 $-1 7.484799044292556 -30.305002133318354 -120 0 -1 0 0 0 -1000 forward_v I I I I #
-140 coedge $-1 -1 -1 $-1 $158 $159 $160 $161 reversed $112 $-1 #
-141 straight-curve $-1 -1 -1 $-1 -64.960663310341843 47.492318457249482 -120 0 0 1000 I I #
-142 straight-curve $-1 -1 -1 $-1 -64.960663310341843 47.492318457249482 0 0 1000 0 I I #
-143 straight-curve $-1 -1 -1 $-1 -64.960663310341843 47.492318457249482 -120 0 -1000 0 I I #
-144 point $-1 -1 -1 $-1 -64.960663310341843 -47.492318457249482 -120 #
-145 point $-1 -1 -1 $-1 -64.960663310341843 -47.492318457249482 0 #
-146 point $-1 -1 -1 $-1 -64.960663310341843 47.492318457249482 -120 #
-147 point $-1 -1 -1 $-1 -64.960663310341843 47.492318457249482 0 #
-148 coedge $-1 -1 -1 $-1 $160 $162 $163 $164 forward $132 $-1 #
-149 coedge $-1 -1 -1 $-1 $165 $135 $166 $167 forward $109 $-1 #
-150 coedge $-1 -1 -1 $-1 $135 $165 $168 $169 forward $109 $-1 #
-151 coedge $-1 -1 -1 $-1 $170 $171 $135 $152 reversed $138 $-1 #
-152 edge $-1 -1 -1 $-1 $172 0 $173 0.039918928236227169 $135 $174 forward @7 unknown T 7.484799044292556 -30.305002133318354 -120 47.403727280519725 -30.305002133318354 -120 #
-153 integer_attrib-name_attrib-gen-attrib $-1 -1 $-1 $-1 $137 2 1 2 1 1 1 1 1 1 1 1 1 1 1 0 1 1 1 @15 基体零件-demo-1 0 #
-154 face $175 -1 -1 $-1 $72 $176 $4 $-1 $177 reversed single T 7.484799044292556 -1.474665073820991 -120 47.403727280519725 -1.474665073820991 0 F #
-155 loop $-1 -1 -1 $-1 $-1 $178 $137 T 7.484799044292556 -30.305002133318354 -120 7.484799044292556 -1.474665073820991 0 unknown #
-156 plane-surface $-1 -1 -1 $-1 7.484799044292556 -1.474665073820991 -120 -1 0 0 0 0 1000 forward_v I I I I #
-157 coedge $-1 -1 -1 $-1 $171 $170 $179 $180 reversed $138 $-1 #
-158 coedge $-1 -1 -1 $-1 $166 $140 $181 $182 reversed $112 $-1 #
-159 coedge $-1 -1 -1 $-1 $140 $166 $171 $183 forward $112 $-1 #
-160 coedge $-1 -1 -1 $-1 $179 $148 $140 $161 forward $132 $-1 #
-161 edge $-1 -1 -1 $-1 $184 0 $185 0.028830337059497363 $160 $186 forward @7 unknown T 47.403727280519725 -30.305002133318354 0 47.403727280519725 -1.474665073820991 0 #
-162 coedge $-1 -1 -1 $-1 $148 $179 $178 $187 forward $132 $-1 #
-163 coedge $-1 -1 -1 $-1 $188 $181 $148 $164 reversed $176 $-1 #
-164 edge $-1 -1 -1 $-1 $189 0 $184 0.039918928236227169 $148 $190 forward @7 unknown T 7.484799044292556 -1.474665073820991 0 47.403727280519725 -1.474665073820991 0 #
-165 coedge $-1 -1 -1 $-1 $150 $149 $191 $192 forward $109 $-1 #
-166 coedge $-1 -1 -1 $-1 $159 $158 $149 $167 reversed $112 $-1 #
-167 edge $-1 -1 -1 $-1 $173 -0.028830337059497363 $193 0 $149 $194 forward @7 unknown T 47.403727280519725 -30.305002133318354 -120 47.403727280519725 -1.474665073820991 -120 #
-168 coedge $-1 -1 -1 $-1 $195 $196 $150 $169 reversed $155 $-1 #
-169 edge $-1 -1 -1 $-1 $197 0 $172 0.028830337059497363 $150 $198 forward @7 unknown T 7.484799044292556 -30.305002133318354 -120 7.484799044292556 -1.474665073820991 -120 #
-170 coedge $-1 -1 -1 $-1 $157 $151 $196 $199 forward $138 $-1 #
-171 coedge $-1 -1 -1 $-1 $151 $157 $159 $183 reversed $138 $-1 #
-172 vertex $-1 -1 -1 $-1 $199 $200 #
-173 vertex $-1 -1 -1 $-1 $183 $201 #
-174 straight-curve $-1 -1 -1 $-1 7.484799044292556 -30.305002133318354 -120 1000 0 0 I I #
-175 integer_attrib-name_attrib-gen-attrib $-1 -1 $-1 $-1 $154 2 1 2 1 1 1 1 1 1 1 1 1 1 1 0 1 1 1 @15 基体零件-demo-1 0 #
-176 loop $-1 -1 -1 $-1 $-1 $163 $154 T 7.484799044292556 -1.474665073820991 -120 47.403727280519725 -1.474665073820991 0 unknown #
-177 plane-surface $-1 -1 -1 $-1 7.484799044292556 -1.474665073820991 -120 0 1 0 0 0 1000 forward_v I I I I #
-178 coedge $-1 -1 -1 $-1 $196 $195 $162 $187 reversed $155 $-1 #
-179 coedge $-1 -1 -1 $-1 $162 $160 $157 $180 forward $132 $-1 #
-180 edge $-1 -1 -1 $-1 $185 -0.039918928236227169 $202 0 $179 $203 forward @7 unknown T 7.484799044292556 -30.305002133318354 0 47.403727280519725 -30.305002133318354 0 #
-181 coedge $-1 -1 -1 $-1 $163 $191 $158 $182 forward $176 $-1 #
-182 edge $-1 -1 -1 $-1 $193 0 $184 0.12 $181 $204 forward @7 unknown T 47.403727280519725 -1.474665073820991 -120 47.403727280519725 -1.474665073820991 0 #
-183 edge $-1 -1 -1 $-1 $173 0 $185 0.12 $159 $205 forward @7 unknown T 47.403727280519725 -30.305002133318354 -120 47.403727280519725 -30.305002133318354 0 #
-184 vertex $-1 -1 -1 $-1 $182 $206 #
-185 vertex $-1 -1 -1 $-1 $183 $207 #
-186 straight-curve $-1 -1 -1 $-1 47.403727280519725 -1.474665073820991 0 0 -1000 0 I I #
-187 edge $-1 -1 -1 $-1 $202 -0.028830337059497363 $189 0 $162 $208 forward @7 unknown T 7.484799044292556 -30.305002133318354 0 7.484799044292556 -1.474665073820991 0 #
-188 coedge $-1 -1 -1 $-1 $191 $163 $195 $209 reversed $176 $-1 #
-189 vertex $-1 -1 -1 $-1 $209 $210 #
-190 straight-curve $-1 -1 -1 $-1 7.484799044292556 -1.474665073820991 0 1000 0 0 I I #
-191 coedge $-1 -1 -1 $-1 $181 $188 $165 $192 reversed $176 $-1 #
-192 edge $-1 -1 -1 $-1 $193 -0.039918928236227169 $197 -0 $165 $211 forward @7 unknown T 7.484799044292556 -1.474665073820991 -120 47.403727280519725 -1.474665073820991 -120 #
-193 vertex $-1 -1 -1 $-1 $182 $212 #
-194 straight-curve $-1 -1 -1 $-1 47.403727280519725 -1.474665073820991 -120 0 1000 0 I I #
-195 coedge $-1 -1 -1 $-1 $178 $168 $188 $209 forward $155 $-1 #
-196 coedge $-1 -1 -1 $-1 $168 $178 $170 $199 reversed $155 $-1 #
-197 vertex $-1 -1 -1 $-1 $169 $213 #
-198 straight-curve $-1 -1 -1 $-1 7.484799044292556 -1.474665073820991 -120 0 -1000 0 I I #
-199 edge $-1 -1 -1 $-1 $172 0 $202 0.12 $170 $214 forward @7 unknown T 7.484799044292556 -30.305002133318354 -120 7.484799044292556 -30.305002133318354 0 #
-200 point $-1 -1 -1 $-1 7.484799044292556 -30.305002133318354 -120 #
-201 point $-1 -1 -1 $-1 47.403727280519725 -30.305002133318354 -120 #
-202 vertex $-1 -1 -1 $-1 $199 $215 #
-203 straight-curve $-1 -1 -1 $-1 7.484799044292556 -30.305002133318354 0 -1000 0 0 I I #
-204 straight-curve $-1 -1 -1 $-1 47.403727280519725 -1.474665073820991 -120 0 0 1000 I I #
-205 straight-curve $-1 -1 -1 $-1 47.403727280519725 -30.305002133318354 -120 0 0 1000 I I #
-206 point $-1 -1 -1 $-1 47.403727280519725 -1.474665073820991 0 #
-207 point $-1 -1 -1 $-1 47.403727280519725 -30.305002133318354 0 #
-208 straight-curve $-1 -1 -1 $-1 7.484799044292556 -1.474665073820991 0 0 1000 0 I I #
-209 edge $-1 -1 -1 $-1 $197 0 $189 0.12 $195 $216 forward @7 unknown T 7.484799044292556 -1.474665073820991 -120 7.484799044292556 -1.474665073820991 0 #
-210 point $-1 -1 -1 $-1 7.484799044292556 -1.474665073820991 0 #
-211 straight-curve $-1 -1 -1 $-1 7.484799044292556 -1.474665073820991 -120 -1000 -0 -0 I I #
-212 point $-1 -1 -1 $-1 47.403727280519725 -1.474665073820991 -120 #
-213 point $-1 -1 -1 $-1 7.484799044292556 -1.474665073820991 -120 #
-214 straight-curve $-1 -1 -1 $-1 7.484799044292556 -30.305002133318354 -120 0 0 1000 I I #
-215 point $-1 -1 -1 $-1 7.484799044292556 -30.305002133318354 0 #
-216 straight-curve $-1 -1 -1 $-1 7.484799044292556 -1.474665073820991 -120 0 0 1000 I I #
End-of-ACIS-data 