2300 0 1 0           
19 Example Application 12 ACIS 23.0 NT 24 Thu Oct 16 08:52:43 2014 
1 9.9999999999999995e-007 1e-010 
-0 body $1 -1 -1 $-1 $2 $-1 $-1 T -38.597100048442265 0 -38.597100048442265 38.597100048442265 47 38.597100048442265 #
-1 name_attrib-gen-attrib $-1 -1 $-1 $-1 $0 2 1 1 1 1 1 1 1 1 1 1 1 1 1 0 1 1 1 @6 part22 #
-2 lump $3 -1 -1 $-1 $-1 $4 $0 T -38.597100048442265 0 -38.597100048442265 38.597100048442265 47 38.597100048442265 #
-3 rgb_color-st-attrib $-1 -1 $-1 $-1 $2 2 1 2 1 1 1 1 1 1 1 1 1 1 1 0 1 1 1 0.792156862745098 0.81960784313725488 0.93333333333333335 #
-4 shell $-1 -1 -1 $-1 $-1 $-1 $5 $-1 $2 T -38.597100048442265 0 -38.597100048442265 38.597100048442265 47 38.597100048442265 #
-5 face $-1 -1 -1 $-1 $6 $7 $4 $-1 $8 forward single T -15 47 -15 15 47 15 F #
-6 face $9 -1 -1 $-1 $10 $11 $4 $-1 $12 reversed single T -8 0 -8 9.7971743931788257e-016 47 8 F #
-7 loop $-1 -1 -1 $-1 $13 $14 $5 T -15 47 -15 15 47 15 unknown #
-8 plane-surface $-1 -1 -1 $-1 -97.864749230769206 47 98.105446999999998 0 1 0 0 0 1 forward_v I I I I #
-9 integer_attrib-name_attrib-gen-attrib $-1 -1 $-1 $-1 $6 2 1 2 1 1 1 1 1 1 1 1 1 1 1 0 1 1 1 @10 凸台-拉伸6 0 #
-10 face $15 -1 -1 $-1 $16 $17 $4 $-1 $18 forward single T 0 20 -15 15 47 15 F #
-11 loop $-1 -1 -1 $-1 $-1 $19 $6 T -8 0 -8 9.7971743931788257e-016 47 8 unknown #
-12 cone-surface $-1 -1 -1 $-1 0 -20 0 0 1 0 0 0 8 1 I I 0 1 8 forward I I I I #
-13 loop $-1 -1 -1 $-1 $-1 $20 $5 T -8 47 -8 8 47 8 unknown #
-14 coedge $-1 -1 -1 $-1 $21 $21 $22 $23 forward $7 $-1 #
-15 integer_attrib-name_attrib-gen-attrib $-1 -1 $-1 $-1 $10 2 1 2 1 1 1 1 1 1 1 1 1 1 1 0 1 1 1 @10 凸台-拉伸6 0 #
-16 face $24 -1 -1 $-1 $25 $26 $4 $-1 $27 forward single T 0 0 -38.597100048442265 38.597100048442265 20 38.597100048442265 F #
-17 loop $-1 -1 -1 $-1 $-1 $22 $10 T 0 20 -15 15 47 15 unknown #
-18 cone-surface $-1 -1 -1 $-1 0 60 0 -0 -1 -0 0 0 -15 1 I I 0 1 15 forward I I I I #
-19 coedge $-1 -1 -1 $-1 $28 $29 $20 $30 reversed $11 $-1 #
-20 coedge $-1 -1 -1 $-1 $31 $31 $19 $30 forward $13 $-1 #
-21 coedge $-1 -1 -1 $-1 $14 $14 $32 $33 forward $7 $-1 #
-22 coedge $-1 -1 -1 $-1 $34 $35 $14 $23 reversed $17 $-1 #
-23 edge $-1 -1 -1 $-1 $36 -3.1415926535897931 $37 0 $22 $38 forward @7 unknown T 0 47 -15 15 47 15 #
-24 integer_attrib-name_attrib-gen-attrib $-1 -1 $-1 $-1 $16 2 1 2 1 1 1 1 1 1 1 1 1 1 1 0 1 1 1 @10 凸台-拉伸6 0 #
-25 face $39 -1 -1 $-1 $40 $41 $4 $-1 $42 reversed single T -5.9595458902842005 0 -32.987544962092478 1.8708779647243127e-012 20 -21.068453181520333 F #
-26 loop $-1 -1 -1 $-1 $-1 $43 $16 T 0 0 -38.597100048442265 38.597100048442265 20 38.597100048442265 periphery $27 F #
-27 cone-surface $-1 -1 -1 $-1 0 -20 0 0 1 0 0 0 38.597100048442265 1 I I 0 1 38.597100048442265 forward I I I I #
-28 coedge $-1 -1 -1 $-1 $44 $19 $45 $46 reversed $11 $-1 #
-29 coedge $-1 -1 -1 $-1 $19 $44 $47 $48 forward $11 $-1 #
-30 edge $-1 -1 -1 $-1 $49 0 $50 3.1415926535897931 $19 $51 forward @7 unknown T -8 47 -8 9.7971743931788257e-016 47 8 #
-31 coedge $-1 -1 -1 $-1 $20 $20 $52 $53 forward $13 $-1 #
-32 coedge $-1 -1 -1 $-1 $54 $55 $21 $33 reversed $56 $-1 #
-33 edge $-1 -1 -1 $-1 $37 0 $36 3.1415926535897931 $32 $57 forward @7 unknown T -15 47 -15 1.8369701987210296e-015 47 15 #
-34 coedge $-1 -1 -1 $-1 $58 $22 $55 $59 forward $17 $-1 #
-35 coedge $-1 -1 -1 $-1 $22 $58 $54 $60 reversed $17 $-1 #
-36 vertex $-1 -1 -1 $-1 $59 $61 #
-37 vertex $-1 -1 -1 $-1 $60 $62 #
-38 ellipse-curve $-1 -1 -1 $-1 0 47 0 0 1 0 0 0 -15 1 I I #
-39 integer_attrib-name_attrib-gen-attrib $-1 -1 $-1 $-1 $25 2 1 2 1 1 1 1 1 1 1 1 1 1 1 0 1 1 1 @10 凸台-拉伸6 0 #
-40 face $63 -1 -1 $-1 $64 $65 $4 $-1 $66 reversed single T 17.447387919359798 0 7.5544536456162321 23.40693380964737 20 19.473545426191379 F #
-41 loop $-1 -1 -1 $-1 $-1 $67 $25 T -5.9595458902842005 0 -32.987544962092478 1.8708779647243127e-012 20 -21.068453181520333 periphery $42 T #
-42 cone-surface $-1 -1 -1 $-1 1.8701481308444214e-012 -20 -27.027999071806406 0 1 0 0 0 5.959545890286071 1 I I 0 1 5.959545890286071 forward I I I I #
-43 coedge $-1 -1 -1 $-1 $68 $69 $70 $71 reversed $26 $-1 #
-44 coedge $-1 -1 -1 $-1 $29 $28 $72 $73 forward $11 $-1 #
-45 coedge $-1 -1 -1 $-1 $52 $74 $28 $46 forward $75 $-1 #
-46 edge $-1 -1 -1 $-1 $76 0.02 $49 0.067000000000000004 $45 $77 forward @7 unknown T 0 0 8 0 47 8 #
-47 coedge $-1 -1 -1 $-1 $74 $52 $29 $48 reversed $75 $-1 #
-48 edge $-1 -1 -1 $-1 $78 0.02 $50 0.067000000000000004 $29 $79 forward @7 unknown T 9.7971743931788257e-016 0 -8 9.7971743931788257e-016 47 -8 #
-49 vertex $-1 -1 -1 $-1 $30 $80 #
-50 vertex $-1 -1 -1 $-1 $30 $81 #
-51 ellipse-curve $-1 -1 -1 $-1 0 47 0 -0 -1 -0 0 0 8 1 I I #
-52 coedge $-1 -1 -1 $-1 $47 $45 $31 $53 reversed $75 $-1 #
-53 edge $-1 -1 -1 $-1 $50 -3.1415926535897931 $49 0 $52 $82 forward @7 unknown T 0 47 -8 8 47 8 #
-54 coedge $-1 -1 -1 $-1 $83 $32 $35 $60 forward $56 $-1 #
-55 coedge $-1 -1 -1 $-1 $32 $83 $34 $59 reversed $56 $-1 #
-56 loop $-1 -1 -1 $-1 $-1 $32 $84 T -15 20 -15 1.8369701987210296e-015 47 15 unknown #
-57 ellipse-curve $-1 -1 -1 $-1 0 47 0 0 1 0 0 0 -15 1 I I #
-58 coedge $-1 -1 -1 $-1 $35 $34 $85 $86 forward $17 $-1 #
-59 edge $-1 -1 -1 $-1 $36 0.012999999999999999 $87 0.040000000000000001 $34 $88 forward @7 unknown T 1.8369701987210296e-015 20 15 1.8369701987210296e-015 47 15 #
-60 edge $-1 -1 -1 $-1 $37 0.012999999999999999 $89 0.040000000000000001 $54 $90 forward @7 unknown T 0 20 -15 0 47 -15 #
-61 point $-1 -1 -1 $-1 1.8369701987210296e-015 47 15 #
-62 point $-1 -1 -1 $-1 0 47 -15 #
-63 integer_attrib-name_attrib-gen-attrib $-1 -1 $-1 $-1 $40 2 1 2 1 1 1 1 1 1 1 1 1 1 1 0 1 1 1 @10 凸台-拉伸6 0 #
-64 face $91 -1 -1 $-1 $92 $93 $4 $-1 $94 reversed single T -29.366479699934033 0 7.5544536456143314 -23.406933809645782 20 19.473545426190835 F #
-65 loop $-1 -1 -1 $-1 $-1 $95 $40 T 17.447387919359798 0 7.5544536456162321 23.40693380964737 20 19.473545426191379 periphery $66 T #
-66 cone-surface $-1 -1 -1 $-1 23.40693380964737 -20 13.513999535903807 0 1 0 0 0 5.9595458902875729 1 I I 0 1 5.9595458902875729 forward I I I I #
-67 coedge $-1 -1 -1 $-1 $96 $97 $98 $99 forward $41 $-1 #
-68 coedge $-1 -1 -1 $-1 $100 $43 $101 $102 forward $26 $-1 #
-69 coedge $-1 -1 -1 $-1 $43 $100 $103 $104 reversed $26 $-1 #
-70 coedge $-1 -1 -1 $-1 $105 $105 $43 $71 forward $106 $-1 #
-71 edge $-1 -1 -1 $-1 $107 -3.1415926535897931 $108 0 $70 $109 forward @7 unknown T 0 0 -38.597100048442265 38.597100048442265 0 38.597100048442265 #
-72 coedge $-1 -1 -1 $-1 $110 $110 $44 $73 reversed $111 $-1 #
-73 edge $-1 -1 -1 $-1 $76 0 $78 3.1415926535897931 $44 $112 forward @7 unknown T -8 0 -8 9.7971743931788257e-016 0 8 #
-74 coedge $-1 -1 -1 $-1 $45 $47 $110 $113 forward $75 $-1 #
-75 loop $-1 -1 -1 $-1 $-1 $52 $114 T 0 0 -8 8 47 8 unknown #
-76 vertex $-1 -1 -1 $-1 $113 $115 #
-77 straight-curve $-1 -1 -1 $-1 0 -20 8 0 1000 0 I I #
-78 vertex $-1 -1 -1 $-1 $48 $116 #
-79 straight-curve $-1 -1 -1 $-1 9.7971743931788257e-016 -20 -8 0 1000 0 I I #
-80 point $-1 -1 -1 $-1 0 47 8 #
-81 point $-1 -1 -1 $-1 9.7971743931788257e-016 47 -8 #
-82 ellipse-curve $-1 -1 -1 $-1 0 47 0 -0 -1 -0 0 0 8 1 I I #
-83 coedge $-1 -1 -1 $-1 $55 $54 $117 $118 forward $56 $-1 #
-84 face $119 -1 -1 $-1 $-1 $56 $4 $-1 $120 forward single T -15 20 -15 1.8369701987210296e-015 47 15 F #
-85 coedge $-1 -1 -1 $-1 $117 $117 $58 $86 reversed $121 $-1 #
-86 edge $-1 -1 -1 $-1 $87 1.224646799147353e-016 $89 3.1415926535897931 $58 $122 forward @7 unknown T 0 20 -15 15 20 15 #
-87 vertex $-1 -1 -1 $-1 $59 $123 #
-88 straight-curve $-1 -1 -1 $-1 1.8369701987210296e-015 60 15 -0 -1000 -0 I I #
-89 vertex $-1 -1 -1 $-1 $86 $124 #
-90 straight-curve $-1 -1 -1 $-1 0 60 -15 -0 -1000 -0 I I #
-91 integer_attrib-name_attrib-gen-attrib $-1 -1 $-1 $-1 $64 2 1 2 1 1 1 1 1 1 1 1 1 1 1 0 1 1 1 @10 凸台-拉伸6 0 #
-92 face $125 -1 -1 $-1 $114 $126 $4 $-1 $127 reversed single T -38.597100048442265 0 -38.597100048442265 38.597100048442265 0 38.597100048442265 F #
-93 loop $-1 -1 -1 $-1 $-1 $128 $64 T -29.366479699934033 0 7.5544536456143314 -23.406933809645782 20 19.473545426190835 periphery $94 T #
-94 cone-surface $-1 -1 -1 $-1 -23.406933809645782 -20 13.513999535902583 0 1 0 0 0 5.9595458902882514 1 I I 0 1 5.9595458902882514 forward I I I I #
-95 coedge $-1 -1 -1 $-1 $129 $130 $131 $132 forward $65 $-1 #
-96 coedge $-1 -1 -1 $-1 $133 $67 $134 $135 forward $41 $-1 #
-97 coedge $-1 -1 -1 $-1 $67 $133 $136 $137 reversed $41 $-1 #
-98 coedge $-1 -1 -1 $-1 $138 $138 $67 $99 reversed $126 $-1 #
-99 edge $-1 -1 -1 $-1 $139 0 $140 3.1415926535897931 $67 $141 forward @7 unknown T -5.9595458902842005 0 -32.987544962092478 1.8708779647243127e-012 0 -21.068453181520333 #
-100 coedge $-1 -1 -1 $-1 $69 $68 $142 $143 reversed $26 $-1 #
-101 coedge $-1 -1 -1 $-1 $144 $145 $68 $102 reversed $146 $-1 #
-102 edge $-1 -1 -1 $-1 $107 0.02 $147 0.040000000000000001 $68 $148 forward @7 unknown T 4.7267815030694968e-015 0 -38.597100048442265 4.7267815030694968e-015 20 -38.597100048442265 #
-103 coedge $-1 -1 -1 $-1 $145 $144 $69 $104 forward $146 $-1 #
-104 edge $-1 -1 -1 $-1 $108 0.02 $149 0.040000000000000001 $103 $150 forward @7 unknown T 0 0 38.597100048442265 0 20 38.597100048442265 #
-105 coedge $-1 -1 -1 $-1 $70 $70 $144 $151 forward $106 $-1 #
-106 loop $-1 -1 -1 $-1 $111 $105 $92 T -38.597100048442265 0 -38.597100048442265 38.597100048442265 0 38.597100048442265 periphery $127 T #
-107 vertex $-1 -1 -1 $-1 $102 $152 #
-108 vertex $-1 -1 -1 $-1 $71 $153 #
-109 ellipse-curve $-1 -1 -1 $-1 0 0 0 -0 -1 -0 0 0 38.597100048442265 1 I I #
-110 coedge $-1 -1 -1 $-1 $72 $72 $74 $113 reversed $111 $-1 #
-111 loop $-1 -1 -1 $-1 $-1 $72 $92 T -8 0 -8 8 0 8 hole $127 T #
-112 ellipse-curve $-1 -1 -1 $-1 0 0 0 -0 -1 -0 0 0 8 1 I I #
-113 edge $-1 -1 -1 $-1 $78 -3.1415926535897931 $76 0 $74 $154 forward @7 unknown T 0 0 -8 8 0 8 #
-114 face $155 -1 -1 $-1 $156 $75 $4 $-1 $157 reversed single T 0 0 -8 8 47 8 F #
-115 point $-1 -1 -1 $-1 0 0 8 #
-116 point $-1 -1 -1 $-1 9.7971743931788257e-016 0 -8 #
-117 coedge $-1 -1 -1 $-1 $85 $85 $83 $118 reversed $121 $-1 #
-118 edge $-1 -1 -1 $-1 $89 -3.1415926535897931 $87 1.224646799147353e-016 $83 $158 forward @7 unknown T -15 20 -15 1.8369701987210296e-015 20 15 #
-119 integer_attrib-name_attrib-gen-attrib $-1 -1 $-1 $-1 $84 2 1 2 1 1 1 1 1 1 1 1 1 1 1 0 1 1 1 @10 凸台-拉伸6 0 #
-120 cone-surface $-1 -1 -1 $-1 0 60 0 -0 -1 -0 0 0 -15 1 I I 0 1 15 forward I I I I #
-121 loop $-1 -1 -1 $-1 $-1 $117 $159 T -15 20 -15 15 20 15 hole $160 F #
-122 ellipse-curve $-1 -1 -1 $-1 0 20 0 0 1 0 0 0 15 1 I I #
-123 point $-1 -1 -1 $-1 1.8369701987210296e-015 20 15 #
-124 point $-1 -1 -1 $-1 0 20 -15 #
-125 integer_attrib-name_attrib-gen-attrib $-1 -1 $-1 $-1 $92 2 1 2 1 1 1 1 1 1 1 1 1 1 1 0 1 1 1 @10 凸台-拉伸6 0 #
-126 loop $-1 -1 -1 $-1 $161 $98 $92 T -5.9595458902842005 0 -32.987544962092478 5.9595458902879415 0 -21.068453181520333 hole $127 T #
-127 plane-surface $-1 -1 -1 $-1 0 0 0 0 1 0 0 0 1000 forward_v I I I I #
-128 coedge $-1 -1 -1 $-1 $162 $163 $164 $165 forward $93 $-1 #
-129 coedge $-1 -1 -1 $-1 $166 $95 $167 $168 forward $65 $-1 #
-130 coedge $-1 -1 -1 $-1 $95 $166 $169 $170 reversed $65 $-1 #
-131 coedge $-1 -1 -1 $-1 $171 $171 $95 $132 reversed $172 $-1 #
-132 edge $-1 -1 -1 $-1 $173 0 $174 3.1415926535897931 $95 $175 forward @7 unknown T 17.447387919359798 0 7.5544536456162321 23.40693380964737 0 19.473545426191379 #
-133 coedge $-1 -1 -1 $-1 $97 $96 $176 $177 forward $41 $-1 #
-134 coedge $-1 -1 -1 $-1 $178 $179 $96 $135 reversed $180 $-1 #
-135 edge $-1 -1 -1 $-1 $140 0.02 $181 0.040000000000000001 $96 $182 forward @7 unknown T 1.8708779647243127e-012 0 -32.987544962092478 1.8708779647243127e-012 20 -32.987544962092478 #
-136 coedge $-1 -1 -1 $-1 $179 $178 $97 $137 forward $180 $-1 #
-137 edge $-1 -1 -1 $-1 $139 0.02 $183 0.040000000000000001 $136 $184 forward @7 unknown T 1.8701481308444214e-012 0 -21.068453181520333 1.8701481308444214e-012 20 -21.068453181520333 #
-138 coedge $-1 -1 -1 $-1 $98 $98 $178 $185 reversed $126 $-1 #
-139 vertex $-1 -1 -1 $-1 $185 $186 #
-140 vertex $-1 -1 -1 $-1 $135 $187 #
-141 ellipse-curve $-1 -1 -1 $-1 1.8701481308444214e-012 0 -27.027999071806406 -0 -1 -0 0 0 5.959545890286071 1 I I #
-142 coedge $-1 -1 -1 $-1 $188 $188 $100 $143 forward $189 $-1 #
-143 edge $-1 -1 -1 $-1 $149 0 $147 3.1415926535897931 $142 $190 forward @7 unknown T 0 20 -38.597100048442265 38.597100048442265 20 38.597100048442265 #
-144 coedge $-1 -1 -1 $-1 $103 $101 $105 $151 reversed $146 $-1 #
-145 coedge $-1 -1 -1 $-1 $101 $103 $188 $191 reversed $146 $-1 #
-146 loop $-1 -1 -1 $-1 $-1 $101 $156 T -38.597100048442265 0 -38.597100048442265 4.7267815030694968e-015 20 38.597100048442265 periphery $192 F #
-147 vertex $-1 -1 -1 $-1 $102 $193 #
-148 straight-curve $-1 -1 -1 $-1 4.7267815030694968e-015 -20 -38.597100048442265 0 1000 0 I I #
-149 vertex $-1 -1 -1 $-1 $191 $194 #
-150 straight-curve $-1 -1 -1 $-1 0 -20 38.597100048442265 0 1000 0 I I #
-151 edge $-1 -1 -1 $-1 $108 0 $107 3.1415926535897931 $105 $195 forward @7 unknown T -38.597100048442265 0 -38.597100048442265 4.7267815030694968e-015 0 38.597100048442265 #
-152 point $-1 -1 -1 $-1 4.7267815030694968e-015 0 -38.597100048442265 #
-153 point $-1 -1 -1 $-1 0 0 38.597100048442265 #
-154 ellipse-curve $-1 -1 -1 $-1 0 0 0 -0 -1 -0 0 0 8 1 I I #
-155 integer_attrib-name_attrib-gen-attrib $-1 -1 $-1 $-1 $114 2 1 2 1 1 1 1 1 1 1 1 1 1 1 0 1 1 1 @10 凸台-拉伸6 0 #
-156 face $196 -1 -1 $-1 $197 $146 $4 $-1 $192 forward single T -38.597100048442265 0 -38.597100048442265 4.7267815030694968e-015 20 38.597100048442265 F #
-157 cone-surface $-1 -1 -1 $-1 0 -20 0 0 1 0 0 0 8 1 I I 0 1 8 forward I I I I #
-158 ellipse-curve $-1 -1 -1 $-1 0 20 0 0 1 0 0 0 15 1 I I #
-159 face $198 -1 -1 $-1 $84 $199 $4 $-1 $160 forward single T -38.597100048442265 20 -38.597100048442265 38.597100048442265 20 38.597100048442265 F #
-160 plane-surface $-1 -1 -1 $-1 0 20 0 0 1 0 0 0 1000 forward_v I I I I #
-161 loop $-1 -1 -1 $-1 $172 $164 $92 T -29.366479699934033 0 7.5544536456143314 -17.447387919357531 0 19.473545426190835 hole $127 T #
-162 coedge $-1 -1 -1 $-1 $200 $128 $201 $202 forward $93 $-1 #
-163 coedge $-1 -1 -1 $-1 $128 $200 $203 $204 reversed $93 $-1 #
-164 coedge $-1 -1 -1 $-1 $205 $205 $128 $165 reversed $161 $-1 #
-165 edge $-1 -1 -1 $-1 $206 0 $207 3.1415926535897931 $128 $208 forward @7 unknown T -29.366479699934033 0 7.5544536456143314 -23.406933809645782 0 19.473545426190835 #
-166 coedge $-1 -1 -1 $-1 $130 $129 $209 $210 forward $65 $-1 #
-167 coedge $-1 -1 -1 $-1 $211 $212 $129 $168 reversed $213 $-1 #
-168 edge $-1 -1 -1 $-1 $174 0.02 $214 0.040000000000000001 $129 $215 forward @7 unknown T 23.40693380964737 0 7.5544536456162321 23.40693380964737 20 7.5544536456162321 #
-169 coedge $-1 -1 -1 $-1 $212 $211 $130 $170 forward $213 $-1 #
-170 edge $-1 -1 -1 $-1 $173 0.02 $216 0.040000000000000001 $169 $217 forward @7 unknown T 23.40693380964737 0 19.473545426191379 23.40693380964737 20 19.473545426191379 #
-171 coedge $-1 -1 -1 $-1 $131 $131 $211 $218 reversed $172 $-1 #
-172 loop $-1 -1 -1 $-1 $106 $131 $92 T 17.447387919359798 0 7.5544536456162321 29.366479699934942 0 19.473545426191379 hole $127 T #
-173 vertex $-1 -1 -1 $-1 $218 $219 #
-174 vertex $-1 -1 -1 $-1 $168 $220 #
-175 ellipse-curve $-1 -1 -1 $-1 23.40693380964737 0 13.513999535903807 -0 -1 -0 0 0 5.9595458902875729 1 I I #
-176 coedge $-1 -1 -1 $-1 $221 $221 $133 $177 reversed $222 $-1 #
-177 edge $-1 -1 -1 $-1 $181 -3.1415926535897931 $183 0 $133 $223 forward @7 unknown T -5.9595458902842005 20 -32.987544962092478 1.8708779647243127e-012 20 -21.068453181520333 #
-178 coedge $-1 -1 -1 $-1 $136 $134 $138 $185 forward $180 $-1 #
-179 coedge $-1 -1 -1 $-1 $134 $136 $221 $224 forward $180 $-1 #
-180 loop $-1 -1 -1 $-1 $-1 $134 $197 T 1.8701481308444214e-012 0 -32.987544962092478 5.9595458902879415 20 -21.068453181520333 periphery $225 T #
-181 vertex $-1 -1 -1 $-1 $135 $226 #
-182 straight-curve $-1 -1 -1 $-1 1.8708779647243127e-012 -20 -32.987544962092478 0 1000 0 I I #
-183 vertex $-1 -1 -1 $-1 $177 $227 #
-184 straight-curve $-1 -1 -1 $-1 1.8701481308444214e-012 -20 -21.068453181520333 0 1000 0 I I #
-185 edge $-1 -1 -1 $-1 $140 -3.1415926535897931 $139 0 $178 $228 forward @7 unknown T 1.8701481308444214e-012 0 -32.987544962092478 5.9595458902879415 0 -21.068453181520333 #
-186 point $-1 -1 -1 $-1 1.8701481308444214e-012 0 -21.068453181520333 #
-187 point $-1 -1 -1 $-1 1.8708779647243127e-012 0 -32.987544962092478 #
-188 coedge $-1 -1 -1 $-1 $142 $142 $145 $191 forward $189 $-1 #
-189 loop $-1 -1 -1 $-1 $229 $142 $159 T -38.597100048442265 20 -38.597100048442265 38.597100048442265 20 38.597100048442265 periphery $160 F #
-190 ellipse-curve $-1 -1 -1 $-1 0 20 0 0 1 0 0 0 38.597100048442265 1 I I #
-191 edge $-1 -1 -1 $-1 $147 -3.1415926535897931 $149 0 $188 $230 forward @7 unknown T -38.597100048442265 20 -38.597100048442265 4.7267815030694968e-015 20 38.597100048442265 #
-192 cone-surface $-1 -1 -1 $-1 0 -20 0 0 1 0 0 0 38.597100048442265 1 I I 0 1 38.597100048442265 forward I I I I #
-193 point $-1 -1 -1 $-1 4.7267815030694968e-015 20 -38.597100048442265 #
-194 point $-1 -1 -1 $-1 0 20 38.597100048442265 #
-195 ellipse-curve $-1 -1 -1 $-1 0 0 0 -0 -1 -0 0 0 38.597100048442265 1 I I #
-196 integer_attrib-name_attrib-gen-attrib $-1 -1 $-1 $-1 $156 2 1 2 1 1 1 1 1 1 1 1 1 1 1 0 1 1 1 @10 凸台-拉伸6 0 #
-197 face $231 -1 -1 $-1 $232 $180 $4 $-1 $225 reversed single T 1.8701481308444214e-012 0 -32.987544962092478 5.9595458902879415 20 -21.068453181520333 F #
-198 integer_attrib-name_attrib-gen-attrib $-1 -1 $-1 $-1 $159 2 1 2 1 1 1 1 1 1 1 1 1 1 1 0 1 1 1 @10 凸台-拉伸6 0 #
-199 loop $-1 -1 -1 $-1 $222 $233 $159 T -29.366479699934033 20 7.5544536456143314 -17.447387919357531 20 19.473545426190835 hole $160 F #
-200 coedge $-1 -1 -1 $-1 $163 $162 $234 $235 forward $93 $-1 #
-201 coedge $-1 -1 -1 $-1 $236 $237 $162 $202 reversed $238 $-1 #
-202 edge $-1 -1 -1 $-1 $207 0.02 $239 0.040000000000000001 $162 $240 forward @7 unknown T -23.406933809645782 0 7.5544536456143323 -23.406933809645782 20 7.5544536456143323 #
-203 coedge $-1 -1 -1 $-1 $237 $236 $163 $204 forward $238 $-1 #
-204 edge $-1 -1 -1 $-1 $206 0.02 $241 0.040000000000000001 $203 $242 forward @7 unknown T -23.406933809645782 0 19.473545426190835 -23.406933809645782 20 19.473545426190835 #
-205 coedge $-1 -1 -1 $-1 $164 $164 $236 $243 reversed $161 $-1 #
-206 vertex $-1 -1 -1 $-1 $243 $244 #
-207 vertex $-1 -1 -1 $-1 $202 $245 #
-208 ellipse-curve $-1 -1 -1 $-1 -23.406933809645782 0 13.513999535902583 -0 -1 -0 0 0 5.9595458902882514 1 I I #
-209 coedge $-1 -1 -1 $-1 $246 $246 $166 $210 reversed $229 $-1 #
-210 edge $-1 -1 -1 $-1 $214 -3.1415926535897931 $216 0 $166 $247 forward @7 unknown T 17.447387919359798 20 7.5544536456162321 23.40693380964737 20 19.473545426191379 #
-211 coedge $-1 -1 -1 $-1 $169 $167 $171 $218 forward $213 $-1 #
-212 coedge $-1 -1 -1 $-1 $167 $169 $246 $248 forward $213 $-1 #
-213 loop $-1 -1 -1 $-1 $-1 $167 $232 T 23.40693380964737 0 7.5544536456162321 29.366479699934942 20 19.473545426191379 periphery $249 T #
-214 vertex $-1 -1 -1 $-1 $168 $250 #
-215 straight-curve $-1 -1 -1 $-1 23.40693380964737 -20 7.5544536456162321 0 1000 0 I I #
-216 vertex $-1 -1 -1 $-1 $210 $251 #
-217 straight-curve $-1 -1 -1 $-1 23.40693380964737 -20 19.473545426191379 0 1000 0 I I #
-218 edge $-1 -1 -1 $-1 $174 -3.1415926535897931 $173 0 $211 $252 forward @7 unknown T 23.40693380964737 0 7.5544536456162321 29.366479699934942 0 19.473545426191379 #
-219 point $-1 -1 -1 $-1 23.40693380964737 0 19.473545426191379 #
-220 point $-1 -1 -1 $-1 23.40693380964737 0 7.5544536456162321 #
-221 coedge $-1 -1 -1 $-1 $176 $176 $179 $224 reversed $222 $-1 #
-222 loop $-1 -1 -1 $-1 $189 $221 $159 T -5.9595458902842005 20 -32.987544962092478 5.9595458902879415 20 -21.068453181520333 hole $160 F #
-223 ellipse-curve $-1 -1 -1 $-1 1.8701481308444214e-012 20 -27.027999071806406 0 1 0 0 0 5.959545890286071 1 I I #
-224 edge $-1 -1 -1 $-1 $183 0 $181 3.1415926535897931 $179 $253 forward @7 unknown T 1.8701481308444214e-012 20 -32.987544962092478 5.9595458902879415 20 -21.068453181520333 #
-225 cone-surface $-1 -1 -1 $-1 1.8701481308444214e-012 -20 -27.027999071806406 0 1 0 0 0 5.959545890286071 1 I I 0 1 5.959545890286071 forward I I I I #
-226 point $-1 -1 -1 $-1 1.8708779647243127e-012 20 -32.987544962092478 #
-227 point $-1 -1 -1 $-1 1.8701481308444214e-012 20 -21.068453181520333 #
-228 ellipse-curve $-1 -1 -1 $-1 1.8701481308444214e-012 0 -27.027999071806406 -0 -1 -0 0 0 5.959545890286071 1 I I #
-229 loop $-1 -1 -1 $-1 $121 $246 $159 T 17.447387919359798 20 7.5544536456162321 29.366479699934942 20 19.473545426191379 hole $160 F #
-230 ellipse-curve $-1 -1 -1 $-1 0 20 0 0 1 0 0 0 38.597100048442265 1 I I #
-231 integer_attrib-name_attrib-gen-attrib $-1 -1 $-1 $-1 $197 2 1 2 1 1 1 1 1 1 1 1 1 1 1 0 1 1 1 @10 凸台-拉伸6 0 #
-232 face $254 -1 -1 $-1 $255 $213 $4 $-1 $249 reversed single T 23.40693380964737 0 7.5544536456162321 29.366479699934942 20 19.473545426191379 F #
-233 coedge $-1 -1 -1 $-1 $234 $234 $237 $256 reversed $199 $-1 #
-234 coedge $-1 -1 -1 $-1 $233 $233 $200 $235 reversed $199 $-1 #
-235 edge $-1 -1 -1 $-1 $239 -3.1415926535897931 $241 0 $200 $257 forward @7 unknown T -29.366479699934033 20 7.5544536456143314 -23.406933809645782 20 19.473545426190835 #
-236 coedge $-1 -1 -1 $-1 $203 $201 $205 $243 forward $238 $-1 #
-237 coedge $-1 -1 -1 $-1 $201 $203 $233 $256 forward $238 $-1 #
-238 loop $-1 -1 -1 $-1 $-1 $201 $255 T -23.406933809645782 0 7.5544536456143314 -17.447387919357531 20 19.473545426190835 periphery $258 T #
-239 vertex $-1 -1 -1 $-1 $202 $259 #
-240 straight-curve $-1 -1 -1 $-1 -23.406933809645782 -20 7.5544536456143323 0 1000 0 I I #
-241 vertex $-1 -1 -1 $-1 $235 $260 #
-242 straight-curve $-1 -1 -1 $-1 -23.406933809645782 -20 19.473545426190835 0 1000 0 I I #
-243 edge $-1 -1 -1 $-1 $207 -3.1415926535897931 $206 0 $236 $261 forward @7 unknown T -23.406933809645782 0 7.5544536456143314 -17.447387919357531 0 19.473545426190835 #
-244 point $-1 -1 -1 $-1 -23.406933809645782 0 19.473545426190835 #
-245 point $-1 -1 -1 $-1 -23.406933809645782 0 7.5544536456143323 #
-246 coedge $-1 -1 -1 $-1 $209 $209 $212 $248 reversed $229 $-1 #
-247 ellipse-curve $-1 -1 -1 $-1 23.40693380964737 20 13.513999535903807 0 1 0 0 0 5.9595458902875729 1 I I #
-248 edge $-1 -1 -1 $-1 $216 0 $214 3.1415926535897931 $212 $262 forward @7 unknown T 23.40693380964737 20 7.5544536456162321 29.366479699934942 20 19.473545426191379 #
-249 cone-surface $-1 -1 -1 $-1 23.40693380964737 -20 13.513999535903807 0 1 0 0 0 5.9595458902875729 1 I I 0 1 5.9595458902875729 forward I I I I #
-250 point $-1 -1 -1 $-1 23.40693380964737 20 7.5544536456162321 #
-251 point $-1 -1 -1 $-1 23.40693380964737 20 19.473545426191379 #
-252 ellipse-curve $-1 -1 -1 $-1 23.40693380964737 0 13.513999535903807 -0 -1 -0 0 0 5.9595458902875729 1 I I #
-253 ellipse-curve $-1 -1 -1 $-1 1.8701481308444214e-012 20 -27.027999071806406 0 1 0 0 0 5.959545890286071 1 I I #
-254 integer_attrib-name_attrib-gen-attrib $-1 -1 $-1 $-1 $232 2 1 2 1 1 1 1 1 1 1 1 1 1 1 0 1 1 1 @10 凸台-拉伸6 0 #
-255 face $263 -1 -1 $-1 $159 $238 $4 $-1 $258 reversed single T -23.406933809645782 0 7.5544536456143314 -17.447387919357531 20 19.473545426190835 F #
-256 edge $-1 -1 -1 $-1 $241 0 $239 3.1415926535897931 $237 $264 forward @7 unknown T -23.406933809645782 20 7.5544536456143314 -17.447387919357531 20 19.473545426190835 #
-257 ellipse-curve $-1 -1 -1 $-1 -23.406933809645782 20 13.513999535902583 0 1 0 0 0 5.9595458902882514 1 I I #
-258 cone-surface $-1 -1 -1 $-1 -23.406933809645782 -20 13.513999535902583 0 1 0 0 0 5.9595458902882514 1 I I 0 1 5.9595458902882514 forward I I I I #
-259 point $-1 -1 -1 $-1 -23.406933809645782 20 7.5544536456143323 #
-260 point $-1 -1 -1 $-1 -23.406933809645782 20 19.473545426190835 #
-261 ellipse-curve $-1 -1 -1 $-1 -23.406933809645782 0 13.513999535902583 -0 -1 -0 0 0 5.9595458902882514 1 I I #
-262 ellipse-curve $-1 -1 -1 $-1 23.40693380964737 20 13.513999535903807 0 1 0 0 0 5.9595458902875729 1 I I #
-263 integer_attrib-name_attrib-gen-attrib $-1 -1 $-1 $-1 $255 2 1 2 1 1 1 1 1 1 1 1 1 1 1 0 1 1 1 @10 凸台-拉伸6 0 #
-264 ellipse-curve $-1 -1 -1 $-1 -23.406933809645782 20 13.513999535902583 0 1 0 0 0 5.9595458902882514 1 I I #
End-of-ACIS-data 