2300 0 1 0           
19 Example Application 12 ACIS 23.0 NT 24 Tue Dec 01 23:06:02 2015 
1 9.9999999999999995e-007 1e-010 
-0 body $1 -1 -1 $-1 $2 $-1 $-1 T -14.588011588478942 -14.588011588478942 -16.745000000000005 14.588011588478942 14.588011588478942 0 #
-1 name_attrib-gen-attrib $-1 -1 $-1 $-1 $0 2 1 1 1 1 1 1 1 1 1 1 1 1 1 0 1 1 1 @21 match part for holder #
-2 lump $3 -1 -1 $-1 $-1 $4 $0 T -14.588011588478942 -14.588011588478942 -16.745000000000005 14.588011588478942 14.588011588478942 0 #
-3 rgb_color-st-attrib $-1 -1 $-1 $-1 $2 2 1 2 1 1 1 1 1 1 1 1 1 1 1 0 1 1 1 0.792156862745098 0.81960784313725488 0.93333333333333335 #
-4 shell $-1 -1 -1 $-1 $-1 $-1 $5 $-1 $2 T -14.588011588478942 -14.588011588478942 -16.745000000000005 14.588011588478942 14.588011588478942 0 #
-5 face $6 -1 -1 $-1 $7 $8 $4 $-1 $9 reversed single T -11.616654285117232 -1.6999999999999984 -16.745000000000005 -8.2166542851172331 1.9429134318318569e-015 -11.745000000000003 F #
-6 integer_attrib-name_attrib-gen-attrib $-1 -1 $-1 $-1 $5 2 1 2 1 1 1 1 1 1 1 1 1 1 1 0 1 1 1 @17 基体零件-master-1 0 #
-7 face $10 -1 -1 $-1 $11 $12 $4 $-1 $13 reversed single T -11.616654285117232 1.7347234759768071e-015 -11.745000000000003 -8.2166542851172331 1.700000000000002 0 F #
-8 loop $-1 -1 -1 $-1 $-1 $14 $5 T -11.616654285117232 -1.6999999999999984 -16.745000000000005 -8.2166542851172331 1.9429134318318569e-015 -11.745000000000003 periphery $9 T #
-9 cone-surface $-1 -1 -1 $-1 -9.9166542851172323 1.7347234759768071e-015 -21.253948401598208 0 0 1 1.7000000000000002 0 0 1 I I 0 1 1.7000000000000002 forward I I I I #
-10 integer_attrib-name_attrib-gen-attrib $-1 -1 $-1 $-1 $7 2 1 2 1 1 1 1 1 1 1 1 1 1 1 0 1 1 1 @17 基体零件-master-1 0 #
-11 face $15 -1 -1 $-1 $16 $17 $4 $-1 $18 reversed single T -5.0164999999999997 -5.0164999999999997 -13.745000000000003 5.0164999999999997 6.1434406679226979e-016 0 F #
-12 loop $-1 -1 -1 $-1 $-1 $19 $7 T -11.616654285117232 1.7347234759768071e-015 -11.745000000000003 -8.2166542851172331 1.700000000000002 0 periphery $13 T #
-13 cone-surface $-1 -1 -1 $-1 -9.9166542851172323 1.7347234759768071e-015 -21.253948401598208 0 0 1 1.7000000000000002 0 0 1 I I 0 1 1.7000000000000002 forward I I I I #
-14 coedge $-1 -1 -1 $-1 $20 $21 $22 $23 reversed $8 $-1 #
-15 integer_attrib-name_attrib-gen-attrib $-1 -1 $-1 $-1 $11 2 1 2 1 1 1 1 1 1 1 1 1 1 1 0 1 1 1 @17 基体零件-master-1 0 #
-16 face $24 -1 -1 $-1 $25 $26 $4 $-1 $27 forward single T -14.588011588478942 0 -13.745000000000001 14.588011588478942 14.588011588478942 0 F #
-17 loop $-1 -1 -1 $-1 $-1 $28 $11 T -5.0164999999999997 -5.0164999999999997 -13.745000000000003 5.0164999999999997 6.1434406679226979e-016 0 periphery $18 T #
-18 cone-surface $-1 -1 -1 $-1 0 0 0 0 0 1 5.0164999999999997 0 0 1 I I 0 1 5.0164999999999997 forward I I I I #
-19 coedge $-1 -1 -1 $-1 $29 $30 $31 $32 forward $12 $-1 #
-20 coedge $-1 -1 -1 $-1 $33 $14 $34 $35 reversed $8 $-1 #
-21 coedge $-1 -1 -1 $-1 $14 $33 $36 $37 forward $8 $-1 #
-22 coedge $-1 -1 -1 $-1 $38 $39 $14 $23 forward $40 $-1 #
-23 edge $-1 -1 -1 $-1 $41 0 $42 3.1415926535897931 $22 $43 forward @7 unknown T -11.616654285117232 -1.6999999999999984 -11.745000000000003 -8.2166542851172331 1.9429134318318569e-015 -11.745000000000003 #
-24 integer_attrib-name_attrib-gen-attrib $-1 -1 $-1 $-1 $16 2 1 2 1 1 1 1 1 1 1 1 1 1 1 0 1 1 1 @17 基体零件-master-1 0 #
-25 face $44 -1 -1 $-1 $45 $46 $4 $-1 $47 reversed single T 8.2166542851172295 -1.7000000000000699 -13.745000000000003 11.61665428511723 -6.9614429952211441e-014 0 F #
-26 loop $-1 -1 -1 $-1 $-1 $48 $16 T -14.588011588478942 0 -13.745000000000001 14.588011588478942 14.588011588478942 0 periphery $27 F #
-27 cone-surface $-1 -1 -1 $-1 0 0 0.99999999999999656 0 0 -1 -14.588011588478942 0 0 1 I I 0 1 14.588011588478942 forward I I I I #
-28 coedge $-1 -1 -1 $-1 $49 $50 $51 $52 forward $17 $-1 #
-29 coedge $-1 -1 -1 $-1 $53 $19 $39 $54 forward $12 $-1 #
-30 coedge $-1 -1 -1 $-1 $19 $53 $38 $55 reversed $12 $-1 #
-31 coedge $-1 -1 -1 $-1 $36 $34 $19 $32 reversed $56 $-1 #
-32 edge $-1 -1 -1 $-1 $42 -3.1415926535897931 $41 0 $19 $57 forward @7 unknown T -11.616654285117232 1.7347234759768071e-015 -11.745000000000003 -8.2166542851172331 1.700000000000002 -11.745000000000003 #
-33 coedge $-1 -1 -1 $-1 $21 $20 $58 $59 forward $8 $-1 #
-34 coedge $-1 -1 -1 $-1 $31 $60 $20 $35 forward $56 $-1 #
-35 edge $-1 -1 -1 $-1 $61 0.0045089484015982039 $41 0.0095089484015982058 $34 $62 forward @7 unknown T -8.2166542851172331 1.7347234759768071e-015 -16.745000000000005 -8.2166542851172331 1.7347234759768071e-015 -11.745000000000003 #
-36 coedge $-1 -1 -1 $-1 $60 $31 $21 $37 reversed $56 $-1 #
-37 edge $-1 -1 -1 $-1 $63 0.0045089484015982039 $42 0.0095089484015982058 $21 $64 forward @7 unknown T -11.616654285117232 1.9429134318318569e-015 -16.745000000000005 -11.616654285117232 1.9429134318318569e-015 -11.745000000000003 #
-38 coedge $-1 -1 -1 $-1 $65 $22 $30 $55 forward $40 $-1 #
-39 coedge $-1 -1 -1 $-1 $22 $65 $29 $54 reversed $40 $-1 #
-40 loop $-1 -1 -1 $-1 $-1 $22 $66 T -11.616654285117232 -1.6999999999999984 -11.745000000000003 -8.2166542851172331 1.9429134318318569e-015 0 periphery $9 T #
-41 vertex $-1 -1 -1 $-1 $54 $67 #
-42 vertex $-1 -1 -1 $-1 $55 $68 #
-43 ellipse-curve $-1 -1 -1 $-1 -9.9166542851172323 1.7347234759768071e-015 -11.745000000000003 0 0 -1 1.7000000000000002 0 0 1 I I #
-44 integer_attrib-name_attrib-gen-attrib $-1 -1 $-1 $-1 $25 2 1 2 1 1 1 1 1 1 1 1 1 1 1 0 1 1 1 @17 基体零件-master-1 0 #
-45 face $69 -1 -1 $-1 $70 $71 $4 $-1 $72 reversed single T -9.5290741295017476 -6.5820587469665046 -13.745000000000003 -7.1290741295017481 -5.3820587469665044 -11.745000000000003 F #
-46 loop $-1 -1 -1 $-1 $-1 $73 $25 T 8.2166542851172295 -1.7000000000000699 -13.745000000000003 11.61665428511723 -6.9614429952211441e-014 0 periphery $47 T #
-47 cone-surface $-1 -1 -1 $-1 9.9166542851172288 -6.9822619908066486e-014 -22.625801765053804 0 0 1 1.7000000000000002 0 0 1 I I 0 1 1.7000000000000002 forward I I I I #
-48 coedge $-1 -1 -1 $-1 $74 $75 $76 $77 forward $26 $-1 #
-49 coedge $-1 -1 -1 $-1 $78 $28 $79 $80 forward $17 $-1 #
-50 coedge $-1 -1 -1 $-1 $28 $78 $81 $82 reversed $17 $-1 #
-51 coedge $-1 -1 -1 $-1 $83 $83 $28 $52 reversed $84 $-1 #
-52 edge $-1 -1 -1 $-1 $85 0 $86 3.1415926535897931 $28 $87 forward @7 unknown T -5.0164999999999997 -5.0164999999999997 -13.745000000000003 5.0164999999999997 6.1434406679226979e-016 -13.745000000000003 #
-53 coedge $-1 -1 -1 $-1 $30 $29 $88 $89 reversed $12 $-1 #
-54 edge $-1 -1 -1 $-1 $41 0.0095089484015982058 $90 0.021253948401598208 $29 $91 forward @7 unknown T -8.2166542851172331 1.7347234759768071e-015 -11.745000000000003 -8.2166542851172331 1.7347234759768071e-015 0 #
-55 edge $-1 -1 -1 $-1 $42 0.0095089484015982058 $92 0.021253948401598208 $38 $93 forward @7 unknown T -11.616654285117232 1.9429134318318569e-015 -11.745000000000003 -11.616654285117232 1.9429134318318569e-015 0 #
-56 loop $-1 -1 -1 $-1 $-1 $31 $94 T -11.616654285117232 1.7347234759768071e-015 -16.745000000000005 -8.2166542851172331 1.700000000000002 -11.745000000000003 periphery $13 T #
-57 ellipse-curve $-1 -1 -1 $-1 -9.9166542851172323 1.7347234759768071e-015 -11.745000000000003 0 0 -1 1.7000000000000002 0 0 1 I I #
-58 coedge $-1 -1 -1 $-1 $95 $95 $33 $59 reversed $96 $-1 #
-59 edge $-1 -1 -1 $-1 $61 -3.1415926535897931 $63 1.2246467991473525e-016 $33 $97 forward @7 unknown T -11.616654285117232 -1.6999999999999984 -16.745000000000005 -8.2166542851172331 1.9429134318318569e-015 -16.745000000000005 #
-60 coedge $-1 -1 -1 $-1 $34 $36 $95 $98 forward $56 $-1 #
-61 vertex $-1 -1 -1 $-1 $98 $99 #
-62 straight-curve $-1 -1 -1 $-1 -8.2166542851172331 1.7347234759768071e-015 -21.253948401598208 0 0 1000 I I #
-63 vertex $-1 -1 -1 $-1 $37 $100 #
-64 straight-curve $-1 -1 -1 $-1 -11.616654285117232 1.9429134318318569e-015 -21.253948401598208 0 0 1000 I I #
-65 coedge $-1 -1 -1 $-1 $39 $38 $101 $102 reversed $40 $-1 #
-66 face $103 -1 -1 $-1 $104 $40 $4 $-1 $9 reversed single T -11.616654285117232 -1.6999999999999984 -11.745000000000003 -8.2166542851172331 1.9429134318318569e-015 0 F #
-67 point $-1 -1 -1 $-1 -8.2166542851172331 1.7347234759768071e-015 -11.745000000000003 #
-68 point $-1 -1 -1 $-1 -11.616654285117232 1.9429134318318569e-015 -11.745000000000003 #
-69 integer_attrib-name_attrib-gen-attrib $-1 -1 $-1 $-1 $45 2 1 2 1 1 1 1 1 1 1 1 1 1 1 0 1 1 1 @17 基体零件-master-1 0 #
-70 face $105 -1 -1 $-1 $66 $106 $4 $-1 $107 reversed single T -9.5290741295017494 4.1820587469665043 -13.745000000000003 -7.1290741295017472 5.3820587469665044 -11.745000000000003 F #
-71 loop $-1 -1 -1 $-1 $-1 $108 $45 T -9.5290741295017476 -6.5820587469665046 -13.745000000000003 -7.1290741295017481 -5.3820587469665044 -11.745000000000003 periphery $72 T #
-72 cone-surface $-1 -1 -1 $-1 -8.3290741295017483 -5.3820587469665044 -11.745000000000003 -0 -0 -1 -1.1999999999999997 0 0 1 I I 0 1 1.1999999999999997 forward I I I I #
-73 coedge $-1 -1 -1 $-1 $109 $110 $111 $112 reversed $46 $-1 #
-74 coedge $-1 -1 -1 $-1 $113 $48 $114 $115 forward $26 $-1 #
-75 coedge $-1 -1 -1 $-1 $48 $113 $116 $117 reversed $26 $-1 #
-76 coedge $-1 -1 -1 $-1 $118 $118 $48 $77 reversed $119 $-1 #
-77 edge $-1 -1 -1 $-1 $120 0 $121 3.1415926535897931 $48 $122 forward @7 unknown T -14.588011588478942 0 0 14.588011588478942 14.588011588478942 0 #
-78 coedge $-1 -1 -1 $-1 $50 $49 $123 $124 forward $17 $-1 #
-79 coedge $-1 -1 -1 $-1 $125 $126 $49 $80 reversed $127 $-1 #
-80 edge $-1 -1 -1 $-1 $86 -0.013745000000000002 $128 0 $49 $129 forward @7 unknown T -5.0164999999999997 6.1434406679226979e-016 -13.745000000000003 -5.0164999999999997 6.1434406679226979e-016 0 #
-81 coedge $-1 -1 -1 $-1 $126 $125 $50 $82 forward $127 $-1 #
-82 edge $-1 -1 -1 $-1 $85 -0.013745000000000002 $130 0 $81 $131 forward @7 unknown T 5.0164999999999997 0 -13.745000000000003 5.0164999999999997 0 0 #
-83 coedge $-1 -1 -1 $-1 $51 $51 $125 $132 reversed $84 $-1 #
-84 loop $-1 -1 -1 $-1 $133 $51 $134 T -5.0164999999999997 -5.0164999999999997 -13.745000000000003 5.0164999999999997 5.0164999999999997 -13.745000000000003 hole $135 T #
-85 vertex $-1 -1 -1 $-1 $132 $136 #
-86 vertex $-1 -1 -1 $-1 $80 $137 #
-87 ellipse-curve $-1 -1 -1 $-1 0 0 -13.745000000000003 -0 -0 -1 5.0164999999999997 0 0 1 I I #
-88 coedge $-1 -1 -1 $-1 $101 $101 $53 $89 forward $138 $-1 #
-89 edge $-1 -1 -1 $-1 $92 1.2246467991473525e-016 $90 3.1415926535897931 $88 $139 forward @7 unknown T -11.616654285117232 1.7347234759768071e-015 0 -8.2166542851172331 1.700000000000002 0 #
-90 vertex $-1 -1 -1 $-1 $89 $140 #
-91 straight-curve $-1 -1 -1 $-1 -8.2166542851172331 1.7347234759768071e-015 -21.253948401598208 0 0 1000 I I #
-92 vertex $-1 -1 -1 $-1 $55 $141 #
-93 straight-curve $-1 -1 -1 $-1 -11.616654285117232 1.9429134318318569e-015 -21.253948401598208 0 0 1000 I I #
-94 face $142 -1 -1 $-1 $143 $56 $4 $-1 $13 reversed single T -11.616654285117232 1.7347234759768071e-015 -16.745000000000005 -8.2166542851172331 1.700000000000002 -11.745000000000003 F #
-95 coedge $-1 -1 -1 $-1 $58 $58 $60 $98 reversed $96 $-1 #
-96 loop $-1 -1 -1 $-1 $-1 $58 $144 T -11.616654285117232 -1.6999999999999984 -16.745000000000005 -8.2166542851172331 1.700000000000002 -16.745000000000005 hole $145 F #
-97 ellipse-curve $-1 -1 -1 $-1 -9.9166542851172323 1.7347234759768071e-015 -16.745000000000005 0 0 -1 -1.7000000000000002 0 0 1 I I #
-98 edge $-1 -1 -1 $-1 $63 1.2246467991473525e-016 $61 3.1415926535897931 $60 $146 forward @7 unknown T -11.616654285117232 1.7347234759768071e-015 -16.745000000000005 -8.2166542851172331 1.700000000000002 -16.745000000000005 #
-99 point $-1 -1 -1 $-1 -8.2166542851172331 1.7347234759768071e-015 -16.745000000000005 #
-100 point $-1 -1 -1 $-1 -11.616654285117232 1.9429134318318569e-015 -16.745000000000005 #
-101 coedge $-1 -1 -1 $-1 $88 $88 $65 $102 forward $138 $-1 #
-102 edge $-1 -1 -1 $-1 $90 -3.1415926535897931 $92 1.2246467991473525e-016 $101 $147 forward @7 unknown T -11.616654285117232 -1.6999999999999984 0 -8.2166542851172331 1.9429134318318569e-015 0 #
-103 integer_attrib-name_attrib-gen-attrib $-1 -1 $-1 $-1 $66 2 1 2 1 1 1 1 1 1 1 1 1 1 1 0 1 1 1 @17 基体零件-master-1 0 #
-104 face $148 -1 -1 $-1 $149 $150 $4 $-1 $151 forward single T -12.716654285117233 1.7347234759768071e-015 -16.745000000000005 -7.1166542851172316 2.800000000000002 -13.745000000000003 F #
-105 integer_attrib-name_attrib-gen-attrib $-1 -1 $-1 $-1 $70 2 1 2 1 1 1 1 1 1 1 1 1 1 1 0 1 1 1 @17 基体零件-master-1 0 #
-106 loop $-1 -1 -1 $-1 $-1 $152 $70 T -9.5290741295017494 4.1820587469665043 -13.745000000000003 -7.1290741295017472 5.3820587469665044 -11.745000000000003 periphery $107 T #
-107 cone-surface $-1 -1 -1 $-1 -8.3290741295017483 5.3820587469665044 -11.745000000000003 -0 -0 -1 -1.1999999999999997 0 0 1 I I 0 1 1.1999999999999997 forward I I I I #
-108 coedge $-1 -1 -1 $-1 $153 $154 $155 $156 reversed $71 $-1 #
-109 coedge $-1 -1 -1 $-1 $157 $73 $158 $159 forward $46 $-1 #
-110 coedge $-1 -1 -1 $-1 $73 $157 $160 $161 reversed $46 $-1 #
-111 coedge $-1 -1 -1 $-1 $162 $162 $73 $112 forward $163 $-1 #
-112 edge $-1 -1 -1 $-1 $164 -3.1415926535897931 $165 0 $111 $166 forward @7 unknown T 8.2166542851172295 -1.7000000000000699 -13.745000000000003 11.61665428511723 -6.9614429952211441e-014 -13.745000000000003 #
-113 coedge $-1 -1 -1 $-1 $75 $74 $167 $168 forward $26 $-1 #
-114 coedge $-1 -1 -1 $-1 $169 $170 $74 $115 reversed $171 $-1 #
-115 edge $-1 -1 -1 $-1 $121 0.00099999999999999655 $172 0.014744999999999998 $74 $173 forward @7 unknown T 14.588011588478942 1.7865161697755233e-015 -13.745000000000001 14.588011588478942 1.7865161697755233e-015 0 #
-116 coedge $-1 -1 -1 $-1 $170 $169 $75 $117 forward $171 $-1 #
-117 edge $-1 -1 -1 $-1 $120 0.00099999999999999655 $174 0.014744999999999998 $116 $175 forward @7 unknown T -14.588011588478942 0 -13.745000000000001 -14.588011588478942 0 0 #
-118 coedge $-1 -1 -1 $-1 $76 $76 $169 $176 reversed $119 $-1 #
-119 loop $-1 -1 -1 $-1 $177 $76 $149 T -14.588011588478942 -14.588011588478942 0 14.588011588478942 14.588011588478942 0 periphery $178 T #
-120 vertex $-1 -1 -1 $-1 $176 $179 #
-121 vertex $-1 -1 -1 $-1 $115 $180 #
-122 ellipse-curve $-1 -1 -1 $-1 0 0 0 0 0 -1 -14.588011588478942 0 0 1 I I #
-123 coedge $-1 -1 -1 $-1 $181 $181 $78 $124 reversed $182 $-1 #
-124 edge $-1 -1 -1 $-1 $128 -1.2246467991473535e-016 $130 3.1415926535897931 $78 $183 forward @7 unknown T -5.0164999999999997 -5.0164999999999997 0 5.0164999999999997 6.1434406679226979e-016 0 #
-125 coedge $-1 -1 -1 $-1 $81 $79 $83 $132 forward $127 $-1 #
-126 coedge $-1 -1 -1 $-1 $79 $81 $181 $184 forward $127 $-1 #
-127 loop $-1 -1 -1 $-1 $-1 $79 $185 T -5.0164999999999997 0 -13.745000000000003 5.0164999999999997 5.0164999999999997 0 periphery $186 T #
-128 vertex $-1 -1 -1 $-1 $80 $187 #
-129 straight-curve $-1 -1 -1 $-1 -5.0164999999999997 6.1434406679226979e-016 0 0 0 1000 I I #
-130 vertex $-1 -1 -1 $-1 $124 $188 #
-131 straight-curve $-1 -1 -1 $-1 5.0164999999999997 0 0 0 0 1000 I I #
-132 edge $-1 -1 -1 $-1 $86 -3.1415926535897931 $85 0 $125 $189 forward @7 unknown T -5.0164999999999997 0 -13.745000000000003 5.0164999999999997 5.0164999999999997 -13.745000000000003 #
-133 loop $-1 -1 -1 $-1 $190 $191 $134 T -9.5290741295017476 -6.5820587469665046 -13.745000000000003 -7.1290741295017481 -4.1820587469665043 -13.745000000000003 hole $135 T #
-134 face $192 -1 -1 $-1 $193 $163 $4 $-1 $135 reversed single T -14.588011588478942 -14.588011588478942 -13.745000000000003 14.588011588478942 14.588011588478942 -13.745000000000001 F #
-135 plane-surface $-1 -1 -1 $-1 0 0 -13.745000000000003 0 0 1 1000 0 0 forward_v I I I I #
-136 point $-1 -1 -1 $-1 5.0164999999999997 0 -13.745000000000003 #
-137 point $-1 -1 -1 $-1 -5.0164999999999997 6.1434406679226979e-016 -13.745000000000003 #
-138 loop $-1 -1 -1 $-1 $182 $101 $149 T -11.616654285117232 -1.6999999999999984 0 -8.2166542851172331 1.700000000000002 0 hole $178 T #
-139 ellipse-curve $-1 -1 -1 $-1 -9.9166542851172323 1.7347234759768071e-015 0 0 0 -1 -1.7000000000000002 0 0 1 I I #
-140 point $-1 -1 -1 $-1 -8.2166542851172331 1.7347234759768071e-015 0 #
-141 point $-1 -1 -1 $-1 -11.616654285117232 1.9429134318318569e-015 0 #
-142 integer_attrib-name_attrib-gen-attrib $-1 -1 $-1 $-1 $94 2 1 2 1 1 1 1 1 1 1 1 1 1 1 0 1 1 1 @17 基体零件-master-1 0 #
-143 face $194 -1 -1 $-1 $195 $196 $4 $-1 $197 reversed single T -9.5290741295017494 5.3820587469665044 -13.745000000000003 -7.1290741295017472 6.5820587469665046 -11.745000000000003 F #
-144 face $198 -1 -1 $-1 $94 $199 $4 $-1 $145 forward single T -12.716654285117233 -2.7999999999999985 -16.745000000000005 -7.1166542851172316 2.800000000000002 -16.745000000000005 F #
-145 plane-surface $-1 -1 -1 $-1 -9.9166542851172323 1.7347234759768071e-015 -16.745000000000005 0 0 -1 -1000 0 0 forward_v I I I I #
-146 ellipse-curve $-1 -1 -1 $-1 -9.9166542851172323 1.7347234759768071e-015 -16.745000000000005 0 0 -1 -1.7000000000000002 0 0 1 I I #
-147 ellipse-curve $-1 -1 -1 $-1 -9.9166542851172323 1.7347234759768071e-015 0 0 0 -1 -1.7000000000000002 0 0 1 I I #
-148 integer_attrib-name_attrib-gen-attrib $-1 -1 $-1 $-1 $104 2 1 2 1 1 1 1 1 1 1 1 1 1 1 0 1 1 1 @17 基体零件-master-1 0 #
-149 face $200 -1 -1 $-1 $201 $119 $4 $-1 $178 reversed single T -14.588011588478942 -14.588011588478942 0 14.588011588478942 14.588011588478942 0 F #
-150 loop $-1 -1 -1 $-1 $-1 $202 $104 T -12.716654285117233 1.7347234759768071e-015 -16.745000000000005 -7.1166542851172316 2.800000000000002 -13.745000000000003 periphery $151 F #
-151 cone-surface $-1 -1 -1 $-1 -9.9166542851172323 1.7347234759768071e-015 -16.745000000000005 0 0 1 2.8000000000000003 0 0 1 I I 0 1 2.8000000000000003 forward I I I I #
-152 coedge $-1 -1 -1 $-1 $203 $204 $205 $206 reversed $106 $-1 #
-153 coedge $-1 -1 -1 $-1 $207 $108 $208 $209 forward $71 $-1 #
-154 coedge $-1 -1 -1 $-1 $108 $207 $210 $211 reversed $71 $-1 #
-155 coedge $-1 -1 -1 $-1 $212 $212 $108 $156 forward $213 $-1 #
-156 edge $-1 -1 -1 $-1 $214 -3.1415926535897931 $215 0 $155 $216 forward @7 unknown T -9.5290741295017476 -6.5820587469665046 -11.745000000000003 -7.1290741295017481 -5.3820587469665044 -11.745000000000003 #
-157 coedge $-1 -1 -1 $-1 $110 $109 $217 $218 reversed $46 $-1 #
-158 coedge $-1 -1 -1 $-1 $219 $220 $109 $159 reversed $221 $-1 #
-159 edge $-1 -1 -1 $-1 $164 0.0088808017650538022 $222 0.022625801765053806 $109 $223 forward @7 unknown T 8.2166542851172295 -6.9614429952211441e-014 -13.745000000000003 8.2166542851172295 -6.9614429952211441e-014 0 #
-160 coedge $-1 -1 -1 $-1 $220 $219 $110 $161 forward $221 $-1 #
-161 edge $-1 -1 -1 $-1 $165 0.0088808017650538022 $224 0.022625801765053806 $160 $225 forward @7 unknown T 11.61665428511723 -6.9822619908066486e-014 -13.745000000000003 11.61665428511723 -6.9822619908066486e-014 0 #
-162 coedge $-1 -1 -1 $-1 $111 $111 $219 $226 forward $163 $-1 #
-163 loop $-1 -1 -1 $-1 $227 $162 $134 T 8.2166542851172295 -1.7000000000000699 -13.745000000000003 11.61665428511723 1.6999999999999305 -13.745000000000003 hole $135 T #
-164 vertex $-1 -1 -1 $-1 $159 $228 #
-165 vertex $-1 -1 -1 $-1 $112 $229 #
-166 ellipse-curve $-1 -1 -1 $-1 9.9166542851172288 -6.9822619908066486e-014 -13.745000000000003 0 0 1 1.7000000000000002 0 0 1 I I #
-167 coedge $-1 -1 -1 $-1 $230 $230 $113 $168 reversed $227 $-1 #
-168 edge $-1 -1 -1 $-1 $172 -3.1415926535897931 $174 0 $113 $231 forward @7 unknown T -14.588011588478942 0 -13.745000000000001 14.588011588478942 14.588011588478942 -13.745000000000001 #
-169 coedge $-1 -1 -1 $-1 $116 $114 $118 $176 forward $171 $-1 #
-170 coedge $-1 -1 -1 $-1 $114 $116 $230 $232 forward $171 $-1 #
-171 loop $-1 -1 -1 $-1 $-1 $114 $233 T -14.588011588478942 -14.588011588478942 -13.745000000000001 14.588011588478942 1.7865161697755233e-015 0 periphery $234 F #
-172 vertex $-1 -1 -1 $-1 $115 $235 #
-173 straight-curve $-1 -1 -1 $-1 14.588011588478942 1.7865161697755233e-015 0.99999999999999656 0 0 -1000 I I #
-174 vertex $-1 -1 -1 $-1 $168 $236 #
-175 straight-curve $-1 -1 -1 $-1 -14.588011588478942 0 0.99999999999999656 0 0 -1000 I I #
-176 edge $-1 -1 -1 $-1 $121 -3.1415926535897931 $120 0 $169 $237 forward @7 unknown T -14.588011588478942 -14.588011588478942 0 14.588011588478942 1.7865161697755233e-015 0 #
-177 loop $-1 -1 -1 $-1 $138 $217 $149 T 8.2166542851172295 -1.7000000000000699 0 11.61665428511723 1.6999999999999305 0 hole $178 T #
-178 plane-surface $-1 -1 -1 $-1 18.94347231230433 23.673588931822682 0 0 0 -1 -1000 0 0 forward_v I I I I #
-179 point $-1 -1 -1 $-1 -14.588011588478942 0 0 #
-180 point $-1 -1 -1 $-1 14.588011588478942 1.7865161697755233e-015 0 #
-181 coedge $-1 -1 -1 $-1 $123 $123 $126 $184 reversed $182 $-1 #
-182 loop $-1 -1 -1 $-1 $-1 $181 $149 T -5.0164999999999997 -5.0164999999999997 0 5.0164999999999997 5.0164999999999997 0 hole $178 T #
-183 ellipse-curve $-1 -1 -1 $-1 0 0 0 0 0 1 -5.0164999999999997 0 0 1 I I #
-184 edge $-1 -1 -1 $-1 $130 -3.1415926535897931 $128 -1.2246467991473535e-016 $126 $238 forward @7 unknown T -5.0164999999999997 0 0 5.0164999999999997 5.0164999999999997 0 #
-185 face $239 -1 -1 $-1 $-1 $127 $4 $-1 $186 reversed single T -5.0164999999999997 0 -13.745000000000003 5.0164999999999997 5.0164999999999997 0 F #
-186 cone-surface $-1 -1 -1 $-1 0 0 0 0 0 1 5.0164999999999997 0 0 1 I I 0 1 5.0164999999999997 forward I I I I #
-187 point $-1 -1 -1 $-1 -5.0164999999999997 6.1434406679226979e-016 0 #
-188 point $-1 -1 -1 $-1 5.0164999999999997 0 0 #
-189 ellipse-curve $-1 -1 -1 $-1 0 0 -13.745000000000003 -0 -0 -1 5.0164999999999997 0 0 1 I I #
-190 loop $-1 -1 -1 $-1 $240 $241 $134 T -9.5290741295017494 4.1820587469665043 -13.745000000000003 -7.1290741295017472 6.5820587469665046 -13.745000000000003 hole $135 T #
-191 coedge $-1 -1 -1 $-1 $242 $242 $243 $244 reversed $133 $-1 #
-192 integer_attrib-name_attrib-gen-attrib $-1 -1 $-1 $-1 $134 2 1 2 1 1 1 1 1 1 1 1 1 1 1 0 1 1 1 @17 基体零件-master-1 0 #
-193 face $245 -1 -1 $-1 $233 $221 $4 $-1 $246 reversed single T 8.2166542851172295 -6.9822619908066486e-014 -13.745000000000003 11.61665428511723 1.6999999999999305 0 F #
-194 integer_attrib-name_attrib-gen-attrib $-1 -1 $-1 $-1 $143 2 1 2 1 1 1 1 1 1 1 1 1 1 1 0 1 1 1 @17 基体零件-master-1 0 #
-195 face $247 -1 -1 $-1 $134 $248 $4 $-1 $249 reversed single T -9.5290741295017476 -5.3820587469665044 -13.745000000000003 -7.1290741295017481 -4.1820587469665043 -11.745000000000003 F #
-196 loop $-1 -1 -1 $-1 $-1 $250 $143 T -9.5290741295017494 5.3820587469665044 -13.745000000000003 -7.1290741295017472 6.5820587469665046 -11.745000000000003 periphery $197 T #
-197 cone-surface $-1 -1 -1 $-1 -8.3290741295017483 5.3820587469665044 -11.745000000000003 -0 -0 -1 -1.1999999999999997 0 0 1 I I 0 1 1.1999999999999997 forward I I I I #
-198 integer_attrib-name_attrib-gen-attrib $-1 -1 $-1 $-1 $144 2 1 2 1 1 1 1 1 1 1 1 1 1 1 0 1 1 1 @17 基体零件-master-1 0 #
-199 loop $-1 -1 -1 $-1 $96 $251 $144 T -12.716654285117233 -2.7999999999999985 -16.745000000000005 -7.1166542851172316 2.800000000000002 -16.745000000000005 periphery $145 F #
-200 integer_attrib-name_attrib-gen-attrib $-1 -1 $-1 $-1 $149 2 1 2 1 1 1 1 1 1 1 1 1 1 1 0 1 1 1 @17 基体零件-master-1 0 #
-201 face $252 -1 -1 $-1 $253 $254 $4 $-1 $255 reversed single T -9.5290741295017494 4.1820587469665043 -11.745000000000003 -7.1290741295017472 6.5820587469665046 -11.745000000000003 F #
-202 coedge $-1 -1 -1 $-1 $256 $257 $258 $259 reversed $150 $-1 #
-203 coedge $-1 -1 -1 $-1 $260 $152 $250 $261 forward $106 $-1 #
-204 coedge $-1 -1 -1 $-1 $152 $260 $262 $263 reversed $106 $-1 #
-205 coedge $-1 -1 -1 $-1 $264 $264 $152 $206 forward $254 $-1 #
-206 edge $-1 -1 -1 $-1 $265 0 $266 3.1415926535897931 $205 $267 forward @7 unknown T -9.5290741295017494 4.1820587469665043 -11.745000000000003 -7.1290741295017472 5.3820587469665044 -11.745000000000003 #
-207 coedge $-1 -1 -1 $-1 $154 $153 $242 $268 forward $71 $-1 #
-208 coedge $-1 -1 -1 $-1 $269 $243 $153 $209 reversed $248 $-1 #
-209 edge $-1 -1 -1 $-1 $214 -0 $270 0.002 $153 $271 forward @7 unknown T -7.1290741295017481 -5.3820587469665044 -13.745000000000003 -7.1290741295017481 -5.3820587469665044 -11.745000000000003 #
-210 coedge $-1 -1 -1 $-1 $243 $269 $154 $211 forward $248 $-1 #
-211 edge $-1 -1 -1 $-1 $215 -0 $272 0.002 $210 $273 forward @7 unknown T -9.5290741295017476 -5.3820587469665044 -13.745000000000003 -9.5290741295017476 -5.3820587469665044 -11.745000000000003 #
-212 coedge $-1 -1 -1 $-1 $155 $155 $269 $274 forward $213 $-1 #
-213 loop $-1 -1 -1 $-1 $-1 $212 $253 T -9.5290741295017476 -6.5820587469665046 -11.745000000000003 -7.1290741295017481 -4.1820587469665043 -11.745000000000003 periphery $275 F #
-214 vertex $-1 -1 -1 $-1 $209 $276 #
-215 vertex $-1 -1 -1 $-1 $156 $277 #
-216 ellipse-curve $-1 -1 -1 $-1 -8.3290741295017483 -5.3820587469665044 -11.745000000000003 0 0 -1 -1.1999999999999997 0 0 1 I I #
-217 coedge $-1 -1 -1 $-1 $278 $278 $157 $218 forward $177 $-1 #
-218 edge $-1 -1 -1 $-1 $224 -3.1415926535897931 $222 1.2246467991473219e-016 $217 $279 forward @7 unknown T 8.2166542851172295 -1.7000000000000699 0 11.61665428511723 -6.9614429952211441e-014 0 #
-219 coedge $-1 -1 -1 $-1 $160 $158 $162 $226 reversed $221 $-1 #
-220 coedge $-1 -1 -1 $-1 $158 $160 $278 $280 reversed $221 $-1 #
-221 loop $-1 -1 -1 $-1 $-1 $158 $193 T 8.2166542851172295 -6.9822619908066486e-014 -13.745000000000003 11.61665428511723 1.6999999999999305 0 periphery $246 T #
-222 vertex $-1 -1 -1 $-1 $159 $281 #
-223 straight-curve $-1 -1 -1 $-1 8.2166542851172295 -6.9614429952211441e-014 -22.625801765053804 0 0 1000 I I #
-224 vertex $-1 -1 -1 $-1 $280 $282 #
-225 straight-curve $-1 -1 -1 $-1 11.61665428511723 -6.9822619908066486e-014 -22.625801765053804 0 0 1000 I I #
-226 edge $-1 -1 -1 $-1 $165 0 $164 3.1415926535897931 $162 $283 forward @7 unknown T 8.2166542851172295 -6.9822619908066486e-014 -13.745000000000003 11.61665428511723 1.6999999999999305 -13.745000000000003 #
-227 loop $-1 -1 -1 $-1 $84 $230 $134 T -14.588011588478942 -14.588011588478942 -13.745000000000001 14.588011588478942 14.588011588478942 -13.745000000000001 periphery $135 T #
-228 point $-1 -1 -1 $-1 8.2166542851172295 -6.9614429952211441e-014 -13.745000000000003 #
-229 point $-1 -1 -1 $-1 11.61665428511723 -6.9822619908066486e-014 -13.745000000000003 #
-230 coedge $-1 -1 -1 $-1 $167 $167 $170 $232 reversed $227 $-1 #
-231 ellipse-curve $-1 -1 -1 $-1 0 0 -13.745000000000001 0 0 1 -14.588011588478942 0 0 1 I I #
-232 edge $-1 -1 -1 $-1 $174 0 $172 3.1415926535897931 $170 $284 forward @7 unknown T -14.588011588478942 -14.588011588478942 -13.745000000000001 14.588011588478942 1.7865161697755233e-015 -13.745000000000001 #
-233 face $285 -1 -1 $-1 $185 $171 $4 $-1 $234 forward single T -14.588011588478942 -14.588011588478942 -13.745000000000001 14.588011588478942 1.7865161697755233e-015 0 F #
-234 cone-surface $-1 -1 -1 $-1 0 0 0.99999999999999656 0 0 -1 -14.588011588478942 0 0 1 I I 0 1 14.588011588478942 forward I I I I #
-235 point $-1 -1 -1 $-1 14.588011588478942 1.7865161697755233e-015 -13.745000000000001 #
-236 point $-1 -1 -1 $-1 -14.588011588478942 0 -13.745000000000001 #
-237 ellipse-curve $-1 -1 -1 $-1 0 0 0 0 0 -1 -14.588011588478942 0 0 1 I I #
-238 ellipse-curve $-1 -1 -1 $-1 0 0 0 0 0 1 -5.0164999999999997 0 0 1 I I #
-239 integer_attrib-name_attrib-gen-attrib $-1 -1 $-1 $-1 $185 2 1 2 1 1 1 1 1 1 1 1 1 1 1 0 1 1 1 @17 基体零件-master-1 0 #
-240 loop $-1 -1 -1 $-1 $-1 $286 $134 T -12.716654285117233 -2.7999999999999985 -13.745000000000003 -7.1166542851172316 2.800000000000002 -13.745000000000003 hole $135 T #
-241 coedge $-1 -1 -1 $-1 $287 $287 $288 $289 reversed $190 $-1 #
-242 coedge $-1 -1 -1 $-1 $191 $191 $207 $268 reversed $133 $-1 #
-243 coedge $-1 -1 -1 $-1 $208 $210 $191 $244 forward $248 $-1 #
-244 edge $-1 -1 -1 $-1 $272 0 $270 3.1415926535897931 $243 $290 forward @7 unknown T -9.5290741295017476 -5.3820587469665044 -13.745000000000003 -7.1290741295017481 -4.1820587469665043 -13.745000000000003 #
-245 integer_attrib-name_attrib-gen-attrib $-1 -1 $-1 $-1 $193 2 1 2 1 1 1 1 1 1 1 1 1 1 1 0 1 1 1 @17 基体零件-master-1 0 #
-246 cone-surface $-1 -1 -1 $-1 9.9166542851172288 -6.9822619908066486e-014 -22.625801765053804 0 0 1 1.7000000000000002 0 0 1 I I 0 1 1.7000000000000002 forward I I I I #
-247 integer_attrib-name_attrib-gen-attrib $-1 -1 $-1 $-1 $195 2 1 2 1 1 1 1 1 1 1 1 1 1 1 0 1 1 1 @17 基体零件-master-1 0 #
-248 loop $-1 -1 -1 $-1 $-1 $208 $195 T -9.5290741295017476 -5.3820587469665044 -13.745000000000003 -7.1290741295017481 -4.1820587469665043 -11.745000000000003 periphery $249 T #
-249 cone-surface $-1 -1 -1 $-1 -8.3290741295017483 -5.3820587469665044 -11.745000000000003 -0 -0 -1 -1.1999999999999997 0 0 1 I I 0 1 1.1999999999999997 forward I I I I #
-250 coedge $-1 -1 -1 $-1 $291 $288 $203 $261 reversed $196 $-1 #
-251 coedge $-1 -1 -1 $-1 $258 $258 $292 $293 forward $199 $-1 #
-252 integer_attrib-name_attrib-gen-attrib $-1 -1 $-1 $-1 $201 2 1 2 1 1 1 1 1 1 1 1 1 1 1 0 1 1 1 @17 基体零件-master-1 0 #
-253 face $294 -1 -1 $-1 $295 $213 $4 $-1 $275 forward single T -9.5290741295017476 -6.5820587469665046 -11.745000000000003 -7.1290741295017481 -4.1820587469665043 -11.745000000000003 F #
-254 loop $-1 -1 -1 $-1 $-1 $264 $201 T -9.5290741295017494 4.1820587469665043 -11.745000000000003 -7.1290741295017472 6.5820587469665046 -11.745000000000003 unknown #
-255 plane-surface $-1 -1 -1 $-1 -8.3290741295017483 5.3820587469665044 -11.745000000000003 0 0 1 1000 0 0 forward_v I I I I #
-256 coedge $-1 -1 -1 $-1 $296 $202 $297 $298 forward $150 $-1 #
-257 coedge $-1 -1 -1 $-1 $202 $296 $299 $300 reversed $150 $-1 #
-258 coedge $-1 -1 -1 $-1 $251 $251 $202 $259 forward $199 $-1 #
-259 edge $-1 -1 -1 $-1 $301 1.2246467991473535e-016 $302 3.1415926535897931 $258 $303 forward @7 unknown T -12.716654285117233 1.7347234759768071e-015 -16.745000000000005 -7.1166542851172316 2.800000000000002 -16.745000000000005 #
-260 coedge $-1 -1 -1 $-1 $204 $203 $287 $304 forward $106 $-1 #
-261 edge $-1 -1 -1 $-1 $265 -0 $305 0.002 $203 $306 forward @7 unknown T -7.1290741295017481 5.3820587469665044 -13.745000000000003 -7.1290741295017481 5.3820587469665044 -11.745000000000003 #
-262 coedge $-1 -1 -1 $-1 $288 $291 $204 $263 forward $196 $-1 #
-263 edge $-1 -1 -1 $-1 $266 -0 $307 0.002 $262 $308 forward @7 unknown T -9.5290741295017476 5.3820587469665044 -13.745000000000003 -9.5290741295017476 5.3820587469665044 -11.745000000000003 #
-264 coedge $-1 -1 -1 $-1 $205 $205 $291 $309 forward $254 $-1 #
-265 vertex $-1 -1 -1 $-1 $261 $310 #
-266 vertex $-1 -1 -1 $-1 $206 $311 #
-267 ellipse-curve $-1 -1 -1 $-1 -8.3290741295017483 5.3820587469665044 -11.745000000000003 0 0 -1 1.2000000000000006 0 0 1 I I #
-268 edge $-1 -1 -1 $-1 $270 -3.1415926535897931 $272 0 $207 $312 forward @7 unknown T -9.5290741295017476 -6.5820587469665046 -13.745000000000003 -7.1290741295017481 -5.3820587469665044 -13.745000000000003 #
-269 coedge $-1 -1 -1 $-1 $210 $208 $212 $274 reversed $248 $-1 #
-270 vertex $-1 -1 -1 $-1 $209 $313 #
-271 straight-curve $-1 -1 -1 $-1 -7.1290741295017481 -5.3820587469665044 -11.745000000000003 -0 -0 -1000 I I #
-272 vertex $-1 -1 -1 $-1 $268 $314 #
-273 straight-curve $-1 -1 -1 $-1 -9.5290741295017476 -5.3820587469665044 -11.745000000000003 -0 -0 -1000 I I #
-274 edge $-1 -1 -1 $-1 $215 0 $214 3.1415926535897931 $212 $315 forward @7 unknown T -9.5290741295017476 -5.3820587469665044 -11.745000000000003 -7.1290741295017481 -4.1820587469665043 -11.745000000000003 #
-275 plane-surface $-1 -1 -1 $-1 -8.3290741295017483 -5.3820587469665044 -11.745000000000003 0 0 -1 -1000 0 0 forward_v I I I I #
-276 point $-1 -1 -1 $-1 -7.1290741295017481 -5.3820587469665044 -11.745000000000003 #
-277 point $-1 -1 -1 $-1 -9.5290741295017476 -5.3820587469665044 -11.745000000000003 #
-278 coedge $-1 -1 -1 $-1 $217 $217 $220 $280 forward $177 $-1 #
-279 ellipse-curve $-1 -1 -1 $-1 9.9166542851172288 -6.9822619908066486e-014 0 0 0 -1 -1.7000000000000002 0 0 1 I I #
-280 edge $-1 -1 -1 $-1 $222 1.2246467991473219e-016 $224 3.1415926535897931 $278 $316 forward @7 unknown T 8.2166542851172295 -6.9822619908066486e-014 0 11.61665428511723 1.6999999999999305 0 #
-281 point $-1 -1 -1 $-1 8.2166542851172295 -6.9614429952211441e-014 0 #
-282 point $-1 -1 -1 $-1 11.61665428511723 -6.9822619908066486e-014 0 #
-283 ellipse-curve $-1 -1 -1 $-1 9.9166542851172288 -6.9822619908066486e-014 -13.745000000000003 0 0 1 1.7000000000000002 0 0 1 I I #
-284 ellipse-curve $-1 -1 -1 $-1 0 0 -13.745000000000001 0 0 1 -14.588011588478942 0 0 1 I I #
-285 integer_attrib-name_attrib-gen-attrib $-1 -1 $-1 $-1 $233 2 1 2 1 1 1 1 1 1 1 1 1 1 1 0 1 1 1 @17 基体零件-master-1 0 #
-286 coedge $-1 -1 -1 $-1 $317 $317 $318 $319 reversed $240 $-1 #
-287 coedge $-1 -1 -1 $-1 $241 $241 $260 $304 reversed $190 $-1 #
-288 coedge $-1 -1 -1 $-1 $250 $262 $241 $289 forward $196 $-1 #
-289 edge $-1 -1 -1 $-1 $307 -3.1415926535897931 $305 0 $288 $320 forward @7 unknown T -9.5290741295017494 5.3820587469665044 -13.745000000000003 -7.1290741295017472 6.5820587469665046 -13.745000000000003 #
-290 ellipse-curve $-1 -1 -1 $-1 -8.3290741295017483 -5.3820587469665044 -13.745000000000003 0 0 -1 -1.1999999999999997 0 0 1 I I #
-291 coedge $-1 -1 -1 $-1 $262 $250 $264 $309 reversed $196 $-1 #
-292 coedge $-1 -1 -1 $-1 $299 $297 $251 $293 reversed $321 $-1 #
-293 edge $-1 -1 -1 $-1 $302 -3.1415926535897931 $301 1.2246467991473535e-016 $251 $322 forward @7 unknown T -12.716654285117233 -2.7999999999999985 -16.745000000000005 -7.1166542851172316 2.0776245797380662e-015 -16.745000000000005 #
-294 integer_attrib-name_attrib-gen-attrib $-1 -1 $-1 $-1 $253 2 1 2 1 1 1 1 1 1 1 1 1 1 1 0 1 1 1 @17 基体零件-master-1 0 #
-295 face $323 -1 -1 $-1 $144 $321 $4 $-1 $324 forward single T -12.716654285117233 -2.7999999999999985 -16.745000000000005 -7.1166542851172316 2.0776245797380662e-015 -13.745000000000003 F #
-296 coedge $-1 -1 -1 $-1 $257 $256 $317 $325 forward $150 $-1 #
-297 coedge $-1 -1 -1 $-1 $292 $318 $256 $298 reversed $321 $-1 #
-298 edge $-1 -1 -1 $-1 $301 0 $326 0.0030000000000000018 $256 $327 forward @7 unknown T -12.716654285117233 2.0776245797380662e-015 -16.745000000000005 -12.716654285117233 2.0776245797380662e-015 -13.745000000000003 #
-299 coedge $-1 -1 -1 $-1 $318 $292 $257 $300 forward $321 $-1 #
-300 edge $-1 -1 -1 $-1 $302 0 $328 0.0030000000000000018 $299 $329 forward @7 unknown T -7.1166542851172316 1.7347234759768071e-015 -16.745000000000005 -7.1166542851172316 1.7347234759768071e-015 -13.745000000000003 #
-301 vertex $-1 -1 -1 $-1 $298 $330 #
-302 vertex $-1 -1 -1 $-1 $259 $331 #
-303 ellipse-curve $-1 -1 -1 $-1 -9.9166542851172323 1.7347234759768071e-015 -16.745000000000005 0 0 -1 -2.8000000000000003 0 0 1 I I #
-304 edge $-1 -1 -1 $-1 $305 0 $307 3.1415926535897931 $260 $332 forward @7 unknown T -9.5290741295017494 4.1820587469665043 -13.745000000000003 -7.1290741295017472 5.3820587469665044 -13.745000000000003 #
-305 vertex $-1 -1 -1 $-1 $261 $333 #
-306 straight-curve $-1 -1 -1 $-1 -7.1290741295017481 5.3820587469665044 -11.745000000000003 -0 -0 -1000 I I #
-307 vertex $-1 -1 -1 $-1 $304 $334 #
-308 straight-curve $-1 -1 -1 $-1 -9.5290741295017476 5.3820587469665044 -11.745000000000003 -0 -0 -1000 I I #
-309 edge $-1 -1 -1 $-1 $266 -3.1415926535897931 $265 0 $264 $335 forward @7 unknown T -9.5290741295017494 5.3820587469665044 -11.745000000000003 -7.1290741295017472 6.5820587469665046 -11.745000000000003 #
-310 point $-1 -1 -1 $-1 -7.1290741295017481 5.3820587469665044 -11.745000000000003 #
-311 point $-1 -1 -1 $-1 -9.5290741295017476 5.3820587469665044 -11.745000000000003 #
-312 ellipse-curve $-1 -1 -1 $-1 -8.3290741295017483 -5.3820587469665044 -13.745000000000003 0 0 -1 -1.1999999999999997 0 0 1 I I #
-313 point $-1 -1 -1 $-1 -7.1290741295017481 -5.3820587469665044 -13.745000000000003 #
-314 point $-1 -1 -1 $-1 -9.5290741295017476 -5.3820587469665044 -13.745000000000003 #
-315 ellipse-curve $-1 -1 -1 $-1 -8.3290741295017483 -5.3820587469665044 -11.745000000000003 0 0 -1 -1.1999999999999997 0 0 1 I I #
-316 ellipse-curve $-1 -1 -1 $-1 9.9166542851172288 -6.9822619908066486e-014 0 0 0 -1 -1.7000000000000002 0 0 1 I I #
-317 coedge $-1 -1 -1 $-1 $286 $286 $296 $325 reversed $240 $-1 #
-318 coedge $-1 -1 -1 $-1 $297 $299 $286 $319 forward $321 $-1 #
-319 edge $-1 -1 -1 $-1 $328 0 $326 3.1415926535897931 $318 $336 forward @7 unknown T -12.716654285117233 -2.7999999999999985 -13.745000000000003 -7.1166542851172316 2.0776245797380662e-015 -13.745000000000003 #
-320 ellipse-curve $-1 -1 -1 $-1 -8.3290741295017483 5.3820587469665044 -13.745000000000003 0 0 -1 1.2000000000000006 0 0 1 I I #
-321 loop $-1 -1 -1 $-1 $-1 $297 $295 T -12.716654285117233 -2.7999999999999985 -16.745000000000005 -7.1166542851172316 2.0776245797380662e-015 -13.745000000000003 periphery $324 F #
-322 ellipse-curve $-1 -1 -1 $-1 -9.9166542851172323 1.7347234759768071e-015 -16.745000000000005 0 0 -1 -2.8000000000000003 0 0 1 I I #
-323 integer_attrib-name_attrib-gen-attrib $-1 -1 $-1 $-1 $295 2 1 2 1 1 1 1 1 1 1 1 1 1 1 0 1 1 1 @17 基体零件-master-1 0 #
-324 cone-surface $-1 -1 -1 $-1 -9.9166542851172323 1.7347234759768071e-015 -16.745000000000005 0 0 1 2.8000000000000003 0 0 1 I I 0 1 2.8000000000000003 forward I I I I #
-325 edge $-1 -1 -1 $-1 $326 -3.1415926535897931 $328 0 $296 $337 forward @7 unknown T -12.716654285117233 1.7347234759768071e-015 -13.745000000000003 -7.1166542851172316 2.800000000000002 -13.745000000000003 #
-326 vertex $-1 -1 -1 $-1 $298 $338 #
-327 straight-curve $-1 -1 -1 $-1 -12.716654285117233 2.0776245797380662e-015 -16.745000000000005 0 0 1000 I I #
-328 vertex $-1 -1 -1 $-1 $325 $339 #
-329 straight-curve $-1 -1 -1 $-1 -7.1166542851172316 1.7347234759768071e-015 -16.745000000000005 0 0 1000 I I #
-330 point $-1 -1 -1 $-1 -12.716654285117233 2.0776245797380662e-015 -16.745000000000005 #
-331 point $-1 -1 -1 $-1 -7.1166542851172316 1.7347234759768071e-015 -16.745000000000005 #
-332 ellipse-curve $-1 -1 -1 $-1 -8.3290741295017483 5.3820587469665044 -13.745000000000003 0 0 -1 1.2000000000000006 0 0 1 I I #
-333 point $-1 -1 -1 $-1 -7.1290741295017481 5.3820587469665044 -13.745000000000003 #
-334 point $-1 -1 -1 $-1 -9.5290741295017476 5.3820587469665044 -13.745000000000003 #
-335 ellipse-curve $-1 -1 -1 $-1 -8.3290741295017483 5.3820587469665044 -11.745000000000003 0 0 -1 1.2000000000000006 0 0 1 I I #
-336 ellipse-curve $-1 -1 -1 $-1 -9.9166542851172323 1.7347234759768071e-015 -13.745000000000003 -0 -0 -1 2.8000000000000003 0 0 1 I I #
-337 ellipse-curve $-1 -1 -1 $-1 -9.9166542851172323 1.7347234759768071e-015 -13.745000000000003 -0 -0 -1 2.8000000000000003 0 0 1 I I #
-338 point $-1 -1 -1 $-1 -12.716654285117233 2.0776245797380662e-015 -13.745000000000003 #
-339 point $-1 -1 -1 $-1 -7.1166542851172316 1.7347234759768071e-015 -13.745000000000003 #
End-of-ACIS-data 