2300 0 1 0           
19 Example Application 12 ACIS 23.0 NT 24 Mon Jan 19 10:48:33 2015 
1 9.9999999999999995e-007 1e-010 
-0 body $1 -1 -1 $-1 $2 $-1 $-1 T -72.433640440943947 -59.262604896392496 0 72.433640440943947 59.262604896392496 131.20758272719257 #
-1 name_attrib-gen-attrib $-1 -1 $-1 $-1 $0 2 1 1 1 1 1 1 1 1 1 1 1 1 1 0 1 1 1 @5 part1 #
-2 lump $3 -1 -1 $-1 $-1 $4 $0 T -72.433640440943947 -59.262604896392496 0 72.433640440943947 59.262604896392496 131.20758272719257 #
-3 rgb_color-st-attrib $-1 -1 $-1 $-1 $2 2 1 2 1 1 1 1 1 1 1 1 1 1 1 0 1 1 1 1 1 1 #
-4 shell $-1 -1 -1 $-1 $-1 $-1 $5 $-1 $2 T -72.433640440943947 -59.262604896392496 0 72.433640440943947 59.262604896392496 131.20758272719257 #
-5 face $6 -1 -1 $-1 $7 $8 $4 $-1 $9 reversed single T -25.865700950654585 -25.865700950654585 0 25.865700950654585 25.865700950654585 0 F #
-6 integer_attrib-name_attrib-gen-attrib $-1 -1 $-1 $-1 $5 2 1 2 1 1 1 1 1 1 1 1 1 1 1 0 1 1 1 @22 基体零件-part1 whole-1 0 #
-7 face $10 -1 -1 $-1 $11 $12 $4 $-1 $13 reversed single T -72.433640440943947 59.262604896392496 0 72.433640440943947 59.262604896392496 131.20758272719257 F #
-8 loop $-1 -1 -1 $-1 $-1 $14 $5 T -25.865700950654585 -25.865700950654585 0 25.865700950654585 25.865700950654585 0 periphery $9 T #
-9 plane-surface $-1 -1 -1 $-1 0 0 0 0 0 1 1000 0 0 forward_v I I I I #
-10 integer_attrib-name_attrib-gen-attrib $-1 -1 $-1 $-1 $7 2 1 2 1 1 1 1 1 1 1 1 1 1 1 0 1 1 1 @22 基体零件-part1 whole-1 0 #
-11 face $15 -1 -1 $-1 $16 $17 $4 $-1 $18 reversed single T -72.433640440943947 -59.262604896392496 0 -72.433640440943947 59.262604896392496 131.20758272719257 F #
-12 loop $-1 -1 -1 $-1 $-1 $19 $7 T -72.433640440943947 59.262604896392496 0 72.433640440943947 59.262604896392496 131.20758272719257 periphery $13 T #
-13 plane-surface $-1 -1 -1 $-1 -72.433640440943947 59.262604896392496 125.00000000000009 0 -1 0 0 0 -1000 forward_v I I I I #
-14 coedge $-1 -1 -1 $-1 $20 $20 $21 $22 reversed $8 $-1 #
-15 integer_attrib-name_attrib-gen-attrib $-1 -1 $-1 $-1 $11 2 1 2 1 1 1 1 1 1 1 1 1 1 1 0 1 1 1 @22 基体零件-part1 whole-1 0 #
-16 face $23 -1 -1 $-1 $24 $25 $4 $-1 $26 reversed single T 72.433640440943947 -59.262604896392496 0 72.433640440943947 59.262604896392496 131.20758272719257 F #
-17 loop $-1 -1 -1 $-1 $-1 $27 $11 T -72.433640440943947 -59.262604896392496 0 -72.433640440943947 59.262604896392496 131.20758272719257 periphery $18 T #
-18 plane-surface $-1 -1 -1 $-1 -72.433640440943947 59.262604896392496 125.00000000000009 1 0 0 0 0 -1000 forward_v I I I I #
-19 coedge $-1 -1 -1 $-1 $28 $29 $30 $31 forward $12 $-1 #
-20 coedge $-1 -1 -1 $-1 $14 $14 $32 $33 reversed $8 $-1 #
-21 coedge $-1 -1 -1 $-1 $32 $32 $14 $22 forward $34 $-1 #
-22 edge $-1 -1 -1 $-1 $35 0 $36 3.1415926535897931 $21 $37 forward @7 unknown T -25.865700950654585 0 0 25.865700950654585 25.865700950654585 0 #
-23 integer_attrib-name_attrib-gen-attrib $-1 -1 $-1 $-1 $16 2 1 2 1 1 1 1 1 1 1 1 1 1 1 0 1 1 1 @22 基体零件-part1 whole-1 0 #
-24 face $38 -1 -1 $-1 $39 $40 $4 $-1 $41 reversed single T -72.433640440943947 -59.262604896392496 0 72.433640440943947 -59.262604896392496 131.20758272719257 F #
-25 loop $-1 -1 -1 $-1 $-1 $42 $16 T 72.433640440943947 -59.262604896392496 0 72.433640440943947 59.262604896392496 131.20758272719257 periphery $26 T #
-26 plane-surface $-1 -1 -1 $-1 72.433640440943947 59.262604896392496 125.00000000000009 -1 0 0 0 0 1000 forward_v I I I I #
-27 coedge $-1 -1 -1 $-1 $43 $44 $45 $46 reversed $17 $-1 #
-28 coedge $-1 -1 -1 $-1 $47 $19 $48 $49 forward $12 $-1 #
-29 coedge $-1 -1 -1 $-1 $19 $47 $43 $50 forward $12 $-1 #
-30 coedge $-1 -1 -1 $-1 $45 $51 $19 $31 reversed $52 $-1 #
-31 edge $-1 -1 -1 $-1 $53 -0.019112985720762508 $54 0.12575429516112538 $19 $55 forward @7 unknown T -72.433640440943947 59.262604896392496 131.20758272719257 72.433640440943947 59.262604896392496 131.20758272719257 #
-32 coedge $-1 -1 -1 $-1 $21 $21 $20 $33 forward $34 $-1 #
-33 edge $-1 -1 -1 $-1 $36 -3.1415926535897931 $35 0 $32 $56 forward @7 unknown T -25.865700950654585 -25.865700950654585 0 25.865700950654585 3.1676347876921788e-015 0 #
-34 loop $-1 -1 -1 $-1 $57 $21 $39 T -25.865700950654585 -25.865700950654585 0 25.865700950654585 25.865700950654585 0 hole $9 T #
-35 vertex $-1 -1 -1 $-1 $22 $58 #
-36 vertex $-1 -1 -1 $-1 $22 $59 #
-37 ellipse-curve $-1 -1 -1 $-1 0 0 0 0 0 1 25.865700950654585 0 0 1 I I #
-38 integer_attrib-name_attrib-gen-attrib $-1 -1 $-1 $-1 $24 2 1 2 1 1 1 1 1 1 1 1 1 1 1 0 1 1 1 @22 基体零件-part1 whole-1 0 #
-39 face $60 -1 -1 $-1 $61 $34 $4 $-1 $9 reversed single T -72.433640440943947 -59.262604896392496 0 72.433640440943947 59.262604896392496 0 F #
-40 loop $-1 -1 -1 $-1 $-1 $62 $24 T -72.433640440943947 -59.262604896392496 0 72.433640440943947 -59.262604896392496 131.20758272719257 periphery $41 T #
-41 plane-surface $-1 -1 -1 $-1 -72.433640440943947 -59.262604896392496 125.00000000000009 0 1 0 0 0 1000 forward_v I I I I #
-42 coedge $-1 -1 -1 $-1 $63 $48 $51 $64 reversed $25 $-1 #
-43 coedge $-1 -1 -1 $-1 $65 $27 $29 $50 reversed $17 $-1 #
-44 coedge $-1 -1 -1 $-1 $27 $65 $66 $67 forward $17 $-1 #
-45 coedge $-1 -1 -1 $-1 $68 $30 $27 $46 forward $52 $-1 #
-46 edge $-1 -1 -1 $-1 $53 0 $69 0.118525209792785 $45 $70 forward @7 unknown T -72.433640440943947 -59.262604896392496 131.20758272719257 -72.433640440943947 59.262604896392496 131.20758272719257 #
-47 coedge $-1 -1 -1 $-1 $29 $28 $71 $72 forward $12 $-1 #
-48 coedge $-1 -1 -1 $-1 $42 $73 $28 $49 reversed $25 $-1 #
-49 edge $-1 -1 -1 $-1 $54 -0.0062075827271924882 $74 0.12500000000000008 $28 $75 forward @7 unknown T 72.433640440943947 59.262604896392496 0 72.433640440943947 59.262604896392496 131.20758272719257 #
-50 edge $-1 -1 -1 $-1 $76 -0.12500000000000008 $53 0.0062075827271924882 $29 $77 forward @7 unknown T -72.433640440943947 59.262604896392496 0 -72.433640440943947 59.262604896392496 131.20758272719257 #
-51 coedge $-1 -1 -1 $-1 $30 $68 $42 $64 forward $52 $-1 #
-52 loop $-1 -1 -1 $-1 $-1 $30 $61 T -72.433640440943947 -59.262604896392496 131.20758272719257 72.433640440943947 59.262604896392496 131.20758272719257 periphery $78 F #
-53 vertex $-1 -1 -1 $-1 $31 $79 #
-54 vertex $-1 -1 -1 $-1 $31 $80 #
-55 straight-curve $-1 -1 -1 $-1 -53.320654720181437 59.262604896392496 131.20758272719257 1000 0 0 I I #
-56 ellipse-curve $-1 -1 -1 $-1 0 0 0 0 0 1 25.865700950654585 0 0 1 I I #
-57 loop $-1 -1 -1 $-1 $-1 $81 $39 T -72.433640440943947 -59.262604896392496 0 72.433640440943947 59.262604896392496 0 periphery $9 T #
-58 point $-1 -1 -1 $-1 25.865700950654585 0 0 #
-59 point $-1 -1 -1 $-1 -25.865700950654585 3.1676347876921788e-015 0 #
-60 integer_attrib-name_attrib-gen-attrib $-1 -1 $-1 $-1 $39 2 1 2 1 1 1 1 1 1 1 1 1 1 1 0 1 1 1 @22 基体零件-part1 whole-1 0 #
-61 face $82 -1 -1 $-1 $-1 $52 $4 $-1 $78 forward single T -72.433640440943947 -59.262604896392496 131.20758272719257 72.433640440943947 59.262604896392496 131.20758272719257 F #
-62 coedge $-1 -1 -1 $-1 $66 $83 $68 $84 reversed $40 $-1 #
-63 coedge $-1 -1 -1 $-1 $73 $42 $83 $85 forward $25 $-1 #
-64 edge $-1 -1 -1 $-1 $86 -0.118525209792785 $54 0 $51 $87 forward @7 unknown T 72.433640440943947 -59.262604896392496 131.20758272719257 72.433640440943947 59.262604896392496 131.20758272719257 #
-65 coedge $-1 -1 -1 $-1 $44 $43 $88 $89 forward $17 $-1 #
-66 coedge $-1 -1 -1 $-1 $90 $62 $44 $67 reversed $40 $-1 #
-67 edge $-1 -1 -1 $-1 $91 -0.12500000000000008 $69 0.0062075827271924882 $44 $92 forward @7 unknown T -72.433640440943947 -59.262604896392496 0 -72.433640440943947 -59.262604896392496 131.20758272719257 #
-68 coedge $-1 -1 -1 $-1 $51 $45 $62 $84 forward $52 $-1 #
-69 vertex $-1 -1 -1 $-1 $67 $93 #
-70 straight-curve $-1 -1 -1 $-1 -72.433640440943947 59.262604896392496 131.20758272719257 0 -1000 0 I I #
-71 coedge $-1 -1 -1 $-1 $94 $88 $47 $72 reversed $57 $-1 #
-72 edge $-1 -1 -1 $-1 $74 -0.072433640440943942 $76 0.072433640440943942 $47 $95 forward @7 unknown T -72.433640440943947 59.262604896392496 0 72.433640440943947 59.262604896392496 0 #
-73 coedge $-1 -1 -1 $-1 $48 $63 $94 $96 forward $25 $-1 #
-74 vertex $-1 -1 -1 $-1 $49 $97 #
-75 straight-curve $-1 -1 -1 $-1 72.433640440943947 59.262604896392496 125.00000000000009 -0 -0 -1000 I I #
-76 vertex $-1 -1 -1 $-1 $50 $98 #
-77 straight-curve $-1 -1 -1 $-1 -72.433640440943947 59.262604896392496 125.00000000000009 0 0 1000 I I #
-78 plane-surface $-1 -1 -1 $-1 -53.320654720181437 59.262604896392496 131.20758272719257 0 0 1 1000 0 0 forward_v I I I I #
-79 point $-1 -1 -1 $-1 -72.433640440943947 59.262604896392496 131.20758272719257 #
-80 point $-1 -1 -1 $-1 72.433640440943947 59.262604896392496 131.20758272719257 #
-81 coedge $-1 -1 -1 $-1 $88 $94 $90 $99 forward $57 $-1 #
-82 integer_attrib-name_attrib-gen-attrib $-1 -1 $-1 $-1 $61 2 1 2 1 1 1 1 1 1 1 1 1 1 1 0 1 1 1 @22 基体零件-part1 whole-1 0 #
-83 coedge $-1 -1 -1 $-1 $62 $90 $63 $85 reversed $40 $-1 #
-84 edge $-1 -1 -1 $-1 $69 0 $86 0.14486728088188788 $68 $100 forward @7 unknown T -72.433640440943947 -59.262604896392496 131.20758272719257 72.433640440943947 -59.262604896392496 131.20758272719257 #
-85 edge $-1 -1 -1 $-1 $86 -0.0062075827271924882 $101 0.12500000000000008 $63 $102 forward @7 unknown T 72.433640440943947 -59.262604896392496 0 72.433640440943947 -59.262604896392496 131.20758272719257 #
-86 vertex $-1 -1 -1 $-1 $85 $103 #
-87 straight-curve $-1 -1 -1 $-1 72.433640440943947 59.262604896392496 131.20758272719257 0 1000 0 I I #
-88 coedge $-1 -1 -1 $-1 $71 $81 $65 $89 reversed $57 $-1 #
-89 edge $-1 -1 -1 $-1 $76 -0.059262604896392498 $91 0.059262604896392498 $65 $104 forward @7 unknown T -72.433640440943947 -59.262604896392496 0 -72.433640440943947 59.262604896392496 0 #
-90 coedge $-1 -1 -1 $-1 $83 $66 $81 $99 reversed $40 $-1 #
-91 vertex $-1 -1 -1 $-1 $67 $105 #
-92 straight-curve $-1 -1 -1 $-1 -72.433640440943947 -59.262604896392496 125.00000000000009 0 0 1000 I I #
-93 point $-1 -1 -1 $-1 -72.433640440943947 -59.262604896392496 131.20758272719257 #
-94 coedge $-1 -1 -1 $-1 $81 $71 $73 $96 reversed $57 $-1 #
-95 straight-curve $-1 -1 -1 $-1 0 59.262604896392496 0 -1000 0 0 I I #
-96 edge $-1 -1 -1 $-1 $101 -0.059262604896392498 $74 0.059262604896392498 $73 $106 forward @7 unknown T 72.433640440943947 -59.262604896392496 0 72.433640440943947 59.262604896392496 0 #
-97 point $-1 -1 -1 $-1 72.433640440943947 59.262604896392496 0 #
-98 point $-1 -1 -1 $-1 -72.433640440943947 59.262604896392496 0 #
-99 edge $-1 -1 -1 $-1 $101 -0.14486728088188788 $91 0 $81 $107 forward @7 unknown T -72.433640440943947 -59.262604896392496 0 72.433640440943947 -59.262604896392496 0 #
-100 straight-curve $-1 -1 -1 $-1 -72.433640440943947 -59.262604896392496 131.20758272719257 1000 0 0 I I #
-101 vertex $-1 -1 -1 $-1 $85 $108 #
-102 straight-curve $-1 -1 -1 $-1 72.433640440943947 -59.262604896392496 125.00000000000009 0 0 -1000 I I #
-103 point $-1 -1 -1 $-1 72.433640440943947 -59.262604896392496 131.20758272719257 #
-104 straight-curve $-1 -1 -1 $-1 -72.433640440943947 0 0 0 -1000 0 I I #
-105 point $-1 -1 -1 $-1 -72.433640440943947 -59.262604896392496 0 #
-106 straight-curve $-1 -1 -1 $-1 72.433640440943947 0 0 0 1000 0 I I #
-107 straight-curve $-1 -1 -1 $-1 -72.433640440943947 -59.262604896392496 0 -1000 0 0 I I #
-108 point $-1 -1 -1 $-1 72.433640440943947 -59.262604896392496 0 #
End-of-ACIS-data 